<svg width="1410" height="831" viewBox="0 0 1410 831" fill="none" xmlns="http://www.w3.org/2000/svg">
<path d="M-26.3438 193.407C-56.0806 146.93 -84.7304 92.5596 -84.8771 38.4728C-86.5836 37.5439 -88.6535 36.4525 -91.1711 35.3192C-108.521 27.5091 -133.232 -3.00025 -153.474 0.559402C-170.347 3.52646 -184.63 20.4251 -193.127 32.2361C-213.823 61.003 -224.194 96.0958 -232.855 128.956C-241.739 162.669 -247.251 201.743 -249.368 236.189C-252.409 285.686 -255.767 336.354 -252.672 385.966C-248.751 448.821 -251.967 510.776 -254.713 573.566C-257.591 639.386 -249.619 705.057 -245.986 770.791C-243.857 809.31 -240.048 848.79 -232.96 886.918C-226.303 922.724 -207.982 958.22 -190.776 991.11C-164.171 1041.96 -112.789 1069.96 -54.993 1087.36C37.3846 1115.18 133.243 1127.15 229.561 1136.36C341.111 1147.02 453.101 1151.95 565.116 1154.65C751.444 1159.14 937.665 1178.44 1124.01 1181.02C1207.01 1182.17 1293.63 1175.24 1353.97 1120.94C1377.41 1099.84 1405.05 1074.87 1408.2 1043.67C1411.21 1013.84 1409.72 979.266 1391.12 952.843C1363.47 913.583 1317.78 879.088 1277.33 850.643C1218.51 809.28 1141.58 792.776 1069.96 778.294C944.37 752.904 823.424 732.974 720.76 659.559C685.824 634.577 657.173 603.785 623.455 577.739C588.966 551.096 559.466 520.143 529.096 489.999C512.905 473.928 500.419 457.981 480.559 445.167C462.725 433.659 445.943 421.199 427.797 410.049C396.046 390.54 361.126 382.529 325.12 370.824C257.518 348.846 189.978 330.359 125.035 302.692C70.4645 279.444 4.67659 241.89 -26.3438 193.407Z" fill="#F7FFE9"/>
</svg>
