<svg width="1240" height="976" viewBox="0 0 1240 976" fill="none" xmlns="http://www.w3.org/2000/svg">
<path d="M1291.2 801.644C1315.87 843.554 1338.96 892.042 1335.3 937.788C1336.84 938.724 1338.71 939.828 1340.99 941.007C1356.74 949.134 1377.8 977.101 1397.06 975.868C1413.12 974.841 1427.71 961.806 1436.52 952.565C1457.98 930.058 1470.18 901.296 1480.61 874.271C1491.32 846.545 1499.24 813.99 1503.64 785.05C1509.97 743.465 1516.68 700.917 1517.25 658.696C1517.98 605.204 1525.34 553.101 1532.33 500.249C1539.65 444.848 1536.77 388.62 1537.97 332.72C1538.67 299.963 1537.86 266.245 1533.88 233.385C1530.14 202.524 1515.42 170.902 1501.57 141.581C1480.16 96.2451 1433.87 68.0612 1380.81 48.2727C1296.01 16.644 1206.84 -1.89683 1117.03 -18.1361C1013.02 -36.9435 908.2 -50.9435 803.198 -63.0597C628.536 -83.2138 455.013 -115.889 280.205 -134.427C202.336 -142.685 120.508 -144.432 60.0362 -103.815C36.5383 -88.0324 8.83715 -69.3477 3.6923 -43.2443C-1.2285 -18.2782 -2.26118 11.0816 13.3606 35.0576C36.5715 70.6812 77.0575 103.86 113.049 131.463C165.384 171.602 236.466 192.31 302.713 210.843C418.868 243.338 531.049 270.808 622.309 341.897C653.364 366.088 678.11 394.64 707.947 419.624C738.466 445.179 763.998 473.942 790.404 502.096C804.482 517.107 815.088 531.687 832.84 544.266C848.78 555.561 863.665 567.571 879.924 578.592C908.372 597.875 940.603 607.714 973.595 620.773C1035.54 645.291 1097.67 666.853 1156.71 695.948C1206.33 720.396 1265.47 757.926 1291.2 801.644Z" fill="#F7FFE9"/>
</svg>
