<svg width="114" height="49" viewBox="0 0 114 49" fill="none" xmlns="http://www.w3.org/2000/svg">
<path d="M92.2262 45.2992C91.4621 45.2992 90.8253 45.194 90.3159 44.9836C89.8176 44.7621 89.4189 44.4631 89.1199 44.0865C88.8209 43.71 88.6105 43.2726 88.4887 42.7742C88.3669 42.2648 88.3059 41.7222 88.3059 41.1463C88.3059 40.4819 88.3835 39.834 88.5385 39.2028C88.7046 38.5605 88.9815 37.9902 89.3691 37.4918C89.7567 36.9935 90.2661 36.5948 90.8973 36.2958C91.5396 35.9857 92.337 35.8307 93.2894 35.8307C94.6847 35.8307 95.6814 36.174 96.2794 36.8606C96.8885 37.5361 97.193 38.4885 97.193 39.7178C97.193 40.0611 97.1653 40.4431 97.11 40.8639C97.0657 41.2737 96.9715 41.6834 96.8276 42.0932C96.6947 42.5029 96.5064 42.9016 96.2628 43.2892C96.0302 43.6768 95.7312 44.0201 95.3658 44.3191C95.0003 44.6181 94.5574 44.8562 94.0369 45.0334C93.5275 45.2106 92.9239 45.2992 92.2262 45.2992ZM93.007 38.04C92.5861 38.04 92.2484 38.1507 91.9937 38.3722C91.75 38.5826 91.5618 38.8429 91.4289 39.153C91.3071 39.452 91.224 39.7731 91.1797 40.1164C91.1465 40.4487 91.1299 40.731 91.1299 40.9636C91.1299 41.6945 91.2462 42.2316 91.4787 42.5749C91.7113 42.9182 92.0435 43.0899 92.4754 43.0899C92.863 43.0899 93.1786 42.968 93.4223 42.7244C93.677 42.4808 93.8708 42.1873 94.0036 41.844C94.1476 41.5007 94.2417 41.1408 94.286 40.7643C94.3414 40.3877 94.3691 40.0721 94.3691 39.8174C94.3691 39.2637 94.2639 38.8318 94.0535 38.5217C93.8541 38.2006 93.5053 38.04 93.007 38.04ZM102.281 38.2393C102.248 38.6602 102.209 39.0754 102.165 39.4852C102.132 39.8949 102.099 40.2825 102.066 40.648C102.032 41.0134 102.005 41.3401 101.982 41.6281C101.971 41.916 101.966 42.1375 101.966 42.2925C101.966 42.5804 101.999 42.7742 102.066 42.8739C102.132 42.9625 102.243 43.0068 102.398 43.0068C102.52 43.0068 102.625 42.9847 102.713 42.9404C102.802 42.8961 102.885 42.8462 102.963 42.7909C103.04 42.7355 103.107 42.6856 103.162 42.6414C103.228 42.5971 103.3 42.5749 103.378 42.5749C103.455 42.5749 103.527 42.6192 103.594 42.7078C103.66 42.7964 103.693 43.0013 103.693 43.3224C103.693 43.9315 103.527 44.4132 103.195 44.7676C102.863 45.122 102.293 45.2992 101.484 45.2992C100.687 45.2992 100.094 45.1164 99.7067 44.751C99.3302 44.3745 99.1419 43.8041 99.1419 43.04C99.1419 42.8739 99.1475 42.6801 99.1585 42.4586C99.1807 42.2261 99.2084 41.9271 99.2416 41.5616C99.2748 41.1962 99.3136 40.7477 99.3579 40.2161C99.4132 39.6845 99.4686 39.0256 99.524 38.2393H98.6436C98.555 38.2393 98.4996 38.2227 98.4775 38.1895C98.4664 38.1452 98.4609 38.0843 98.4609 38.0068L98.5107 37.1596C98.5218 37.0156 98.5384 36.8772 98.5605 36.7443C98.5938 36.6004 98.6491 36.473 98.7266 36.3623C98.8152 36.2515 98.9371 36.1629 99.0921 36.0965C99.2471 36.03 99.452 35.9968 99.7067 35.9968C99.7842 35.7975 99.8728 35.5594 99.9725 35.2825C100.072 35.0057 100.172 34.7399 100.271 34.4852C100.371 34.2194 100.465 33.9979 100.554 33.8207C100.654 33.6435 100.742 33.5549 100.82 33.5549H101.301C101.767 33.5549 102.088 33.6989 102.265 33.9868C102.442 34.2748 102.531 34.6181 102.531 35.0167C102.531 35.2382 102.514 35.5649 102.481 35.9968H104.225C104.402 35.9968 104.491 36.0743 104.491 36.2294L104.424 37.1264C104.402 37.4586 104.308 37.7299 104.142 37.9403C103.987 38.1397 103.66 38.2393 103.162 38.2393H102.281ZM109.345 45.2992C108.858 45.2992 108.371 45.2383 107.884 45.1164C107.407 44.9946 106.975 44.7842 106.588 44.4852C106.211 44.1862 105.901 43.7875 105.658 43.2892C105.414 42.7909 105.292 42.1652 105.292 41.4121C105.292 41.1353 105.314 40.803 105.359 40.4154C105.403 40.0278 105.486 39.6292 105.608 39.2194C105.741 38.8097 105.918 38.4055 106.139 38.0068C106.372 37.597 106.671 37.2316 107.036 36.9104C107.402 36.5893 107.845 36.329 108.365 36.1297C108.886 35.9304 109.506 35.8307 110.226 35.8307C110.802 35.8307 111.289 35.8971 111.688 36.03C112.086 36.1629 112.407 36.3456 112.651 36.5782C112.895 36.7997 113.072 37.0599 113.183 37.3589C113.293 37.6579 113.349 37.9791 113.349 38.3224C113.349 38.8318 113.244 39.2637 113.033 39.6181C112.834 39.9725 112.568 40.2715 112.236 40.5151C111.915 40.7477 111.555 40.9304 111.156 41.0633C110.757 41.1962 110.364 41.3014 109.977 41.3789C109.589 41.4453 109.229 41.4896 108.897 41.5118C108.576 41.5229 108.327 41.5284 108.149 41.5284C108.149 41.7388 108.177 41.9492 108.232 42.1596C108.299 42.359 108.393 42.5361 108.515 42.6912C108.637 42.8462 108.797 42.9736 108.997 43.0732C109.196 43.1729 109.44 43.2227 109.727 43.2227C110.015 43.2227 110.237 43.1785 110.392 43.0899C110.558 42.9902 110.691 42.885 110.791 42.7742C110.89 42.6524 110.973 42.5472 111.04 42.4586C111.117 42.359 111.217 42.3091 111.339 42.3091C111.394 42.3091 111.488 42.3257 111.621 42.359C111.765 42.3811 111.909 42.4365 112.053 42.5251C112.197 42.6137 112.324 42.7355 112.435 42.8905C112.546 43.0456 112.601 43.2449 112.601 43.4885C112.601 43.8097 112.502 44.0865 112.302 44.3191C112.103 44.5517 111.843 44.7399 111.521 44.8839C111.211 45.0279 110.863 45.1331 110.475 45.1995C110.087 45.2659 109.711 45.2992 109.345 45.2992ZM109.661 38.04C109.417 38.04 109.207 38.112 109.03 38.2559C108.864 38.3888 108.72 38.5605 108.598 38.7709C108.487 38.9813 108.399 39.2139 108.332 39.4686C108.277 39.7233 108.232 39.9669 108.199 40.1995C108.886 40.1884 109.44 40.0721 109.86 39.8506C110.292 39.6292 110.508 39.3135 110.508 38.9038C110.508 38.6823 110.436 38.483 110.292 38.3058C110.159 38.1286 109.949 38.04 109.661 38.04Z" fill="#8DBE3D"/>
<path d="M17.4499 43.0732C17.4832 42.7078 17.5164 42.3257 17.5496 41.9271C17.5939 41.5284 17.6271 41.1463 17.6493 40.7809C17.6825 40.4154 17.7102 40.0887 17.7323 39.8008C17.7545 39.5129 17.7656 39.3025 17.7656 39.1696C17.7656 38.8816 17.6936 38.6269 17.5496 38.4055C17.4167 38.1729 17.1509 38.0566 16.7523 38.0566C16.2207 38.0566 15.7888 38.3058 15.4566 38.8041C15.1354 39.3025 14.9472 39.9669 14.8918 40.7975C14.8696 41.03 14.842 41.3567 14.8087 41.7776C14.7755 42.1873 14.7423 42.6081 14.7091 43.04C14.6758 43.4608 14.6426 43.8429 14.6094 44.1862C14.5873 44.5184 14.5762 44.7233 14.5762 44.8008C14.5762 44.9337 14.5485 45.0223 14.4931 45.0666C14.4488 45.1109 14.3547 45.1331 14.2107 45.1331H13.6127C13.2694 45.1331 12.987 45.0998 12.7655 45.0334C12.5551 44.9559 12.3835 44.8507 12.2506 44.7178C12.1288 44.5849 12.0402 44.4243 11.9848 44.236C11.9405 44.0367 11.9184 43.8097 11.9184 43.555C11.9184 43.3113 11.935 42.9736 11.9682 42.5417C12.0125 42.0987 12.0679 41.4952 12.1343 40.731C12.2008 39.9558 12.2783 38.9702 12.3669 37.7742C12.4555 36.5782 12.5496 35.0943 12.6493 33.3224C12.6603 33.0787 12.688 32.9348 12.7323 32.8905C12.7655 32.8573 12.8541 32.8406 12.9981 32.8406H13.6459C13.9782 32.8406 14.255 32.8794 14.4765 32.9569C14.698 33.0344 14.8752 33.1396 15.0081 33.2725C15.141 33.4054 15.2351 33.5605 15.2905 33.7377C15.3458 33.9038 15.3735 34.081 15.3735 34.2692C15.3735 34.4686 15.3514 34.8395 15.3071 35.3822C15.2739 35.9248 15.2296 36.5616 15.1742 37.2925C15.5064 36.7388 15.8719 36.3567 16.2705 36.1463C16.6803 35.9359 17.1952 35.8307 17.8154 35.8307C18.2805 35.8307 18.6847 35.8805 19.028 35.9802C19.3713 36.0799 19.6537 36.2515 19.8752 36.4951C20.1078 36.7277 20.2794 37.0378 20.3902 37.4254C20.5009 37.8019 20.5563 38.2726 20.5563 38.8373C20.5563 39.0145 20.5397 39.3191 20.5064 39.751C20.4732 40.1829 20.4289 40.6757 20.3735 41.2294C20.3293 41.7831 20.2794 42.3645 20.224 42.9736C20.1797 43.5716 20.141 44.1198 20.1078 44.6181C20.0967 44.7399 20.0856 44.8341 20.0745 44.9005C20.0635 44.9669 20.0413 45.0168 20.0081 45.05C19.9859 45.0832 19.9472 45.1054 19.8918 45.1164C19.8364 45.1275 19.7589 45.1331 19.6593 45.1331H19.1277C18.7733 45.1331 18.4854 45.0998 18.2639 45.0334C18.0424 44.9669 17.8708 44.8728 17.749 44.751C17.6271 44.6292 17.5385 44.4797 17.4832 44.3025C17.4389 44.1142 17.4167 43.9038 17.4167 43.6713C17.4167 43.5605 17.4167 43.4553 17.4167 43.3556C17.4278 43.256 17.4389 43.1618 17.4499 43.0732ZM25.4909 37.525C25.4909 37.7798 25.4743 38.0843 25.4411 38.4387C25.4079 38.782 25.3691 39.1308 25.3248 39.4852C25.2916 39.8285 25.2584 40.1552 25.2252 40.4653C25.1919 40.7643 25.1753 40.9968 25.1753 41.1629C25.1753 41.5838 25.275 41.8994 25.4743 42.1098C25.6847 42.3091 25.9394 42.4088 26.2384 42.4088C26.7589 42.4088 27.1742 42.1375 27.4843 41.5948C27.7944 41.0522 27.9882 40.3324 28.0657 39.4354L28.3315 36.329C28.3426 36.2072 28.3813 36.1242 28.4478 36.0799C28.5253 36.0245 28.6083 35.9968 28.6969 35.9968H29.2949C29.5275 35.9968 29.7434 36.019 29.9428 36.0632C30.1532 36.0965 30.3359 36.1685 30.491 36.2792C30.646 36.3789 30.7678 36.5173 30.8564 36.6945C30.945 36.8717 30.9893 37.0987 30.9893 37.3755C30.9893 37.4863 30.9782 37.6967 30.9561 38.0068C30.945 38.3058 30.9173 38.7432 30.873 39.3191C30.8398 39.8839 30.79 40.6037 30.7235 41.4786C30.6571 42.3423 30.5795 43.3999 30.491 44.6513C30.4356 45.3822 30.2695 45.9858 29.9926 46.462C29.7268 46.9492 29.3891 47.3313 28.9793 47.6082C28.5696 47.8961 28.11 48.0954 27.6006 48.2062C27.0912 48.3169 26.5707 48.3723 26.0391 48.3723C25.4743 48.3723 24.9538 48.3224 24.4776 48.2228C24.0125 48.1231 23.6083 47.9847 23.265 47.8075C22.9217 47.6303 22.6504 47.4254 22.4511 47.1929C22.2628 46.9603 22.1687 46.7111 22.1687 46.4454C22.1687 46.2349 22.213 46.0522 22.3016 45.8972C22.4012 45.7421 22.5286 45.6148 22.6836 45.5151C22.8387 45.4154 23.0158 45.3379 23.2152 45.2826C23.4256 45.2383 23.6415 45.2161 23.863 45.2161C23.9738 45.2161 24.0513 45.2715 24.0956 45.3822C24.1509 45.493 24.2285 45.6148 24.3281 45.7477C24.4389 45.8916 24.6105 46.019 24.8431 46.1297C25.0756 46.2405 25.4245 46.2959 25.8896 46.2959C26.2994 46.2959 26.6316 46.1962 26.8863 45.9968C27.141 45.7975 27.3348 45.5428 27.4677 45.2327C27.6117 44.9226 27.7058 44.5849 27.7501 44.2194C27.7944 43.854 27.8165 43.5051 27.8165 43.1729C27.6393 43.483 27.44 43.7377 27.2185 43.937C27.0081 44.1253 26.7866 44.2748 26.5541 44.3855C26.3215 44.4852 26.0889 44.5517 25.8564 44.5849C25.6238 44.6181 25.4023 44.6347 25.1919 44.6347C24.7822 44.6347 24.4057 44.5793 24.0624 44.4686C23.7301 44.3579 23.4422 44.1807 23.1986 43.937C22.9549 43.6823 22.7667 43.3556 22.6338 42.957C22.5009 42.5583 22.4344 42.0766 22.4344 41.5118C22.4344 41.3014 22.4455 41.0245 22.4677 40.6812C22.4898 40.3268 22.5175 39.9337 22.5507 39.5018C22.5839 39.0588 22.6172 38.5826 22.6504 38.0732C22.6947 37.5638 22.739 37.0433 22.7833 36.5118C22.8054 36.1685 22.9605 35.9968 23.2484 35.9968H23.78C24.1343 35.9968 24.4223 36.03 24.6438 36.0965C24.8652 36.1629 25.0369 36.2626 25.1587 36.3955C25.2916 36.5173 25.3802 36.6779 25.4245 36.8772C25.4688 37.0655 25.4909 37.2814 25.4909 37.525ZM36.6042 35.8307C37.5456 35.8307 38.2377 36.019 38.6807 36.3955C39.1236 36.7609 39.3451 37.2316 39.3451 37.8074C39.3451 38.2947 39.1901 38.6657 38.88 38.9204C38.581 39.1751 38.1436 39.3025 37.5677 39.3025C37.4127 39.3025 37.3075 39.2859 37.2521 39.2526C37.1967 39.2194 37.169 39.1585 37.169 39.0699C37.169 38.9702 37.158 38.8595 37.1358 38.7377C37.1247 38.6048 37.086 38.483 37.0195 38.3722C36.9642 38.2504 36.87 38.1507 36.7371 38.0732C36.6153 37.9957 36.4381 37.9569 36.2056 37.9569C35.8955 37.9569 35.6463 38.0345 35.4581 38.1895C35.2698 38.3335 35.1757 38.5162 35.1757 38.7377C35.1757 38.9702 35.2698 39.1585 35.4581 39.3025C35.6574 39.4354 35.901 39.5627 36.189 39.6845C36.488 39.8063 36.8091 39.9337 37.1524 40.0666C37.4957 40.1884 37.8113 40.3545 38.0993 40.5649C38.3983 40.7753 38.6419 41.0411 38.8302 41.3623C39.0295 41.6724 39.1292 42.0766 39.1292 42.5749C39.1292 43.3723 38.8468 44.0256 38.282 44.535C37.7172 45.0445 36.87 45.2992 35.7405 45.2992C35.4304 45.2992 35.0705 45.2715 34.6607 45.2161C34.262 45.1718 33.88 45.0998 33.5145 45.0002C33.1491 44.8894 32.839 44.7455 32.5843 44.5683C32.3407 44.3911 32.2188 44.1696 32.2188 43.9038C32.2188 43.8041 32.2355 43.6823 32.2687 43.5384C32.313 43.3944 32.3739 43.256 32.4514 43.1231C32.54 42.9902 32.6397 42.8794 32.7504 42.7909C32.8722 42.6912 33.0162 42.6414 33.1823 42.6414C33.3152 42.6414 33.437 42.6746 33.5478 42.741C33.6585 42.8075 33.7858 42.8794 33.9298 42.957C34.0849 43.0234 34.2731 43.0899 34.4946 43.1563C34.7161 43.2227 35.0096 43.256 35.375 43.256C35.6519 43.256 35.8955 43.2227 36.1059 43.1563C36.3274 43.0899 36.4381 42.9404 36.4381 42.7078C36.4381 42.4974 36.3495 42.3313 36.1723 42.2095C35.9952 42.0766 35.7681 41.9547 35.4913 41.844C35.2255 41.7333 34.932 41.617 34.6109 41.4952C34.3008 41.3623 34.0073 41.1906 33.7305 40.9802C33.4647 40.7698 33.2432 40.504 33.066 40.1829C32.8888 39.8506 32.8002 39.4243 32.8002 38.9038C32.8002 38.339 32.911 37.8628 33.1325 37.4752C33.365 37.0765 33.6585 36.7554 34.0129 36.5118C34.3783 36.2681 34.7881 36.0965 35.2421 35.9968C35.6962 35.8861 36.1502 35.8307 36.6042 35.8307ZM42.5244 45.1331C42.1811 45.1331 41.8987 45.0998 41.6772 45.0334C41.4668 44.9559 41.2952 44.8507 41.1623 44.7178C41.0405 44.5849 40.9519 44.4243 40.8965 44.236C40.8522 44.0367 40.8301 43.8097 40.8301 43.555C40.8301 43.3889 40.8356 43.1563 40.8467 42.8573C40.8688 42.5472 40.902 42.1264 40.9463 41.5948C40.9906 41.0522 41.0405 40.3711 41.0958 39.5516C41.1623 38.7211 41.2398 37.6967 41.3284 36.4785C41.3395 36.2349 41.3672 36.0909 41.4115 36.0466C41.4447 36.0134 41.5333 35.9968 41.6772 35.9968H42.3251C42.6684 35.9968 42.9452 36.03 43.1557 36.0965C43.3771 36.1629 43.5488 36.2626 43.6706 36.3955C43.8035 36.5284 43.8921 36.6889 43.9364 36.8772C43.9918 37.0655 44.0194 37.2759 44.0194 37.5084C44.0194 37.6746 44.0084 37.9237 43.9862 38.2559C43.9641 38.5882 43.9309 39.0422 43.8866 39.6181C43.8533 40.1829 43.8035 40.8916 43.7371 41.7443C43.6706 42.586 43.5876 43.6048 43.4879 44.8008C43.4768 44.9337 43.4491 45.0223 43.4048 45.0666C43.3605 45.1109 43.2664 45.1331 43.1224 45.1331H42.5244ZM41.345 34.0367C41.345 33.5937 41.5056 33.2449 41.8267 32.9901C42.1479 32.7354 42.5798 32.6081 43.1224 32.6081C43.5986 32.6081 43.9419 32.7078 44.1523 32.9071C44.3738 33.0954 44.4846 33.3501 44.4846 33.6712C44.4846 34.081 44.3295 34.4243 44.0194 34.7011C43.7204 34.9669 43.2775 35.0998 42.6905 35.0998C41.7935 35.0998 41.345 34.7454 41.345 34.0367ZM49.9483 43.0899C50.2695 43.0899 50.5463 43.0456 50.7789 42.957C51.0225 42.8684 51.2329 42.7687 51.4101 42.658C51.5873 42.5472 51.7368 42.4476 51.8586 42.359C51.9804 42.2704 52.0912 42.2261 52.1909 42.2261C52.4456 42.2261 52.5729 42.3922 52.5729 42.7244C52.5729 42.8019 52.5563 42.9127 52.5231 43.0566C52.4899 43.1895 52.4456 43.3335 52.3902 43.4885C52.3348 43.6325 52.2739 43.7709 52.2075 43.9038C52.1521 44.0367 52.0967 44.1364 52.0414 44.2028C51.986 44.2582 51.8863 44.3468 51.7424 44.4686C51.6095 44.5904 51.4267 44.7122 51.1942 44.8341C50.9616 44.9559 50.6903 45.0611 50.3802 45.1497C50.0701 45.2493 49.7268 45.2992 49.3503 45.2992C48.9295 45.2992 48.4921 45.2383 48.038 45.1164C47.595 44.9836 47.1908 44.7621 46.8254 44.452C46.4599 44.1308 46.1554 43.7045 45.9118 43.1729C45.6792 42.6303 45.5629 41.9547 45.5629 41.1463C45.5629 40.8584 45.5795 40.5317 45.6128 40.1663C45.6571 39.7897 45.7401 39.4077 45.8619 39.0201C45.9837 38.6214 46.1443 38.2338 46.3437 37.8573C46.5541 37.4697 46.8309 37.1264 47.1742 36.8274C47.5175 36.5284 47.9273 36.2903 48.4035 36.1131C48.8907 35.9248 49.4666 35.8307 50.131 35.8307C50.6737 35.8307 51.1388 35.8971 51.5264 36.03C51.9251 36.1518 52.2518 36.3235 52.5065 36.545C52.7612 36.7554 52.9494 37.0046 53.0713 37.2925C53.2042 37.5804 53.2706 37.8905 53.2706 38.2227C53.2706 38.8207 53.0823 39.2637 52.7058 39.5516C52.3293 39.8285 51.7977 39.9669 51.1111 39.9669C50.945 39.9669 50.8287 39.9558 50.7623 39.9337C50.7069 39.9005 50.6792 39.834 50.6792 39.7344C50.6792 39.4686 50.6737 39.2305 50.6626 39.0201C50.6515 38.8097 50.6183 38.6325 50.5629 38.4885C50.5186 38.3445 50.4467 38.2338 50.347 38.1563C50.2473 38.0788 50.1034 38.04 49.9151 38.04C49.5718 38.04 49.2949 38.1507 49.0845 38.3722C48.8852 38.5937 48.7302 38.865 48.6194 39.1862C48.5197 39.4963 48.4533 39.8174 48.4201 40.1496C48.3979 40.4819 48.3869 40.7587 48.3869 40.9802C48.3869 41.7665 48.5087 42.3147 48.7523 42.6247C49.007 42.9348 49.4057 43.0899 49.9483 43.0899ZM53.9762 43.0899C53.9762 42.0932 54.4247 41.3124 55.3218 40.7477C56.2188 40.1829 57.5421 39.8783 59.2919 39.834C59.3029 39.7122 59.3085 39.6125 59.3085 39.535C59.3196 39.4464 59.3251 39.3412 59.3251 39.2194C59.3251 38.865 59.2587 38.5826 59.1258 38.3722C58.9929 38.1618 58.716 38.0566 58.2952 38.0566C58.0626 38.0566 57.8744 38.0898 57.7304 38.1563C57.5864 38.2227 57.4702 38.3169 57.3816 38.4387C57.293 38.5494 57.221 38.6878 57.1656 38.854C57.1102 39.0201 57.0604 39.2028 57.0161 39.4021C56.994 39.5018 56.9441 39.5682 56.8666 39.6015C56.7891 39.6236 56.6673 39.6347 56.5012 39.6347C55.3716 39.6347 54.8068 39.2083 54.8068 38.3556C54.8068 38.0123 54.8843 37.6856 55.0394 37.3755C55.2055 37.0655 55.4436 36.7997 55.7537 36.5782C56.0748 36.3456 56.4735 36.1629 56.9497 36.03C57.4259 35.8971 57.9796 35.8307 58.6108 35.8307C59.84 35.8307 60.7315 36.0854 61.2852 36.5948C61.839 37.1042 62.1158 37.8241 62.1158 38.7543C62.1158 38.8761 62.0992 39.0976 62.066 39.4187C62.0438 39.7288 62.0106 40.0611 61.9663 40.4154C61.9331 40.7587 61.8999 41.0854 61.8666 41.3955C61.8445 41.7056 61.8334 41.9215 61.8334 42.0433C61.8334 42.3202 61.8832 42.5195 61.9829 42.6414C62.0826 42.7521 62.1933 42.8296 62.3151 42.8739C62.448 42.9182 62.5643 42.9514 62.664 42.9736C62.7636 42.9957 62.8135 43.0511 62.8135 43.1397C62.8135 43.3833 62.7803 43.6325 62.7138 43.8872C62.6474 44.1419 62.5366 44.3745 62.3816 44.5849C62.2376 44.7953 62.0327 44.9669 61.767 45.0998C61.5123 45.2327 61.1966 45.2992 60.8201 45.2992C60.2886 45.2992 59.8899 45.1718 59.6241 44.9171C59.3583 44.6624 59.1811 44.308 59.0925 43.854C58.8268 44.2416 58.4779 44.5793 58.046 44.8673C57.6252 45.1552 57.0715 45.2992 56.3849 45.2992C56.0527 45.2992 55.737 45.2604 55.438 45.1829C55.1501 45.1054 54.8954 44.978 54.6739 44.8008C54.4635 44.6236 54.2919 44.3966 54.159 44.1198C54.0371 43.8318 53.9762 43.4885 53.9762 43.0899ZM59.1424 41.1962C58.8544 41.1962 58.572 41.2183 58.2952 41.2626C58.0183 41.3069 57.7692 41.3789 57.5477 41.4786C57.3373 41.5671 57.1656 41.689 57.0327 41.844C56.8998 41.999 56.8334 42.1873 56.8334 42.4088C56.8334 42.6635 56.9109 42.8407 57.066 42.9404C57.2321 43.04 57.4093 43.0899 57.5975 43.0899C57.7747 43.0899 57.9519 43.0511 58.1291 42.9736C58.3063 42.8961 58.4613 42.7798 58.5942 42.6247C58.7382 42.4586 58.86 42.2593 58.9596 42.0267C59.0593 41.7942 59.1202 41.5173 59.1424 41.1962ZM66.0385 45.2826C65.3519 45.2826 64.8591 45.0998 64.5601 44.7344C64.2611 44.3689 64.1116 43.7654 64.1116 42.9237C64.1116 42.7909 64.1171 42.6247 64.1282 42.4254C64.1503 42.2261 64.1725 41.9714 64.1946 41.6613C64.2278 41.3401 64.2666 40.947 64.3109 40.4819C64.3552 40.0168 64.3995 39.452 64.4438 38.7875C64.4992 38.1231 64.5545 37.3423 64.6099 36.4453C64.6763 35.5483 64.7428 34.5073 64.8092 33.3224C64.8203 33.0787 64.848 32.9348 64.8923 32.8905C64.9255 32.8573 65.0141 32.8406 65.1581 32.8406H65.8059C66.1381 32.8406 66.415 32.8794 66.6365 32.9569C66.858 33.0344 67.0352 33.1396 67.168 33.2725C67.3009 33.4054 67.3951 33.5605 67.4504 33.7377C67.5058 33.9038 67.5335 34.081 67.5335 34.2692C67.5335 34.4907 67.5169 34.8119 67.4837 35.2327C67.4615 35.6424 67.4283 36.1075 67.384 36.628C67.3397 37.1485 67.2954 37.6912 67.2511 38.2559C67.2068 38.8207 67.1625 39.3634 67.1182 39.8839C67.0739 40.3933 67.0352 40.8529 67.0019 41.2626C66.9798 41.6724 66.9687 41.9824 66.9687 42.1928C66.9687 42.4808 67.0185 42.6856 67.1182 42.8075C67.229 42.9293 67.3452 43.0179 67.4671 43.0732C67.5889 43.1175 67.6996 43.1508 67.7993 43.1729C67.91 43.184 67.9654 43.2172 67.9654 43.2726C67.9654 43.5162 67.9377 43.7599 67.8823 44.0035C67.827 44.236 67.7273 44.452 67.5833 44.6513C67.4394 44.8396 67.24 44.9946 66.9853 45.1164C66.7417 45.2272 66.4261 45.2826 66.0385 45.2826Z" fill="#8DBE3D"/>
<path d="M4.9144 44.913C4.73725 43.4087 4.41948 42.6416 4.04309 39.9257C3.53808 37.706 3.49434 36.1538 3.19741 33.9008C2.88465 31.5278 2.5787 29.1355 2.46961 26.7386C2.32571 23.577 2 20.2573 2 17.0929C2 14.5329 2.20796 12.0595 2.95652 9.57863C3.60433 7.43161 4.09571 5.83432 5.91035 4.32198C6.56438 3.77691 7.7685 2.7547 8.57389 2.54827C9.97506 2.18912 11.402 1.98926 12.8484 2.00045C14.2211 2.01106 15.5365 2.44063 16.8564 2.77652C18.4241 3.17547 19.6834 3.68205 20.9721 4.64824C23.1693 6.29564 24.7389 8.43383 26.0257 10.8467C26.9584 12.5958 27.6094 14.2671 27.6094 16.2641C27.6094 18.2123 27.4386 20.1204 26.5536 21.9046C25.7278 23.5694 24.2493 25.0734 22.7096 26.1096C21.1783 27.1401 19.625 27.4777 17.8303 27.7886C17.1943 27.8987 16.5156 27.8393 15.8724 27.8393C14.8936 27.8393 13.8885 27.9109 12.9202 27.748C10.4915 27.3394 7.92303 26.6625 5.69857 25.5973C5.09892 25.3101 4.56068 24.7796 4.04309 24.3698C3.49089 23.9326 2.92437 23.4959 2.42348 23.0002" stroke="#505646" stroke-width="3.6545" stroke-linecap="round"/>
<path d="M8.92578 11.77C9.3786 12.8358 9.8442 13.4401 10.3001 14.2352" stroke="#505646" stroke-width="2.65782" stroke-linecap="round"/>
<path d="M18.5451 11.2222C18.3097 12.0619 17.9213 12.8359 17.6289 13.5048" stroke="#505646" stroke-width="2.65782" stroke-linecap="round"/>
<path d="M11.3086 20.0785C11.3086 20.0785 11.7095 21.7369 13.6512 22.1239C14.6072 22.252 15.7307 22.3034 16.8059 21.7676C18.2354 21.0554 19.1881 19.8933 19.1881 18.2524" stroke="#505646" stroke-width="2.65782" stroke-linecap="round"/>
<path d="M76.8867 36.7115C77.0448 37.6354 77.2442 38.1915 77.598 39.4576C77.8918 40.3234 78.0196 41.255 78.1564 42.154C78.2845 42.9963 78.2622 43.855 78.2622 44.7041C78.2622 44.8719 78.2589 44.8142 78.2739 44.6434C78.3533 43.7434 78.5942 42.8666 78.7148 41.9718C79.0093 39.7879 79.0313 39.1984 79.7462 38.1915C79.7462 38.1915 80.4611 36.7116 82.2482 36.5132C83.9127 36.3285 84.6116 37.9572 84.7928 38.947C84.8999 39.5326 84.9727 40.1103 85.022 40.7023C85.0643 41.2094 85.0336 41.7346 85.0984 42.2368C85.1855 42.9116 85.1925 43.5812 85.1925 44.2625" stroke="#505646" stroke-width="2.65782" stroke-linecap="round"/>
</svg>
