<svg width="344" height="225" viewBox="0 0 344 225" fill="none" xmlns="http://www.w3.org/2000/svg">
<path d="M338.025 53.0496L332.645 79.0577L329.182 75.6854L323.291 79.8826L318.789 74.2994L308.693 81.6277L300.064 67.2236L290.44 72.8517L286.624 67.5995L274.403 74.4733L270.727 66.612L279.293 25.1953L325.219 34.6615L338.025 53.0496Z" fill="#EBEBEB"/>
<path d="M325.219 34.6602L338.024 53.0482L322.094 49.7656L325.219 34.6602Z" fill="#DBDBDB"/>
<path d="M331.499 84.2526L323.612 122.409L261.75 109.66L269.58 71.8125L273.257 79.6683L285.483 72.7945L289.294 78.0466L298.924 72.4241L307.547 86.8282L317.648 79.4999L322.145 85.0775L328.042 80.8859L331.499 84.2526Z" fill="#EBEBEB"/>
<path d="M242.957 79.7808L179.915 83.675L174.906 2.89541L221.72 0L238.905 14.3929L242.957 79.7808Z" fill="#EBEBEB"/>
<path d="M221.723 0L238.907 14.3929L222.673 15.3973L221.723 0Z" fill="#DBDBDB"/>
<path d="M204.269 54.3562L204.021 52.5326C203.386 48.7562 204.42 44.5309 207.709 40.1149C210.677 36.187 212.284 33.3813 212.105 30.1942C211.902 26.603 209.513 24.336 205.067 24.5156C202.526 24.6473 200.085 25.5476 198.068 27.0967L196.129 22.7592C198.377 20.9356 202.312 19.5889 206.05 19.3925C214.162 18.9436 218.108 23.7356 218.417 29.0831C218.687 33.8695 216.203 37.4663 213.043 41.6692C210.143 45.5017 209.193 48.6608 209.603 52.2352L209.777 54.0644L204.269 54.3562ZM203.268 64.2937C203.122 61.6901 204.78 59.7598 207.248 59.6252C209.716 59.4905 211.514 61.2188 211.661 63.828C211.795 66.2913 210.283 68.2777 207.675 68.4236C205.185 68.5639 203.386 66.7571 203.245 64.2937H203.268Z" fill="#DBDBDB"/>
<path d="M46.5766 40.6134L40.2358 37.7461L39.3532 39.682C39.2229 39.9586 39.0196 40.1946 38.7651 40.3647C38.5105 40.5347 38.2144 40.6323 37.9085 40.6471C37.5601 40.6585 37.2127 40.6923 36.8686 40.7481C36.5665 40.7929 36.2579 40.7549 35.9758 40.6383C35.6936 40.5217 35.4485 40.3308 35.2665 40.086L34.0242 38.3521L28.3636 42.4034L29.6059 44.1373C29.7787 44.3876 29.8804 44.6799 29.9002 44.9832C29.92 45.2865 29.8571 45.5894 29.7183 45.86C29.5581 46.1685 29.4136 46.485 29.2855 46.8083C29.1741 47.0933 28.9871 47.3426 28.7444 47.5294C28.5018 47.7163 28.2127 47.8336 27.9083 47.8688L25.7891 48.0764L26.4692 54.9951L28.5997 54.7819C28.9052 54.7575 29.2116 54.8167 29.486 54.9531C29.7603 55.0896 29.9923 55.2981 30.1568 55.5562C30.2467 55.7021 30.3423 55.8424 30.4435 55.9827C30.5447 56.1229 30.6459 56.2576 30.7527 56.3923C30.9466 56.6279 31.0714 56.9126 31.1131 57.2147C31.1547 57.5168 31.1117 57.8245 30.9887 58.1037L30.1006 60.0564L36.447 62.9294L37.3296 60.9823C37.4611 60.7059 37.6656 60.4705 37.9212 60.3014C38.1767 60.1323 38.4736 60.036 38.7798 60.0228C39.1244 60.0086 39.4678 59.9749 39.8085 59.9218C40.1106 59.877 40.4192 59.9149 40.7014 60.0315C40.9835 60.1482 41.2286 60.3391 41.4106 60.5839L42.6529 62.3178L48.3192 58.2664L47.0769 56.5326C46.8987 56.2846 46.7938 55.9918 46.7739 55.6873C46.7541 55.3828 46.8201 55.0789 46.9644 54.8099C47.121 54.5031 47.2617 54.1884 47.386 53.8672C47.4941 53.5801 47.6803 53.3288 47.9236 53.1415C48.1668 52.9541 48.4576 52.8382 48.7632 52.8067L50.8937 52.5935L50.2079 45.6748L48.0774 45.8824C47.7738 45.909 47.4687 45.8513 47.1959 45.7156C46.9231 45.58 46.6932 45.3716 46.5316 45.1137C46.436 44.9678 46.3405 44.8275 46.2393 44.6872C46.1381 44.5469 46.0369 44.4066 45.9301 44.2776C45.7374 44.0391 45.6136 43.7526 45.572 43.449C45.5304 43.1455 45.5726 42.8363 45.694 42.5549L46.5766 40.6134ZM42.9789 47.0159C43.6363 47.9316 44.0068 49.0213 44.0437 50.1472C44.0806 51.2731 43.7822 52.3847 43.1862 53.3413C42.5902 54.2979 41.7233 55.0566 40.6953 55.5214C39.6674 55.9862 38.5244 56.1362 37.4109 55.9526C36.2975 55.7689 35.2636 55.2597 34.4401 54.4895C33.6166 53.7193 33.0404 52.7226 32.7843 51.6254C32.5283 50.5282 32.604 49.3799 33.0018 48.3257C33.3996 47.2715 34.1017 46.3587 35.0192 45.7028C36.2492 44.8236 37.7788 44.4679 39.2714 44.7142C40.7641 44.9604 42.0977 45.7883 42.9789 47.0159Z" fill="#EBEBEB"/>
<path d="M333.206 132.414L328.978 134.849L329.726 136.14C329.838 136.325 329.893 136.539 329.886 136.755C329.879 136.971 329.81 137.18 329.687 137.358C329.557 137.56 329.434 137.767 329.321 137.986C329.229 138.18 329.083 138.343 328.901 138.456C328.718 138.569 328.507 138.628 328.293 138.626H326.809V143.502H328.304C328.519 143.499 328.73 143.558 328.912 143.672C329.094 143.785 329.24 143.948 329.333 144.142C329.445 144.36 329.569 144.568 329.698 144.77C329.821 144.948 329.891 145.157 329.898 145.373C329.905 145.589 329.849 145.802 329.737 145.988L328.99 147.278L333.217 149.714L333.97 148.417C334.079 148.234 334.237 148.084 334.427 147.985C334.617 147.885 334.83 147.841 335.044 147.856H335.763C335.977 147.842 336.19 147.886 336.38 147.985C336.569 148.084 336.727 148.234 336.837 148.417L337.59 149.719L341.812 147.284L341.064 145.988C340.958 145.802 340.906 145.589 340.914 145.375C340.922 145.161 340.989 144.953 341.109 144.776C341.238 144.574 341.362 144.36 341.475 144.147C341.567 143.954 341.713 143.79 341.895 143.677C342.077 143.564 342.288 143.505 342.503 143.508H343.998V138.631H342.492C342.277 138.634 342.066 138.575 341.884 138.462C341.702 138.348 341.556 138.185 341.463 137.992C341.351 137.778 341.227 137.565 341.098 137.363C340.978 137.185 340.91 136.978 340.902 136.764C340.894 136.549 340.947 136.337 341.053 136.151L341.801 134.855L337.579 132.42L336.826 133.699C336.717 133.883 336.558 134.033 336.369 134.132C336.179 134.231 335.966 134.275 335.752 134.26H335.392H335.033C334.818 134.275 334.604 134.23 334.414 134.131C334.224 134.032 334.064 133.882 333.953 133.699L333.206 132.414ZM335.392 137.071C336.184 137.07 336.959 137.304 337.618 137.742C338.277 138.181 338.791 138.805 339.095 139.535C339.398 140.265 339.478 141.069 339.324 141.845C339.169 142.62 338.788 143.333 338.228 143.892C337.668 144.451 336.954 144.831 336.177 144.985C335.4 145.139 334.595 145.06 333.864 144.757C333.132 144.454 332.507 143.941 332.068 143.283C331.628 142.625 331.394 141.852 331.396 141.061C331.395 140.537 331.498 140.017 331.698 139.533C331.899 139.048 332.193 138.607 332.564 138.236C332.935 137.865 333.376 137.571 333.862 137.37C334.347 137.169 334.867 137.066 335.392 137.066V137.071Z" fill="#EBEBEB"/>
<path d="M59.4049 19.8807L55.5319 22.8435L56.4256 24.0274C56.559 24.1962 56.6409 24.3995 56.6619 24.6134C56.6828 24.8272 56.6418 25.0426 56.5437 25.2339C56.4361 25.4523 56.3422 25.6772 56.2626 25.9072C56.1933 26.1099 56.0688 26.2892 55.9029 26.425C55.7371 26.5608 55.5365 26.6477 55.3239 26.6759L53.8398 26.8667L54.4694 31.698L55.9535 31.5072C56.1695 31.4772 56.3896 31.5086 56.5885 31.598C56.7874 31.6873 56.957 31.8309 57.0777 32.0123C57.2131 32.2075 57.3595 32.3948 57.5162 32.5734C57.661 32.7324 57.757 32.9295 57.7929 33.1414C57.8288 33.3532 57.803 33.5709 57.7185 33.7686L57.1564 35.1489L61.6534 37.0175L62.2156 35.6371C62.2992 35.4391 62.4368 35.2684 62.6126 35.1445C62.7885 35.0205 62.9956 34.9482 63.2105 34.9357L63.5703 34.8964L63.9244 34.8403C64.1325 34.8012 64.3472 34.8197 64.5455 34.8939C64.7437 34.9681 64.9177 35.0951 65.0487 35.2612L65.965 36.4564L69.838 33.4936L68.933 32.3096C68.8023 32.1386 68.722 31.9345 68.7011 31.7204C68.6803 31.5063 68.7197 31.2906 68.8149 31.0976C68.9215 30.8807 69.0153 30.6577 69.096 30.4299C69.1653 30.2272 69.2899 30.0479 69.4557 29.9121C69.6216 29.7763 69.8221 29.6894 70.0348 29.6611L71.5188 29.4704L70.8892 24.6391L69.4052 24.8299C69.1897 24.8605 68.9699 24.8299 68.7711 24.7416C68.5722 24.6532 68.4024 24.5107 68.2809 24.3304C68.1404 24.1284 67.9942 23.9377 67.8368 23.7693C67.7059 23.6069 67.6211 23.4124 67.5915 23.206C67.5618 22.9997 67.5883 22.7892 67.6682 22.5966L68.2303 21.2162L63.7333 19.3477L63.1712 20.728C63.0864 20.9253 62.9486 21.0953 62.773 21.2191C62.5973 21.3429 62.3908 21.4157 62.1762 21.4294L61.8164 21.4631L61.4848 21.4743C61.2768 21.5135 61.062 21.4949 60.8638 21.4207C60.6655 21.3465 60.4915 21.2195 60.3605 21.0535L59.4049 19.8807ZM62.1762 24.2182C62.9592 24.1177 63.7545 24.251 64.4618 24.6012C65.169 24.9514 65.7566 25.5028 66.1502 26.1859C66.5439 26.869 66.726 27.6532 66.6737 28.4396C66.6214 29.2259 66.337 29.9792 65.8563 30.6043C65.3757 31.2295 64.7203 31.6985 63.9729 31.9523C63.2254 32.2061 62.4195 32.2333 61.6566 32.0303C60.8938 31.8274 60.2082 31.4035 59.6864 30.8121C59.1646 30.2207 58.83 29.4883 58.7247 28.7072C58.6545 28.186 58.6882 27.6561 58.8238 27.1479C58.9595 26.6398 59.1945 26.1634 59.5152 25.7462C59.836 25.329 60.2362 24.9792 60.6929 24.717C61.1496 24.4548 61.6537 24.2853 62.1762 24.2182Z" fill="#EBEBEB"/>
<path d="M30.469 146.481C30.6801 141.056 30.6051 135.624 30.2441 130.208C29.4398 119.023 27.731 107.922 25.1344 97.0117C23.7066 90.873 21.9527 84.8353 20.1202 78.8032C20.064 78.6181 19.7717 78.6686 19.8223 78.8593C25.4829 100.126 30.1261 122.066 29.8057 144.174C29.7157 150.347 28.9962 156.435 28.4116 162.585C28.4116 162.748 28.6645 162.815 28.7039 162.647C29.8675 157.366 30.2497 151.856 30.469 146.481Z" fill="#EBEBEB"/>
<path d="M19.8202 78.8438C19.8202 78.8438 11.2534 100.559 13.1702 105.643C15.0871 110.727 19.0445 111.815 19.0445 111.815C19.0445 111.815 13.7998 119.29 17.4649 126.298C21.13 133.307 29.2696 132.975 29.8317 140.921C29.8148 140.96 30.2645 107.736 19.8202 78.8438Z" fill="#EBEBEB"/>
<path d="M28.8828 127.239C28.8967 127.203 28.8967 127.163 28.8828 127.127C27.7585 112.301 24.9716 97.6487 20.5746 83.4434C20.5746 83.4041 20.4903 83.4153 20.5015 83.4434C22.1991 89.8028 23.6981 96.1884 24.9985 102.6C23.8468 101.511 22.4398 100.728 20.9062 100.322C20.9062 100.322 20.8613 100.356 20.9062 100.367C22.5173 100.956 23.9658 101.918 25.1335 103.173C25.3808 104.435 25.6281 105.692 25.8586 106.955C23.9417 104.817 21.2885 103.756 18.6296 102.746C18.6236 102.749 18.6185 102.753 18.6149 102.759C18.6113 102.764 18.6094 102.77 18.6094 102.777C18.6094 102.784 18.6113 102.79 18.6149 102.795C18.6185 102.801 18.6236 102.805 18.6296 102.808C21.4009 103.93 24.1553 105.378 26.0329 107.763C26.6849 111.365 27.2583 114.98 27.753 118.609C26.3689 117.162 24.5939 116.146 22.6432 115.686C22.5814 115.686 22.5477 115.759 22.6095 115.775C24.6133 116.364 26.4023 117.523 27.7586 119.109H27.7923C27.961 120.38 28.1221 121.658 28.2757 122.941C27.205 122.037 25.9962 121.309 24.695 120.786C24.6613 120.786 24.6388 120.826 24.695 120.837C26.0228 121.411 27.2388 122.214 28.287 123.21C28.287 123.21 28.3151 123.21 28.332 123.21C28.4725 124.428 28.613 125.646 28.7367 126.863C26.8064 124.534 24.3013 122.747 21.4684 121.678C21.4564 121.678 21.445 121.683 21.4366 121.692C21.4281 121.7 21.4234 121.711 21.4234 121.723C21.4234 121.735 21.4281 121.747 21.4366 121.755C21.445 121.764 21.4564 121.768 21.4684 121.768C24.2657 122.999 26.7229 124.888 28.6299 127.273C28.6509 127.299 28.6792 127.318 28.7112 127.328C28.7433 127.338 28.7776 127.339 28.8098 127.329C28.9953 129.198 29.1639 131.066 29.2988 132.94C29.2988 132.968 29.3438 132.968 29.3438 132.94C29.1976 131.059 29.044 129.158 28.8828 127.239Z" fill="white"/>
<path d="M21.9953 98.1868C20.4438 97.223 18.6715 96.6706 16.8462 96.582C16.8373 96.582 16.8287 96.5856 16.8224 96.5919C16.8161 96.5982 16.8125 96.6068 16.8125 96.6157C16.8125 96.6246 16.8161 96.6332 16.8224 96.6395C16.8287 96.6458 16.8373 96.6494 16.8462 96.6494C18.6109 96.9834 20.3234 97.5495 21.9391 98.3327C22.0066 98.3496 22.0572 98.2317 21.9953 98.1868Z" fill="white"/>
<path d="M23.0361 121.174C21.8437 120.491 20.5306 120.043 19.1687 119.855C19.1237 119.855 19.1181 119.917 19.1687 119.928C20.4987 120.195 21.7851 120.644 22.9911 121.264C23.0417 121.292 23.0867 121.202 23.0361 121.174Z" fill="white"/>
<path d="M52.9981 106.018C49.374 108.518 46.0456 111.421 43.0765 114.67C40.0146 118.111 37.6529 122.113 36.123 126.454C32.8671 135.498 31.1163 145.014 30.9402 154.622C30.831 159.944 31.3422 165.26 32.4636 170.463C32.4727 170.501 32.496 170.534 32.5287 170.555C32.5614 170.576 32.601 170.584 32.6393 170.576C32.6776 170.569 32.7116 170.548 32.7344 170.516C32.7571 170.484 32.7668 170.445 32.7615 170.407C31.3662 161.225 31.4193 151.881 32.9189 142.715C34.3917 133.737 36.702 123.963 42.4245 116.662C45.5387 112.684 49.423 109.558 53.2623 106.326C53.4647 106.147 53.2061 105.872 52.9981 106.018Z" fill="#EBEBEB"/>
<path d="M32.1992 148.15C34.2621 144.819 36.6864 141.725 39.4282 138.925C43.7172 134.643 47.3261 131.602 47.8882 128.774C48.4503 125.946 43.5936 123.859 43.5936 123.859C43.5936 123.859 49.524 124.925 51.1486 122.439C52.7731 119.953 53.5545 105.555 53.5545 105.555C53.5545 105.555 42.7616 113.248 37.7306 124.033C32.6995 134.817 32.1992 148.15 32.1992 148.15Z" fill="#EBEBEB"/>
<path d="M49.6811 119.06C48.9705 118.954 48.25 118.93 47.5338 118.987C47.4495 118.987 47.4551 119.133 47.5338 119.139C48.2421 119.139 48.956 119.105 49.6643 119.139C49.6724 119.137 49.6797 119.132 49.6855 119.126C49.6913 119.12 49.6953 119.113 49.6971 119.105C49.6988 119.097 49.6982 119.088 49.6954 119.08C49.6926 119.072 49.6877 119.065 49.6811 119.06Z" fill="white"/>
<path d="M41.9294 133.027C40.7897 133.051 39.6631 133.275 38.6016 133.689C38.6016 133.689 38.6016 133.746 38.6016 133.74C39.7258 133.476 40.8107 133.37 41.9237 133.179C41.9383 133.173 41.9507 133.162 41.9596 133.149C41.9686 133.136 41.9736 133.121 41.9742 133.105C41.9748 133.089 41.9709 133.073 41.963 133.06C41.955 133.046 41.9434 133.035 41.9294 133.027Z" fill="white"/>
<path d="M39.6004 128.199C39.1272 128.196 38.6548 128.237 38.1895 128.323C38.1809 128.326 38.1734 128.332 38.1682 128.34C38.163 128.347 38.1602 128.356 38.1602 128.365C38.1602 128.374 38.163 128.383 38.1682 128.391C38.1734 128.398 38.1809 128.404 38.1895 128.407C38.6607 128.435 39.1334 128.414 39.6004 128.346C39.6198 128.346 39.6384 128.338 39.6521 128.324C39.6658 128.31 39.6735 128.292 39.6735 128.273C39.6735 128.253 39.6658 128.235 39.6521 128.221C39.6384 128.207 39.6198 128.199 39.6004 128.199Z" fill="white"/>
<path d="M0.55549 121.291C4.06834 122.48 7.43457 124.063 10.5895 126.01C13.863 128.087 16.7017 130.778 18.9483 133.934C23.6752 140.502 27.2944 147.797 29.6625 155.531C30.9832 159.814 31.7982 164.235 32.0909 168.707C32.0847 168.735 32.0688 168.761 32.0458 168.78C32.0228 168.799 31.994 168.809 31.9644 168.809C31.9348 168.809 31.906 168.799 31.883 168.78C31.86 168.761 31.8441 168.735 31.8379 168.707C30.8457 160.954 28.6416 153.405 25.306 146.334C22.0288 139.405 17.8971 132.031 11.5788 127.441C8.1386 124.944 4.27116 123.306 0.414958 121.578C0.212592 121.51 0.353124 121.224 0.55549 121.291Z" fill="#EBEBEB"/>
<path d="M27.1452 150.588C24.703 148.37 22.0243 146.427 19.1573 144.792C14.694 142.317 11.0683 140.69 9.96091 138.53C8.85352 136.369 12.2994 133.564 12.2994 133.564C12.2994 133.564 7.74613 135.808 5.85738 134.153C3.96862 132.498 0 121.051 0 121.051C0 121.051 10.5174 124.782 17.0775 132.352C23.6375 139.921 27.1452 150.588 27.1452 150.588Z" fill="#EBEBEB"/>
<path d="M18.4134 140.051C17.3794 139.979 16.3411 140.107 15.3555 140.427C15.3555 140.427 15.3555 140.478 15.3555 140.472C16.361 140.3 17.377 140.195 18.3966 140.158C18.4697 140.158 18.4865 140.056 18.4134 140.051Z" fill="white"/>
<path d="M9.23974 128.044C8.76805 128.006 8.29329 128.032 7.8288 128.123C7.77821 128.123 7.79508 128.213 7.8288 128.207C8.29537 128.157 8.75069 128.174 9.21164 128.163C9.22596 128.163 9.24003 128.159 9.25145 128.15C9.26287 128.141 9.27093 128.129 9.27425 128.115C9.27757 128.101 9.27594 128.086 9.26964 128.074C9.26335 128.061 9.25278 128.05 9.23974 128.044Z" fill="white"/>
<path d="M40.7113 183.18H16.9727L20.3567 158.428L21.2223 152.082H36.4616L37.3273 158.428L40.7113 183.18Z" fill="#DBDBDB"/>
<path d="M37.3261 158.428H20.3555L21.2211 152.082H36.4604L37.3261 158.428Z" fill="#C7C7C7"/>
<path d="M38.6349 149.883H19.0391V155.258H38.6349V149.883Z" fill="#DBDBDB"/>
<path d="M1.875 183.179L44.6024 183.044L87.3297 182.994L172.784 182.898L258.239 182.994L300.967 183.044L343.694 183.179L300.967 183.319L258.239 183.364L172.784 183.46L87.3297 183.364L44.6024 183.314L1.875 183.179Z" fill="#263238"/>
<path d="M173.911 224.999C262.931 224.999 335.096 217.106 335.096 207.369C335.096 197.632 262.931 189.738 173.911 189.738C84.8914 189.738 12.7266 197.632 12.7266 207.369C12.7266 217.106 84.8914 224.999 173.911 224.999Z" fill="#EBEBEB"/>
<path d="M136.385 204.455C135.075 204.898 97.5191 205.016 96.08 204.129C95.5179 203.793 95.1975 198.333 94.9558 191.723C94.9052 190.298 94.8658 188.822 94.8321 187.329L91.8359 167.331L116.946 167.168L119.313 187.172L119.217 191.571C119.217 191.571 133.619 197.94 135.092 199.096C136.564 200.252 137.694 204.011 136.385 204.455Z" fill="#EB9481"/>
<path d="M136.386 204.451C135.076 204.894 97.52 205.012 96.0809 204.125C95.4176 203.71 95.0578 195.736 94.8555 187.325L119.286 187.168L119.19 191.567C119.19 191.567 133.592 197.936 135.064 199.092C136.537 200.248 137.695 204.007 136.386 204.451Z" fill="white"/>
<path d="M136.386 204.454C135.076 204.897 97.5203 205.015 96.0813 204.128C95.5192 203.792 95.1987 198.332 94.957 191.722L119.168 191.57C119.168 191.57 133.57 197.939 135.042 199.095C136.515 200.251 137.696 204.01 136.386 204.454Z" fill="#A6A6A6"/>
<path d="M135.839 202.953C129.543 202.818 104.135 202.88 97.9012 203.228C97.8506 203.228 97.8506 203.262 97.9012 203.268C104.141 203.532 129.549 203.268 135.839 203.054C135.974 203.048 135.974 202.953 135.839 202.953Z" fill="#263238"/>
<path d="M132.639 197.751C131.939 197.736 131.243 197.865 130.596 198.132C129.949 198.398 129.364 198.796 128.878 199.3C127.994 200.199 127.494 201.406 127.484 202.667C127.484 202.706 127.552 202.706 127.557 202.667C127.766 201.425 128.372 200.285 129.284 199.415C130.196 198.545 131.365 197.993 132.617 197.841C132.629 197.844 132.641 197.842 132.652 197.836C132.662 197.83 132.67 197.819 132.673 197.807C132.676 197.795 132.674 197.783 132.668 197.772C132.661 197.762 132.651 197.754 132.639 197.751Z" fill="#263238"/>
<path d="M121.627 192.184C119.109 192.156 116.191 193.054 114.628 195.119C114.572 195.197 114.685 195.282 114.758 195.242C116.958 194.083 119.276 193.161 121.672 192.493C121.709 192.483 121.741 192.459 121.762 192.427C121.783 192.395 121.792 192.357 121.786 192.319C121.781 192.281 121.761 192.246 121.732 192.221C121.703 192.197 121.665 192.183 121.627 192.184Z" fill="#263238"/>
<path d="M123.587 192.934C121.063 192.934 118.145 193.809 116.588 195.868C116.526 195.952 116.639 196.037 116.717 195.997C118.914 194.834 121.231 193.91 123.626 193.242C123.663 193.232 123.694 193.209 123.715 193.178C123.736 193.146 123.745 193.108 123.741 193.071C123.736 193.033 123.718 192.999 123.689 192.974C123.661 192.948 123.625 192.934 123.587 192.934Z" fill="#263238"/>
<path d="M125.529 193.684C123.011 193.684 120.094 194.553 118.531 196.618C118.475 196.697 118.587 196.781 118.66 196.742C120.86 195.582 123.178 194.661 125.574 193.992C125.611 193.982 125.643 193.959 125.664 193.927C125.685 193.895 125.694 193.856 125.689 193.818C125.683 193.78 125.664 193.746 125.634 193.721C125.605 193.696 125.568 193.683 125.529 193.684Z" fill="#263238"/>
<path d="M127.481 194.438C124.957 194.41 122.039 195.308 120.482 197.373C120.42 197.451 120.538 197.536 120.611 197.496C122.811 196.336 125.129 195.414 127.526 194.747C127.563 194.737 127.595 194.713 127.616 194.681C127.637 194.649 127.645 194.611 127.64 194.573C127.634 194.535 127.615 194.5 127.586 194.475C127.556 194.451 127.519 194.437 127.481 194.438Z" fill="#263238"/>
<path d="M99.4869 197.254C96.6762 197.254 96.6762 201.659 99.4869 201.642C102.298 201.625 102.32 197.237 99.4869 197.254Z" fill="#263238"/>
<path d="M124.332 185.464C123.056 184.409 121.448 185.464 120.666 186.547C119.366 188.461 118.591 190.682 118.418 192.988C118.418 193.039 118.457 193.061 118.497 193.061C118.507 193.109 118.528 193.153 118.559 193.191C118.589 193.228 118.629 193.258 118.673 193.277C118.718 193.296 118.767 193.305 118.815 193.301C118.864 193.298 118.91 193.283 118.952 193.258C120.74 192.018 122.808 190.907 124.163 189.15C124.933 188.129 125.563 186.446 124.332 185.464ZM121.262 190.817C120.397 191.451 119.503 192.04 118.66 192.708C119.109 191.451 119.497 190.183 120.071 188.971C120.336 188.39 120.64 187.827 120.981 187.287C121.543 186.451 123.994 184.341 124.253 187.074C124.399 188.572 122.291 190.065 121.262 190.817Z" fill="#263238"/>
<path d="M112.144 193.944C114.336 194.269 116.602 193.641 118.755 193.299C118.801 193.286 118.845 193.263 118.881 193.232C118.917 193.2 118.946 193.16 118.964 193.115C118.982 193.07 118.989 193.022 118.985 192.974C118.981 192.926 118.965 192.879 118.94 192.838C118.948 192.832 118.955 192.824 118.96 192.815C118.964 192.806 118.966 192.795 118.966 192.785C118.966 192.775 118.964 192.765 118.96 192.755C118.955 192.746 118.948 192.738 118.94 192.732C117.21 191.192 115.105 190.133 112.835 189.662C111.509 189.41 109.631 189.775 109.463 191.419C109.26 192.967 110.862 193.742 112.144 193.944ZM110.615 192.519C108.929 190.364 112.15 190.179 113.117 190.403C113.744 190.56 114.36 190.758 114.96 190.998C116.19 191.507 117.392 192.078 118.564 192.709C117.496 192.816 116.444 193.007 115.382 193.153C114.112 193.321 111.559 193.703 110.615 192.519Z" fill="#263238"/>
<path d="M54.9141 74.8945C54.9141 74.8945 84.0717 124.408 84.853 127.887C86.0503 133.229 92.3968 185.98 92.3968 185.98L122.752 185.419C122.752 185.419 117.524 138.908 112.572 123.583C109.008 112.546 83.2734 75.9382 83.2734 75.9382L54.9141 74.8945Z" fill="#37474F"/>
<path d="M119.994 180.796C115.638 180.762 100.196 180.588 94.3949 181.127C94.35 181.127 94.3556 181.205 94.3949 181.211C96.3905 181.497 115.632 181.054 119.989 180.914C119.998 180.917 120.007 180.918 120.017 180.917C120.027 180.916 120.036 180.912 120.044 180.907C120.052 180.901 120.059 180.894 120.063 180.886C120.068 180.877 120.071 180.868 120.071 180.858C120.072 180.849 120.07 180.839 120.066 180.83C120.062 180.821 120.056 180.814 120.049 180.808C120.041 180.801 120.032 180.797 120.023 180.795C120.013 180.793 120.004 180.793 119.994 180.796Z" fill="#263238"/>
<path d="M59.8897 79.439C61.8009 82.4298 63.8246 85.3589 65.7695 88.3273C67.7145 91.2956 69.6707 94.264 71.5988 97.2267C75.4438 103.212 79.1913 109.237 82.8414 115.301C84.6227 118.111 86.1467 121.077 87.3946 124.161C88.5337 127.245 89.3898 130.427 89.9523 133.666C90.5481 136.915 90.9416 140.198 91.307 143.48C91.6818 146.97 92.0734 150.463 92.4819 153.956C93.2801 161.105 94.0802 168.254 94.8821 175.403C94.9777 176.278 95.0733 177.153 95.1632 178.034C95.1632 178.163 94.944 178.186 94.9271 178.034C94.0333 170.936 93.2913 163.81 92.4819 156.712C92.0771 153.169 91.6743 149.628 91.2733 146.089C90.8967 142.796 90.5369 139.496 90.0254 136.225C89.556 132.996 88.8419 129.807 87.8893 126.686C86.8397 123.454 85.4332 120.349 83.6958 117.427C80.1825 111.373 76.4612 105.425 72.7399 99.4712C69.0186 93.5177 65.1962 87.5136 61.2725 81.633C60.7891 80.9092 60.3 80.1853 59.7941 79.4727C59.7548 79.4334 59.8559 79.3829 59.8897 79.439Z" fill="#263238"/>
<path d="M64.4718 207.368C63.0889 207.284 27.3713 192.841 26.382 191.472C26.3379 191.391 26.3184 191.3 26.3257 191.208C26.3257 189.979 28.8047 185.692 30.8734 180.059C31.0027 179.699 31.9245 178.027 33.2006 175.777C36.7476 169.61 42.931 158.988 42.931 158.988L66.2762 168.247L55.1011 184.94L53.3641 188.98C53.3641 188.98 64.32 200.287 65.2419 201.886C66.1638 203.486 65.849 207.447 64.4718 207.368Z" fill="#EB9481"/>
<path d="M64.4718 207.369C63.0889 207.285 27.3713 192.841 26.382 191.472C26.3379 191.391 26.3184 191.3 26.3257 191.208C26.3257 189.979 28.8047 185.692 30.8734 180.059C31.0027 179.7 31.9245 178.027 33.2006 175.777L55.1236 184.941L53.3866 188.981C53.3866 188.981 64.3425 200.287 65.2644 201.886C66.1863 203.486 65.849 207.447 64.4718 207.369Z" fill="white"/>
<path d="M64.4736 207.369C63.0907 207.284 27.3731 192.841 26.3838 191.472C26.0015 190.95 27.598 186.085 30.8808 180.059L53.3659 188.986C53.3659 188.986 64.3218 200.282 65.2493 201.892C66.1768 203.502 65.8508 207.447 64.4736 207.369Z" fill="#A6A6A6"/>
<path d="M64.5289 205.778C58.7446 203.298 35.169 193.837 29.261 191.828C29.2104 191.828 29.1992 191.828 29.261 191.862C34.9441 194.443 58.5929 203.713 64.5065 205.89C64.6189 205.918 64.6526 205.828 64.5289 205.778Z" fill="#263238"/>
<path d="M63.5164 199.755C62.875 199.473 62.1821 199.328 61.4815 199.328C60.7809 199.328 60.088 199.473 59.4466 199.755C58.2934 200.259 57.3792 201.187 56.8945 202.347C56.8945 202.381 56.9451 202.409 56.962 202.375C57.6247 201.299 58.6188 200.467 59.7954 200.002C60.9721 199.538 62.2678 199.467 63.4883 199.8C63.4977 199.797 63.5059 199.791 63.5111 199.783C63.5163 199.774 63.5182 199.764 63.5164 199.755Z" fill="#263238"/>
<path d="M55.4052 190.473C53.0836 189.503 50.0369 189.245 47.8165 190.574C47.7321 190.625 47.8165 190.743 47.8895 190.737C50.3648 190.486 52.8597 190.5 55.3321 190.776C55.3702 190.781 55.4084 190.771 55.4397 190.749C55.471 190.727 55.4932 190.694 55.5022 190.657C55.5111 190.62 55.5062 190.581 55.4884 190.547C55.4705 190.513 55.441 190.487 55.4052 190.473Z" fill="#263238"/>
<path d="M56.9286 191.899C54.607 190.928 51.5603 190.67 49.3399 192C49.2556 192.051 49.3399 192.169 49.413 192.163C51.8881 191.909 54.3833 191.923 56.8556 192.202C56.8936 192.206 56.9318 192.196 56.9631 192.174C56.9944 192.152 57.0167 192.12 57.0256 192.083C57.0346 192.046 57.0297 192.006 57.0118 191.973C56.994 191.939 56.9644 191.913 56.9286 191.899Z" fill="#263238"/>
<path d="M58.4586 193.325C56.1314 192.354 53.0847 192.096 50.8699 193.426C50.7799 193.476 50.8699 193.594 50.9373 193.589C53.4124 193.335 55.9076 193.348 58.3799 193.628C58.4187 193.634 58.4586 193.626 58.4916 193.605C58.5246 193.583 58.5484 193.55 58.5583 193.512C58.5682 193.474 58.5634 193.434 58.545 193.399C58.5265 193.365 58.4957 193.338 58.4586 193.325Z" fill="#263238"/>
<path d="M59.9781 194.752C57.6509 193.781 54.6098 193.523 52.3894 194.847C52.2995 194.903 52.3894 195.021 52.4569 195.015C54.9319 194.762 57.4272 194.775 59.8994 195.055C59.9383 195.061 59.9781 195.053 60.0111 195.031C60.0441 195.01 60.0679 194.977 60.0778 194.939C60.0877 194.901 60.0829 194.861 60.0645 194.826C60.046 194.791 60.0152 194.765 59.9781 194.752Z" fill="#263238"/>
<path d="M32.9679 186.876C30.3427 185.833 28.7126 189.912 31.3489 190.956C33.9853 191.999 35.6211 187.92 32.9679 186.876Z" fill="#263238"/>
<path d="M60.4346 185.256C59.642 183.802 57.7701 184.161 56.629 184.885C54.7068 186.171 53.1561 187.937 52.132 190.008C52.1275 190.017 52.1251 190.027 52.125 190.037C52.1249 190.048 52.1271 190.058 52.1314 190.067C52.1358 190.076 52.1421 190.084 52.15 190.09C52.1579 190.097 52.1671 190.101 52.177 190.104C52.177 190.289 52.3006 190.508 52.5199 190.463C54.6503 189.975 56.9832 189.722 58.8944 188.6C59.9905 187.949 61.1823 186.63 60.4346 185.256ZM55.5722 189.066C54.5323 189.329 53.4867 189.543 52.458 189.846C53.3089 188.822 54.2114 187.843 55.1619 186.911C55.6298 186.466 56.1275 186.054 56.6515 185.676C57.4666 185.115 60.5471 184.077 59.7601 186.709C59.3272 188.162 56.8145 188.751 55.5722 189.066Z" fill="#263238"/>
<path d="M45.949 188.548C47.8603 189.67 50.1931 189.934 52.3179 190.428C52.5372 190.478 52.6833 190.259 52.6665 190.069C52.677 190.067 52.6871 190.064 52.6957 190.057C52.7044 190.051 52.7113 190.043 52.7158 190.034C52.7203 190.024 52.7223 190.013 52.7215 190.003C52.7207 189.992 52.7173 189.982 52.7114 189.973C51.6889 187.898 50.1382 186.127 48.2144 184.839C47.0901 184.109 45.207 183.745 44.4088 185.192C43.6106 186.64 44.8304 187.891 45.949 188.548ZM45.0721 186.651C44.2907 184.02 47.3656 185.063 48.1807 185.63C48.7041 186.008 49.2 186.422 49.6647 186.87C50.6134 187.804 51.514 188.785 52.3629 189.81C51.3342 189.507 50.2887 189.289 49.2487 189.025C47.9896 188.688 45.4993 188.127 45.0721 186.651Z" fill="#263238"/>
<path d="M56.9146 184.012L30.7812 173.48C30.7812 173.48 63.1823 125.924 63.4184 122.384C63.632 119.253 49.3989 91.9706 48.8424 84.0195C48.2353 75.4343 52.3726 68.7961 56.9258 64.6719L83.8799 76.1132C83.8799 76.1132 81.0355 80.6527 76.5722 83.1834C76.5722 83.1834 90.3949 114.719 89.608 124.415C88.821 134.111 56.9146 184.012 56.9146 184.012Z" fill="#37474F"/>
<path d="M58.0729 179.052C54.2954 177.431 55.4028 177.84 51.6028 176.247C49.7477 175.472 37.5496 170.405 35.6721 169.984C35.6327 169.984 35.6046 170.04 35.644 170.063C37.2685 171.056 49.5679 175.91 51.4398 176.651C55.2679 178.154 54.1829 177.683 58.0279 179.142C58.0337 179.15 58.0413 179.156 58.05 179.16C58.0588 179.163 58.0684 179.165 58.0779 179.164C58.0875 179.163 58.0966 179.16 58.1045 179.155C58.1125 179.149 58.1189 179.142 58.1232 179.133C58.1274 179.125 58.1295 179.115 58.129 179.106C58.1286 179.096 58.1257 179.087 58.1207 179.079C58.1157 179.071 58.1086 179.064 58.1002 179.059C58.0919 179.055 58.0825 179.052 58.0729 179.052Z" fill="#263238"/>
<path d="M80.9918 82.6023C78.1855 83.2553 75.44 84.1451 72.7847 85.2621C72.774 85.2657 72.7641 85.2715 72.7556 85.279C72.7471 85.2865 72.7402 85.2956 72.7353 85.3057C72.7303 85.3159 72.7274 85.3269 72.7267 85.3382C72.726 85.3495 72.7276 85.3608 72.7313 85.3715C72.735 85.3822 72.7407 85.392 72.7482 85.4005C72.7557 85.4089 72.7648 85.4158 72.775 85.4208C72.7852 85.4257 72.7963 85.4286 72.8076 85.4293C72.8189 85.43 72.8302 85.4285 72.8409 85.4248C75.5953 84.6224 78.3947 83.8705 81.1042 82.9222C81.3122 82.8492 81.2054 82.5574 80.9918 82.6023Z" fill="#263238"/>
<path d="M77.7838 81.5168C77.5219 81.9818 77.2909 82.4636 77.0924 82.9589C76.8984 83.3348 76.7782 83.7443 76.7383 84.1653C76.7383 84.2495 76.8507 84.2663 76.9013 84.2158C77.1833 83.8791 77.4109 83.5004 77.5759 83.0936C77.8063 82.6503 78.0424 82.2126 78.2617 81.7581C78.4134 81.427 77.9581 81.2138 77.7838 81.5168Z" fill="#263238"/>
<path d="M78.1198 78.9697C78.2884 78.5544 78.4514 78.1448 78.6257 77.7296C78.8 77.3143 79.0192 76.8879 79.1878 76.4502C79.1878 76.3829 79.3227 76.4502 79.2946 76.5007C79.126 76.9159 79.0192 77.3536 78.8899 77.7801C78.7606 78.2065 78.6145 78.633 78.4739 79.0594C78.2097 79.8506 77.9118 80.6362 77.5464 81.4049C77.9887 81.427 78.4304 81.3503 78.8393 81.1805C79.257 80.9137 79.5781 80.5204 79.7556 80.0582C79.9917 79.5981 80.2109 79.1268 80.4526 78.6666C80.7501 78.1692 81.0004 77.6451 81.2003 77.1011C81.2003 77.0338 81.3352 77.1011 81.3071 77.1516C80.9405 78.3017 80.4604 79.4126 79.8736 80.4679C79.6207 80.8775 79.4239 81.3096 78.963 81.4667C78.464 81.606 77.9418 81.6422 77.4284 81.5733C77.3609 81.5733 77.2822 81.5733 77.3047 81.4723C77.5349 80.6252 77.8069 79.7899 78.1198 78.9697Z" fill="#263238"/>
<path d="M76.9718 84.2092C77.933 86.2349 78.7762 88.2549 79.67 90.275C80.5638 92.295 81.3564 94.2477 82.1602 96.2566C83.7679 100.308 85.207 104.438 86.4717 108.601C87.0957 110.666 87.6747 112.748 88.1919 114.847C88.7615 116.939 89.1785 119.069 89.4398 121.221C89.6653 123.37 89.4745 125.541 88.8777 127.618C88.2577 129.67 87.4622 131.666 86.4998 133.583C85.9096 134.795 85.7129 134.632 85.9939 134.02C86.7978 132.281 88.9058 127.012 88.754 122.585C88.631 120.465 88.3035 118.362 87.7759 116.306C87.285 114.185 86.7322 112.08 86.1176 109.993C84.9203 105.874 83.4981 101.84 82.0366 97.8109C81.2158 95.5664 80.3502 93.3219 79.507 91.0774C78.6638 88.8329 77.8206 86.7679 76.8762 84.2878C76.8481 84.1868 76.9437 84.1475 76.9718 84.2092Z" fill="#263238"/>
<path d="M57.1388 77.5157C57.6053 77.3418 58.263 77.628 58.7352 77.7065C59.3467 77.8101 59.9646 77.872 60.5846 77.8917C61.198 77.9133 61.8122 77.8926 62.4228 77.83C63.0376 77.8141 63.6403 77.6546 64.1822 77.3642C65.0714 76.7176 65.8337 75.913 66.4307 74.9907C67.1422 74.0482 67.7297 73.0185 68.1789 71.9269C68.1789 71.8596 68.297 71.9269 68.2745 71.9718C68.0778 72.5947 67.9316 73.2231 67.7124 73.8347C67.47 74.4094 67.1805 74.9631 66.8467 75.4901C66.3055 76.5505 65.5051 77.4576 64.5195 78.1274C63.4346 78.7446 62.0405 78.6885 60.8319 78.638C60.131 78.5972 59.434 78.5053 58.7464 78.363C58.2518 78.2564 57.4198 78.1779 57.105 77.7458C57.0902 77.7293 57.0792 77.7097 57.0728 77.6884C57.0664 77.6672 57.0648 77.6448 57.068 77.6229C57.0712 77.6009 57.0792 77.58 57.0914 77.5615C57.1037 77.5429 57.1198 77.5273 57.1388 77.5157Z" fill="#263238"/>
<path d="M38.2438 168.49C42.5385 161.996 46.7545 155.45 50.8917 148.851C55.029 142.252 59.11 135.603 63.1349 128.903C64.0961 127.304 65.2035 125.71 65.8218 123.937C66.4964 122.012 66.1141 120.144 65.507 118.259C64.3607 114.819 63.0207 111.447 61.4935 108.158C59.987 104.842 58.3624 101.582 56.766 98.3105C55.1695 95.0392 53.5 91.8071 52.2689 88.3955C51.1447 85.1353 50.6893 81.7573 51.5663 78.3794C52.4432 75.0014 54.3319 72.0162 56.305 69.205C56.8222 68.4643 57.3562 67.7292 57.879 66.9605C57.9183 66.9044 58.0026 66.9605 57.9633 67.0278C55.7879 69.9569 53.6686 73.0599 52.3926 76.4996C51.7404 78.1951 51.3757 79.9871 51.3133 81.8022C51.3027 83.6447 51.5893 85.4768 52.1621 87.2283C53.2189 90.64 54.8884 93.8664 56.4455 97.0761C58.0026 100.286 59.6665 103.608 61.2011 106.913C62.7843 110.239 64.1916 113.646 65.4171 117.119C65.9399 118.663 66.5414 120.279 66.4964 121.934C66.457 123.746 65.5914 125.379 64.692 126.905C60.7571 133.555 56.7266 140.126 52.6231 146.657C48.5195 153.189 44.298 159.72 40.0258 166.184L38.4068 168.625C38.3225 168.726 38.1764 168.608 38.2438 168.49Z" fill="#263238"/>
<path d="M85.3799 45.8658C87.8139 51.1965 100.108 58.5416 105.864 59.3328C110.001 59.8939 122.582 60.0959 126.893 59.4394C131.952 58.665 128.085 45.0578 125.1 45.4113C116.893 46.3652 109.922 47.4313 107.73 47.4313C105.054 47.4313 90.5796 42.7964 88.837 42.1399C84.5648 40.5519 84.0027 42.8413 85.3799 45.8658Z" fill="#EB9481"/>
<path d="M85.4552 47.2879C88.5356 51.8386 98.772 59.2791 98.772 59.2791L100.194 56.1368L104.899 45.7448C104.899 45.7448 95.4948 42.7989 89.3057 41.4522C88.5774 41.2867 87.8366 41.1816 87.0909 41.138C83.1392 40.9247 82.7963 43.36 85.4552 47.2879Z" fill="#C6E19B"/>
<path d="M85.4552 47.2858C88.5356 51.8365 98.772 59.2771 98.772 59.2771L100.194 56.1348C96.3773 51.7075 90.4806 45.002 87.0909 41.1471C83.1392 40.9227 82.7963 43.3579 85.4552 47.2858Z" fill="#263238"/>
<path d="M96.9294 57.1697C97.7107 55.2563 101.185 47.552 102.05 45.9472C102.107 45.835 102.196 45.8462 102.146 45.9472C100.639 49.7785 98.9238 53.5249 97.0081 57.1697C96.9856 57.237 96.8956 57.2146 96.9294 57.1697Z" fill="#263238"/>
<path d="M123.59 45.5522C128.582 44.9013 134.759 43.7847 139.993 46.0011C140.581 46.2313 141.074 46.6523 141.392 47.1963C143.753 48.1502 144.012 49.5474 144.012 49.5474C145.94 51.1073 146.008 52.5775 146.008 52.5775C146.008 52.5775 148.773 53.6997 148.352 55.5066C147.891 57.5042 144.102 55.5066 141.347 55.6693C135.024 56.0621 126.17 58.3795 124.343 58.6713L123.59 45.5522Z" fill="#EB9481"/>
<path d="M134.435 51.4319C136.284 51.3057 138.139 51.3057 139.988 51.4319C142.002 51.6841 143.994 52.0874 145.947 52.6383C145.96 52.6428 145.974 52.642 145.986 52.6363C145.998 52.6305 146.007 52.6201 146.012 52.6075C146.016 52.5948 146.015 52.5809 146.01 52.5688C146.004 52.5567 145.993 52.5474 145.981 52.5429C142.312 51.106 138.318 50.7023 134.435 51.3758C134.345 51.3646 134.345 51.4375 134.435 51.4319Z" fill="#263238"/>
<path d="M133.257 45.6034C136.343 45.7605 138.271 46.2543 141.374 47.1858V47.1521C137.956 45.7269 136.557 45.5922 133.24 45.4688C133.133 45.5136 133.139 45.6034 133.257 45.6034Z" fill="#263238"/>
<path d="M133.759 56.625C132.956 57.001 133.152 57.4218 134.687 57.7753C136.222 58.1288 142.602 58.2354 142.377 60.4575C142.152 62.6795 133.152 62.399 130.64 61.6134C128.127 60.8278 124.344 58.6731 124.344 58.6731C126.126 58.3757 130.308 57.2478 133.759 56.625Z" fill="#EB9481"/>
<path d="M92.0612 54.3635C92.0219 55.323 91.932 56.2993 91.797 57.2701C91.797 57.2308 91.797 57.1971 91.8364 57.1635C92.0219 56.6585 92.2074 56.1422 92.4322 55.6541C92.4322 55.6541 92.4885 55.6541 92.4828 55.6541C92.3748 56.189 92.2128 56.7116 91.9994 57.214C91.8982 57.4553 91.8027 57.6909 91.6959 57.9266C91.6284 58.3587 91.5497 58.7851 91.4654 59.2116C91.2967 60.014 90.5379 63.4256 90.3411 64.0036C90.3074 64.1214 90.1612 64.0934 90.1725 63.9587C90.2118 63.3302 90.847 59.7783 90.9763 58.9703C91.2275 57.4101 91.5634 55.8648 91.9825 54.341C92.0107 54.313 92.0669 54.3354 92.0612 54.3635Z" fill="#263238"/>
<path d="M86.2174 79.8786C84.7165 80.6474 82.7828 81.8426 74.0698 80.1311C73.5077 80.0189 72.9793 79.8842 72.4284 79.7215C64.2606 77.275 54.4403 67.6854 53.9062 67.0064C53.9062 67.0064 66.8858 46.0035 83.4854 39.399C85.5372 38.5854 88.9325 40.1566 90.7931 42.1149C91.462 42.8163 92.9179 47.973 92.3614 52.1478C91.8049 56.3226 87.7126 79.1099 86.2174 79.8786Z" fill="#C6E19B"/>
<path d="M85.045 51.957C85.1077 52.8446 84.9832 53.7353 84.6796 54.5719C84.6084 53.6841 84.7331 52.7915 85.045 51.957Z" fill="white"/>
<path d="M79.3863 66.2578C79.4221 66.6995 79.407 67.1438 79.3413 67.5821C79.2872 68.0236 79.1796 68.457 79.0209 68.8727C78.9822 68.4292 78.9973 67.9827 79.0659 67.5428C79.1233 67.1037 79.2309 66.6726 79.3863 66.2578Z" fill="white"/>
<path d="M69.7674 55.4453C69.8307 56.3347 69.7062 57.2275 69.402 58.0658C69.3314 57.1762 69.4561 56.2819 69.7674 55.4453Z" fill="white"/>
<path d="M88.7496 65.5273C88.7855 65.9709 88.7704 66.4171 88.7046 66.8572C88.6505 67.2988 88.5429 67.7321 88.3842 68.1478C88.3455 67.7043 88.3606 67.2578 88.4292 66.8179C88.486 66.3769 88.5935 65.9438 88.7496 65.5273Z" fill="white"/>
<path d="M76.3984 53.5951C76.8407 53.5575 77.2858 53.5707 77.7251 53.6345C78.1676 53.6906 78.6017 53.8 79.018 53.9605C78.1288 54.0244 77.2362 53.8999 76.3984 53.5951Z" fill="white"/>
<path d="M65.4844 63.9259C66.3735 63.8633 67.2659 63.9877 68.1039 64.2913C67.2145 64.3626 66.3203 64.2379 65.4844 63.9259Z" fill="white"/>
<path d="M78.3438 75.1061C79.2329 75.0423 80.1255 75.1668 80.9633 75.4715C80.0739 75.5417 79.18 75.417 78.3438 75.1061Z" fill="white"/>
<path d="M62.1133 71.0431C63.0024 70.9804 63.8948 71.1049 64.7328 71.4085C63.8434 71.4787 62.9495 71.354 62.1133 71.0431Z" fill="white"/>
<path d="M84.9609 41.8986C85.8501 41.8359 86.7424 41.9604 87.5804 42.264C86.6913 42.3267 85.799 42.2022 84.9609 41.8986Z" fill="white"/>
<path d="M81.7864 45.4805C81.5023 45.8215 81.1776 46.1267 80.8196 46.3895C80.4713 46.6584 80.0942 46.888 79.6953 47.0741C79.9776 46.7352 80.2983 46.4302 80.6509 46.165C81.0026 45.8951 81.3835 45.6655 81.7864 45.4805Z" fill="white"/>
<path d="M64.4756 55.6523C64.188 55.9904 63.8616 56.2936 63.5032 56.5558C63.1584 56.8297 62.7807 57.0597 62.3789 57.2403C62.6681 56.9037 62.9943 56.6007 63.3514 56.3369C63.697 56.0641 64.0745 55.8343 64.4756 55.6523Z" fill="white"/>
<path d="M86.0928 60.2422C85.8053 60.582 85.4789 60.8871 85.1204 61.1512C84.7747 61.424 84.3972 61.6539 83.9961 61.8358C84.2837 61.496 84.61 61.1909 84.9686 60.9268C85.3161 60.6567 85.6933 60.427 86.0928 60.2422Z" fill="white"/>
<path d="M72.0928 69.043C71.8053 69.3828 71.4789 69.6879 71.1204 69.952C70.7742 70.224 70.3968 70.4538 69.9961 70.6366C70.2837 70.2968 70.61 69.9917 70.9686 69.7275C71.3161 69.4575 71.6933 69.2278 72.0928 69.043Z" fill="white"/>
<path d="M91.4522 48.2227C91.1647 48.5625 90.8383 48.8675 90.4797 49.1317C90.1314 49.4006 89.7544 49.6301 89.3555 49.8162C89.643 49.4764 89.9694 49.1714 90.328 48.9072C90.6741 48.6353 91.0515 48.4054 91.4522 48.2227Z" fill="white"/>
<path d="M91.1589 58.4211C90.8185 58.1341 90.5129 57.8083 90.2483 57.4504C89.9747 57.1056 89.7444 56.7287 89.5625 56.3281C89.9041 56.6118 90.2099 56.9359 90.4731 57.2933C90.7417 57.6435 90.9716 58.0216 91.1589 58.4211Z" fill="white"/>
<path d="M59.9636 65.4446C59.6232 65.1575 59.3176 64.8317 59.053 64.4738C58.7824 64.1269 58.5524 63.7504 58.3672 63.3516C58.7076 63.6386 59.0132 63.9644 59.2778 64.3223C59.5503 64.6679 59.7805 65.0446 59.9636 65.4446Z" fill="white"/>
<path d="M87.366 73.7983C87.0244 73.5147 86.7186 73.1906 86.4553 72.8332C86.186 72.4855 85.956 72.1091 85.7695 71.7109C86.1099 71.998 86.4156 72.3238 86.6802 72.6817C86.9514 73.026 87.1816 73.4008 87.366 73.7983Z" fill="white"/>
<path d="M73.6316 49.9819C73.2913 49.6968 72.9857 49.3729 72.721 49.0168C72.4527 48.6683 72.2228 48.2921 72.0352 47.8945C72.3768 48.1782 72.6826 48.5023 72.9458 48.8597C73.214 49.2081 73.4439 49.5844 73.6316 49.9819Z" fill="white"/>
<path d="M73.8777 78.5578C73.5373 78.2708 73.2316 77.945 72.967 77.5871C72.6974 77.2396 72.4674 76.8632 72.2812 76.4648C72.6229 76.7485 72.9287 77.0726 73.1919 77.43C73.4624 77.7789 73.6925 78.1573 73.8777 78.5578Z" fill="white"/>
<path d="M76.208 61.7024C75.8708 61.4137 75.5672 61.0881 75.303 60.7316C75.0285 60.3875 74.7982 60.0105 74.6172 59.6094C74.9558 59.8965 75.2596 60.2223 75.5222 60.5801C75.7955 60.9251 76.0258 61.302 76.208 61.7024Z" fill="white"/>
<path d="M87.7488 47.7055C85.6296 47.3128 83.6397 42.9416 83.3867 40.0013C83.3867 39.7993 84.3761 38.2001 85.5059 36.1969C86.1917 34.9792 86.9169 33.6045 87.4959 32.3027C87.6139 32.0389 88.3053 32.9311 88.3053 32.9311L89.8118 34.0534L94.7867 37.8634C93.602 39.2824 92.5958 40.8408 91.7905 42.5039C91.711 42.6841 91.6507 42.8722 91.6107 43.065C91.6084 43.0968 91.6084 43.1287 91.6107 43.1604C91.3015 44.2715 89.7894 48.0815 87.7488 47.7055Z" fill="#EB9481"/>
<path d="M91.6132 43.0939C91.611 43.1257 91.611 43.1576 91.6132 43.1893C91.3179 43.1029 91.0302 42.9921 90.7532 42.8583C85.3062 40.3108 87.7064 33.0273 87.7064 33.0273L89.8425 34.0823L94.8174 37.8923C93.6327 39.3113 92.6265 40.8697 91.8212 42.5328C91.7321 42.7119 91.6623 42.9 91.6132 43.0939Z" fill="#263238"/>
<path d="M100.504 22.3633C100.504 22.3633 102.994 23.94 103.005 26.7457C103.017 29.5513 101.881 32.2952 101.645 32.3962C101.409 32.4972 100.504 22.3633 100.504 22.3633Z" fill="#263238"/>
<path d="M88.149 23.8219C86.6537 26.7678 86.7324 36.0544 88.5987 38.4448C91.3082 41.9125 96.5247 43.1077 99.6782 39.6793C102.731 36.3574 102.416 24.2595 100.24 22.0038C97.0756 18.6707 90.3638 19.4619 88.149 23.8219Z" fill="#EB9481"/>
<path d="M96.0879 31.2539C96.0879 31.2539 96.0373 31.2876 96.0429 31.31C96.0766 31.9441 96.0092 32.6736 95.4414 32.898C95.4414 32.898 95.4414 32.9373 95.4414 32.9317C96.1441 32.8194 96.2228 31.8487 96.0879 31.2539Z" fill="#263238"/>
<path d="M95.5052 30.6105C94.4821 30.5544 94.4484 32.5969 95.3984 32.6474C96.3484 32.6979 96.3596 30.6554 95.5052 30.6105Z" fill="#263238"/>
<path d="M99.5544 31.2344C99.5544 31.2344 99.605 31.2344 99.605 31.2905C99.5713 31.9246 99.6444 32.654 100.218 32.8729C100.218 32.8729 100.218 32.9121 100.218 32.9065C99.5095 32.7999 99.4251 31.8292 99.5544 31.2344Z" fill="#263238"/>
<path d="M100.134 30.5834C101.151 30.5217 101.202 32.5642 100.257 32.6203C99.3128 32.6764 99.2791 30.6339 100.134 30.5834Z" fill="#263238"/>
<path d="M94.8638 29.0573C95.1324 28.981 95.397 28.8911 95.6564 28.7879C95.9517 28.7346 96.2207 28.5846 96.4209 28.3615C96.4695 28.2798 96.4898 28.1844 96.4786 28.0901C96.4674 27.9958 96.4254 27.9077 96.3591 27.8396C96.207 27.7242 96.0267 27.6514 95.837 27.6287C95.6473 27.606 95.4549 27.6343 95.2798 27.7106C94.9005 27.812 94.5721 28.0498 94.3579 28.3783C94.3151 28.4565 94.2957 28.5452 94.3019 28.6341C94.3081 28.7229 94.3397 28.8081 94.393 28.8796C94.4462 28.951 94.5189 29.0058 94.6023 29.0373C94.6858 29.0687 94.7765 29.0757 94.8638 29.0573Z" fill="#263238"/>
<path d="M100.83 29.9582C100.556 29.8972 100.286 29.8223 100.02 29.7338C99.7243 29.6946 99.4494 29.5585 99.2391 29.3466C99.185 29.2686 99.1588 29.1745 99.1649 29.0798C99.1711 28.9851 99.2091 28.8952 99.2728 28.8247C99.4178 28.701 99.5935 28.6185 99.7814 28.586C99.9694 28.5534 100.163 28.5719 100.341 28.6396C100.725 28.7191 101.066 28.9393 101.297 29.2568C101.345 29.332 101.37 29.4195 101.369 29.5087C101.368 29.5979 101.342 29.685 101.292 29.7593C101.243 29.8336 101.173 29.892 101.091 29.9273C101.009 29.9626 100.918 29.9734 100.83 29.9582Z" fill="#263238"/>
<path d="M94.6477 37.2538C94.7995 37.4053 94.9456 37.6073 95.1761 37.6297C95.4124 37.6296 95.6461 37.5799 95.8619 37.4838C95.8619 37.4838 95.9012 37.4838 95.8619 37.5175C95.7698 37.6408 95.6458 37.7368 95.5032 37.7951C95.3606 37.8535 95.2047 37.8719 95.0524 37.8486C94.924 37.8136 94.8087 37.7418 94.7208 37.6421C94.6328 37.5423 94.5762 37.419 94.5577 37.2874C94.5533 37.2755 94.5537 37.2623 94.559 37.2508C94.5643 37.2392 94.5739 37.2302 94.5859 37.2257C94.5978 37.2212 94.611 37.2217 94.6226 37.227C94.6342 37.2322 94.6432 37.2419 94.6477 37.2538Z" fill="#263238"/>
<path d="M98.3233 34.5485C98.3233 34.5485 98.3514 35.4912 98.3233 35.9345C97.4596 35.843 96.5872 35.8732 95.7319 36.0243C95.5296 36.0692 95.552 35.9065 95.7825 35.7998C96.4715 35.4855 97.2388 35.3839 97.9861 35.5081C98.031 35.3902 97.913 34.0491 97.9861 34.0547C98.3261 34.1214 98.6552 34.2347 98.9642 34.3914C98.9642 32.4163 98.6494 30.4635 98.6775 28.4884C98.6775 28.421 98.7843 28.4098 98.7955 28.4884C99.195 30.5779 99.3833 32.7021 99.3577 34.8291C99.3633 35.0704 98.492 34.6383 98.3233 34.5485Z" fill="#263238"/>
<path d="M97.06 35.5981C96.836 36.1865 96.4202 36.6825 95.8796 37.0065C95.0307 37.3488 94.7553 36.5801 95.6097 35.8843C96.0578 35.6582 96.5595 35.5592 97.06 35.5981Z" fill="#263238"/>
<path d="M96.1739 36.8334C96.0842 36.9064 95.9837 36.9651 95.876 37.0074C95.0946 37.3216 94.7855 36.6988 95.415 36.0703C95.8423 36.104 96.3313 36.2611 96.1739 36.8334Z" fill="#FF99BA"/>
<path d="M87.7226 31.7607C88.7513 32.0749 89.9318 28.9887 90.2691 27.8328C90.5614 26.7891 90.8986 23.4729 90.9492 23.2428C90.9998 23.0127 95.4463 26.1775 98.0208 25.4256C100.595 24.6737 102.344 22.345 102.383 21.262C102.422 20.1791 99.2013 17.4295 96.4187 17.2893C93.6362 17.149 89.8643 20.656 89.8643 20.656C90.3199 20.1399 90.7335 19.5882 91.101 19.0063C91.056 18.8828 89.2572 19.6011 88.9256 20.8805C88.9256 20.8805 89.2853 19.27 89.1504 19.242C89.0155 19.2139 87.6158 20.5887 87.9306 21.6324C87.9306 21.6324 86.3117 23.0296 86.1655 24.5614C86.0194 26.0933 86.514 31.3903 87.7226 31.7607Z" fill="#263238"/>
<path d="M99.8634 24.8428C99.0978 25.2572 98.2732 25.5524 97.4182 25.7181C96.4585 25.8036 95.4926 25.6493 94.6075 25.2692C93.7159 24.9254 92.8877 24.4362 92.1566 23.8215C91.5102 23.2941 90.9312 22.6488 90.2398 22.1774C90.0655 22.054 89.8688 22.3065 89.9756 22.4636C91.1291 24.0901 92.777 25.3021 94.675 25.9201C95.5565 26.207 96.4975 26.2606 97.4059 26.0757C98.3144 25.8908 99.1592 25.4737 99.8578 24.8652C99.8578 24.8652 99.8747 24.8428 99.8634 24.8428Z" fill="#263238"/>
<path d="M88.7966 31.486C88.7966 31.486 87.2001 28.2539 85.7611 28.7758C84.322 29.2976 85.1989 33.7698 86.6773 34.589C86.8584 34.706 87.0613 34.7852 87.2738 34.822C87.4864 34.8588 87.7041 34.8524 87.9141 34.8031C88.1241 34.7539 88.3219 34.6628 88.4958 34.5354C88.6696 34.4079 88.8159 34.2468 88.9259 34.0616L88.7966 31.486Z" fill="#EB9481"/>
<path d="M86.0462 30.0469C86.0462 30.0469 86.0125 30.0469 86.0462 30.0918C87.0693 30.6978 87.4853 31.7751 87.7326 32.8974C87.6861 32.7786 87.6142 32.6713 87.522 32.5829C87.4298 32.4946 87.3195 32.4273 87.1987 32.3856C87.0779 32.344 86.9495 32.3291 86.8223 32.3419C86.6951 32.3547 86.5723 32.3949 86.4622 32.4597C86.4285 32.4597 86.4622 32.5214 86.4622 32.5214C86.6633 32.4902 86.8691 32.522 87.0514 32.6125C87.2336 32.7029 87.3832 32.8476 87.4797 33.0264C87.6406 33.3261 87.7687 33.6421 87.8619 33.9691C87.8956 34.0758 88.0811 34.0477 88.0643 33.9299C88.306 32.5327 87.519 30.4172 86.0462 30.0469Z" fill="#263238"/>
<path d="M78.2548 45.9185C77.1305 52.276 84.0335 73.6942 88.4574 77.695C95.0399 83.6429 107.21 87.554 111.623 88.8277C113.545 89.3888 118.863 75.8826 116.918 74.9904C112.753 73.0994 99.8124 69.0593 98.5813 68.0493C97.3503 67.0392 89.9302 56.3386 86.6249 50.1774C82.2009 41.884 78.8113 42.7032 78.2548 45.9185Z" fill="#EB9481"/>
<path d="M113.64 73.8008C113.64 73.8008 119.385 75.2653 123.089 76.3932C125.158 77.0272 128.609 78.4245 129.919 79.5804C131.875 81.3142 138.947 89.7985 136.923 91.5548C135.091 93.1484 129.942 85.085 129.942 85.085C129.942 85.085 135.855 92.7612 133.314 94.2706C130.774 95.7801 126.125 85.8986 126.125 85.8986C126.125 85.8986 132.022 93.9227 129.138 95.0618C126.957 95.9203 122.28 87.2061 122.28 87.2061C122.28 87.2061 127.305 94.136 125.09 95.1179C122.651 96.2065 117.833 88.4293 117.833 88.4293C111.807 89.9836 108.277 88.261 105.956 86.7459C105.41 86.3756 113.64 73.8008 113.64 73.8008Z" fill="#EB9481"/>
<path d="M128.066 82.2945C128.796 83.1698 129.538 84.0564 130.185 84.9935C130.831 85.9305 131.444 86.8957 132.001 87.8889C132.755 89.1735 133.358 90.5404 133.799 91.9626C132.833 89.4937 130.567 86.0989 129.921 85.1618C129.274 84.2247 128.673 83.254 128.032 82.3169C128.015 82.2945 128.049 82.272 128.066 82.2945Z" fill="#263238"/>
<path d="M124.631 84.5656C125.879 85.5531 128.493 89.2229 129.499 91.6862C129.544 91.7872 129.499 91.7816 129.426 91.6862C128.639 90.4686 125.446 85.7552 124.603 84.5824C124.586 84.5656 124.614 84.5487 124.631 84.5656Z" fill="#263238"/>
<path d="M121.333 86.0053C122.884 87.6288 124.109 89.5334 124.942 91.6165C124.981 91.7175 124.903 91.7007 124.841 91.6165C123.677 89.7256 122.778 88.2498 121.271 86.0558C121.249 86.0053 121.299 85.9548 121.333 86.0053Z" fill="#263238"/>
<path d="M84.5269 46.3845C79.3947 39.1404 76.3255 41.8225 77.3541 49.6895C78.321 57.0459 80.9012 65.8106 80.9012 65.8106L93.8301 59.5485C93.8301 59.5485 87.7929 51.025 84.5269 46.3845Z" fill="#C6E19B"/>
<path d="M87.6485 49.2344C87.8189 49.6435 87.9415 50.0709 88.0139 50.5081C88.0928 50.9467 88.1211 51.3929 88.0982 51.838C87.9296 51.4267 87.8089 50.9974 87.7385 50.5586C87.6549 50.1225 87.6247 49.6778 87.6485 49.2344Z" fill="white"/>
<path d="M79.9844 53.6393C80.8094 53.3037 81.6972 53.1503 82.587 53.1896C82.1769 53.3582 81.7488 53.4789 81.311 53.5494C80.874 53.6328 80.4286 53.663 79.9844 53.6393Z" fill="white"/>
<path d="M80.3202 42.3711C79.9721 43.1911 79.4528 43.9276 78.7969 44.5314C79.145 43.7114 79.6643 42.9749 80.3202 42.3711Z" fill="white"/>
<path d="M91.2734 57.0234C91.1027 57.4338 90.8858 57.8235 90.6269 58.185C90.3748 58.551 90.0805 58.8863 89.75 59.1838C90.0981 58.3637 90.6175 57.6272 91.2734 57.0234Z" fill="white"/>
<path d="M82.2814 61.4152C81.8693 61.2468 81.4787 61.0302 81.1178 60.7699C80.7509 60.5184 80.415 60.2246 80.1172 59.8945C80.9387 60.242 81.6765 60.7604 82.2814 61.4152Z" fill="white"/>
<path d="M86.2151 48.5664C86.9066 49.5147 87.6205 50.4406 88.3287 51.372C88.1489 50.9007 87.9915 50.4237 87.8565 49.9412H87.8903C88.0308 50.3115 88.1938 50.6762 88.3287 51.0634L88.5311 51.6245C88.5485 51.6628 88.5636 51.7022 88.5761 51.7424C89.1382 52.4662 89.7003 53.1901 90.2175 53.9308C90.8527 54.8173 91.4654 55.7151 92.0838 56.6129C92.7021 57.5107 93.3261 58.6274 93.995 59.5308C94.0568 59.6094 92.8707 60.0919 92.7414 60.1536C92.6122 60.2154 92.5447 60.1088 92.6684 60.0695C92.792 60.0302 93.7364 59.4522 93.7476 59.441C93.1293 58.532 92.4154 57.6959 91.769 56.8149C91.1225 55.934 90.4817 55.053 89.8577 54.1608C88.5929 52.3428 87.4349 50.4574 86.1758 48.6337L86.2151 48.5664Z" fill="#263238"/>
<path d="M77.6581 54.8964C77.8548 55.2779 78.0684 55.6539 78.2202 56.0467L78.4338 56.5349C78.1359 55.1377 77.8717 53.7292 77.5625 52.332C78.1584 54.5765 78.7598 56.8715 79.3107 59.1497C79.8335 61.3269 80.4687 63.5265 80.7723 65.7485C81.1642 65.5769 81.5705 65.4398 81.9864 65.3389C81.569 65.6086 81.1196 65.8253 80.6486 65.9842C79.971 63.7246 79.4081 61.4323 78.9622 59.116C78.8217 58.4876 78.6924 57.8591 78.5575 57.2307C78.4113 56.8491 78.2371 56.4844 78.0628 56.1084C77.8885 55.7324 77.7311 55.3116 77.5737 54.9132C77.6075 54.8908 77.6468 54.8683 77.6581 54.8964Z" fill="#263238"/>
<path d="M81.0966 63.6432C82.8954 62.6332 90.411 58.7502 92.0918 58.032C92.2098 57.9815 92.2717 58.032 92.1536 58.1105C88.5861 60.1798 84.9081 62.053 81.1359 63.7218C81.091 63.733 81.046 63.6713 81.0966 63.6432Z" fill="#263238"/>
<path d="M287.082 211.162H115.812L140.574 70.9648H311.843L287.082 211.162Z" fill="#C6E19B"/>
<path d="M199.193 56.4414H143.143L140.574 70.9633H200.559L199.193 56.4414Z" fill="#C6E19B"/>
<g opacity="0.1">
<path d="M287.086 211.162H115.816L140.578 70.9648H311.847L287.086 211.162Z" fill="black"/>
<path d="M199.197 56.4414H143.147L140.578 70.9633H200.563L199.197 56.4414Z" fill="black"/>
</g>
<path d="M137.094 62.3662C136.719 60.7604 136.719 59.0901 137.094 57.4844C137.468 59.0901 137.468 60.7604 137.094 62.3662Z" fill="#263238"/>
<path d="M132.115 63.8056C131.543 63.2132 131.049 62.5493 130.648 61.8304C130.227 61.1266 129.896 60.3725 129.664 59.5859C130.238 60.1749 130.731 60.8372 131.131 61.5555C131.552 62.2618 131.882 63.0177 132.115 63.8056Z" fill="#263238"/>
<path d="M128.514 67.5346C126.935 67.0552 125.486 66.2201 124.281 65.0938C125.069 65.3224 125.825 65.6505 126.53 66.0701C127.25 66.4736 127.917 66.9656 128.514 67.5346Z" fill="#263238"/>
<path d="M127.258 72.5619C125.649 72.936 123.976 72.936 122.367 72.5619C123.976 72.1877 125.649 72.1877 127.258 72.5619Z" fill="#263238"/>
<path d="M128.719 77.5352C128.123 78.1035 127.459 78.5955 126.741 78.9997C126.036 79.4193 125.28 79.7474 124.492 79.976C125.086 79.4047 125.751 78.9124 126.471 78.5115C127.175 78.0899 127.931 77.7617 128.719 77.5352Z" fill="#263238"/>
<path d="M132.449 81.1211C131.971 82.7002 131.134 84.148 130.004 85.352C130.233 84.5643 130.563 83.8098 130.988 83.1075C131.388 82.3861 131.879 81.7186 132.449 81.1211Z" fill="#263238"/>
<path d="M137.486 82.3594C137.682 83.158 137.776 83.9781 137.767 84.8003C137.779 85.6226 137.684 86.443 137.486 87.2412C137.284 86.4435 137.19 85.6227 137.205 84.8003C137.195 83.9781 137.29 83.158 137.486 82.3594Z" fill="#263238"/>
<path d="M142.469 80.9526C143.041 81.5451 143.534 82.209 143.936 82.9278C144.358 83.6304 144.687 84.3849 144.914 85.1723C143.784 83.9683 142.947 82.5205 142.469 80.9414V80.9526Z" fill="#263238"/>
<path d="M146.062 77.1914C146.851 77.4179 147.607 77.7461 148.311 78.1678C149.031 78.5687 149.696 79.061 150.29 79.6323C149.501 79.4058 148.745 79.0776 148.041 78.6559C147.321 78.255 146.656 77.7628 146.062 77.1914Z" fill="#263238"/>
<path d="M147.301 72.1633C148.911 71.7893 150.586 71.7893 152.197 72.1633C150.586 72.5373 148.911 72.5373 147.301 72.1633Z" fill="#263238"/>
<path d="M145.863 67.1948C146.458 66.6269 147.123 66.1367 147.842 65.7359C148.544 65.3102 149.3 64.98 150.09 64.7539C148.884 65.8819 147.434 66.7171 145.852 67.1948H145.863Z" fill="#263238"/>
<path d="M142.129 63.6064C142.36 62.8206 142.689 62.0666 143.107 61.3619C143.509 60.6431 144.002 59.9792 144.574 59.3867C144.347 60.1741 144.018 60.9287 143.596 61.6312C143.194 62.35 142.701 63.0139 142.129 63.6064Z" fill="#263238"/>
<path d="M286.829 211.162H115.194L90.8203 76.0547H262.461L286.829 211.162Z" fill="#C6E19B"/>
<path d="M150.301 158.644C154.241 158.644 157.435 155.456 157.435 151.523C157.435 147.59 154.241 144.402 150.301 144.402C146.362 144.402 143.168 147.59 143.168 151.523C143.168 155.456 146.362 158.644 150.301 158.644Z" fill="#263238"/>
<path d="M206.692 158.644C210.632 158.644 213.825 155.456 213.825 151.523C213.825 147.59 210.632 144.402 206.692 144.402C202.752 144.402 199.559 147.59 199.559 151.523C199.559 155.456 202.752 158.644 206.692 158.644Z" fill="#263238"/>
<path d="M188.743 159.786L188.349 159.04C188.316 158.972 184.628 152.172 177.213 152.172C170.468 152.172 168.782 158.574 168.737 158.849L168.534 159.663L166.898 159.27L167.095 158.451C167.095 158.372 169.108 150.488 177.213 150.488C185.645 150.488 189.676 157.94 189.845 158.26L190.238 159.001L188.743 159.786Z" fill="#263238"/>
<path d="M275.493 150.983L275.375 150.422C275.74 150.344 276.1 150.259 276.46 150.164L276.6 150.725C276.218 150.821 275.864 150.905 275.493 150.983Z" fill="#263238"/>
<path d="M278.774 150.08L278.595 149.552C279.297 149.311 280 149.047 280.68 148.761L280.899 149.277C280.208 149.569 279.494 149.839 278.774 150.08ZM282.962 148.29L282.709 147.796C283.367 147.454 284.025 147.083 284.649 146.674L284.941 147.151C284.3 147.594 283.631 147.97 282.962 148.29ZM286.83 145.916L286.498 145.462C287.105 145.018 287.69 144.553 288.241 144.076L288.612 144.497C288.021 145.007 287.459 145.484 286.824 145.939L286.83 145.916ZM290.259 142.931L289.848 142.544C290.366 141.983 290.855 141.422 291.304 140.861L291.748 141.203C291.282 141.82 290.781 142.398 290.27 142.954L290.259 142.931ZM293.041 139.34L292.563 139.043C292.952 138.416 293.298 137.763 293.598 137.09L294.115 137.32C293.797 138.022 293.437 138.704 293.036 139.362L293.041 139.34ZM294.902 135.176L294.34 135.019C294.545 134.315 294.697 133.597 294.795 132.87L295.357 132.943C295.264 133.706 295.11 134.46 294.896 135.199L294.902 135.176ZM295.526 130.687H294.964V130.525C294.964 129.846 294.924 129.155 294.857 128.477L295.419 128.42C295.493 129.119 295.53 129.822 295.531 130.525L295.526 130.687ZM294.514 126.294C294.363 125.57 294.175 124.855 293.952 124.15L294.514 123.982C294.744 124.711 294.941 125.452 295.076 126.176L294.514 126.294ZM293.182 122.068C292.912 121.406 292.62 120.727 292.26 120.043L292.766 119.79C293.109 120.486 293.423 121.182 293.699 121.855L293.182 122.068ZM291.214 118.068C290.866 117.456 290.484 116.811 290.09 116.149L290.568 115.851C290.978 116.519 291.366 117.17 291.692 117.793L291.214 118.068ZM288.865 114.258C288.454 113.64 288.038 113.018 287.611 112.395L288.078 112.08C288.505 112.703 288.921 113.326 289.331 113.955L288.865 114.258ZM286.335 110.543C285.913 109.926 285.486 109.303 285.07 108.686L285.537 108.371C285.953 108.989 286.374 109.612 286.796 110.223L286.335 110.543ZM283.822 106.806C283.412 106.177 283.013 105.538 282.619 104.898L283.097 104.606C283.491 105.246 283.89 105.874 284.295 106.503L283.822 106.806ZM281.478 102.951C281.096 102.272 280.742 101.599 280.421 100.953L280.927 100.701C281.242 101.341 281.596 102.003 281.967 102.676L281.478 102.951ZM279.483 98.9108C279.185 98.2094 278.921 97.4968 278.673 96.801L279.235 96.6215C279.471 97.3004 279.736 98.0018 280.028 98.692L279.483 98.9108ZM278.021 94.6295C277.836 93.9 277.673 93.1537 277.549 92.385L278.111 92.2952C278.235 93.0134 278.387 93.7429 278.572 94.4611L278.021 94.6295ZM277.268 90.1404C277.212 89.4503 277.184 88.7545 277.184 88.0587V87.8735H277.746V88.0531C277.746 88.732 277.746 89.4166 277.83 90.09L277.268 90.1404ZM277.83 85.6515L277.268 85.5953C277.268 85.4438 277.296 85.2867 277.313 85.124C277.38 84.5236 277.465 83.9232 277.566 83.3508L278.128 83.4462C278.032 84.0074 277.948 84.5965 277.881 85.1857C277.903 85.3597 277.903 85.5112 277.858 85.6683L277.83 85.6515ZM278.611 81.2859L278.049 81.1344C278.257 80.3937 278.499 79.6699 278.769 78.9797L279.292 79.1817C279.036 79.8764 278.818 80.5845 278.64 81.3027L278.611 81.2859ZM306.622 78.0145C306.307 78.0145 305.981 77.9697 305.661 77.9248C305.223 77.863 304.784 77.7901 304.351 77.7059L304.464 77.1448C304.88 77.2234 305.313 77.2963 305.74 77.358C306.043 77.3973 306.352 77.4254 306.65 77.4422L306.622 78.0145ZM308.933 77.8406L308.815 77.2795C309.52 77.1341 310.196 76.8724 310.816 76.5051L311.108 76.9821C310.446 77.391 309.72 77.6869 308.961 77.8574L308.933 77.8406ZM280.23 77.1728L279.73 76.9091C280.088 76.2399 280.484 75.5917 280.916 74.9676L281.377 75.2875C280.966 75.8985 280.593 76.5338 280.258 77.1897L280.23 77.1728ZM302.153 77.1392C301.428 76.9094 300.715 76.6416 300.017 76.3368L300.248 75.8205C300.923 76.1203 301.616 76.3807 302.322 76.6005L302.153 77.1392ZM312.834 75.3885L312.367 75.0742C312.767 74.4946 313.004 73.8182 313.053 73.1159L313.615 73.1552C313.567 73.9602 313.303 74.7374 312.851 75.4053L312.834 75.3885ZM297.994 75.3043C297.336 74.9226 296.7 74.5049 296.088 74.053L296.42 73.6041C297.015 74.0423 297.634 74.447 298.275 74.8161L297.994 75.3043ZM282.76 73.5536L282.344 73.1776C282.853 72.6126 283.395 72.0785 283.968 71.5784L284.34 71.9993C283.788 72.4918 283.266 73.0164 282.777 73.5704L282.76 73.5536ZM294.334 72.6053C293.774 72.0905 293.243 71.5454 292.743 70.9724L293.165 70.6021C293.651 71.1586 294.167 71.6887 294.711 72.1901L294.334 72.6053ZM312.631 71.0846C312.309 70.4434 311.864 69.8715 311.322 69.4013L311.693 68.9804C312.29 69.4961 312.781 70.1232 313.137 70.8265L312.631 71.0846ZM286.088 70.6413L285.767 70.1812C286.396 69.7527 287.047 69.3575 287.718 68.9973L287.982 69.4911C287.336 69.8473 286.71 70.2368 286.105 70.6582L286.088 70.6413ZM291.338 69.1824C291.124 68.8794 290.916 68.5708 290.72 68.251L289.989 68.5371L289.775 68.0209L290.422 67.7628C290.321 67.5944 290.219 67.4261 290.124 67.2578L290.613 66.9828C290.725 67.1792 290.838 67.3756 290.956 67.5439C291.271 67.4317 291.591 67.3251 291.917 67.2241L292.08 67.7852C291.805 67.8694 291.518 67.9592 291.259 68.0546C291.434 68.3295 291.613 68.6157 291.821 68.857L291.338 69.1824ZM309.512 68.2173C308.968 67.9467 308.404 67.7179 307.825 67.5327L307.454 67.4149L307.617 66.8538L307.999 66.9772C308.602 67.1688 309.188 67.4071 309.753 67.6898L309.512 68.2173ZM294.233 67.2129L294.115 66.6517C294.84 66.489 295.593 66.3544 296.363 66.2477L296.448 66.8089C295.706 66.9267 294.969 67.067 294.25 67.2297L294.233 67.2129ZM305.307 66.9099C304.604 66.7864 303.862 66.691 303.103 66.6237L303.148 66.0626C303.93 66.1299 304.689 66.2253 305.397 66.3544L305.307 66.9099ZM298.646 66.5844L298.606 66.0233C299.275 65.984 299.944 65.9616 300.608 65.9616H300.883V66.5227H300.613C299.978 66.5395 299.315 66.5564 298.663 66.6012L298.646 66.5844ZM289.146 65.2433C288.842 64.5588 288.584 63.8461 288.331 63.1223L288.893 62.9483C289.129 63.6553 289.393 64.3511 289.685 65.0189L289.146 65.2433ZM287.723 60.9339C287.555 60.21 287.414 59.4581 287.308 58.6894L287.87 58.6108C287.976 59.3515 288.111 60.0866 288.274 60.7992L287.723 60.9339ZM287.094 56.4449C287.066 55.9399 287.049 55.4236 287.049 54.9074C287.049 54.6661 287.049 54.4192 287.049 54.1779H287.611C287.611 54.4192 287.611 54.6549 287.611 54.8962C287.611 55.4012 287.611 55.9118 287.65 56.4L287.094 56.4449ZM287.763 51.9559L287.201 51.8998C287.279 51.1591 287.386 50.4016 287.516 49.6553L288.078 49.7507C287.926 50.497 287.819 51.2152 287.746 51.9671L287.763 51.9559ZM288.533 47.5735L287.971 47.4388C288.151 46.715 288.359 45.9855 288.589 45.2561L289.151 45.43C288.898 46.1651 288.69 46.8777 288.516 47.5847L288.533 47.5735ZM289.882 43.3258L289.359 43.1238C289.635 42.4224 289.921 41.721 290.264 41.042L290.77 41.2889C290.433 41.9622 290.135 42.6468 289.865 43.3594L289.882 43.3258ZM291.816 39.325L291.327 39.0388C291.709 38.3935 292.119 37.7482 292.547 37.131L293.008 37.4508C292.569 38.068 292.17 38.6965 291.799 39.3362L291.816 39.325ZM294.351 35.672L293.913 35.3185C294.385 34.7574 294.891 34.1626 295.413 33.6351L295.818 34.0223C295.29 34.5498 294.795 35.1109 294.334 35.6833L294.351 35.672ZM297.409 32.4399L297.032 32.0247C297.595 31.5253 298.157 31.0315 298.758 30.5546L299.107 30.9979C298.505 31.4748 297.932 31.963 297.392 32.4512L297.409 32.4399ZM300.9 29.668L300.579 29.2023C301.192 28.7814 301.833 28.3662 302.485 27.9734L302.772 28.4503C302.12 28.8487 301.513 29.2584 300.883 29.6792L300.9 29.668ZM304.717 27.3505L304.452 26.8568C305.116 26.5032 305.802 26.1666 306.487 25.8523L306.723 26.363C306.01 26.6828 305.352 27.0195 304.7 27.3618L304.717 27.3505ZM308.781 25.4876L308.573 24.9601C309.281 24.6852 309.995 24.399 310.703 24.1914L310.883 24.7525C310.169 24.9658 309.461 25.2239 308.764 25.4988L308.781 25.4876Z" fill="#263238"/>
<path d="M313.117 24.0653L312.977 23.5042C313.674 23.3247 314.101 23.2461 314.101 23.2461L314.202 23.8072C314.202 23.8072 313.797 23.8914 313.117 24.0653Z" fill="#263238"/>
<path d="M323.056 20.4432C321.623 16.0103 312.021 17.6039 313.893 23.4004C315.765 29.1968 324.489 24.8817 323.056 20.4432Z" fill="#263238"/>
<path d="M308.669 18.6681C308.743 16.721 311.452 15.2228 315.286 15.913C319.119 16.6032 322.723 19.1844 322.723 19.1844C322.723 19.1844 318.94 21.4738 315.066 21.8946C311.193 22.3154 308.596 20.6096 308.669 18.6681Z" fill="#EBEBEB"/>
<path d="M322.722 19.1728C320.732 19.1728 318.748 19.1166 316.763 19.0548C314.779 18.993 312.789 18.8918 310.805 18.7344C312.795 18.7344 314.785 18.785 316.769 18.8468C318.753 18.9086 320.743 19.0098 322.722 19.1728Z" fill="#263238"/>
<path d="M312.52 16.9336C313.649 17.4731 314.714 18.1375 315.696 18.9144C315.13 18.6496 314.582 18.3497 314.054 18.0166C313.522 17.6857 313.009 17.3241 312.52 16.9336Z" fill="#263238"/>
<path d="M317.73 18.9883C316.713 19.8109 315.611 20.5221 314.441 21.1093C315.464 20.2856 316.572 19.5745 317.747 18.9883H317.73Z" fill="#263238"/>
<path d="M318.312 17.8945C318.88 18.1664 319.376 18.5659 319.763 19.0617C319.479 18.928 319.213 18.7603 318.97 18.5623C318.726 18.3654 318.506 18.1414 318.312 17.8945Z" fill="#263238"/>
<path d="M312.322 30.1987C313.519 31.7362 316.594 31.3659 319.298 28.5715C322.002 25.777 323.435 21.5742 323.435 21.5742C323.435 21.5742 319.006 21.9109 315.627 23.8187C312.249 25.7265 311.119 28.6556 312.322 30.1987Z" fill="#EBEBEB"/>
<path d="M323.433 21.5742C321.815 22.6965 320.241 23.9422 318.661 25.1486C317.081 26.355 315.536 27.6007 314.023 28.8857C315.642 27.7634 317.216 26.5233 318.79 25.3169C320.364 24.1105 321.899 22.8648 323.433 21.5742Z" fill="#263238"/>
<path d="M316.457 29.3315C316.758 28.7865 317.026 28.2244 317.261 27.6482C317.5 27.0703 317.703 26.4781 317.868 25.875C317.567 26.4196 317.298 26.9817 317.064 27.5584C316.827 28.1371 316.625 28.7292 316.457 29.3315Z" fill="#263238"/>
<path d="M319.501 24.6398C318.186 24.5695 316.867 24.6392 315.566 24.8478C316.222 24.8871 316.879 24.8871 317.534 24.8478C318.193 24.8156 318.85 24.7462 319.501 24.6398Z" fill="#263238"/>
<path d="M320.586 25.1957C320.736 24.9186 320.853 24.6248 320.934 24.3204C321.018 24.0182 321.067 23.7076 321.081 23.3945C320.782 23.95 320.613 24.5658 320.586 25.1957Z" fill="#263238"/>
<path d="M323.055 20.4407C322.737 20.5436 322.396 20.5502 322.075 20.4595C321.754 20.3689 321.467 20.1851 321.251 19.9315C321.034 19.678 320.898 19.3659 320.859 19.035C320.82 18.7041 320.881 18.3691 321.033 18.0725C321.185 17.7759 321.422 17.5311 321.714 17.369C322.005 17.2068 322.338 17.1347 322.671 17.1618C323.004 17.1889 323.321 17.3139 323.582 17.521C323.844 17.7281 324.038 18.008 324.14 18.3253C324.276 18.7494 324.239 19.2102 324.035 19.6067C323.832 20.0032 323.479 20.3031 323.055 20.4407Z" fill="#455A64"/>
<path d="M324.088 23.6444C323.771 23.7469 323.431 23.7531 323.11 23.6624C322.789 23.5717 322.502 23.3881 322.286 23.1347C322.069 22.8814 321.933 22.5697 321.894 22.2391C321.855 21.9084 321.916 21.5737 322.067 21.2773C322.219 20.9808 322.455 20.7358 322.746 20.5734C323.037 20.411 323.37 20.3383 323.703 20.3647C324.035 20.391 324.352 20.5151 324.614 20.7214C324.876 20.9276 325.07 21.2067 325.173 21.5233C325.242 21.7337 325.268 21.9554 325.25 22.1759C325.233 22.3964 325.172 22.6113 325.071 22.8082C324.97 23.0052 324.832 23.1805 324.663 23.3239C324.495 23.4674 324.299 23.5763 324.088 23.6444Z" fill="#455A64"/>
<path d="M139.796 22.2148C139.526 24.7921 138.545 27.244 136.961 29.2969C135.377 31.3498 133.252 32.9229 130.824 33.8407C128.397 34.7585 125.761 34.9848 123.212 34.4945C120.663 34.0041 118.301 32.8163 116.389 31.0637L109.379 32.0906L112.887 26.0416C112.084 24.0734 111.742 21.9486 111.886 19.8286C112.03 17.7086 112.655 15.6491 113.716 13.8067C114.776 11.9642 116.243 10.3872 118.005 9.19548C119.768 8.00372 121.779 7.22855 123.886 6.92885C125.994 6.62915 128.142 6.8128 130.167 7.46586C132.193 8.11891 134.043 9.22419 135.577 10.6977C137.11 12.1713 138.287 13.9743 139.018 15.9699C139.749 17.9656 140.015 20.1012 139.796 22.2148Z" fill="white"/>
<path d="M139.796 22.2155C139.532 24.7915 138.56 27.2444 136.986 29.3025C136.216 30.3435 135.289 31.2579 134.237 32.0128C133.208 32.7959 132.072 33.4289 130.864 33.8925C129.655 34.3677 128.385 34.6699 127.092 34.7903C126.445 34.8483 125.796 34.8614 125.147 34.8296C124.496 34.8129 123.848 34.7454 123.208 34.6276C120.624 34.1531 118.224 32.9698 116.277 31.2104L116.44 31.2609L109.441 32.3326L108.93 32.4112L109.188 31.9623L112.673 25.9021V26.1434C111.851 24.1388 111.501 21.9724 111.652 19.8114C111.802 17.6505 112.447 15.5529 113.539 13.6808C114.629 11.8146 116.128 10.2187 117.924 9.01226C119.716 7.82187 121.755 7.05205 123.888 6.76051C126.021 6.46897 128.193 6.66328 130.24 7.32888C132.265 8.0167 134.111 9.14783 135.642 10.6395C137.17 12.1275 138.338 13.9432 139.057 15.949C139.777 17.9547 140.03 20.0978 139.796 22.2155ZM139.796 22.2155C140.023 20.1082 139.762 17.977 139.033 15.9864C138.304 13.9957 137.127 12.199 135.591 10.7348C134.056 9.27069 132.204 8.17831 130.179 7.54203C128.154 6.90575 126.009 6.74259 123.91 7.06515C121.833 7.3721 119.854 8.15155 118.126 9.34332C116.413 10.5444 114.982 12.103 113.933 13.9109C112.899 15.7228 112.29 17.7447 112.151 19.8251C112.014 21.9196 112.352 24.0179 113.14 25.9638L113.191 26.0873L113.123 26.2051L109.593 32.2428L109.346 31.8725L116.361 30.8905H116.457L116.524 30.9523C118.399 32.6946 120.723 33.8817 123.236 34.3807C123.862 34.5081 124.497 34.585 125.136 34.6108C125.774 34.6557 126.415 34.6557 127.053 34.6108C128.333 34.5078 129.592 34.2303 130.796 33.7859C132.003 33.3473 133.14 32.7348 134.169 31.9679C135.217 31.2191 136.146 30.3168 136.924 29.2913C138.518 27.2432 139.512 24.7939 139.796 22.2155Z" fill="#263238"/>
<path d="M119.014 27.281C119.003 27.0952 119.031 26.9092 119.095 26.7345C119.159 26.5598 119.259 26.4002 119.387 26.2655C119.516 26.1308 119.671 26.0239 119.843 25.9515C120.014 25.8791 120.199 25.8427 120.386 25.8445C120.767 25.8445 121.133 25.9959 121.403 26.2653C121.673 26.5347 121.825 26.9 121.825 27.281C121.825 27.662 121.673 28.0274 121.403 28.2968C121.133 28.5661 120.767 28.7175 120.386 28.7175C120.199 28.7193 120.014 28.6829 119.843 28.6105C119.671 28.5381 119.516 28.4312 119.387 28.2965C119.259 28.1618 119.159 28.0022 119.095 27.8275C119.031 27.6528 119.003 27.4668 119.014 27.281ZM119.576 23.9648L119.25 12.832H121.499L121.173 23.9648H119.576Z" fill="#C6E19B"/>
<path d="M124.362 27.281C124.351 27.0957 124.378 26.9102 124.442 26.7359C124.506 26.5616 124.605 26.4022 124.733 26.2676C124.861 26.1329 125.015 26.026 125.186 25.9532C125.357 25.8804 125.542 25.8434 125.728 25.8445C126.109 25.8445 126.475 25.9959 126.745 26.2653C127.015 26.5347 127.167 26.9 127.167 27.281C127.167 27.662 127.015 28.0274 126.745 28.2968C126.475 28.5661 126.109 28.7175 125.728 28.7175C125.542 28.7186 125.357 28.6816 125.186 28.6088C125.015 28.5361 124.861 28.4291 124.733 28.2945C124.605 28.1598 124.506 28.0004 124.442 27.8261C124.378 27.6518 124.351 27.4663 124.362 27.281ZM124.924 23.9648L124.615 12.832H126.863L126.537 23.9648H124.924Z" fill="#C6E19B"/>
<path d="M129.702 27.281C129.691 27.0952 129.718 26.9092 129.783 26.7345C129.847 26.5598 129.946 26.4002 130.075 26.2655C130.203 26.1308 130.358 26.0239 130.53 25.9515C130.702 25.8791 130.887 25.8427 131.073 25.8445C131.455 25.8445 131.821 25.9959 132.091 26.2653C132.361 26.5347 132.512 26.9 132.512 27.281C132.512 27.662 132.361 28.0274 132.091 28.2968C131.821 28.5661 131.455 28.7175 131.073 28.7175C130.887 28.7193 130.702 28.6829 130.53 28.6105C130.358 28.5381 130.203 28.4312 130.075 28.2965C129.946 28.1618 129.847 28.0022 129.783 27.8275C129.718 27.6528 129.691 27.4668 129.702 27.281ZM130.264 23.9648L129.938 12.832H132.186L131.866 23.9648H130.264Z" fill="#C6E19B"/>
</svg>
