<svg width="235" height="256" viewBox="0 0 235 256" fill="none" xmlns="http://www.w3.org/2000/svg">
<path d="M197.593 138.677L156.578 123.042C155.904 122.786 155.287 122.397 154.762 121.9C154.237 121.402 153.815 120.806 153.519 120.143C153.223 119.481 153.06 118.767 153.038 118.041C153.016 117.315 153.136 116.592 153.392 115.913L174.855 58.6843C175.37 57.3124 176.404 56.2026 177.73 55.5992C179.056 54.9957 180.566 54.948 181.927 55.4665L207.941 65.3817L220.224 93.9789L204.665 135.482C204.146 136.85 203.11 137.954 201.784 138.553C200.459 139.152 198.951 139.197 197.593 138.677Z" fill="#F5F5F5"/>
<path d="M207.945 65.3828L201.899 81.4894C201.662 82.1214 201.55 82.7943 201.571 83.4698C201.591 84.1453 201.744 84.8101 202.019 85.4263C202.295 86.0424 202.688 86.5977 203.176 87.0607C203.665 87.5236 204.239 87.885 204.866 88.1242L220.227 93.9801L207.945 65.3828Z" fill="#EBEBEB"/>
<path d="M201.575 82.9844C201.575 82.9844 199.912 86.8163 203.831 89.8068C203.979 89.9183 204.133 90.0208 204.294 90.1138C206.166 91.2509 218.482 98.6418 218.595 98.3405L220.219 94.0082L204.857 88.1524C204.857 88.1524 201.079 86.532 201.575 82.9844Z" fill="#E0E0E0"/>
<path d="M198.704 79.521C198.625 79.7313 194.317 78.2759 189.078 76.2803C183.839 74.2848 179.655 72.4939 179.734 72.3006C179.812 72.1073 184.121 73.5457 189.36 75.5412C194.599 77.5368 198.783 79.2993 198.704 79.521Z" fill="#E0E0E0"/>
<path d="M207.54 93.3021C207.461 93.5068 200.412 91.028 191.79 87.7248C183.167 84.4216 176.236 81.6017 176.315 81.3913C176.394 81.181 183.443 83.6655 192.072 86.9743C200.7 90.2832 207.602 93.0918 207.54 93.3021Z" fill="#E0E0E0"/>
<path d="M207.503 101.979C207.424 102.183 199.743 99.4487 190.342 95.8613C180.941 92.2738 173.385 89.2037 173.464 88.9991C173.542 88.7944 181.223 91.529 190.624 95.1165C200.025 98.7039 207.604 101.768 207.503 101.979Z" fill="#E0E0E0"/>
<path d="M204.811 109.154C204.732 109.359 197.052 106.624 187.651 103.037C178.25 99.4494 170.693 96.3566 170.772 96.1747C170.851 95.9927 178.532 98.7046 187.933 102.286C197.334 105.868 204.89 108.944 204.811 109.154Z" fill="#E0E0E0"/>
<path d="M202.122 116.326C202.043 116.531 194.356 113.796 184.961 110.209C175.566 106.621 168.003 103.551 168.077 103.347C168.15 103.142 175.836 105.877 185.243 109.458C194.649 113.04 202.195 116.116 202.122 116.326Z" fill="#E0E0E0"/>
<path d="M199.427 123.504C199.353 123.709 191.667 120.968 182.272 117.387C172.876 113.805 165.308 110.729 165.387 110.524C165.466 110.32 173.147 113.054 182.548 116.636C191.949 120.218 199.506 123.294 199.427 123.504Z" fill="#E0E0E0"/>
<path d="M60.8486 79.2643L6.77766 98.3537C4.90813 99.0138 3.92332 101.077 4.57803 102.961L31.7073 181.061C32.362 182.946 34.4083 183.939 36.2778 183.279L90.3487 164.189C92.2182 163.529 93.2031 161.466 92.5484 159.581L65.4191 81.4818C64.7644 79.5971 62.7181 78.6042 60.8486 79.2643Z" fill="#EBEBEB"/>
<path d="M61.5421 84.1184L9.23828 102.584L36.1271 179.991L88.4309 161.526L61.5421 84.1184Z" fill="#E0E0E0"/>
<path d="M60.6065 83.755L8.30273 102.221L34.6789 178.152L86.9827 159.687L60.6065 83.755Z" fill="#FAFAFA"/>
<path d="M86.9717 159.684L60.5286 83.7788L60.6245 83.8243L8.33046 102.296L8.38122 102.194C18.2389 130.711 27.4141 157.051 34.7397 178.127L34.6551 178.087L86.9773 159.684L34.6946 178.224H34.6326V178.161C27.3014 157.086 18.1543 130.745 8.24023 102.233V102.154H8.31355L60.6132 83.6992H60.6865V83.7674L86.9717 159.684Z" fill="#E0E0E0"/>
<path d="M68.4219 166.233C68.4219 166.233 80.0672 156.329 82.0861 146.016C80.9175 147.65 79.4327 149.03 77.721 150.07C76.0094 151.111 74.1065 151.791 72.127 152.071C72.127 152.071 71.8957 162.873 68.4219 166.233Z" fill="#E0E0E0"/>
<path d="M26.1755 119.138L23.4238 120.109C22.4185 120.464 21.8889 121.574 22.241 122.587L23.2046 125.361C23.5567 126.375 24.657 126.909 25.6624 126.554L28.4141 125.582C29.4194 125.227 29.949 124.118 29.5969 123.104L28.6333 120.33C28.2812 119.317 27.1808 118.783 26.1755 119.138Z" fill="#EBEBEB"/>
<path d="M25.8439 123.918C25.8247 123.928 25.8034 123.933 25.7819 123.933C25.7603 123.933 25.739 123.928 25.7198 123.918L24.4566 123.179C24.426 123.155 24.405 123.121 24.3975 123.083C24.3901 123.045 24.3966 123.006 24.416 122.972C24.4354 122.939 24.4663 122.913 24.5029 122.901C24.5394 122.889 24.5791 122.891 24.6145 122.906L25.7424 123.554L27.0733 120.711C27.0927 120.674 27.1254 120.644 27.1651 120.63C27.2048 120.615 27.2485 120.616 27.2876 120.632C27.3067 120.641 27.3238 120.654 27.3378 120.67C27.3519 120.686 27.3627 120.704 27.3695 120.724C27.3764 120.744 27.3791 120.766 27.3776 120.787C27.3761 120.808 27.3705 120.829 27.3609 120.848L25.9567 123.872C25.9422 123.888 25.9246 123.9 25.9052 123.908C25.8857 123.915 25.8648 123.919 25.8439 123.918Z" fill="white"/>
<path d="M61.9551 107.387C61.9551 107.433 55.1878 109.872 46.7908 112.834C38.3937 115.796 31.5645 118.161 31.5645 118.121C31.5645 118.081 38.3317 115.637 46.7344 112.675C55.1371 109.713 61.9438 107.347 61.9551 107.387Z" fill="#E0E0E0"/>
<path d="M46.0076 118.311C46.0076 118.311 45.8328 118.39 45.517 118.515L44.1522 119.027C43.0243 119.448 41.4002 120.022 39.6407 120.647C37.8812 121.273 36.2571 121.83 35.1292 122.222L33.7476 122.683C33.5803 122.744 33.4088 122.794 33.2344 122.83C33.3921 122.747 33.5561 122.677 33.725 122.62L35.0897 122.114C36.2176 121.688 37.8417 121.113 39.6012 120.488C41.3607 119.863 42.9849 119.311 44.1127 118.913L45.4944 118.453C45.6611 118.391 45.8328 118.343 46.0076 118.311Z" fill="#E0E0E0"/>
<path d="M62.6736 109.477C62.6736 109.517 55.9064 111.956 47.5037 114.918C39.101 117.88 32.2773 120.251 32.2773 120.205C32.2773 120.16 39.0446 117.727 47.4529 114.765C55.8612 111.803 62.6736 109.432 62.6736 109.477Z" fill="#E0E0E0"/>
<path d="M30.1071 130.452L27.3554 131.424C26.3501 131.779 25.8206 132.888 26.1726 133.902L27.1363 136.676C27.4883 137.689 28.5887 138.223 29.594 137.868L32.3457 136.897C33.351 136.542 33.8806 135.432 33.5285 134.419L32.5649 131.645C32.2128 130.631 31.1125 130.097 30.1071 130.452Z" fill="#EBEBEB"/>
<path d="M29.7734 135.233C29.7532 135.243 29.731 135.248 29.7085 135.248C29.686 135.248 29.6639 135.243 29.6437 135.233L28.3861 134.494C28.3679 134.484 28.3519 134.47 28.3391 134.454C28.3263 134.437 28.3169 134.419 28.3117 134.398C28.3064 134.378 28.3052 134.357 28.3084 134.336C28.3115 134.316 28.3187 134.296 28.3297 134.278C28.3396 134.26 28.3532 134.243 28.3695 134.231C28.3858 134.218 28.4046 134.208 28.4247 134.203C28.4447 134.198 28.4657 134.196 28.4862 134.2C28.5067 134.203 28.5264 134.21 28.544 134.221L29.6719 134.869L31.0028 131.998C31.0211 131.961 31.0528 131.932 31.0915 131.917C31.1303 131.902 31.1731 131.903 31.2114 131.919C31.2495 131.936 31.2793 131.968 31.2941 132.007C31.3089 132.047 31.3075 132.09 31.2904 132.129L29.8862 135.159C29.8736 135.179 29.8571 135.196 29.8377 135.208C29.8182 135.221 29.7963 135.23 29.7734 135.233Z" fill="white"/>
<path d="M65.8865 118.698C65.8865 118.743 59.1193 121.177 50.7166 124.144C42.3139 127.112 35.4902 129.471 35.4902 129.432C35.4902 129.392 42.2575 126.947 50.6602 123.985C59.0629 121.023 65.8752 118.658 65.8865 118.698Z" fill="#E0E0E0"/>
<path d="M49.9392 129.625C49.9392 129.625 49.7644 129.705 49.443 129.83L48.0839 130.341C46.956 130.762 45.3318 131.336 43.5724 131.962C41.8129 132.587 40.1887 133.144 39.0608 133.537L37.6792 133.997C37.512 134.059 37.3404 134.108 37.166 134.145C37.323 134.06 37.4872 133.99 37.6566 133.934L39.0214 133.428C40.1493 133.002 41.7734 132.428 43.5329 131.802C45.2924 131.177 46.9165 130.626 48.0444 130.228L49.426 129.767C49.5927 129.705 49.7644 129.657 49.9392 129.625Z" fill="#E0E0E0"/>
<path d="M66.6189 120.802C66.6189 120.842 59.8517 123.281 51.449 126.243C43.0463 129.205 36.2227 131.575 36.2227 131.53C36.2227 131.485 42.9899 129.051 51.3926 126.089C59.7953 123.127 66.6189 120.745 66.6189 120.802Z" fill="#E0E0E0"/>
<path d="M34.0368 141.767L31.2851 142.738C30.2798 143.093 29.7502 144.202 30.1023 145.216L31.0659 147.99C31.418 149.004 32.5183 149.537 33.5237 149.183L36.2754 148.211C37.2807 147.856 37.8103 146.747 37.4582 145.733L36.4946 142.959C36.1425 141.946 35.0421 141.412 34.0368 141.767Z" fill="#EBEBEB"/>
<path d="M33.7036 146.546C33.6834 146.556 33.6612 146.562 33.6387 146.562C33.6163 146.562 33.5941 146.556 33.5739 146.546L32.3107 145.819C32.2901 145.81 32.2716 145.797 32.2565 145.78C32.2413 145.763 32.2299 145.744 32.2228 145.722C32.2158 145.701 32.2134 145.678 32.2157 145.656C32.218 145.633 32.2251 145.612 32.2364 145.592C32.2476 145.573 32.2629 145.556 32.2811 145.543C32.2994 145.53 32.3201 145.521 32.3421 145.516C32.3641 145.512 32.3867 145.512 32.4085 145.517C32.4303 145.522 32.4508 145.532 32.4686 145.546L33.5965 146.194L34.9273 143.323C34.9353 143.303 34.9471 143.285 34.9621 143.269C34.9772 143.254 34.9951 143.242 35.0149 143.234C35.0347 143.226 35.0558 143.222 35.0772 143.223C35.0985 143.223 35.1195 143.228 35.1389 143.237C35.1583 143.246 35.1758 143.258 35.1902 143.274C35.2046 143.29 35.2158 143.309 35.2229 143.329C35.23 143.349 35.2329 143.371 35.2316 143.392C35.2302 143.413 35.2246 143.434 35.215 143.454L33.8107 146.484C33.7832 146.516 33.7453 146.538 33.7036 146.546Z" fill="white"/>
<path d="M69.8182 130.012C69.8182 130.058 63.0509 132.491 54.6482 135.459C46.2455 138.427 39.4219 140.786 39.4219 140.74C39.4219 140.695 46.1891 138.262 54.5975 135.3C63.0058 132.338 69.8012 129.972 69.8182 130.012Z" fill="#E0E0E0"/>
<path d="M53.8706 140.936C53.7106 141.018 53.5447 141.088 53.3744 141.146L52.0096 141.658C50.8818 142.078 49.2633 142.653 47.4981 143.278C45.733 143.903 44.1145 144.455 42.9866 144.853L41.605 145.313C41.4375 145.374 41.266 145.424 41.0918 145.461C41.2488 145.376 41.413 145.306 41.5824 145.251L42.9472 144.739C44.075 144.318 45.6992 143.744 47.4587 143.119C49.2181 142.493 50.8423 141.942 51.9702 141.544L53.3462 141.083C53.5181 141.024 53.6932 140.975 53.8706 140.936Z" fill="#E0E0E0"/>
<path d="M70.5662 132.106C70.5662 132.146 63.7989 134.585 55.3963 137.547C46.9936 140.509 40.1699 142.88 40.1699 142.834C40.1699 142.789 46.9372 140.356 55.3399 137.388C63.7425 134.42 70.5267 132.061 70.5662 132.106Z" fill="#E0E0E0"/>
<path d="M37.9685 153.077L35.2168 154.049C34.2115 154.404 33.6819 155.513 34.0339 156.527L34.9976 159.301C35.3496 160.314 36.45 160.848 37.4553 160.493L40.207 159.522C41.2123 159.167 41.7419 158.057 41.3899 157.044L40.4262 154.27C40.0742 153.256 38.9738 152.722 37.9685 153.077Z" fill="#EBEBEB"/>
<path d="M37.6277 157.861C37.6081 157.869 37.587 157.873 37.5657 157.873C37.5444 157.873 37.5233 157.869 37.5036 157.861L36.2404 157.122C36.2045 157.1 36.1787 157.064 36.1687 157.023C36.1586 156.982 36.1652 156.939 36.1868 156.903C36.2085 156.867 36.2436 156.841 36.2843 156.83C36.325 156.82 36.3681 156.827 36.404 156.849L37.5318 157.497L38.8627 154.654C38.88 154.616 38.9116 154.586 38.9507 154.571C38.9899 154.556 39.0332 154.557 39.0714 154.575C39.1085 154.593 39.1373 154.625 39.152 154.664C39.1666 154.703 39.166 154.746 39.1503 154.785L37.7405 157.815C37.7101 157.844 37.6697 157.861 37.6277 157.861Z" fill="white"/>
<path d="M73.7478 141.325C73.7478 141.371 66.9806 143.804 58.5779 146.766C50.1752 149.728 43.3516 152.099 43.3516 152.053C43.3516 152.008 50.1188 149.575 58.5215 146.613C66.9242 143.651 73.7309 141.268 73.7478 141.325Z" fill="#E0E0E0"/>
<path d="M57.7966 152.248C57.6396 152.333 57.4754 152.403 57.306 152.458L55.9413 152.97C54.8134 153.391 53.1893 153.965 51.4298 154.59C49.6703 155.216 48.0461 155.767 46.9183 156.165L45.5366 156.626C45.2095 156.728 45.0234 156.779 45.0234 156.774C45.1805 156.689 45.3447 156.619 45.5141 156.563L46.8788 156.052C48.0067 155.631 49.6308 155.057 51.3903 154.431C53.1498 153.806 54.7739 153.254 55.9018 152.856L57.2835 152.396C57.451 152.335 57.6224 152.285 57.7966 152.248Z" fill="#E0E0E0"/>
<path d="M74.4764 143.421C74.4764 143.46 67.7091 145.899 59.3064 148.861C50.9037 151.824 44.0801 154.189 44.0801 154.149C44.0801 154.109 50.8473 151.67 59.25 148.702C67.6527 145.735 74.4594 143.375 74.4764 143.421Z" fill="#E0E0E0"/>
<path d="M14.2266 94.8201L15.6026 98.7998C15.9874 99.9078 16.7928 100.816 17.8418 101.326C18.8908 101.835 20.0975 101.904 21.1968 101.517L50.1269 91.2838C50.6708 91.0924 51.1719 90.7947 51.6015 90.4078C52.0312 90.0209 52.3809 89.5524 52.6308 89.0291C52.8806 88.5058 53.0257 87.9379 53.0576 87.3581C53.0895 86.7782 53.0077 86.1976 52.8169 85.6497L51.4409 81.6699L14.2266 94.8201Z" fill="#E0E0E0"/>
<path d="M33.2194 89.4306C32.4509 89.7032 31.6194 89.7398 30.8303 89.5357C30.0411 89.3316 29.3298 88.8961 28.7863 88.2842C28.2428 87.6724 27.8916 86.9117 27.7771 86.0985C27.6627 85.2853 27.7902 84.4562 28.1434 83.716C28.4967 82.9759 29.0598 82.3581 29.7615 81.9408C30.4632 81.5235 31.272 81.3255 32.0854 81.3718C32.8988 81.4182 33.6803 81.7068 34.3309 82.2012C34.9815 82.6955 35.472 83.3734 35.7402 84.1489C36.0991 85.1863 36.0353 86.3249 35.5627 87.315C35.0902 88.3051 34.2475 89.0659 33.2194 89.4306ZM31.0201 83.1028C30.5461 83.2696 30.1318 83.5744 29.8297 83.9787C29.5276 84.3829 29.3512 84.8684 29.3229 85.3738C29.2946 85.8791 29.4155 86.3815 29.6705 86.8176C29.9255 87.2536 30.303 87.6035 30.7553 87.8232C31.2076 88.0428 31.7144 88.1222 32.2115 88.0515C32.7086 87.9807 33.1737 87.7628 33.548 87.4255C33.9223 87.0881 34.1889 86.6464 34.3141 86.1563C34.4393 85.6662 34.4175 85.1496 34.2514 84.6719C34.029 84.0321 33.5637 83.5075 32.9578 83.2133C32.3519 82.919 31.655 82.8793 31.0201 83.1028Z" fill="#E0E0E0"/>
<path d="M56.341 99.7643C56.341 99.8382 48.7391 102.607 39.3044 105.933C29.8697 109.259 22.2001 111.902 22.172 111.829C22.1438 111.755 29.7738 108.986 39.2085 105.66C48.6432 102.334 56.3128 99.6676 56.341 99.7643Z" fill="#E0E0E0"/>
<path d="M46.5677 101.158C46.5677 101.232 43.2405 102.488 39.073 103.961C34.9055 105.433 31.5049 106.587 31.4767 106.485C31.4485 106.383 34.8096 105.155 38.9771 103.682C43.1446 102.21 46.5452 101.084 46.5677 101.158Z" fill="#E0E0E0"/>
<path d="M196.89 216.362C198.967 215.379 201.301 215.094 203.55 215.549C204.757 215.748 206.02 216.117 206.838 217.027C207.656 217.937 207.819 219.551 206.872 220.336C206.26 220.755 205.521 220.942 204.785 220.865C203.02 220.865 201.069 220.529 199.665 221.598C198.858 222.206 198.328 223.218 197.369 223.52C196.887 223.633 196.381 223.583 195.929 223.378C195.478 223.172 195.106 222.822 194.871 222.383C194.415 221.493 194.314 220.462 194.589 219.5C194.708 218.834 194.977 218.204 195.376 217.66C195.775 217.115 196.293 216.671 196.89 216.362Z" fill="#8DBE3D"/>
<path d="M192.218 207.333C193.459 209.113 195.867 208.527 196.983 207.436C198.1 206.344 198.568 204.769 198.997 203.268C199.978 199.829 200.97 196.224 200.243 192.722C200.062 191.67 199.6 190.687 198.906 189.879C198.553 189.479 198.101 189.178 197.596 189.009C197.092 188.839 196.552 188.806 196.03 188.913C194.812 189.237 194.062 190.437 193.515 191.574C191.907 194.945 191.065 198.635 191.051 202.376C191.051 204.115 191.248 205.935 192.218 207.373" fill="#8DBE3D"/>
<path d="M188.819 209.892C189.456 209.054 189.88 208.071 190.055 207.03C190.23 205.989 190.15 204.92 189.822 203.917C189.141 201.919 187.927 200.149 186.315 198.8C184.481 197.155 182.347 195.887 180.033 195.065C179.138 194.701 178.176 194.536 177.213 194.582C176.731 194.609 176.263 194.755 175.85 195.007C175.438 195.259 175.092 195.608 174.844 196.026C174.179 197.299 174.844 198.84 175.498 200.097C176.706 202.315 178.086 204.433 179.626 206.43C180.862 208.039 182.277 209.625 184.166 210.353C186.055 211.081 188.007 210.99 189.005 209.676" fill="#8DBE3D"/>
<path d="M192.14 234.23C192.202 233.965 192.238 233.695 192.247 233.423C192.309 232.854 192.377 232.092 192.462 231.211C192.57 230.121 192.735 229.037 192.958 227.965C193.244 226.66 193.635 225.38 194.125 224.138C194.607 222.898 195.26 221.732 196.065 220.676C196.721 219.815 197.559 219.112 198.518 218.618C199.168 218.293 199.864 218.074 200.582 217.97C200.852 217.96 201.121 217.922 201.383 217.856C201.111 217.827 200.837 217.827 200.565 217.856C199.822 217.917 199.094 218.109 198.417 218.425C197.407 218.903 196.521 219.612 195.828 220.494C194.99 221.567 194.314 222.759 193.821 224.03C193.32 225.29 192.932 226.591 192.659 227.919C192.451 229.005 192.308 230.102 192.23 231.205C192.157 232.143 192.134 232.911 192.123 233.428C192.098 233.695 192.103 233.964 192.14 234.23Z" fill="#263238"/>
<path d="M192.287 232.529C192.303 232.405 192.303 232.278 192.287 232.154V231.096C192.287 230.164 192.287 228.822 192.332 227.117C192.416 223.779 192.698 220.192 193.251 215.132C193.77 210.373 194.469 204.836 195.208 201.237C195.366 200.418 195.524 199.679 195.676 199.037C195.828 198.394 195.941 197.831 196.059 197.382C196.178 196.933 196.24 196.609 196.307 196.336C196.338 196.213 196.361 196.087 196.375 195.961C196.319 196.073 196.275 196.191 196.245 196.313C196.161 196.586 196.059 196.927 195.935 197.348C195.811 197.769 195.653 198.349 195.495 198.991C195.338 199.634 195.151 200.367 194.977 201.186C194.073 205.448 193.393 209.756 192.941 214.091C192.377 219.163 192.14 223.757 192.123 227.122C192.123 228.794 192.123 230.147 192.179 231.102C192.179 231.54 192.225 231.898 192.241 232.177C192.246 232.295 192.261 232.413 192.287 232.529Z" fill="#263238"/>
<path d="M192.308 223.627C192.339 223.249 192.339 222.869 192.308 222.49C192.244 221.471 192.129 220.456 191.964 219.449C191.722 217.953 191.395 216.472 190.983 215.014C190.506 213.219 189.891 211.465 189.144 209.766C187.868 206.635 186.04 203.763 183.747 201.29C183.348 200.867 182.922 200.47 182.473 200.101C182.281 199.931 182.106 199.766 181.909 199.635L181.418 199.294C181.123 199.065 180.808 198.864 180.477 198.691C181.559 199.544 182.586 200.467 183.55 201.454C185.773 203.945 187.555 206.803 188.817 209.903C189.548 211.591 190.166 213.327 190.667 215.099C191.091 216.543 191.439 218.008 191.71 219.488C191.941 220.756 192.077 221.763 192.156 222.502C192.179 222.88 192.23 223.256 192.308 223.627Z" fill="#263238"/>
<path d="M183.771 239.336L184.657 251.559H200.238L201.118 239.336H183.771Z" fill="#263238"/>
<path d="M202.985 234.514H182.271V239.335H202.985V234.514Z" fill="#263238"/>
<path d="M182.271 251.092V252.422H183.241H202.635V251.092H182.271Z" fill="#455A64"/>
<path d="M184.195 254.778L183.242 252.424H201.897L200.781 254.778H184.195Z" fill="#455A64"/>
<path d="M200.833 243.329C200.833 243.329 200.833 243.374 200.76 243.442L200.529 243.755L199.621 244.926L199.581 244.977L199.542 244.921L197.314 241.816H197.45L195.25 244.949L195.183 245.046L195.104 244.955L192.504 241.828H192.651L192.51 242.01L190.181 244.949L190.107 245.051L190.034 244.949C189.244 243.812 188.506 242.766 187.835 241.816H187.964L185.263 244.921L185.212 244.977L185.173 244.915C184.818 244.312 184.536 243.829 184.327 243.482L184.113 243.101C184.084 243.059 184.061 243.013 184.045 242.965C184.045 242.965 184.079 242.999 184.135 243.084L184.378 243.454L185.263 244.858H185.178L187.84 241.714L187.908 241.634L187.97 241.72L190.186 244.841H190.034L192.374 241.902L192.521 241.72L192.594 241.623L192.668 241.714L195.267 244.847H195.121L197.337 241.725L197.399 241.634L197.467 241.725C198.341 242.993 199.091 244.068 199.649 244.869H199.564L200.512 243.732L200.766 243.437L200.833 243.329Z" fill="#E0E0E0"/>
<path d="M201.339 239.25C201.339 239.307 197.437 239.352 192.621 239.352C187.805 239.352 183.902 239.307 183.902 239.25C183.902 239.194 187.805 239.154 192.621 239.154C197.437 239.154 201.339 239.199 201.339 239.25Z" fill="#455A64"/>
<path d="M202.128 252.559C202.128 252.609 197.882 252.654 192.654 252.654C187.426 252.654 183.18 252.609 183.18 252.559C183.18 252.508 187.42 252.457 192.654 252.457C197.887 252.457 202.128 252.502 202.128 252.559Z" fill="#263238"/>
<path d="M48.4605 213.559C48.4154 213.611 48.0601 213.394 47.6653 213.076C47.2706 212.758 46.983 212.456 47.0281 212.4C47.0732 212.343 47.4229 212.564 47.8176 212.883C48.2124 213.201 48.5 213.502 48.4605 213.559Z" fill="#263238"/>
<path d="M59.2857 197.278C59.4392 195.761 59.315 194.229 58.9191 192.758C58.4454 191.308 57.3401 189.984 55.8626 189.671C54.1708 189.318 52.4451 190.393 51.4977 191.848C50.5503 193.304 50.2288 195.066 49.9469 196.778C48.0228 208.602 47.3142 220.595 47.8321 232.567L54.7347 233.545C57.7405 221.054 58.7217 210.132 59.2857 197.278Z" fill="#455A64"/>
<path d="M54.878 189.596L54.8442 189.709L54.7314 190.022L54.2689 191.227C54.1731 191.489 54.0434 191.796 53.9419 192.097L53.6091 193.149L53.22 194.36L52.8647 195.742C52.2853 198.023 51.839 200.337 51.5282 202.672C51.156 205.287 50.9135 208.187 50.7161 211.234C50.3665 217.334 50.3101 222.872 50.1522 226.874C50.0789 228.881 50.0112 230.502 49.9379 231.616C49.8984 232.185 49.8702 232.588 49.8477 232.907C49.8477 233.037 49.8477 233.151 49.8477 233.236C49.8477 233.322 49.8477 233.35 49.8477 233.35C49.8477 233.35 49.8477 233.316 49.8477 233.236C49.8477 233.157 49.8477 233.037 49.8477 232.901C49.8477 232.588 49.8477 232.156 49.8871 231.61C49.9323 230.473 49.9717 228.876 50.0225 226.869C50.1353 222.889 50.1635 217.329 50.5187 211.223C50.7105 208.17 50.9643 205.264 51.3477 202.638C51.6712 200.311 52.1364 198.006 52.7407 195.736L53.1129 194.354C53.2595 193.93 53.3948 193.526 53.5189 193.143L53.8798 192.092C53.987 191.773 54.1223 191.489 54.2238 191.227L54.7314 190.045C54.784 189.92 54.8291 189.817 54.8667 189.738C54.8626 189.69 54.8664 189.642 54.878 189.596Z" fill="#263238"/>
<path d="M55.5141 189.625C55.8739 190.053 56.1598 190.54 56.36 191.063C56.8878 192.501 57.1013 194.037 56.986 195.566C56.8055 199.415 56.4615 204.714 56.0104 210.57C55.5592 216.426 55.0461 221.713 54.64 225.539C54.4314 227.45 54.2566 228.996 54.1268 230.088C54.0592 230.605 54.0084 231.014 53.9689 231.316L53.9238 231.634C53.9264 231.67 53.9264 231.706 53.9238 231.742C53.9238 231.742 53.9238 231.708 53.9238 231.634C53.9238 231.56 53.9238 231.441 53.9238 231.31C53.9238 231.009 53.9859 230.599 54.031 230.076C54.1381 228.985 54.2847 227.444 54.4652 225.528C54.8261 221.696 55.3055 216.431 55.7623 210.553C56.2191 204.674 56.5856 199.404 56.8112 195.566C56.934 194.055 56.7419 192.535 56.2473 191.103C56.0467 190.59 55.8014 190.095 55.5141 189.625Z" fill="#263238"/>
<path d="M60.3016 207.64C59.8487 207.607 59.4054 207.491 58.9933 207.299C58.5552 207.184 58.1408 206.992 57.7695 206.73C58.223 206.76 58.6669 206.876 59.0779 207.072C59.5164 207.185 59.931 207.378 60.3016 207.64Z" fill="#263238"/>
<path d="M61.139 200.543C60.765 200.844 60.3438 201.081 59.8927 201.242C59.4736 201.476 59.0177 201.636 58.5449 201.714C59.3357 201.175 60.2135 200.779 61.139 200.543Z" fill="#263238"/>
<path d="M60.7036 194.75C60.0219 194.874 59.3203 194.825 58.6621 194.608C58.9958 194.511 59.347 194.494 59.6885 194.556C60.0371 194.541 60.3846 194.607 60.7036 194.75Z" fill="#263238"/>
<path d="M53.5747 191.046C53.5183 191.08 53.2138 190.699 52.9036 190.199C52.6779 189.909 52.5181 189.574 52.4355 189.215C52.4919 189.181 52.7965 189.556 53.1123 190.062C53.4281 190.568 53.648 191.006 53.5747 191.046Z" fill="#263238"/>
<path d="M51.2225 194.547C50.9085 194.66 50.5717 194.696 50.2412 194.649C49.9089 194.681 49.5739 194.63 49.2656 194.501C49.5796 194.387 49.9164 194.352 50.2469 194.399C50.5792 194.367 50.9142 194.418 51.2225 194.547Z" fill="#263238"/>
<path d="M49.5324 201.536C49.1714 201.521 48.8185 201.424 48.5004 201.252C48.1522 201.152 47.8305 200.975 47.5586 200.734C47.9195 200.749 48.2725 200.846 48.5906 201.019C48.9388 201.118 49.2605 201.295 49.5324 201.536Z" fill="#263238"/>
<path d="M49.3498 207.441C49.3498 207.51 48.972 207.652 48.4701 207.754C47.9682 207.856 47.5565 207.896 47.5396 207.828C47.5227 207.76 47.9231 207.618 48.4193 207.515C48.7186 207.413 49.0384 207.388 49.3498 207.441Z" fill="#263238"/>
<path d="M48.5739 217.081C48.5739 217.15 48.1678 217.28 47.6377 217.377C47.321 217.472 46.9861 217.488 46.6621 217.422C46.9466 217.252 47.2676 217.152 47.5982 217.133C47.9142 217.034 48.2495 217.016 48.5739 217.081Z" fill="#263238"/>
<path d="M48.0068 222.406C48.0406 222.463 47.691 222.713 47.2286 222.974C46.7661 223.236 46.3658 223.372 46.3376 223.31C46.3094 223.247 46.6534 223.003 47.1158 222.741C47.5782 222.48 48.0068 222.343 48.0068 222.406Z" fill="#263238"/>
<path d="M52.3345 228.442C52.2781 228.476 51.9736 228.056 51.6577 227.499C51.4293 227.18 51.2716 226.815 51.1953 226.43C51.2517 226.396 51.5562 226.816 51.872 227.373C52.1005 227.692 52.2582 228.057 52.3345 228.442Z" fill="#263238"/>
<path d="M53.5818 218.408C53.6269 218.453 53.2885 218.868 52.8261 219.329C52.3637 219.789 51.9463 220.119 51.8956 220.068C51.8448 220.017 52.1888 219.607 52.6513 219.147C53.1137 218.686 53.531 218.356 53.5818 218.408Z" fill="#263238"/>
<path d="M53.3039 213.137C53.2532 213.188 52.943 212.926 52.6046 212.568C52.2663 212.21 52.0407 211.863 52.0858 211.818C52.1309 211.772 52.4467 212.028 52.7851 212.386C53.1235 212.744 53.3547 213.091 53.3039 213.137Z" fill="#263238"/>
<path d="M54.1625 206.412C54.2132 206.458 53.9313 206.862 53.5309 207.305C53.1305 207.749 52.7696 208.084 52.7188 208.038C52.668 207.993 52.95 207.589 53.3448 207.14C53.7395 206.691 54.1117 206.367 54.1625 206.412Z" fill="#263238"/>
<path d="M54.6418 201.534C54.591 201.585 54.2019 201.272 53.762 200.84C53.3221 200.408 53.012 200.016 53.0571 199.964C53.1022 199.913 53.497 200.226 53.9368 200.664C54.3767 201.102 54.6869 201.482 54.6418 201.534Z" fill="#263238"/>
<path d="M55.5902 194.928C55.5155 195.287 55.3634 195.624 55.1447 195.917C54.8458 196.429 54.5525 196.815 54.4961 196.781C54.4398 196.747 54.6315 196.304 54.936 195.792C55.2405 195.28 55.5282 194.894 55.5902 194.928Z" fill="#263238"/>
<path d="M57.3634 188.81C57.4254 188.844 57.2506 189.288 56.9743 189.799C56.698 190.311 56.4103 190.703 56.3652 190.675C56.4189 190.32 56.552 189.981 56.7543 189.686C57.0307 189.168 57.3014 188.782 57.3634 188.81Z" fill="#263238"/>
<path d="M59.3852 191.592C59.4134 191.654 59.137 191.848 58.7648 192.03C58.3926 192.212 58.0712 192.303 58.043 192.24C58.0148 192.178 58.2911 191.984 58.6633 191.802C59.0355 191.62 59.357 191.529 59.3852 191.592Z" fill="#263238"/>
<path d="M59.4271 213.559C58.4903 213.49 57.6032 213.107 56.9062 212.473C57.3453 212.607 57.7703 212.784 58.1751 213.001C58.6102 213.144 59.0297 213.33 59.4271 213.559Z" fill="#263238"/>
<path d="M58.6053 218.209C58.6053 218.277 58.2049 218.414 57.6748 218.516C57.3597 218.618 57.0246 218.639 56.6992 218.579C56.9813 218.404 57.3 218.299 57.6297 218.272C58.1598 218.169 58.594 218.141 58.6053 218.209Z" fill="#263238"/>
<path d="M57.5955 226.184C57.556 226.24 57.0315 225.871 56.5465 225.257C56.2236 224.906 55.9963 224.477 55.8867 224.012C56.2019 224.35 56.4868 224.715 56.7383 225.103C57.0563 225.436 57.3432 225.798 57.5955 226.184Z" fill="#263238"/>
<path d="M46.4911 229.837C46.446 229.785 46.7279 229.467 47.117 229.132C47.5062 228.796 47.8614 228.563 47.9066 228.62C47.9517 228.677 47.6697 228.984 47.2806 229.325C46.8915 229.666 46.5362 229.888 46.4911 229.837Z" fill="#263238"/>
<path d="M43.3012 212.427C42.85 211.011 42.0098 209.363 40.5379 209.34C40.0993 209.364 39.6752 209.506 39.3101 209.752C38.9449 209.998 38.6522 210.339 38.4626 210.738C38.0575 211.527 37.8631 212.409 37.8987 213.297C38.0804 219.598 39.1455 225.842 41.0624 231.842H46.4592C46.3939 225.246 45.3289 218.699 43.3012 212.427Z" fill="#455A64"/>
<path d="M33.5486 203.518C33.2817 202.192 32.5807 200.995 31.558 200.118C30.5354 199.242 29.2504 198.738 27.9092 198.686C25.5238 199.106 24.5989 201.471 24.317 203.893C24.035 206.315 24.7794 208.726 25.5181 211.051C27.8792 218.51 30.2439 225.971 32.6125 233.434L39.3234 232.695C37.2255 222.7 36.0074 213.433 33.5486 203.518Z" fill="#455A64"/>
<path d="M40.5367 209.34C40.3623 209.582 40.2095 209.838 40.0799 210.107C39.8018 210.876 39.7146 211.702 39.8262 212.512C39.9277 213.547 40.0461 214.786 40.2209 216.151C40.3958 217.515 40.6382 218.994 40.9428 220.574C41.5518 223.701 42.2398 226.498 42.6741 228.534C42.894 229.551 43.0632 230.381 43.1647 230.955C43.2098 231.223 43.2493 231.439 43.2775 231.621C43.3057 231.803 43.3113 231.854 43.2775 231.854C43.2482 231.782 43.2255 231.708 43.2098 231.632L43.0519 230.978C42.9053 230.37 42.7135 229.557 42.488 228.573C42.0086 226.538 41.2924 223.746 40.6834 220.614C40.3788 219.045 40.1194 217.544 39.9784 216.168C39.8882 215.486 39.8318 214.826 39.7754 214.218C39.719 213.61 39.6626 213.035 39.6344 212.512C39.538 211.678 39.6545 210.832 39.9728 210.056C40.107 209.779 40.2994 209.535 40.5367 209.34Z" fill="#263238"/>
<path d="M28.0344 198.492C27.7354 198.836 27.4639 199.203 27.2224 199.589C26.6047 200.67 26.2546 201.885 26.2016 203.131C26.1736 204.979 26.4538 206.818 27.0306 208.572C27.5946 210.585 28.2657 212.797 28.948 215.11C30.2846 219.75 31.4914 223.945 32.3768 227.01L33.3919 230.626C33.5046 231.035 33.5892 231.359 33.6569 231.609C33.6938 231.722 33.7183 231.838 33.7302 231.956C33.6785 231.85 33.6369 231.74 33.6061 231.626C33.5328 231.376 33.4257 231.058 33.3016 230.648C33.0366 229.779 32.6644 228.556 32.2132 227.061L28.7112 215.179C28.0344 212.853 27.3972 210.63 26.8107 208.629C26.2362 206.85 25.971 204.984 26.0268 203.114C26.0995 201.844 26.4873 200.613 27.1547 199.533C27.389 199.139 27.6862 198.788 28.0344 198.492Z" fill="#263238"/>
<path d="M37.8843 231.973C37.8276 231.868 37.7767 231.76 37.7321 231.649C37.6475 231.428 37.5065 231.115 37.3542 230.694C37.0328 229.864 36.6211 228.642 36.2264 227.107C35.8316 225.572 35.3804 223.696 34.9744 221.649C34.5684 219.602 34.1623 217.311 33.7112 214.923C33.26 212.535 32.7299 210.29 32.1265 208.283C31.603 206.498 30.9489 204.756 30.1697 203.069C29.6399 201.934 29.0351 200.836 28.3594 199.783C28.1282 199.408 27.9195 199.129 27.7955 198.936C27.7248 198.839 27.6626 198.736 27.6094 198.629C27.6921 198.713 27.7675 198.805 27.835 198.902C27.9759 199.095 28.1959 199.357 28.4384 199.732C29.1516 200.768 29.7832 201.859 30.3276 202.995C31.1365 204.678 31.8097 206.423 32.3408 208.214C32.9777 210.407 33.501 212.631 33.9086 214.878C34.3541 217.26 34.7714 219.534 35.1549 221.609C35.5383 223.684 35.9444 225.521 36.3504 227.061C36.7565 228.602 37.1343 229.824 37.4275 230.66C37.5629 231.086 37.6926 231.405 37.7659 231.627C37.8182 231.737 37.8579 231.854 37.8843 231.973Z" fill="#263238"/>
<path d="M25.665 209.936C25.665 209.998 25.3153 210.146 24.8472 210.26C24.3792 210.374 23.9901 210.413 23.9788 210.345C23.9675 210.277 24.3228 210.135 24.7908 210.021C25.2589 209.907 25.648 209.868 25.665 209.936Z" fill="#263238"/>
<path d="M24.955 205.321C24.5884 205.425 24.2073 205.467 23.8271 205.446C23.4519 205.499 23.0705 205.488 22.6992 205.412C23.0504 205.243 23.4389 205.168 23.8271 205.196C24.2075 205.14 24.5957 205.183 24.955 205.321Z" fill="#263238"/>
<path d="M25.709 201.104C25.6639 201.16 25.2974 200.922 24.897 200.575C24.4966 200.228 24.1977 199.904 24.2428 199.853C24.2879 199.802 24.6488 200.035 25.0549 200.381C25.4609 200.728 25.7541 201.052 25.709 201.104Z" fill="#263238"/>
<path d="M27.7565 197.202C27.8242 197.202 27.8016 197.549 27.796 197.941C27.7903 198.333 27.796 198.669 27.7114 198.68C27.6268 198.691 27.5366 198.362 27.5478 197.935C27.5591 197.509 27.7057 197.185 27.7565 197.202Z" fill="#263238"/>
<path d="M31.938 199.037C31.9944 199.077 31.8309 199.412 31.5715 199.782C31.312 200.151 31.0583 200.424 31.0075 200.385C30.9568 200.345 31.1147 200.015 31.3684 199.64C31.6222 199.265 31.8816 198.997 31.938 199.037Z" fill="#263238"/>
<path d="M34.648 203.808C34.648 203.876 34.3265 204.075 33.8754 204.262C33.4242 204.45 33.0295 204.547 33.0069 204.484C32.9844 204.422 33.3284 204.217 33.7795 204.035C34.2307 203.853 34.6254 203.728 34.648 203.808Z" fill="#263238"/>
<path d="M36.2961 208.682C35.9977 208.943 35.6283 209.107 35.2359 209.154C34.86 209.276 34.4575 209.29 34.0742 209.193C34.436 209.049 34.8153 208.953 35.2021 208.909C35.5563 208.789 35.9237 208.712 36.2961 208.682Z" fill="#263238"/>
<path d="M28.7376 207.293C28.6755 207.293 28.7376 206.935 28.8447 206.537C28.9519 206.139 29.121 205.838 29.1831 205.861C29.2451 205.883 29.1831 206.219 29.0759 206.617C28.9688 207.015 28.8334 207.316 28.7376 207.293Z" fill="#263238"/>
<path d="M29.793 213.434C29.8158 213.076 29.92 212.728 30.0975 212.417C30.3287 211.882 30.5656 211.473 30.6276 211.501C30.6048 211.86 30.5006 212.208 30.3231 212.519C30.0919 213.053 29.855 213.474 29.793 213.434Z" fill="#263238"/>
<path d="M27.189 215.116C26.8566 215.108 26.5291 215.035 26.2246 214.9C25.7114 214.735 25.2941 214.587 25.311 214.519C25.6467 214.476 25.9878 214.525 26.2979 214.661C26.8224 214.826 27.2172 215.054 27.189 215.116Z" fill="#263238"/>
<path d="M28.6882 220.12C28.7277 220.177 28.4401 220.45 28.051 220.734C27.6618 221.018 27.3009 221.2 27.2614 221.149C27.222 221.098 27.5096 220.813 27.9043 220.529C28.2991 220.245 28.6487 220.063 28.6882 220.12Z" fill="#263238"/>
<path d="M29.8973 225.111C29.8973 225.174 29.5589 225.322 29.1021 225.43C28.6453 225.538 28.2675 225.577 28.2506 225.515C28.2337 225.452 28.5889 225.304 29.0457 225.191C29.5025 225.077 29.8804 225.043 29.8973 225.111Z" fill="#263238"/>
<path d="M36.4317 212.852C36.4656 212.909 36.161 213.153 35.7212 213.318C35.2813 213.483 34.8865 213.506 34.8753 213.443C34.864 213.381 35.2136 213.25 35.6309 213.085C36.0483 212.92 36.3979 212.789 36.4317 212.852Z" fill="#263238"/>
<path d="M37.3647 220.614C37.3365 220.677 36.9756 220.569 36.5582 220.37C36.1409 220.171 35.8251 219.961 35.8533 219.898C35.8815 219.836 36.2481 219.949 36.6654 220.143C37.0827 220.336 37.3985 220.552 37.3647 220.614Z" fill="#263238"/>
<path d="M39.0147 226.174C38.6412 226.155 38.276 226.056 37.9433 225.884C37.3793 225.663 36.9451 225.43 36.9676 225.361C37.3393 225.381 37.7026 225.479 38.0335 225.651C38.5974 225.873 39.0373 226.106 39.0147 226.174Z" fill="#263238"/>
<path d="M30.16 230.528C30.1262 230.465 30.5661 230.17 31.0736 229.766C31.5812 229.362 31.9759 228.999 32.0267 229.05C32.0774 229.101 31.756 229.539 31.2259 229.959C30.931 230.247 30.5614 230.444 30.16 230.528Z" fill="#263238"/>
<path d="M34.5125 227.687C34.4448 227.687 34.3489 227.323 34.1797 226.891C34.0106 226.459 33.8414 226.112 33.8978 226.072C33.9542 226.032 34.2361 226.328 34.411 226.8C34.5858 227.272 34.5801 227.687 34.5125 227.687Z" fill="#263238"/>
<path d="M33.3459 221.017C33.3064 221.074 33.0244 220.938 32.7143 220.716C32.4041 220.494 32.1898 220.267 32.2293 220.21C32.2688 220.153 32.5507 220.29 32.8609 220.511C33.1711 220.733 33.4023 220.961 33.3459 221.017Z" fill="#263238"/>
<path d="M43.4992 210.546C43.5387 210.602 43.2623 210.875 42.8845 211.154C42.5067 211.432 42.1683 211.62 42.1288 211.563C42.0893 211.506 42.36 211.239 42.7379 210.955C43.1157 210.671 43.4992 210.489 43.4992 210.546Z" fill="#263238"/>
<path d="M45.0488 214.762C45.0488 214.831 44.6258 214.921 44.0957 214.865C43.5656 214.808 43.1652 214.626 43.1822 214.563C43.1991 214.501 43.6164 214.563 44.1239 214.614C44.6315 214.666 45.0432 214.694 45.0488 214.762Z" fill="#263238"/>
<path d="M38.4683 215.716C38.4683 215.778 38.0904 215.92 37.5716 215.954C37.0528 215.988 36.6468 215.903 36.6524 215.835C36.658 215.767 37.0641 215.744 37.5603 215.71C38.0566 215.676 38.457 215.647 38.4683 215.716Z" fill="#263238"/>
<path d="M39.0367 211.722C39.0367 211.79 38.6307 211.802 38.1908 211.591C37.7509 211.381 37.4972 211.08 37.5423 211.023C37.5874 210.966 37.8919 211.182 38.2923 211.364C38.6927 211.546 39.0423 211.654 39.0367 211.722Z" fill="#263238"/>
<path d="M45.6124 219.296C45.5785 219.352 45.1669 219.159 44.6932 218.858C44.2195 218.557 43.8698 218.289 43.9093 218.21C43.9488 218.13 44.3548 218.352 44.8285 218.647C45.3022 218.943 45.6519 219.239 45.6124 219.296Z" fill="#263238"/>
<path d="M61.6696 231.133H26.5645V237.404H61.6696V231.133Z" fill="#8DBE3D"/>
<path d="M29.1855 236.164L33.4546 254.909H54.3767L59.0461 236.164H29.1855Z" fill="#8DBE3D"/>
<path d="M61.6534 237.414C61.6534 237.482 53.7583 237.538 43.9683 237.538C34.1783 237.538 26.2832 237.482 26.2832 237.414C26.2832 237.346 34.1783 237.289 43.9683 237.289C53.7583 237.289 61.6534 237.351 61.6534 237.414Z" fill="#263238"/>
<path d="M42.1268 215.849C42.0705 215.883 41.828 215.604 41.5911 215.218C41.3543 214.831 41.2076 214.49 41.264 214.456C41.3204 214.422 41.5629 214.7 41.7998 215.087C42.0366 215.474 42.1832 215.809 42.1268 215.849Z" fill="#263238"/>
<path d="M42.1394 220.892C42.1225 220.565 42.1864 220.239 42.3255 219.943C42.489 219.437 42.6808 219.045 42.7428 219.067C42.7601 219.396 42.6962 219.725 42.5567 220.022C42.3706 220.523 42.207 220.915 42.1394 220.892Z" fill="#263238"/>
<path d="M43.8545 226.193C43.7925 226.227 43.5331 225.8 43.2906 225.249C43.096 224.929 42.9729 224.57 42.9297 224.197C42.9917 224.163 43.2511 224.59 43.4936 225.141C43.6882 225.461 43.8114 225.82 43.8545 226.193Z" fill="#263238"/>
<path d="M40.1463 230.456C40.0955 230.41 40.3042 230.086 40.6143 229.722C40.9245 229.358 41.2121 229.108 41.2685 229.154C41.3249 229.199 41.1106 229.529 40.8004 229.887C40.4903 230.245 40.197 230.53 40.1463 230.456Z" fill="#263238"/>
<path d="M39.3689 222.717C39.3689 222.785 39.0192 222.78 38.6132 222.717C38.2072 222.655 37.8914 222.535 37.9026 222.467C37.9139 222.399 38.2523 222.404 38.6527 222.467C39.0531 222.53 39.3802 222.649 39.3689 222.717Z" fill="#263238"/>
<path d="M161.502 188.027H78.2539V254.955H161.502V188.027Z" fill="#E0E0E0"/>
<g opacity="0.3">
<path d="M84.3145 188.163C94.1157 191.688 104.926 192.444 115.444 192.643C117.626 192.683 119.831 192.677 121.94 193.211C124.05 193.746 126.085 194.957 127.168 196.861C128.347 198.936 128.223 201.535 127.552 203.826C126.881 206.117 125.724 208.238 124.89 210.472C123.412 214.425 122.96 218.693 123.576 222.872C123.766 224.652 124.36 226.364 125.313 227.875C125.796 228.625 126.446 229.252 127.211 229.704C127.977 230.156 128.837 230.421 129.723 230.479C132.886 230.524 135.052 227.392 136.62 224.617C143.054 213.246 150.013 200.341 154.13 187.93L84.3145 188.163Z" fill="black"/>
</g>
<path d="M106.619 254.599C106.535 254.599 106.473 239.765 106.473 221.47C106.473 203.175 106.535 188.336 106.619 188.336C106.704 188.336 106.766 203.169 106.766 221.47C106.766 239.771 106.698 254.599 106.619 254.599Z" fill="#455A64"/>
<path d="M140.729 138.565C140.481 136.893 135.53 131.378 135.53 131.378C135.53 131.378 133.06 121.367 132.315 118.416C132.067 117.563 131.705 116.748 131.238 115.994C129.487 113.053 126.997 110.631 124.02 108.972L117.168 105.089L115.532 101.417L99.0766 92.8887L94.6159 100.848C94.6159 100.848 83.7826 104.316 82.3502 106.778C80.9178 109.24 83.0608 142.482 83.0608 142.482C83.0608 142.482 78.5493 161.653 77.5737 165.621C76.5981 169.59 77.8782 174.32 77.8782 174.32L85.9482 164.115C88.4577 160.942 93.9617 159.481 97.9149 159.538L131.7 159.691L130.341 150.151L157.675 155.484C157.675 155.484 162.373 146.24 162.751 146.058C163.129 145.876 140.729 138.565 140.729 138.565Z" fill="#8DBE3D"/>
<path d="M98.3812 103.947C98.1443 103.703 100.287 111.009 102.983 118.451C104.433 122.472 105.172 126.719 105.165 130.998V157.947L121.362 156.838L118.942 139.088C118.942 139.088 116.969 127.638 116.416 123.283C115.908 119.303 114.16 108.501 114.16 108.501C114.16 108.501 105.165 110.912 98.3812 103.947Z" fill="white"/>
<path d="M134.326 145.252C134.3 145.114 134.3 144.974 134.326 144.836C134.363 144.465 134.435 144.097 134.54 143.739C134.882 142.543 135.518 141.454 136.39 140.572C137.265 139.693 138.345 139.048 139.531 138.696C139.886 138.59 140.25 138.518 140.619 138.48C140.753 138.454 140.891 138.454 141.025 138.48C141.025 138.531 140.461 138.594 139.593 138.895C138.466 139.285 137.442 139.93 136.6 140.781C135.759 141.631 135.121 142.665 134.737 143.802C134.438 144.683 134.376 145.252 134.326 145.252Z" fill="#263238"/>
<path d="M135.158 138.792C135.911 138.346 136.762 138.098 137.634 138.07C138.497 137.949 139.377 138.055 140.189 138.377C140.189 138.468 139.061 138.246 137.656 138.377C136.252 138.508 135.192 138.877 135.158 138.792Z" fill="#263238"/>
<g opacity="0.3">
<path d="M81.4333 153.5L80.0234 155.103C81.4935 156.933 83.4858 158.263 85.7305 158.912C87.9929 159.396 90.3044 159.606 92.6162 159.538C93.5527 159.583 94.4909 159.493 95.402 159.271C96.3213 159.003 97.1728 158.48 98.1259 158.424C98.765 158.426 99.4008 158.518 100.015 158.696C100.633 158.873 101.287 158.883 101.91 158.725C102.218 158.641 102.492 158.459 102.69 158.206C102.888 157.953 103 157.643 103.01 157.321C95.9792 155.249 88.7431 153.968 81.4333 153.5Z" fill="black"/>
</g>
<path d="M127.673 155.56L123.725 151.308L115.52 149.232C115.52 149.232 108.031 151.507 107.851 151.507C107.67 151.507 101.332 149.755 101.332 149.755L99.1152 157.954L110.535 158.744L123.573 158.215C123.573 158.215 124.256 157.578 123.85 157.141C123.444 156.703 126.032 157.88 126.337 157.891C126.641 157.903 127.228 158.141 127.634 157.652C127.91 157.289 128.282 156.214 127.673 155.56Z" fill="#FFBE9D"/>
<path d="M123.852 157.113C123.409 157.028 122.975 156.903 122.555 156.737C121.766 156.487 120.666 156.169 119.442 155.828C118.219 155.487 117.091 155.259 116.273 155.117C115.826 155.058 115.385 154.953 114.959 154.804C115.411 154.784 115.863 154.819 116.307 154.907C117.385 155.058 118.455 155.271 119.51 155.543C120.567 155.814 121.606 156.148 122.623 156.544C123.055 156.68 123.468 156.871 123.852 157.113Z" fill="#EB996E"/>
<path d="M127.675 155.56C127.06 155.403 126.454 155.213 125.859 154.991C124.731 154.616 123.192 154.15 121.461 153.666C119.729 153.183 118.195 152.632 117.028 152.563C116.399 152.531 115.769 152.556 115.145 152.637C115.297 152.553 115.463 152.495 115.635 152.467C116.096 152.366 116.568 152.328 117.039 152.353C118.246 152.353 119.859 152.87 121.551 153.382C123.243 153.894 124.833 154.366 125.938 154.798C126.502 155.008 126.925 155.201 127.23 155.338C127.388 155.389 127.538 155.464 127.675 155.56Z" fill="#EB996E"/>
<path d="M82.3515 106.779C82.3515 106.779 76.4584 110.913 75.0203 116.859C73.5823 122.806 67.3733 147.111 68.6478 150.744C69.9223 154.377 94.7018 157.947 94.7018 157.947L97.6399 145.44L85.0528 141.966C85.0528 141.966 85.2164 130.396 85.3743 125.603C85.5322 120.811 82.3515 106.779 82.3515 106.779Z" fill="#8DBE3D"/>
<path d="M97.4799 147.322L101.535 148.329L99.0927 157.755L95.1113 157.112L97.4799 147.322Z" fill="white"/>
<path d="M68.5575 149.459C68.5575 149.459 68.5575 149.669 68.6195 150.028C68.7566 150.577 69.0578 151.072 69.4824 151.443C70.5595 152.455 72.6178 153.297 75.2232 153.769C76.4131 154.166 77.7722 154.479 79.2216 154.809C80.6709 155.139 82.2386 155.474 83.8853 155.81C87.1844 156.492 90.8331 157.208 94.7017 157.936L94.5325 158.044C94.8088 156.907 95.0964 155.662 95.4066 154.417C96.1002 151.574 96.777 148.777 97.4142 146.144L97.5157 146.315L86.3554 143.126C84.8145 142.471 83.1471 142.176 81.4773 142.261C80.2083 142.333 78.9617 142.629 77.7948 143.137C77.0532 143.46 76.3449 143.856 75.68 144.319L75.1669 144.695C75.1107 144.74 75.0503 144.78 74.9864 144.814C74.9864 144.814 75.0371 144.757 75.1443 144.666C75.2514 144.575 75.415 144.433 75.6406 144.263C76.2955 143.773 77.0007 143.356 77.744 143.018C78.9184 142.481 80.1794 142.163 81.466 142.079C83.1651 141.97 84.8664 142.254 86.44 142.91L97.6342 146.071L97.7695 146.105L97.7357 146.241C97.0984 148.873 96.4273 151.648 95.7393 154.519C95.4348 155.758 95.1415 156.986 94.8596 158.141L94.8257 158.277H94.6904C90.8218 157.544 87.1787 156.816 83.8797 156.122C82.233 155.775 80.6709 155.429 79.2159 155.087C77.761 154.746 76.3962 154.422 75.2007 154.007C72.5615 153.501 70.5031 152.626 69.4147 151.563C68.9831 151.171 68.6867 150.652 68.5688 150.079C68.5281 149.875 68.5243 149.665 68.5575 149.459Z" fill="#263238"/>
<path d="M85.7409 142.813C85.7071 142.853 85.2841 142.461 84.5284 141.955C82.5494 140.618 80.2101 139.93 77.8289 139.982C76.9153 139.982 76.357 140.107 76.3457 140.056C76.8182 139.883 77.3153 139.789 77.8176 139.777C80.2644 139.598 82.6936 140.31 84.6638 141.784C85.0767 142.065 85.4407 142.412 85.7409 142.813Z" fill="#263238"/>
<path d="M87.3954 122.459C87.4161 122.713 87.4161 122.967 87.3954 123.221C87.3954 123.715 87.3447 124.42 87.277 125.296C87.136 127.041 86.8822 129.446 86.4254 132.084C86.0684 134.341 85.5463 136.568 84.8633 138.747C84.728 139.163 84.5814 139.538 84.4629 139.885L84.102 140.703C83.9963 140.937 83.8658 141.158 83.7129 141.363C83.7836 141.119 83.8781 140.883 83.9949 140.658C84.0907 140.413 84.1922 140.135 84.3107 139.828C84.4291 139.521 84.5419 139.123 84.6659 138.691C85.2823 136.504 85.7737 134.283 86.1378 132.039C86.589 129.412 86.8766 127.019 87.0683 125.279C87.1529 124.455 87.2262 123.767 87.2826 123.221C87.2899 122.963 87.3278 122.707 87.3954 122.459Z" fill="#263238"/>
<path d="M101.762 116.017C101.762 116.017 101.706 115.864 101.57 115.597C101.37 115.218 101.077 114.897 100.719 114.664C100.454 114.481 100.151 114.361 99.8335 114.314C99.5159 114.267 99.1918 114.293 98.8858 114.391C98.498 114.525 98.1515 114.759 97.8805 115.069C97.6096 115.379 97.4235 115.755 97.3406 116.16L97.2617 116.563L97.0869 116.188C96.4272 114.761 95.8529 113.295 95.3668 111.799C94.5052 109.306 94.0742 106.683 94.0923 104.044C94.0923 103.538 94.16 103.083 94.1882 102.68C94.2164 102.276 94.3066 101.94 94.3687 101.668C94.4282 101.381 94.5112 101.099 94.6168 100.826C94.4244 101.888 94.317 102.964 94.2954 104.044C94.3418 106.654 94.7967 109.241 95.6432 111.708C96.1296 113.193 96.6944 114.65 97.335 116.074L97.0812 116.108C97.1785 115.661 97.3907 115.248 97.6966 114.91C98.0024 114.571 98.3912 114.32 98.8238 114.181C99.1595 114.079 99.5142 114.057 99.8598 114.117C100.205 114.177 100.532 114.318 100.814 114.528C101.181 114.787 101.47 115.143 101.649 115.557C101.698 115.666 101.734 115.78 101.756 115.898C101.768 115.972 101.773 116.017 101.762 116.017Z" fill="#263238"/>
<path d="M115.514 117.297C115.454 117.075 115.41 116.849 115.384 116.621C115.261 115.994 115.221 115.353 115.266 114.716C115.393 113.735 115.877 112.838 116.625 112.197C117.087 111.814 117.667 111.603 118.266 111.6C118.592 111.597 118.916 111.664 119.214 111.799C119.512 111.933 119.777 112.131 119.992 112.379L119.743 112.527L119.208 111.168C118.153 108.491 117.217 106.052 116.552 104.295L115.779 102.197C115.672 101.946 115.59 101.685 115.537 101.418C115.675 101.653 115.792 101.9 115.886 102.157C116.112 102.726 116.399 103.391 116.749 104.221C117.465 105.966 118.441 108.383 119.484 111.043L120.014 112.408L120.358 113.283L119.794 112.55C119.608 112.332 119.377 112.158 119.116 112.04C118.856 111.922 118.574 111.863 118.289 111.868C117.752 111.864 117.23 112.047 116.811 112.385C116.106 112.979 115.636 113.808 115.486 114.722C115.425 115.344 115.436 115.972 115.52 116.592C115.546 116.826 115.545 117.063 115.514 117.297Z" fill="#263238"/>
<path d="M125.971 118.707C126.05 118.707 127.324 127.337 128.819 138.009C130.313 148.68 131.452 157.339 131.373 157.339C131.294 157.339 130.02 148.709 128.525 138.009C127.031 127.309 125.892 118.718 125.971 118.707Z" fill="#263238"/>
<g opacity="0.3">
<path d="M95.5371 111.891C95.6057 114.101 96.0819 116.28 96.9413 118.315C97.556 117.548 98.2384 116.74 99.1971 116.513C100.359 116.234 101.537 116.956 102.378 117.843C102.232 116.956 101.885 116.116 101.363 115.387C101.102 115.029 100.763 114.736 100.371 114.532C99.9802 114.328 99.5474 114.218 99.1068 114.21C98.6678 114.221 98.2447 114.378 97.9046 114.658C97.5644 114.939 97.3267 115.325 97.2289 115.757L95.6104 111.93" fill="black"/>
</g>
<path d="M86.0112 118.137C85.9605 118.137 85.9774 117.54 85.8082 116.614C85.5765 115.406 85.1108 114.257 84.4378 113.231C84.0589 112.675 83.6263 112.159 83.1464 111.69C82.7488 111.31 82.3164 110.97 81.855 110.672C81.0598 110.166 80.5015 109.973 80.5241 109.922C80.6625 109.932 80.798 109.967 80.9245 110.024C81.0823 110.067 81.2354 110.126 81.3813 110.2C81.5762 110.285 81.7647 110.384 81.9452 110.496C82.4357 110.776 82.8951 111.107 83.3156 111.485C83.8214 111.96 84.2734 112.49 84.6634 113.066C85.3624 114.122 85.8172 115.323 85.9943 116.579C86.0504 116.956 86.0693 117.337 86.0507 117.716C86.0507 117.989 86.0338 118.137 86.0112 118.137Z" fill="#263238"/>
<path d="M118.748 77.5965C118.426 74.5522 116.978 71.7417 114.694 69.7243C112.41 67.7069 109.456 66.6304 106.42 66.7091H105.794C99.0549 67.2776 95.7727 73.3666 96.5284 80.1379L98.3782 103.959L99.162 104.926C100.922 107.106 103.347 108.637 106.061 109.282C108.774 109.927 111.623 109.648 114.163 108.491L113.644 100.827C113.644 100.827 120.107 99.6443 120.016 93.1061C119.977 89.9337 119.368 83.441 118.748 77.5965Z" fill="#FFBE9D"/>
<path d="M113.696 100.809C110.687 100.894 107.717 100.104 105.141 98.5352C105.141 98.5352 107.255 103.191 113.712 102.435L113.696 100.809Z" fill="#EB996E"/>
<path d="M116.696 82.976C116.703 83.2188 116.616 83.4547 116.454 83.6348C116.292 83.8148 116.068 83.925 115.828 83.9425C115.71 83.9542 115.591 83.9422 115.479 83.9073C115.366 83.8724 115.261 83.8151 115.17 83.739C115.079 83.6628 115.004 83.5692 114.95 83.4635C114.895 83.3579 114.862 83.2424 114.852 83.1238C114.844 82.8806 114.93 82.6438 115.092 82.4635C115.254 82.2832 115.48 82.1734 115.721 82.1573C115.838 82.1448 115.957 82.1561 116.07 82.1908C116.184 82.2254 116.289 82.2826 116.38 82.3589C116.471 82.4352 116.546 82.5292 116.6 82.6351C116.654 82.7411 116.687 82.857 116.696 82.976Z" fill="#263238"/>
<path d="M117.109 79.4192C117.036 79.5329 116.302 79.6125 115.417 80.0901C114.532 80.5676 114.013 81.1646 113.894 81.1532C113.776 81.1418 113.894 80.9883 114.114 80.7211C114.452 80.344 114.853 80.0303 115.299 79.7944C115.724 79.5546 116.191 79.3983 116.675 79.3339C117.007 79.2998 117.148 79.3623 117.109 79.4192Z" fill="#263238"/>
<path d="M107.333 83.4701C107.344 83.7141 107.258 83.9524 107.096 84.1334C106.933 84.3144 106.706 84.4234 106.464 84.4366C106.347 84.4491 106.228 84.4377 106.114 84.4031C106.001 84.3685 105.896 84.3113 105.805 84.235C105.714 84.1586 105.639 84.0647 105.585 83.9587C105.531 83.8528 105.498 83.7369 105.489 83.6179C105.481 83.3747 105.567 83.138 105.729 82.9576C105.891 82.7773 106.116 82.6675 106.357 82.6514C106.475 82.6389 106.594 82.6503 106.707 82.6849C106.82 82.7196 106.926 82.7767 107.017 82.853C107.107 82.9294 107.182 83.0233 107.237 83.1293C107.291 83.2353 107.324 83.3512 107.333 83.4701Z" fill="#263238"/>
<path d="M107.222 80.7907C107.093 80.7907 106.489 80.4098 105.531 80.171C104.572 79.9322 103.777 79.9834 103.692 79.9038C103.608 79.8242 103.794 79.7901 104.138 79.7616C104.64 79.7295 105.144 79.7775 105.632 79.9038C106.104 80.0168 106.554 80.209 106.963 80.4723C107.189 80.6542 107.256 80.7793 107.222 80.7907Z" fill="#263238"/>
<path d="M111.1 88.5964C111.622 88.4206 112.164 88.3079 112.713 88.261C112.967 88.261 113.203 88.17 113.243 87.9938C113.259 87.7303 113.194 87.4683 113.057 87.2433L112.25 85.3046C111.122 82.5529 110.322 80.2845 110.434 80.2447C110.547 80.2049 111.562 82.3937 112.651 85.1454C112.921 85.8277 113.181 86.4758 113.423 87.0955C113.59 87.4004 113.646 87.7542 113.581 88.0961C113.546 88.1878 113.491 88.2703 113.42 88.3372C113.348 88.4042 113.263 88.454 113.17 88.4827C113.031 88.5266 112.886 88.5515 112.741 88.5566C112.198 88.6409 111.646 88.6542 111.1 88.5964Z" fill="#263238"/>
<path d="M107.221 76.915C107.108 77.1823 106.121 77.006 104.965 77.0856C103.809 77.1652 102.828 77.4495 102.709 77.1936C102.642 77.0742 102.822 76.8241 103.211 76.5796C103.735 76.2792 104.319 76.1036 104.92 76.0662C105.522 76.0287 106.123 76.1305 106.679 76.3636C107.052 76.5625 107.255 76.7843 107.221 76.915Z" fill="#263238"/>
<path d="M117.085 77.1383C116.866 77.3714 116.008 77.1383 114.982 77.1383C113.956 77.1383 113.082 77.3145 112.878 77.0757C112.788 76.962 112.924 76.7289 113.301 76.5072C113.822 76.2318 114.405 76.0967 114.993 76.1149C115.586 76.1108 116.169 76.2637 116.685 76.5584C117.057 76.7915 117.181 77.0302 117.085 77.1383Z" fill="#263238"/>
<path d="M120.638 71.7859C120.581 71.4875 120.418 71.2205 120.179 71.0351C119.94 70.8497 119.642 70.7589 119.341 70.7796C119.665 70.6865 119.968 70.53 120.232 70.3191C120.364 70.2123 120.463 70.0703 120.517 69.9093C120.572 69.7484 120.581 69.5752 120.543 69.4095C120.373 68.9035 119.73 68.7955 119.223 68.6533C118.557 68.4581 117.966 68.0612 117.531 67.5163C116.916 66.7317 116.68 65.7083 116.144 64.8612C115.798 64.3143 115.335 63.8526 114.788 63.5101C114.242 63.1676 113.626 62.953 112.987 62.8821C112.347 62.8112 111.7 62.8858 111.093 63.1004C110.485 63.315 109.934 63.6641 109.478 64.1221C108.98 63.6065 108.368 63.218 107.692 62.989C107.015 62.76 106.294 62.6971 105.589 62.8055C104.883 62.914 104.214 63.1906 103.636 63.6124C103.058 64.0342 102.588 64.589 102.265 65.2308C101.4 64.867 100.454 64.7445 99.5258 64.8759C98.5976 65.0074 97.7215 65.3881 96.9893 65.978C96.2571 66.568 95.6957 67.3455 95.3639 68.2293C95.0321 69.113 94.9421 70.0705 95.1033 71.0014L99.1411 73.4972C99.1738 73.1876 99.2714 72.8886 99.4273 72.6198C99.5832 72.3511 99.794 72.1187 100.046 71.9382C100.297 71.7576 100.584 71.6329 100.887 71.5724C101.19 71.5119 101.502 71.5168 101.803 71.587C103.021 71.9451 103.799 73.3665 105.062 73.4631C106.049 73.537 106.89 72.7695 107.843 72.5137C108.999 72.201 110.222 72.6672 111.266 73.2584C112.309 73.8497 113.307 74.5888 114.469 74.8845C115.857 75.1649 117.297 74.9916 118.58 74.3898C119.15 74.1883 119.669 73.8643 120.103 73.4404C120.316 73.2276 120.476 72.9665 120.57 72.6787C120.663 72.3909 120.686 72.0848 120.638 71.7859Z" fill="#263238"/>
<path d="M99.8227 71.5762L118.32 71.4738C117.653 70.2206 116.683 69.1569 115.5 68.381C113.044 66.5715 110.083 65.5905 107.041 65.5781C104.024 65.5781 97.9899 69.484 95.8639 71.6387C94.1721 73.3443 94.2172 74.8168 94.2172 74.8168C94.0029 77.2388 95.4184 79.9336 96.0218 82.3044C96.3263 83.521 96.9636 87.2051 96.9636 87.2051C97.9787 87.1767 98.3339 86.3467 98.1535 85.3347L97.8546 81.3549C98.8527 80.5155 99.5519 79.3706 99.846 78.0942C100.14 76.8178 100.013 75.4795 99.4844 74.2824C99.2306 73.9299 98.6216 72.2868 99.8227 71.5762Z" fill="#263238"/>
<path d="M97.5897 81.0925C96.648 77.7951 95.7795 74.2702 96.7833 70.9727H96.2194L95.9938 71.1375C95.4723 70.9609 94.9086 70.9563 94.3844 71.1245C93.8602 71.2926 93.4028 71.6248 93.0784 72.0727C92.7541 72.5207 92.5798 73.0612 92.5808 73.6158C92.5818 74.1704 92.758 74.7103 93.0839 75.1571C92.534 75.1522 92.0012 75.35 91.5858 75.7133C91.1704 76.0766 90.901 76.5803 90.8281 77.1299C90.83 77.8956 91.0386 78.6464 91.4315 79.3017C91.8254 79.9589 92.0664 80.6975 92.1365 81.4621C92.1602 81.8428 92.0499 82.2198 91.825 82.5266C91.6001 82.8334 91.2751 83.0503 90.9071 83.1393C91.0853 83.5271 91.3907 83.8413 91.7718 84.0287C92.1529 84.2161 92.5864 84.2654 92.9993 84.1683C92.7359 84.8164 92.296 85.3762 91.7304 85.7829C92.9373 86.613 94.5896 86.3515 95.8979 85.6863C96.7096 85.3572 97.3722 84.7377 97.7589 83.9466C98.1199 83.0312 97.8492 82.0249 97.5897 81.0925Z" fill="#263238"/>
<path d="M97.2828 84.9415C97.17 84.896 92.7713 83.7305 93.0476 88.1935C93.324 92.6565 97.7001 91.4796 97.7001 91.3489C97.7001 91.2181 97.2828 84.9415 97.2828 84.9415Z" fill="#FFBE9D"/>
<path d="M96.6433 89.7286C96.6433 89.7286 96.57 89.7855 96.4403 89.8537C96.2651 89.9413 96.0632 89.9576 95.8764 89.8992C95.397 89.7514 94.9628 89.0293 94.8951 88.222C94.861 87.8363 94.913 87.4477 95.0474 87.0849C95.0834 86.9414 95.1535 86.8089 95.2518 86.699C95.3501 86.589 95.4735 86.5049 95.6113 86.4539C95.6989 86.4264 95.7931 86.43 95.8783 86.4642C95.9635 86.4983 96.0345 86.5609 96.0794 86.6415C96.1471 86.7609 96.1189 86.8518 96.1471 86.8632C96.1753 86.8746 96.2373 86.7779 96.1922 86.596C96.1559 86.4898 96.0891 86.3968 96.0004 86.3288C95.9379 86.2848 95.8672 86.2541 95.7926 86.2385C95.7179 86.2228 95.6409 86.2226 95.5662 86.2378C95.3867 86.2853 95.2221 86.3781 95.0879 86.5074C94.9537 86.6367 94.8544 86.7982 94.7992 86.9769C94.6365 87.3763 94.5689 87.8086 94.6019 88.2391C94.6865 89.1373 95.1658 89.9447 95.8425 90.1038C95.9626 90.1305 96.0871 90.13 96.207 90.1025C96.3269 90.075 96.4393 90.0211 96.5362 89.9447C96.6433 89.8366 96.6602 89.7343 96.6433 89.7286Z" fill="#EB996E"/>
<path d="M92.69 81.2395C92.69 81.2395 92.5659 81.069 92.6054 80.7165C92.6526 80.4773 92.7513 80.2515 92.8946 80.0551C93.0378 79.8586 93.2221 79.6962 93.4344 79.5794C94.0698 79.2744 94.7612 79.106 95.4646 79.0848C95.8582 79.0848 96.2462 78.9911 96.597 78.8113C96.9479 78.6315 97.2516 78.3707 97.4835 78.0501C97.8518 77.3271 97.9747 76.5022 97.8331 75.702C97.726 74.9515 97.5286 74.275 97.4327 73.6894C97.2541 73.062 97.2639 72.3953 97.4609 71.7734C97.4648 72.4007 97.5348 73.0258 97.6696 73.6382C97.7936 74.2068 98.0136 74.872 98.1489 75.6622C98.3192 76.5365 98.1879 77.4433 97.7767 78.232C97.5321 78.6397 97.1617 78.9552 96.7222 79.1303C96.3286 79.2775 95.9168 79.3693 95.4984 79.4032C94.8315 79.4071 94.1713 79.5383 93.5528 79.7898C93.3592 79.8902 93.1872 80.0283 93.0468 80.1961C92.9065 80.364 92.8005 80.5582 92.7351 80.7676C92.7098 80.9238 92.6947 81.0814 92.69 81.2395Z" fill="#455A64"/>
<path d="M91.6188 79.3008C91.6188 79.3008 91.523 79.1757 91.4835 78.8971C91.4379 78.5043 91.5148 78.1069 91.7034 77.7601C91.8329 77.5136 92.0114 77.2969 92.2279 77.1233C92.4809 76.9319 92.7711 76.7963 93.0794 76.7253C93.3786 76.6607 93.6634 76.5412 93.9197 76.3728C94.033 76.2707 94.1219 76.1439 94.1795 76.0021C94.2372 75.8603 94.2621 75.7071 94.2524 75.5541C94.2524 75.2187 94.213 74.8605 94.2242 74.5024C94.2289 74.1602 94.2667 73.8194 94.337 73.4847C94.4509 72.9192 94.6669 72.3796 94.9743 71.8928C95.0721 71.7142 95.2125 71.5629 95.3829 71.4528C95.5532 71.3426 95.7481 71.2769 95.9499 71.2617C96.2431 71.2617 96.3672 71.3982 96.3559 71.4095C96.3446 71.4209 96.2093 71.3584 95.9612 71.4095C95.7916 71.446 95.6327 71.5214 95.4968 71.6299C95.3608 71.7384 95.2515 71.877 95.1773 72.0349C94.9228 72.5118 94.7439 73.0259 94.6472 73.5586C94.5926 73.874 94.5643 74.1935 94.5626 74.5137C94.5626 74.8435 94.6134 75.196 94.5964 75.5826C94.6047 75.785 94.5668 75.9865 94.4856 76.1718C94.4045 76.3571 94.2823 76.5212 94.1284 76.6514C93.8372 76.8479 93.5089 76.9815 93.164 77.0437C92.9072 77.088 92.6627 77.1869 92.4468 77.334C92.231 77.481 92.0487 77.6728 91.9121 77.8965C91.6804 78.3257 91.5785 78.8139 91.6188 79.3008Z" fill="#455A64"/>
<path d="M117.537 67.5161C117.565 67.5161 117.204 67.7606 116.624 67.4877C116.296 67.3088 116.01 67.0629 115.783 66.7656C115.504 66.3958 115.155 66.0849 114.757 65.8503C114.239 65.5568 113.648 65.4215 113.055 65.4608C112.462 65.5002 111.894 65.7126 111.418 66.072C110.854 66.47 110.386 67.0328 109.727 67.499C109.391 67.7499 109.007 67.9262 108.599 68.0164C108.176 68.091 107.742 68.0497 107.341 67.897C106.54 67.607 105.909 67.1124 105.221 66.8623C104.557 66.6053 103.851 66.4761 103.14 66.4813C101.915 66.4798 100.724 66.8899 99.7561 67.6468C99.1095 68.1561 98.5723 68.7924 98.1771 69.5173C97.9008 70.0347 97.7993 70.3531 97.7711 70.3417C97.7429 70.3303 97.7711 70.2564 97.8162 70.1029C97.88 69.8816 97.9592 69.665 98.053 69.4548C98.4173 68.6806 98.9469 67.9972 99.6039 67.4535C100.594 66.6378 101.828 66.1831 103.106 66.163C103.859 66.1432 104.608 66.2727 105.311 66.5439C106.055 66.8168 106.698 67.3114 107.426 67.5672C107.77 67.7011 108.144 67.7384 108.508 67.6753C108.861 67.5937 109.194 67.4388 109.484 67.2204C110.076 66.794 110.572 66.2312 111.176 65.8105C111.734 65.3891 112.413 65.1635 113.11 65.168C113.705 65.1724 114.288 65.3331 114.802 65.6342C115.214 65.899 115.572 66.2405 115.857 66.6405C116.054 66.9326 116.309 67.1804 116.607 67.3683C116.886 67.5361 117.22 67.589 117.537 67.5161Z" fill="#455A64"/>
<path d="M108.642 89.7695C108.783 89.7695 108.941 90.6906 109.866 91.2307C110.791 91.7708 111.778 91.4979 111.812 91.6286C111.845 91.7594 111.614 91.856 111.191 91.9356C110.639 92.0391 110.067 91.9425 109.578 91.6627C109.11 91.3895 108.763 90.9461 108.608 90.4233C108.507 90.0311 108.575 89.7752 108.642 89.7695Z" fill="#263238"/>
<path d="M166.998 178.601C165.281 177.113 163.053 176.366 160.795 176.52L156.982 188.726C159.774 188.851 162.56 190.301 165.255 189.556C166.332 189.222 167.291 188.583 168.019 187.717C168.748 186.851 169.215 185.792 169.367 184.667C169.484 183.538 169.33 182.398 168.918 181.342C168.505 180.286 167.847 179.346 166.998 178.601Z" fill="#8DBE3D"/>
<path d="M160.842 176.243C160.842 176.146 161.254 176.067 161.97 176.073C163.035 176.092 164.09 176.294 165.088 176.67C166.614 177.269 167.934 178.302 168.889 179.643C169.473 180.438 169.903 181.337 170.158 182.292C170.434 183.338 170.465 184.434 170.248 185.493C170.038 186.567 169.563 187.57 168.867 188.41C168.2 189.175 167.355 189.761 166.408 190.115C164.869 190.664 163.21 190.772 161.614 190.428C160.587 190.225 159.585 189.911 158.626 189.49C157.955 189.2 157.599 188.984 157.633 188.887C157.667 188.791 158.073 188.819 158.761 188.938C159.449 189.058 160.492 189.28 161.733 189.393C163.14 189.551 164.564 189.355 165.878 188.825C166.598 188.518 167.236 188.042 167.739 187.438C168.266 186.776 168.626 185.996 168.788 185.163C168.943 184.338 168.931 183.49 168.754 182.67C168.576 181.849 168.237 181.073 167.756 180.388C166.979 179.201 165.91 178.237 164.654 177.591C163.764 177.167 162.832 176.839 161.874 176.613C161.225 176.465 160.831 176.345 160.842 176.243Z" fill="#F5F5F5"/>
<path d="M125.522 222.035L117.232 245.453L146.078 255.999C146.912 253.157 133.993 242.127 133.993 242.127L139.914 227.345L125.522 222.035Z" fill="#8DBE3D"/>
<g opacity="0.6">
<path d="M125.528 237.612C125.22 237.595 124.917 237.694 124.676 237.889C124.436 238.084 124.275 238.362 124.226 238.669C124.198 238.978 124.289 239.286 124.48 239.53C124.671 239.773 124.947 239.933 125.252 239.977C125.581 239.995 125.904 239.888 126.159 239.677C126.413 239.467 126.581 239.168 126.628 238.84C126.628 238.22 126.019 237.51 125.41 237.595" fill="white"/>
</g>
<path d="M117.232 245.453L118.073 243.094L145.469 254.112C145.469 254.112 146.552 255.141 146.078 255.999L117.232 245.453Z" fill="white"/>
<path d="M134.515 242.151C134.458 242.293 133.731 242.1 132.874 242.305C132.016 242.509 131.43 242.97 131.323 242.873C131.216 242.776 131.718 242.026 132.761 241.799C133.804 241.571 134.588 242.032 134.515 242.151Z" fill="#263238"/>
<path d="M137.109 244.524C137.109 244.671 136.393 244.688 135.699 245.092C135.005 245.496 134.639 246.104 134.498 246.047C134.357 245.99 134.56 245.155 135.434 244.637C136.308 244.12 137.109 244.387 137.109 244.524Z" fill="#263238"/>
<path d="M137.486 248.798C137.35 248.798 137.407 248.002 138.05 247.354C138.693 246.706 139.46 246.643 139.476 246.786C139.493 246.928 138.941 247.189 138.422 247.729C137.903 248.269 137.632 248.838 137.486 248.798Z" fill="#263238"/>
<path d="M135.491 238.632C135.384 238.74 134.809 238.308 133.997 238.064C133.185 237.819 132.468 237.853 132.44 237.705C132.412 237.558 133.185 237.268 134.132 237.563C135.079 237.859 135.604 238.547 135.491 238.632Z" fill="#263238"/>
<path d="M136.045 234.931C135.527 234.885 135.031 234.701 134.607 234.397C134.118 234.114 133.667 233.771 133.265 233.373C133.024 233.141 132.8 232.892 132.594 232.628C132.464 232.479 132.357 232.31 132.278 232.128C132.221 231.993 132.211 231.844 132.249 231.702C132.287 231.561 132.371 231.437 132.487 231.349C132.593 231.276 132.714 231.229 132.841 231.211C132.969 231.193 133.098 231.206 133.22 231.247C133.403 231.313 133.576 231.405 133.733 231.52C134.015 231.71 134.279 231.925 134.523 232.162C134.93 232.56 135.273 233.021 135.538 233.527C135.827 233.97 135.975 234.492 135.961 235.022C135.882 235.022 135.712 234.482 135.222 233.714C134.931 233.273 134.586 232.87 134.195 232.515C133.964 232.306 133.717 232.116 133.457 231.946C133.18 231.753 132.921 231.656 132.797 231.764C132.673 231.872 132.735 231.827 132.769 231.941C132.827 232.075 132.905 232.199 133 232.31C133.185 232.562 133.386 232.802 133.603 233.026C133.969 233.415 134.371 233.767 134.804 234.078C135.549 234.618 136.079 234.857 136.045 234.931Z" fill="#263238"/>
<path d="M135.791 235.079C135.668 234.563 135.712 234.022 135.915 233.533C136.086 232.985 136.347 232.469 136.687 232.009C136.892 231.738 137.12 231.487 137.37 231.258C137.518 231.096 137.705 230.974 137.913 230.904C138.122 230.834 138.344 230.819 138.56 230.86C138.687 230.912 138.797 230.998 138.878 231.11C138.959 231.221 139.007 231.354 139.016 231.492C139.027 231.682 139.012 231.873 138.971 232.06C138.882 232.522 138.703 232.961 138.443 233.351C138.184 233.742 137.849 234.076 137.46 234.334C136.625 234.903 135.977 234.835 135.982 234.783C135.988 234.732 136.546 234.601 137.246 234.033C137.643 233.706 137.966 233.297 138.193 232.833C138.324 232.564 138.417 232.276 138.469 231.98C138.537 231.656 138.509 231.361 138.385 231.355C138.258 231.35 138.131 231.374 138.014 231.424C137.897 231.474 137.793 231.549 137.708 231.645C137.474 231.845 137.259 232.065 137.065 232.305C136.735 232.712 136.465 233.166 136.264 233.652C135.915 234.51 135.875 235.079 135.791 235.079Z" fill="#263238"/>
<path d="M97.5755 159.498C93.1994 159.601 89.0488 160.22 86.0317 163.421C82.0334 167.668 77.0933 173.712 76.8113 177.902C76.394 184.156 80.1442 186.032 82.8793 187.567C84.0891 188.226 85.4524 188.546 86.8269 188.493L137.401 188.107L138.986 179.471L106.277 171.341L107.636 158.93L97.5755 159.498Z" fill="#263238"/>
<path d="M107.669 158.925L123.578 158.186C123.578 158.186 151.064 159.726 156.923 165.144C162.783 170.563 162.055 176.72 160.098 182.627C158.141 188.534 140.924 226.336 140.924 226.336C140.924 226.336 142.323 228.741 141.539 231.14C141.222 232.191 140.639 233.14 139.848 233.896C139.058 234.651 138.086 235.187 137.028 235.449L121.734 229.764C121.734 229.764 119.658 229.025 121.125 227.052C122.591 225.079 123.566 224.715 123.566 224.715V220.775C123.566 220.775 128.941 210.923 129.426 209.57C129.911 208.217 135.065 188.17 135.065 188.17L138.488 182.24C138.488 182.24 130.215 178.317 123.042 175.475L106.293 171.313L107.669 158.925Z" fill="#263238"/>
<path d="M133.472 229.071C133.01 228.8 132.562 228.504 132.13 228.184C129.969 226.773 127.536 225.841 124.991 225.449C124.457 225.397 123.926 225.317 123.4 225.211C123.937 225.148 124.479 225.158 125.013 225.239C127.622 225.52 130.114 226.476 132.249 228.013C132.701 228.31 133.112 228.666 133.472 229.071Z" fill="#455A64"/>
<path d="M141.116 226.364C140.782 226.088 140.485 225.771 140.23 225.42C139.711 224.812 139.023 223.948 138.307 222.958C137.591 221.969 136.971 221.054 136.548 220.377C136.295 220.023 136.084 219.642 135.916 219.24C136.219 219.549 136.487 219.89 136.717 220.258L138.544 222.782C139.226 223.715 139.852 224.556 140.394 225.289C140.672 225.62 140.914 225.98 141.116 226.364Z" fill="#455A64"/>
<path d="M146.699 176.852C146.699 176.897 146.135 177.022 145.249 177.318C142.931 178.089 140.83 179.411 139.125 181.172C138.792 181.56 138.44 181.93 138.07 182.281C138.309 181.822 138.613 181.4 138.973 181.03C139.793 180.096 140.743 179.286 141.792 178.625C142.841 177.96 143.981 177.452 145.176 177.119C145.667 176.953 146.181 176.863 146.699 176.852Z" fill="#455A64"/>
<path d="M131.074 203.617C131.081 203.503 131.102 203.39 131.136 203.281L131.373 202.343L132.287 198.904L135.417 187.584C136.054 185.373 136.595 183.269 137.21 181.359C137.859 179.699 138.84 178.191 140.092 176.93C140.918 176.075 141.833 175.313 142.821 174.656C143.176 174.428 143.453 174.258 143.65 174.155C143.745 174.095 143.845 174.044 143.949 174.002C143.949 174.002 143.565 174.263 142.889 174.747C141.933 175.434 141.046 176.213 140.238 177.072C139.031 178.328 138.087 179.817 137.464 181.45C136.9 183.332 136.336 185.464 135.699 187.664L132.49 198.955C132.072 200.371 131.728 201.525 131.48 202.366C131.362 202.741 131.272 203.048 131.193 203.287C131.168 203.402 131.128 203.513 131.074 203.617Z" fill="#455A64"/>
<path d="M117.007 174.741C116.923 174.741 116.59 171.751 116.257 168.044C115.925 164.337 115.693 161.324 115.806 161.318C115.919 161.313 116.218 164.309 116.551 168.016C116.883 171.723 117.086 174.736 117.007 174.741Z" fill="#455A64"/>
<path d="M90.5247 182.774C90.4796 182.774 90.2371 182.314 89.7352 181.603C89.0873 180.679 88.3104 179.854 87.4287 179.153C86.5401 178.461 85.5584 177.9 84.5132 177.487C83.7067 177.169 83.1823 177.049 83.1935 176.998C83.6682 177.02 84.1364 177.118 84.5808 177.288C86.7862 178.021 88.6702 179.504 89.91 181.484C90.1838 181.877 90.3915 182.313 90.5247 182.774Z" fill="#455A64"/>
<path d="M100.266 171.859C100.266 171.905 99.5667 171.473 98.3993 170.933C95.3365 169.53 91.9393 169.041 88.6094 169.523C87.3405 169.705 86.5679 169.932 86.5566 169.881C86.7207 169.787 86.8974 169.719 87.0811 169.676C87.5712 169.523 88.0703 169.402 88.5755 169.312C91.9436 168.717 95.4124 169.218 98.4783 170.745C98.9379 170.974 99.3825 171.232 99.8092 171.518C99.9765 171.61 100.13 171.725 100.266 171.859Z" fill="#455A64"/>
<path d="M138.367 179.456C138.231 179.449 138.096 179.426 137.966 179.387L136.838 179.143L132.722 178.228C129.242 177.443 124.426 176.386 119.085 175.322C113.745 174.259 108.895 173.378 105.382 172.77L101.214 172.048L100.086 171.849C99.9532 171.833 99.8225 171.8 99.6973 171.752C99.8313 171.756 99.9649 171.767 100.098 171.786L101.226 171.934C102.212 172.07 103.639 172.286 105.404 172.565C108.929 173.134 113.79 173.964 119.136 175.032C124.482 176.101 129.287 177.187 132.761 178.023C134.492 178.444 135.896 178.796 136.861 179.052L137.989 179.348C138.118 179.372 138.244 179.408 138.367 179.456Z" fill="#455A64"/>
<path d="M106.31 172.797C106.254 172.797 106.135 172.126 105.611 171.171C105.304 170.62 104.925 170.113 104.483 169.664C103.926 169.112 103.335 168.595 102.712 168.118C101.566 167.264 100.353 166.504 99.0862 165.844C98.5502 165.587 98.0338 165.291 97.541 164.957C98.1085 165.138 98.6579 165.372 99.1821 165.656C100.491 166.268 101.734 167.013 102.893 167.879C103.524 168.364 104.119 168.895 104.675 169.465C105.128 169.938 105.508 170.477 105.803 171.063C106.005 171.46 106.159 171.88 106.259 172.314C106.306 172.47 106.323 172.634 106.31 172.797Z" fill="#455A64"/>
<path d="M162.641 180.5C162.703 180.568 161.857 181.427 161.197 182.74C160.537 184.053 160.323 185.236 160.238 185.219C160.236 184.3 160.478 183.397 160.938 182.604C161.311 181.763 161.899 181.038 162.641 180.5Z" fill="#263238"/>
<g opacity="0.3">
<path d="M126.441 122.246L130.062 147.955L130.242 148.365C131.091 139.477 129.787 130.514 126.441 122.246Z" fill="black"/>
</g>
<path d="M145.936 137.019L134.167 157.759L105.163 158.395L105.09 159.72L133.174 159.51L134.065 159.476L163.717 159.538L169.712 149.117L177.37 138.053C177.481 137.889 177.545 137.698 177.556 137.499C177.567 137.301 177.524 137.104 177.431 136.928C177.339 136.753 177.201 136.606 177.032 136.504C176.863 136.401 176.67 136.347 176.473 136.348L146.872 136.461C146.681 136.463 146.494 136.515 146.33 136.613C146.165 136.711 146.029 136.851 145.936 137.019Z" fill="#E0E0E0"/>
<path d="M169.71 149.137C169.71 149.137 171.233 150.547 170.996 151.741C170.759 152.935 170.832 153.827 169.71 153.907C169.731 154.344 169.585 154.772 169.301 155.103C169.018 155.434 168.619 155.643 168.188 155.686C168.188 155.686 168.532 157.562 166.366 157.886C166.366 157.886 165.701 159.893 164.336 159.404C163.549 159.135 162.793 158.782 162.08 158.353L161.68 157.625C161.68 157.625 159.666 156.863 160.163 155.72C160.467 155.027 161.505 154.845 161.505 154.845C161.385 154.56 161.335 154.251 161.357 153.942C161.38 153.634 161.475 153.335 161.635 153.071C162.114 152.417 163.682 152.957 163.682 152.957C163.649 152.397 163.826 151.846 164.178 151.411C164.742 150.768 167.212 152.502 167.212 152.502L168.571 150.865L169.71 149.137Z" fill="#FFBE9D"/>
<path d="M166.367 157.885C165.488 157.508 164.649 157.041 163.864 156.492C163.027 156.027 162.24 155.474 161.518 154.844C162.396 155.225 163.235 155.693 164.021 156.242C164.856 156.709 165.642 157.26 166.367 157.885Z" fill="#EB996E"/>
<path d="M168.188 155.684C167.37 155.36 166.591 154.944 165.865 154.445C165.089 154.03 164.36 153.531 163.693 152.955C164.513 153.276 165.292 153.692 166.017 154.194C166.793 154.609 167.521 155.108 168.188 155.684Z" fill="#EB996E"/>
<path d="M165.707 151.566C165.752 151.481 166.683 151.976 167.765 152.669C168.437 153.06 169.083 153.493 169.7 153.965C169.66 154.062 168.69 153.619 167.608 152.919C166.929 152.537 166.292 152.083 165.707 151.566Z" fill="#EB996E"/>
<path d="M177.371 137.144C177.324 137.152 177.277 137.152 177.23 137.144H176.813H175.211L169.323 137.19L149.896 137.235H148.48C148.272 137.215 148.062 137.252 147.872 137.342C147.683 137.432 147.521 137.572 147.403 137.747C146.952 138.558 146.512 139.358 146.084 140.146L143.58 144.695L139.333 152.387C138.126 154.559 137.139 156.321 136.446 157.566C136.113 158.135 135.842 158.624 135.651 158.965L135.436 159.323L135.357 159.442C135.357 159.442 135.357 159.391 135.408 159.306L135.6 158.931L136.35 157.509L139.17 152.285L143.365 144.558C144.155 143.108 144.989 141.585 145.847 140.01L147.172 137.594C147.316 137.377 147.515 137.203 147.748 137.09C147.981 136.976 148.239 136.926 148.497 136.946H149.913L169.34 136.985L175.228 137.036L176.829 137.065H177.247C177.292 137.084 177.334 137.111 177.371 137.144Z" fill="#263238"/>
<path d="M156.503 147.575C156.366 147.775 156.289 148.01 156.282 148.253C156.274 148.496 156.336 148.735 156.461 148.943C156.585 149.151 156.766 149.319 156.982 149.426C157.198 149.533 157.441 149.574 157.68 149.546C157.919 149.518 158.145 149.42 158.331 149.266C158.516 149.111 158.654 148.906 158.727 148.674C158.799 148.443 158.804 148.195 158.741 147.961C158.678 147.727 158.549 147.516 158.37 147.353C158.092 147.135 157.741 147.036 157.391 147.078C157.042 147.119 156.723 147.298 156.503 147.575Z" fill="white"/>
<g opacity="0.3">
<path d="M74.1666 139.566C73.9185 139.668 73.6309 139.839 73.6309 140.134C73.6398 140.244 73.6854 140.348 73.7601 140.428C73.8348 140.509 73.9344 140.562 74.0425 140.578C74.4562 140.519 74.8613 140.41 75.2494 140.254C78.3003 139.577 80.8098 140.225 83.7084 141.391L83.8043 141.294C82.6539 138.776 77.4487 138.219 74.1666 139.566Z" fill="black"/>
</g>
<path d="M231.29 254.974C231.29 255.054 180.282 255.122 117.375 255.122C54.4672 255.122 3.45898 255.031 3.45898 254.974C3.45898 254.917 54.4559 254.826 117.375 254.826C180.293 254.826 231.29 254.866 231.29 254.974Z" fill="#263238"/>
<path d="M58.3949 73.73C58.4908 73.8266 77.2192 67.3397 77.2192 67.3397L70.0008 50.6816L53.3477 57.1231L62.5173 62.4332L58.3949 73.73Z" fill="#455A64"/>
<path d="M67.1797 55.6984V33.0196C67.1797 33.0196 93.0137 28.2553 111.629 28.5396C130.245 28.8238 149.413 31.8996 149.413 31.8996V53.6744C149.413 53.6744 91.0681 48.4212 67.1797 55.6984Z" fill="#455A64"/>
<path d="M67.043 55.7205L77.1939 67.438V53.6738C77.1939 53.6738 68.7066 54.6972 67.043 55.7205Z" fill="#263238"/>
<path d="M67.1835 33.0156C67.2681 33.0156 67.3019 38.1324 67.2681 44.3863C67.2342 50.6402 67.1327 55.757 67.0538 55.757C66.9748 55.757 66.9354 50.6743 66.9692 44.3863C67.003 38.0983 67.0989 33.0156 67.1835 33.0156Z" fill="#263238"/>
<path d="M158.156 71.9935C158.06 72.0901 139.332 65.6032 139.332 65.6032L146.534 48.9395L163.204 55.3696L154.028 60.6797L158.156 71.9935Z" fill="#455A64"/>
<path d="M149.516 53.9815L139.365 65.699V52.9297C142.769 53.0471 146.16 53.3985 149.516 53.9815Z" fill="#263238"/>
<path d="M149.404 31.9004C149.483 31.9004 149.573 36.841 149.601 42.9413C149.629 49.0417 149.601 53.9822 149.505 53.9822C149.409 53.9822 149.336 49.0417 149.308 42.9413C149.28 36.841 149.319 31.9004 149.404 31.9004Z" fill="#263238"/>
<path d="M81.7474 42.964C81.6941 42.3111 81.833 41.6568 82.1466 41.0831C82.4603 40.5093 82.9347 40.0415 83.5106 39.7381C84.0866 39.4347 84.7385 39.3093 85.3848 39.3775C86.0311 39.4456 86.6431 39.7043 87.1443 40.1213L86.3548 41.0764C86.1423 40.8809 85.8895 40.7351 85.6145 40.6496C85.3396 40.5641 85.0493 40.541 84.7645 40.5818C84.2589 40.6527 83.802 40.9231 83.4943 41.3336C83.1865 41.7441 83.0531 42.261 83.1234 42.7707C83.1937 43.2803 83.4619 43.7409 83.8691 44.0512C84.2763 44.3615 84.789 44.496 85.2946 44.4251C85.5812 44.3871 85.8558 44.2846 86.0979 44.1252C86.34 43.9657 86.5434 43.7535 86.6931 43.5041L87.6857 44.2034C87.3179 44.7427 86.8006 45.1607 86.1983 45.4049C85.5961 45.6492 84.9357 45.7089 84.3 45.5766C83.6642 45.4443 83.0813 45.1258 82.6242 44.6611C82.1672 44.1964 81.8563 43.606 81.7305 42.964H81.7474Z" fill="white"/>
<path d="M87.9014 42.1105C87.7964 41.4541 87.8893 40.7811 88.1681 40.1785C88.4468 39.576 88.8986 39.0717 89.4649 38.7309C90.0312 38.3902 90.6859 38.2287 91.3443 38.2673C92.0027 38.306 92.6344 38.5431 93.1576 38.9478C93.6808 39.3525 94.0715 39.9063 94.279 40.5374C94.4864 41.1685 94.5012 41.8479 94.3213 42.4876C94.1414 43.1272 93.7752 43.6977 93.27 44.1251C92.7649 44.5526 92.1441 44.8173 91.488 44.8849C91.0702 44.9521 90.6432 44.9328 90.2331 44.828C89.8229 44.7233 89.4383 44.5353 89.1026 44.2757C88.767 44.016 88.4873 43.6901 88.2808 43.3178C88.0742 42.9456 87.9451 42.5347 87.9014 42.1105ZM93.0389 41.5761C92.993 41.2072 92.8405 40.8601 92.6002 40.578C92.36 40.296 92.0427 40.0915 91.6879 39.99C91.3331 39.8886 90.9566 39.8947 90.6052 40.0076C90.2539 40.1205 89.9433 40.3352 89.7122 40.6249C89.481 40.9146 89.3396 41.2665 89.3056 41.6366C89.2716 42.0068 89.3464 42.3789 89.5207 42.7065C89.6951 43.0341 89.9612 43.3027 90.286 43.4788C90.6108 43.6549 90.9798 43.7307 91.347 43.6967C91.6003 43.6799 91.8472 43.6103 92.0724 43.4923C92.2975 43.3742 92.4959 43.2103 92.6549 43.011C92.814 42.8116 92.9302 42.5812 92.9963 42.3342C93.0624 42.0872 93.0769 41.829 93.0389 41.5761Z" fill="white"/>
<path d="M101.191 44.004L100.949 40.3767L99.3753 43.4809L98.7549 43.5207L96.8094 40.7235L97.0406 44.2712L95.7379 44.3565L95.377 38.3129L96.5048 38.239L98.9862 41.8492L100.954 37.9548L102.082 37.8809L102.488 43.9187L101.191 44.004Z" fill="white"/>
<path d="M108.96 39.8645C108.994 41.2176 108.013 42.0818 106.411 42.1387L105.199 42.1728L105.25 43.8443L103.857 43.8841L103.688 37.7951L106.287 37.7212C107.894 37.6984 108.915 38.5114 108.96 39.8645ZM107.55 39.9043C107.55 39.2392 107.094 38.8639 106.242 38.8867L105.114 38.9208L105.176 41.0243L106.304 40.9902C107.15 40.9675 107.567 40.5638 107.55 39.9043Z" fill="white"/>
<path d="M110.041 37.6641H111.428V42.5762H114.44V43.7133H110.041V37.6641Z" fill="white"/>
<path d="M119.824 42.7535V43.8905L115.172 43.7541L115.347 37.6992L119.858 37.8357L119.824 38.9727L116.666 38.8761L116.632 40.1951L119.418 40.2747L119.384 41.3663L116.599 41.281L116.559 42.6853L119.824 42.7535Z" fill="white"/>
<path d="M122.398 39.1043L120.48 38.9906L120.548 37.8535L125.77 38.1719L125.703 39.309L123.785 39.1896L123.492 44.096L122.105 44.0107L122.398 39.1043Z" fill="white"/>
<path d="M130.825 43.5832L130.723 44.7203L126.088 44.2882L126.652 38.2617L131.163 38.6824L131.062 39.8195L127.915 39.5011L127.797 40.8144L130.571 41.0703L130.475 42.1562L127.695 41.9003L127.571 43.2932L130.825 43.5832Z" fill="white"/>
<path d="M132.565 38.8145L135.266 39.1783C137.212 39.4398 138.39 40.7986 138.153 42.5895C137.916 44.3804 136.416 45.4322 134.471 45.1479L131.77 44.7841L132.565 38.8145ZM134.555 44.0279C134.801 44.0676 135.052 44.0574 135.293 43.9977C135.535 43.9381 135.762 43.8303 135.961 43.6807C136.161 43.531 136.328 43.3427 136.454 43.1266C136.58 42.9106 136.662 42.6713 136.695 42.4229C136.728 42.1744 136.711 41.9219 136.645 41.6801C136.58 41.4384 136.467 41.2124 136.313 41.0154C136.159 40.8184 135.968 40.6545 135.75 40.5333C135.533 40.4121 135.293 40.3361 135.046 40.3097L133.788 40.1391L133.298 43.8573L134.555 44.0279Z" fill="white"/>
<path d="M160.963 33.9653L162.44 35.7107L166.602 33.9653L165.384 32.1289L160.963 33.9653Z" fill="#455A64"/>
<path d="M159.056 25.6578C159.056 26.0896 158.929 26.5117 158.691 26.8707C158.453 27.2297 158.115 27.5095 157.719 27.6748C157.323 27.84 156.888 27.8832 156.468 27.799C156.048 27.7148 155.662 27.5068 155.359 27.2015C155.056 26.8962 154.85 26.5072 154.766 26.0837C154.683 25.6602 154.726 25.2212 154.889 24.8223C155.053 24.4234 155.331 24.0824 155.687 23.8425C156.043 23.6026 156.462 23.4746 156.89 23.4746C157.464 23.4761 158.014 23.7066 158.42 24.1157C158.826 24.5248 159.054 25.0792 159.056 25.6578Z" fill="#8DBE3D"/>
<path d="M110.548 58.2224C110.547 58.4388 110.482 58.6499 110.362 58.829C110.241 59.0081 110.071 59.1471 109.872 59.2283C109.673 59.3096 109.455 59.3293 109.245 59.2852C109.034 59.241 108.842 59.1349 108.692 58.9803C108.542 58.8257 108.441 58.6296 108.401 58.4169C108.362 58.2042 108.386 57.9845 108.471 57.7857C108.555 57.5869 108.697 57.418 108.877 57.3004C109.057 57.1828 109.268 57.1218 109.482 57.1251C109.768 57.1296 110.04 57.2474 110.239 57.4528C110.439 57.6583 110.55 57.9348 110.548 58.2224Z" fill="#8DBE3D"/>
<path d="M60.1037 41.8145C60.1037 41.9792 60.0551 42.1401 59.9642 42.2768C59.8732 42.4136 59.7439 42.5199 59.5928 42.5824C59.4417 42.6449 59.2756 42.6607 59.1156 42.6277C58.9555 42.5947 58.8089 42.5145 58.6942 42.3973C58.5795 42.2801 58.502 42.1311 58.4715 41.9694C58.441 41.8076 58.4589 41.6404 58.523 41.4889C58.587 41.3374 58.6943 41.2086 58.8312 41.1188C58.9681 41.029 59.1284 40.9822 59.2917 40.9845C59.5081 40.9874 59.7146 41.0762 59.8666 41.2316C60.0186 41.3869 60.1038 41.5963 60.1037 41.8145Z" fill="#8DBE3D"/>
<path d="M57.0449 32.6796L59.4699 32.8274L60.6203 28.0176L58.3533 28.1142L57.0449 32.6796Z" fill="#455A64"/>
<path d="M132.838 71.0723L133.656 73.3805L138.494 72.5618L137.519 70.498L132.838 71.0723Z" fill="#8DBE3D"/>
<path d="M83.8987 57.75L82.4043 59.683L85.6808 63.3614L86.8876 61.4227L83.8987 57.75Z" fill="#455A64"/>
<path d="M78.1066 12.3418L83.8306 18.2261L91.8893 15.156L92.2107 17.1743L88.72 24.3777L91.94 29.756L91.6693 31.3649L83.8701 30.0402L79.2571 35.14L78.1743 34.3156L77.2213 27.8287L69.9464 24.0081L69.625 22.5242L76.9506 20.5059L78.1066 12.3418Z" fill="#8DBE3D"/>
<g opacity="0.3">
<path d="M78.1066 12.3418L83.8306 18.2261L91.8893 15.156L92.2107 17.1743L88.72 24.3777L91.94 29.756L91.6693 31.3649L83.8701 30.0402L79.2571 35.14L78.1743 34.3156L77.2213 27.8287L69.9464 24.0081L69.625 22.5242L76.9506 20.5059L78.1066 12.3418Z" fill="black"/>
</g>
<path d="M78.1066 10.6875L83.8306 16.5775L91.8893 15.1562L88.1053 22.4675L91.94 29.7561L83.8701 28.3916L78.1743 34.3158L76.9731 26.1573L69.625 22.5244L76.9506 18.8516L78.1066 10.6875Z" fill="#8DBE3D"/>
<path d="M137.463 12.3418L131.734 18.2261L123.675 15.156L123.354 17.1743L126.844 24.3777L123.624 29.756L123.895 31.3649L131.694 30.0402L136.307 35.14L137.39 34.3156L138.343 27.8287L145.618 24.0081L145.939 22.5242L138.614 20.5059L137.463 12.3418Z" fill="#8DBE3D"/>
<g opacity="0.3">
<path d="M137.465 12.3418L131.736 18.2261L123.677 15.156L123.355 17.1743L126.846 24.3777L123.626 29.756L123.897 31.3649L131.696 30.0402L136.309 35.14L137.392 34.3156L138.345 27.8287L145.62 24.0081L145.941 22.5242L138.616 20.5059L137.465 12.3418Z" fill="black"/>
</g>
<path d="M137.46 10.6875L131.731 16.5775L123.672 15.1562L127.456 22.4675L123.621 29.7561L131.691 28.3916L137.387 34.3158L138.588 26.1573L145.936 22.5244L138.611 18.8516L137.46 10.6875Z" fill="#8DBE3D"/>
<path d="M107.596 2.01172L112.361 11.3982L123.352 10.7444L122.98 13.3255L115.999 20.779L117.888 28.5736L116.957 30.4327L107.94 25.8219L100.389 30.2792L99.3793 28.8522L100.665 20.5687L93.2324 13.1152L93.4016 11.1879L103.101 11.5347L107.596 2.01172Z" fill="#8DBE3D"/>
<g opacity="0.3">
<path d="M107.596 2.01367L112.361 11.4002L123.352 10.7463L122.98 13.3275L115.999 20.781L117.888 28.5756L116.957 30.4347L107.94 25.8239L100.389 30.2812L99.3793 28.8541L100.665 20.5706L93.2324 13.1171L93.4016 11.1898L103.101 11.5366L107.596 2.01367Z" fill="black"/>
</g>
<path d="M108.217 0L112.982 9.38081L123.353 10.7453L115.971 18.2158L117.889 28.5745L108.567 23.8102L99.3801 28.8531L100.999 18.4375L93.4023 11.1887L103.728 9.51725L108.217 0Z" fill="#8DBE3D"/>
<path d="M127.201 84.2033L135.164 85.0902C137.852 81.2533 141.867 78.5687 146.419 77.5642C150.971 76.5597 155.731 77.3078 159.763 79.6616C163.796 82.0153 166.809 85.8045 168.211 90.2843C169.614 94.7642 169.303 99.6108 167.341 103.872C165.379 108.132 161.907 111.499 157.608 113.311C153.308 115.122 148.493 115.247 144.107 113.66C139.721 112.074 136.082 108.891 133.905 104.738C131.729 100.584 131.172 95.7598 132.344 91.2133L127.201 84.2033Z" fill="#FAFAFA"/>
<path d="M127.201 84.2051C127.511 84.6258 129.124 86.7749 132.418 91.181H132.299C132.303 91.1717 132.309 91.1633 132.317 91.1566C132.324 91.15 132.333 91.1451 132.343 91.1423C132.353 91.1396 132.363 91.1391 132.373 91.1409C132.383 91.1427 132.392 91.1467 132.401 91.1526C132.414 91.1606 132.424 91.1726 132.43 91.1869C132.436 91.2012 132.438 91.217 132.435 91.2322C131.627 94.4217 131.67 97.7696 132.559 100.937C132.819 101.888 133.165 102.812 133.591 103.7C133.816 104.155 134.03 104.621 134.273 105.082L135.113 106.429C137.797 110.35 141.856 113.1 146.471 114.121C149.026 114.687 151.671 114.699 154.231 114.155C156.929 113.564 159.465 112.379 161.658 110.687C163.955 108.929 165.801 106.642 167.043 104.019C168.33 101.35 168.964 98.4107 168.893 95.445C168.811 92.608 168.098 89.8257 166.807 87.3036C165.592 84.9127 163.871 82.8204 161.765 81.1748C157.972 78.2189 153.198 76.8433 148.428 77.3315C146.412 77.5754 144.445 78.1235 142.591 78.9575C139.642 80.3317 137.101 82.4603 135.22 85.1318C135.215 85.1427 135.205 85.1514 135.194 85.1565C135.183 85.1617 135.17 85.163 135.158 85.1602L127.201 84.2051L135.175 85.0181L135.108 85.0522C136.982 82.3445 139.535 80.1865 142.506 78.7984C144.369 77.9329 146.353 77.3615 148.388 77.1041C153.224 76.588 158.07 77.9684 161.923 80.9588C164.065 82.6238 165.816 84.7458 167.049 87.1729C168.368 89.7312 169.094 92.5574 169.175 95.4393C169.249 98.4517 168.607 101.438 167.303 104.149C166.038 106.814 164.161 109.135 161.827 110.921C159.598 112.636 157.022 113.835 154.282 114.434C151.676 114.986 148.984 114.969 146.386 114.383C141.722 113.346 137.623 110.56 134.921 106.588L134.076 105.224C133.833 104.758 133.619 104.28 133.388 103.82C132.963 102.92 132.62 101.984 132.361 101.022C131.477 97.821 131.453 94.44 132.294 91.2265L132.429 91.2777C132.418 91.2942 132.402 91.3062 132.384 91.3114C132.365 91.3167 132.345 91.3148 132.327 91.3061L127.201 84.2051Z" fill="#263238"/>
<path d="M143.537 89.2136C143.543 89.3007 143.543 89.3881 143.537 89.4752C143.537 89.6628 143.537 89.9015 143.537 90.2029C143.537 90.8624 143.537 91.7777 143.571 92.9375C143.571 95.2969 143.61 98.6229 143.638 102.603L143.509 102.472H156.778C156.812 102.438 156.502 102.75 156.631 102.614V100.795C156.631 100.198 156.631 99.6007 156.631 99.0095V95.5471C156.631 93.3071 156.631 91.1864 156.631 89.2364L156.755 89.3671L147.169 89.2989L144.456 89.2705H143.734H143.475H143.706H144.405L147.084 89.2364L156.744 89.1738H156.874V89.2989C156.874 91.249 156.874 93.3696 156.874 95.6096V102.608C157.009 102.478 156.699 102.796 156.727 102.762H143.458H143.328V102.608C143.328 98.5944 143.373 95.2458 143.39 92.8693C143.39 91.7322 143.39 90.8112 143.424 90.1631C143.424 89.8731 143.424 89.64 143.424 89.4581C143.451 89.3719 143.488 89.2896 143.537 89.2136Z" fill="#263238"/>
<path d="M155.377 91.4266C155.568 91.5801 153.786 94.1726 151.39 97.2199C150.916 97.8282 150.448 98.4081 150.014 98.9255L149.732 99.2723L149.416 98.9824C147.34 97.1005 145.936 95.6564 146.06 95.5086C146.184 95.3608 147.814 96.5547 149.963 98.3513L149.359 98.4081C149.771 97.8396 150.222 97.2711 150.702 96.6684C153.093 93.6211 155.191 91.2787 155.377 91.4266Z" fill="#8DBE3D"/>
</svg>
