<svg width="29" height="38" viewBox="0 0 29 38" fill="none" xmlns="http://www.w3.org/2000/svg">
<g id="Component 2">
<g id="Group 67">
<path id="Vector 71" d="M4.31437 35.9342C4.1737 34.7447 3.92135 34.1382 3.62245 31.9907C3.22141 30.2356 3.18668 29.0083 2.95088 27.2268C2.70252 25.3505 2.45956 23.4589 2.37292 21.5637C2.25865 19.0638 2 16.4389 2 13.9368C2 11.9127 2.16514 9.95698 2.75959 7.99533C3.27403 6.29769 3.66424 5.03472 5.10528 3.83892C5.62465 3.40793 6.58087 2.59967 7.22044 2.43644C8.33314 2.15247 9.46628 1.99444 10.6149 2.00328C11.705 2.01167 12.7496 2.35133 13.7978 2.61693C15.0427 2.93237 16.0427 3.33292 17.0661 4.09689C18.8109 5.39949 20.0574 7.09015 21.0792 8.99802C21.8199 10.381 22.3369 11.7025 22.3369 13.2815C22.3369 14.8219 22.2012 16.3307 21.4984 17.7414C20.8426 19.0578 19.6685 20.247 18.4458 21.0663C17.2299 21.8812 15.9963 22.1481 14.5711 22.3939C14.066 22.481 13.5271 22.434 13.0163 22.434C12.2391 22.434 11.4409 22.4906 10.6719 22.3618C8.74326 22.0387 6.70358 21.5035 4.9371 20.6613C4.46091 20.4342 4.03348 20.0147 3.62245 19.6907C3.18394 19.345 2.73406 18.9997 2.33629 18.6078" stroke="#505646" stroke-width="2.9021" stroke-linecap="round"/>
<path id="Vector 72" d="M7.5 9.72754C7.85959 10.5702 8.22933 11.0481 8.59138 11.6768" stroke="#505646" stroke-width="2.11062" stroke-linecap="round"/>
<path id="Vector 73" d="M15.1377 9.2959C14.9507 9.95989 14.6424 10.5719 14.4102 11.1007" stroke="#505646" stroke-width="2.11062" stroke-linecap="round"/>
<path id="Vector 74" d="M9.39062 16.2974C9.39062 16.2974 9.70896 17.6087 11.2509 17.9147C12.0101 18.0159 12.9023 18.0566 13.7561 17.633C14.8913 17.0698 15.6479 16.1509 15.6479 14.8535" stroke="#505646" stroke-width="2.11062" stroke-linecap="round"/>
</g>
<path id="Vector 75" d="M19.4688 29.4475C19.5943 30.1781 19.7526 30.6177 20.0336 31.6188C20.2669 32.3035 20.3684 33.04 20.477 33.7509C20.5788 34.4169 20.561 35.0958 20.561 35.7672C20.561 35.8999 20.5584 35.8542 20.5704 35.7192C20.6334 35.0076 20.8247 34.3143 20.9205 33.6068C21.1543 31.88 21.1718 31.4139 21.7395 30.6177C21.7395 30.6177 22.3072 29.4475 23.7264 29.2907C25.0482 29.1447 25.6032 30.4325 25.7471 31.2151C25.8322 31.6781 25.8899 32.1349 25.9291 32.603C25.9627 33.004 25.9383 33.4193 25.9898 33.8163C26.059 34.3499 26.0645 34.8793 26.0645 35.4181" stroke="#505646" stroke-width="2.11062" stroke-linecap="round"/>
</g>
</svg>
