<svg width="316" height="165" viewBox="0 0 316 165" fill="none" xmlns="http://www.w3.org/2000/svg">
<g filter="url(#filter0_d_545_20462)">
<rect x="8" y="6" width="300" height="149" rx="20" fill="white"/>
<path d="M153.176 69V66.648C158.832 61.58 162.136 57.688 162.136 54.496C162.136 52.424 161.044 51.136 159.056 51.136C157.516 51.136 156.312 52.116 155.248 53.292L152.98 51.052C154.884 49.008 156.76 47.916 159.588 47.916C163.48 47.916 166.112 50.408 166.112 54.272C166.112 58.052 162.976 62.084 159.196 65.78C160.232 65.668 161.604 65.528 162.584 65.528H167.064V69H153.176ZM170.784 69V65.668H175.264V52.564H171.484V50.016C173.584 49.624 174.984 49.092 176.328 48.28H179.38V65.668H183.272V69H170.784ZM193.851 69.392C189.931 69.392 186.403 66.228 186.403 58.92C186.403 51.22 190.239 47.916 194.439 47.916C196.959 47.916 198.807 48.952 200.067 50.268L197.855 52.704C197.155 51.892 195.867 51.22 194.691 51.22C192.171 51.22 190.183 53.152 190.183 58.92C190.183 64.296 191.751 66.284 193.795 66.284C195.335 66.284 196.595 64.996 196.595 62.476C196.595 60.012 195.419 58.892 193.655 58.892C192.507 58.892 191.191 59.508 190.155 61.216L189.987 58.416C191.079 56.876 193.011 55.98 194.411 55.98C197.883 55.98 200.375 58.024 200.375 62.476C200.375 66.732 197.379 69.392 193.851 69.392ZM203.423 47.692H215.771V60.208H203.423V47.692ZM212.103 50.632H207.091V57.268H212.103V50.632ZM219.355 45.564H223.079V64.464H219.355V45.564ZM222.015 53.04H226.523V56.092H222.015V53.04ZM206.363 68.076H224.003V71.044H206.363V68.076ZM206.363 62.616H210.087V69.56H206.363V62.616ZM235.173 58.864H238.897V64.548H235.173V58.864ZM246.541 45.564H250.265V65.192H246.541V45.564ZM231.589 68.076H250.825V71.044H231.589V68.076ZM231.589 63.344H235.313V68.86H231.589V63.344ZM228.789 59.984L228.341 57.016C233.073 57.016 239.401 56.96 244.833 56.26L245.057 58.92C239.541 59.844 233.465 59.984 228.789 59.984ZM241.641 60.628H247.353V63.176H241.641V60.628ZM236.685 46.46C240.465 46.46 243.125 48.336 243.125 51.08C243.125 53.852 240.465 55.7 236.685 55.7C232.877 55.7 230.217 53.852 230.217 51.08C230.217 48.336 232.877 46.46 236.685 46.46ZM236.685 49.176C234.949 49.176 233.745 49.82 233.745 51.08C233.745 52.34 234.949 52.984 236.685 52.984C238.393 52.984 239.597 52.34 239.597 51.08C239.597 49.82 238.393 49.176 236.685 49.176Z" fill="#505646"/>
<path d="M264.144 69.16L267.48 57.412H268.428L265.104 69.16H264.144ZM279.747 57.028H281.007V65.128H279.747V57.028ZM276.843 58.372H280.191V59.368H276.843V58.372ZM273.891 66.76H281.271V67.78H273.891V66.76ZM273.891 64.42H275.151V67.252H273.891V64.42ZM272.535 57.784H273.783V62.944H272.535V57.784ZM272.535 62.56H273.387C274.959 62.56 276.399 62.488 278.043 62.188L278.163 63.22C276.471 63.532 275.007 63.592 273.387 63.592H272.535V62.56ZM276.843 60.436H280.191V61.444H276.843V60.436Z" fill="#505646"/>
<path d="M161.492 96.282H163.368V109.246H161.492V96.282ZM157.67 97.626H159.518C159.518 101.588 158.174 104.836 153.568 107.062L152.602 105.578C156.326 103.786 157.67 101.434 157.67 97.962V97.626ZM153.288 97.626H158.552V99.096H153.288V97.626ZM166.937 96.758H168.771V98.018H173.825V96.758H175.673V102.036H166.937V96.758ZM168.771 99.446V100.566H173.825V99.446H168.771ZM165.439 103.128H177.157V104.612H165.439V103.128ZM170.353 101.252H172.215V103.744H170.353V101.252ZM166.853 107.538H175.841V109.022H166.853V107.538ZM166.853 105.368H168.715V108.084H166.853V105.368ZM190.394 96.296H192.27V105.606H190.394V96.296ZM183.632 107.538H192.592V109.022H183.632V107.538ZM183.632 104.668H185.494V108.14H183.632V104.668ZM185.214 97.108C187.202 97.108 188.728 98.48 188.728 100.398C188.728 102.302 187.202 103.688 185.214 103.688C183.226 103.688 181.686 102.302 181.686 100.398C181.686 98.48 183.226 97.108 185.214 97.108ZM185.214 98.718C184.248 98.718 183.506 99.334 183.506 100.398C183.506 101.448 184.248 102.064 185.214 102.064C186.166 102.064 186.908 101.448 186.908 100.398C186.908 99.334 186.166 98.718 185.214 98.718ZM197.743 102.932H199.605V105.774H197.743V102.932ZM203.427 96.282H205.289V106.096H203.427V96.282ZM195.951 107.538H205.569V109.022H195.951V107.538ZM195.951 105.172H197.813V107.93H195.951V105.172ZM194.551 103.492L194.327 102.008C196.693 102.008 199.857 101.98 202.573 101.63L202.685 102.96C199.927 103.422 196.889 103.492 194.551 103.492ZM200.977 103.814H203.833V105.088H200.977V103.814ZM198.499 96.73C200.389 96.73 201.719 97.668 201.719 99.04C201.719 100.426 200.389 101.35 198.499 101.35C196.595 101.35 195.265 100.426 195.265 99.04C195.265 97.668 196.595 96.73 198.499 96.73ZM198.499 98.088C197.631 98.088 197.029 98.41 197.029 99.04C197.029 99.67 197.631 99.992 198.499 99.992C199.353 99.992 199.955 99.67 199.955 99.04C199.955 98.41 199.353 98.088 198.499 98.088ZM215.305 96.66H216.943V97.262C216.943 99.754 214.983 101.868 211.581 102.372L210.853 100.874C213.835 100.482 215.305 98.788 215.305 97.262V96.66ZM215.655 96.66H217.279V97.262C217.279 98.774 218.763 100.482 221.731 100.874L221.017 102.372C217.615 101.868 215.655 99.754 215.655 97.262V96.66ZM215.319 104.5H217.167V109.246H215.319V104.5ZM210.433 103.324H222.151V104.836H210.433V103.324ZM228.178 102.89C227.436 102.89 226.904 102.316 226.904 101.546C226.904 100.79 227.436 100.216 228.178 100.216C228.906 100.216 229.466 100.79 229.466 101.546C229.466 102.316 228.906 102.89 228.178 102.89ZM228.178 108.196C227.436 108.196 226.904 107.622 226.904 106.852C226.904 106.082 227.436 105.522 228.178 105.522C228.906 105.522 229.466 106.082 229.466 106.852C229.466 107.622 228.906 108.196 228.178 108.196ZM237.457 108.196C235.819 108.196 234.713 107.594 233.985 106.754L234.965 105.452C235.581 106.054 236.323 106.53 237.261 106.53C238.325 106.53 239.039 105.998 239.039 105.074C239.039 104.052 238.437 103.422 236.183 103.422V101.938C238.087 101.938 238.703 101.294 238.703 100.37C238.703 99.558 238.199 99.068 237.317 99.068C236.575 99.068 235.973 99.418 235.357 99.992L234.307 98.718C235.203 97.948 236.197 97.458 237.401 97.458C239.403 97.458 240.761 98.438 240.761 100.216C240.761 101.322 240.145 102.148 239.039 102.568V102.638C240.215 102.974 241.111 103.828 241.111 105.2C241.111 107.104 239.445 108.196 237.457 108.196ZM246.023 108.196C243.909 108.196 242.509 106.362 242.509 102.778C242.509 99.208 243.909 97.458 246.023 97.458C248.123 97.458 249.523 99.208 249.523 102.778C249.523 106.362 248.123 108.196 246.023 108.196ZM246.023 106.586C246.919 106.586 247.577 105.69 247.577 102.778C247.577 99.88 246.919 99.04 246.023 99.04C245.127 99.04 244.455 99.88 244.455 102.778C244.455 105.69 245.127 106.586 246.023 106.586ZM256.982 98.158H260.286V99.628H256.982V98.158ZM256.982 100.748H260.342V102.232H256.982V100.748ZM259.698 96.282H261.56V103.87H259.698V96.282ZM251.242 97.22H257.374V103.17H251.242V97.22ZM255.54 98.69H253.076V101.714H255.54V98.69ZM257.164 104.206C259.908 104.206 261.602 105.144 261.602 106.726C261.602 108.322 259.908 109.246 257.164 109.246C254.42 109.246 252.726 108.322 252.726 106.726C252.726 105.144 254.42 104.206 257.164 104.206ZM257.164 105.634C255.484 105.634 254.588 105.984 254.588 106.726C254.588 107.468 255.484 107.832 257.164 107.832C258.858 107.832 259.754 107.468 259.754 106.726C259.754 105.984 258.858 105.634 257.164 105.634Z" fill="#8DBE3D"/>
<path d="M152.85 123V122.05H154.47V116.93H153.14V116.2C153.84 116.08 154.32 115.9 154.75 115.64H155.62V122.05H157.06V123H152.85ZM164.683 114.69H165.733V121.44H164.683V114.69ZM162.263 115.81H165.053V116.64H162.263V115.81ZM159.803 122.8H165.953V123.65H159.803V122.8ZM159.803 120.85H160.853V123.21H159.803V120.85ZM158.673 115.32H159.713V119.62H158.673V115.32ZM158.673 119.3H159.383C160.693 119.3 161.893 119.24 163.263 118.99L163.363 119.85C161.953 120.11 160.733 120.16 159.383 120.16H158.673V119.3ZM162.263 117.53H165.053V118.37H162.263V117.53ZM175.688 114.69H176.738V121.3H175.688V114.69ZM176.428 117.3H178.028V118.17H176.428V117.3ZM169.988 118.89H170.718C172.648 118.89 173.668 118.84 174.838 118.59L174.948 119.43C173.748 119.69 172.688 119.74 170.718 119.74H169.988V118.89ZM169.988 115.45H174.048V116.3H171.028V119.34H169.988V115.45ZM170.958 122.8H177.108V123.65H170.958V122.8ZM170.958 120.62H172.008V123.21H170.958V120.62ZM181.778 115.09C183.148 115.09 184.138 115.87 184.138 117C184.138 118.13 183.148 118.92 181.778 118.92C180.408 118.92 179.418 118.13 179.418 117C179.418 115.87 180.408 115.09 181.778 115.09ZM181.778 115.95C180.988 115.95 180.428 116.36 180.428 117C180.428 117.65 180.988 118.05 181.778 118.05C182.568 118.05 183.138 117.65 183.138 117C183.138 116.36 182.568 115.95 181.778 115.95ZM181.298 119.89H182.348V123.55H181.298V119.89ZM185.318 114.69H186.358V123.83H185.318V114.69ZM178.938 120.45L178.808 119.58C180.458 119.58 182.748 119.56 184.728 119.26L184.798 120.03C182.768 120.42 180.568 120.44 178.938 120.45ZM193.783 117.17H195.733V118.01H193.783V117.17ZM193.723 119.46H195.703V120.3H193.723V119.46ZM197.053 114.69H198.063V123.83H197.053V114.69ZM195.203 114.91H196.183V123.39H195.203V114.91ZM193.153 115.81H194.163C194.163 118.29 193.283 120.41 190.783 121.89L190.183 121.15C192.293 119.88 193.153 118.19 193.153 116.01V115.81ZM190.643 115.81H193.533V116.66H190.643V115.81ZM206.262 115.99H207.842V116.86H206.262V115.99ZM206.262 117.96H207.842V118.82H206.262V117.96ZM205.532 114.69H206.582V120.1H205.532V114.69ZM200.572 120.51H206.582V123.83H205.532V121.35H200.572V120.51ZM201.992 115.21C203.382 115.21 204.422 116.12 204.422 117.41C204.422 118.7 203.382 119.6 201.992 119.6C200.602 119.6 199.572 118.7 199.572 117.41C199.572 116.12 200.602 115.21 201.992 115.21ZM201.992 116.1C201.182 116.1 200.592 116.61 200.592 117.41C200.592 118.21 201.182 118.72 201.992 118.72C202.802 118.72 203.402 118.21 203.402 117.41C203.402 116.61 202.802 116.1 201.992 116.1ZM210.971 115.44H211.831V116.94C211.831 119.15 210.841 121.18 209.201 121.98L208.571 121.11C210.031 120.45 210.971 118.69 210.971 116.94V115.44ZM211.171 115.44H212.021V116.94C212.021 118.62 212.951 120.3 214.391 120.94L213.771 121.78C212.161 121.02 211.171 119.07 211.171 116.94V115.44ZM215.121 114.68H216.171V123.84H215.121V114.68ZM220.487 123V122.05H222.107V116.93H220.777V116.2C221.477 116.08 221.957 115.9 222.387 115.64H223.257V122.05H224.697V123H220.487ZM228.19 123.14C226.74 123.14 225.81 121.85 225.81 119.29C225.81 116.75 226.74 115.51 228.19 115.51C229.63 115.51 230.57 116.75 230.57 119.29C230.57 121.85 229.63 123.14 228.19 123.14ZM228.19 122.22C228.94 122.22 229.46 121.42 229.46 119.29C229.46 117.19 228.94 116.41 228.19 116.41C227.44 116.41 226.91 117.19 226.91 119.29C226.91 121.42 227.44 122.22 228.19 122.22ZM233.123 120.16C232.093 120.16 231.393 119.3 231.393 117.82C231.393 116.35 232.093 115.51 233.123 115.51C234.153 115.51 234.853 116.35 234.853 117.82C234.853 119.3 234.153 120.16 233.123 120.16ZM233.123 119.48C233.633 119.48 234.003 118.95 234.003 117.82C234.003 116.69 233.633 116.18 233.123 116.18C232.603 116.18 232.233 116.69 232.233 117.82C232.233 118.95 232.603 119.48 233.123 119.48ZM233.343 123.14L237.383 115.51H238.113L234.073 123.14H233.343ZM238.353 123.14C237.323 123.14 236.623 122.29 236.623 120.8C236.623 119.33 237.323 118.48 238.353 118.48C239.373 118.48 240.073 119.33 240.073 120.8C240.073 122.29 239.373 123.14 238.353 123.14ZM238.353 122.46C238.863 122.46 239.233 121.93 239.233 120.8C239.233 119.66 238.863 119.17 238.353 119.17C237.833 119.17 237.463 119.66 237.463 120.8C237.463 121.93 237.833 122.46 238.353 122.46ZM249.224 114.67H250.274V119.67H249.224V114.67ZM249.844 116.76H251.564V117.62H249.844V116.76ZM244.374 120.09H250.274V122.25H245.424V123.23H244.384V121.52H249.244V120.86H244.374V120.09ZM244.384 122.96H250.574V123.75H244.384V122.96ZM243.154 115.45H248.534V116.25H243.154V115.45ZM245.844 116.57C247.184 116.57 248.054 117.15 248.054 118.07C248.054 118.99 247.184 119.56 245.844 119.56C244.504 119.56 243.624 118.99 243.624 118.07C243.624 117.15 244.504 116.57 245.844 116.57ZM245.844 117.32C245.104 117.32 244.634 117.6 244.634 118.07C244.634 118.53 245.104 118.81 245.844 118.81C246.584 118.81 247.054 118.53 247.054 118.07C247.054 117.6 246.584 117.32 245.844 117.32ZM245.324 114.61H246.364V116.01H245.324V114.61ZM258.823 114.7H259.873V121.32H258.823V114.7ZM253.903 122.8H260.133V123.65H253.903V122.8ZM253.903 120.65H254.953V123.12H253.903V120.65ZM254.943 115.31C256.323 115.31 257.363 116.25 257.363 117.59C257.363 118.91 256.323 119.87 254.943 119.87C253.563 119.87 252.513 118.91 252.513 117.59C252.513 116.25 253.563 115.31 254.943 115.31ZM254.943 116.21C254.143 116.21 253.533 116.75 253.533 117.59C253.533 118.41 254.143 118.95 254.943 118.95C255.743 118.95 256.343 118.41 256.343 117.59C256.343 116.75 255.743 116.21 254.943 116.21ZM264.032 117.77H265.082V119.27H264.032V117.77ZM268.042 114.69H269.092V119.97H268.042V114.69ZM261.702 119.81L261.562 118.98C263.222 118.98 265.462 118.96 267.372 118.69L267.442 119.42C265.482 119.77 263.322 119.8 261.702 119.81ZM262.362 117.25H266.772V118.08H262.362V117.25ZM262.362 115.13H266.702V115.97H263.412V117.54H262.362V115.13ZM263.012 120.36H264.052V121.2H268.052V120.36H269.092V123.72H263.012V120.36ZM264.052 122V122.88H268.052V122H264.052ZM277.241 114.69H278.281V123.83H277.241V114.69ZM271.271 115.57H272.311V121.24H271.271V115.57ZM271.271 120.62H272.051C273.411 120.62 274.871 120.52 276.401 120.21L276.521 121.09C274.941 121.42 273.471 121.52 272.051 121.52H271.271V120.62ZM285.97 114.68H287.02V123.84H285.97V114.68ZM286.78 118.19H288.44V119.06H286.78V118.19ZM280.31 120.73H281.05C282.67 120.73 283.87 120.67 285.22 120.42L285.33 121.3C283.93 121.55 282.71 121.6 281.05 121.6H280.31V120.73ZM280.31 115.55H284.56V116.4H281.35V121.13H280.31V115.55ZM290.17 123.14C289.73 123.14 289.4 122.8 289.4 122.33C289.4 121.85 289.73 121.52 290.17 121.52C290.6 121.52 290.94 121.85 290.94 122.33C290.94 122.8 290.6 123.14 290.17 123.14Z" fill="#797979"/>
<path d="M39.961 89.5C39.161 89.5 38.6143 89.3467 38.321 89.04C38.0277 88.72 37.881 88.2333 37.881 87.58C37.881 87.3533 37.8943 86.9867 37.921 86.48C37.9477 85.9733 38.0077 85.1867 38.101 84.12C37.9943 83.92 37.901 83.7467 37.821 83.6C37.741 83.4533 37.661 83.3 37.581 83.14C37.501 82.98 37.4143 82.7933 37.321 82.58C37.2277 82.3667 37.1077 82.1 36.961 81.78C36.7343 81.2867 36.4743 80.7133 36.181 80.06C35.901 79.4067 35.6277 78.78 35.361 78.18C35.0943 77.5667 34.8677 77.0267 34.681 76.56C34.5077 76.0933 34.421 75.8 34.421 75.68C34.421 75.4 34.8677 75.26 35.761 75.26C36.321 75.26 36.7677 75.32 37.101 75.44C37.4477 75.5467 37.7277 75.7 37.941 75.9C38.1543 76.0867 38.3143 76.3133 38.421 76.58C38.5277 76.8333 38.6277 77.1067 38.721 77.4C38.841 77.7867 38.9277 78.0733 38.981 78.26C39.0343 78.4467 39.0743 78.6 39.101 78.72C39.141 78.84 39.181 78.96 39.221 79.08C39.261 79.1867 39.3143 79.36 39.381 79.6C39.461 79.84 39.5677 80.1733 39.701 80.6C39.8343 81.0267 40.021 81.6133 40.261 82.36C40.6477 81.5467 40.9543 80.8867 41.181 80.38C41.421 79.8733 41.6277 79.4067 41.801 78.98C41.9743 78.54 42.1343 78.0933 42.281 77.64C42.441 77.1733 42.641 76.5867 42.881 75.88C42.961 75.6267 43.041 75.4667 43.121 75.4C43.2143 75.32 43.3543 75.28 43.541 75.28C43.6077 75.28 43.7877 75.2933 44.081 75.32C44.3877 75.3333 44.701 75.38 45.021 75.46C45.3543 75.54 45.6543 75.6667 45.921 75.84C46.1877 76.0133 46.321 76.2467 46.321 76.54C46.321 76.7667 46.241 77.0867 46.081 77.5C45.9343 77.9133 45.7343 78.38 45.481 78.9C45.241 79.4067 44.9543 79.9467 44.621 80.52C44.301 81.0933 43.9677 81.6533 43.621 82.2C43.2743 82.7467 42.9277 83.2533 42.581 83.72C42.2477 84.1733 41.941 84.5467 41.661 84.84C41.6477 85.16 41.6277 85.54 41.601 85.98C41.5877 86.42 41.561 86.86 41.521 87.3C41.4943 87.7267 41.4677 88.12 41.441 88.48C41.4143 88.8267 41.3943 89.0667 41.381 89.2C41.3677 89.3067 41.341 89.3867 41.301 89.44C41.261 89.48 41.181 89.5 41.061 89.5H39.961ZM50.6724 89.7C50.0858 89.7 49.4991 89.6267 48.9124 89.48C48.3391 89.3333 47.8191 89.08 47.3524 88.72C46.8991 88.36 46.5258 87.88 46.2324 87.28C45.9391 86.68 45.7924 85.9267 45.7924 85.02C45.7924 84.6867 45.8191 84.2867 45.8724 83.82C45.9258 83.3533 46.0258 82.8733 46.1724 82.38C46.3324 81.8867 46.5458 81.4 46.8124 80.92C47.0924 80.4267 47.4524 79.9867 47.8924 79.6C48.3324 79.2133 48.8658 78.9 49.4924 78.66C50.1191 78.42 50.8658 78.3 51.7324 78.3C52.4258 78.3 53.0124 78.38 53.4924 78.54C53.9724 78.7 54.3591 78.92 54.6524 79.2C54.9458 79.4667 55.1591 79.78 55.2924 80.14C55.4258 80.5 55.4924 80.8867 55.4924 81.3C55.4924 81.9133 55.3658 82.4333 55.1124 82.86C54.8724 83.2867 54.5524 83.6467 54.1524 83.94C53.7658 84.22 53.3324 84.44 52.8524 84.6C52.3724 84.76 51.8991 84.8867 51.4324 84.98C50.9658 85.06 50.5324 85.1133 50.1324 85.14C49.7458 85.1533 49.4458 85.16 49.2324 85.16C49.2324 85.4133 49.2658 85.6667 49.3324 85.92C49.4124 86.16 49.5258 86.3733 49.6724 86.56C49.8191 86.7467 50.0124 86.9 50.2524 87.02C50.4924 87.14 50.7858 87.2 51.1324 87.2C51.4791 87.2 51.7458 87.1467 51.9324 87.04C52.1324 86.92 52.2924 86.7933 52.4124 86.66C52.5324 86.5133 52.6324 86.3867 52.7124 86.28C52.8058 86.16 52.9258 86.1 53.0724 86.1C53.1391 86.1 53.2524 86.12 53.4124 86.16C53.5858 86.1867 53.7591 86.2533 53.9324 86.36C54.1058 86.4667 54.2591 86.6133 54.3924 86.8C54.5258 86.9867 54.5924 87.2267 54.5924 87.52C54.5924 87.9067 54.4724 88.24 54.2324 88.52C53.9924 88.8 53.6791 89.0267 53.2924 89.2C52.9191 89.3733 52.4991 89.5 52.0324 89.58C51.5658 89.66 51.1124 89.7 50.6724 89.7ZM51.0524 80.96C50.7591 80.96 50.5058 81.0467 50.2924 81.22C50.0924 81.38 49.9191 81.5867 49.7724 81.84C49.6391 82.0933 49.5324 82.3733 49.4524 82.68C49.3858 82.9867 49.3324 83.28 49.2924 83.56C50.1191 83.5467 50.7858 83.4067 51.2924 83.14C51.8124 82.8733 52.0724 82.4933 52.0724 82C52.0724 81.7333 51.9858 81.4933 51.8124 81.28C51.6524 81.0667 51.3991 80.96 51.0524 80.96ZM56.097 87.04C56.097 85.84 56.637 84.9 57.717 84.22C58.797 83.54 60.3903 83.1733 62.497 83.12C62.5103 82.9733 62.517 82.8533 62.517 82.76C62.5303 82.6533 62.537 82.5267 62.537 82.38C62.537 81.9533 62.457 81.6133 62.297 81.36C62.137 81.1067 61.8036 80.98 61.297 80.98C61.017 80.98 60.7903 81.02 60.617 81.1C60.4436 81.18 60.3036 81.2933 60.197 81.44C60.0903 81.5733 60.0036 81.74 59.937 81.94C59.8703 82.14 59.8103 82.36 59.757 82.6C59.7303 82.72 59.6703 82.8 59.577 82.84C59.4836 82.8667 59.337 82.88 59.137 82.88C57.777 82.88 57.097 82.3667 57.097 81.34C57.097 80.9267 57.1903 80.5333 57.377 80.16C57.577 79.7867 57.8636 79.4667 58.237 79.2C58.6236 78.92 59.1036 78.7 59.677 78.54C60.2503 78.38 60.917 78.3 61.677 78.3C63.157 78.3 64.2303 78.6067 64.897 79.22C65.5636 79.8333 65.897 80.7 65.897 81.82C65.897 81.9667 65.877 82.2333 65.837 82.62C65.8103 82.9933 65.7703 83.3933 65.717 83.82C65.677 84.2333 65.637 84.6267 65.597 85C65.5703 85.3733 65.557 85.6333 65.557 85.78C65.557 86.1133 65.617 86.3533 65.737 86.5C65.857 86.6333 65.9903 86.7267 66.137 86.78C66.297 86.8333 66.437 86.8733 66.557 86.9C66.677 86.9267 66.737 86.9933 66.737 87.1C66.737 87.3933 66.697 87.6933 66.617 88C66.537 88.3067 66.4036 88.5867 66.217 88.84C66.0436 89.0933 65.797 89.3 65.477 89.46C65.1703 89.62 64.7903 89.7 64.337 89.7C63.697 89.7 63.217 89.5467 62.897 89.24C62.577 88.9333 62.3636 88.5067 62.257 87.96C61.937 88.4267 61.517 88.8333 60.997 89.18C60.4903 89.5267 59.8236 89.7 58.997 89.7C58.597 89.7 58.217 89.6533 57.857 89.56C57.5103 89.4667 57.2036 89.3133 56.937 89.1C56.6836 88.8867 56.477 88.6133 56.317 88.28C56.1703 87.9333 56.097 87.52 56.097 87.04ZM62.317 84.76C61.9703 84.76 61.6303 84.7867 61.297 84.84C60.9636 84.8933 60.6636 84.98 60.397 85.1C60.1436 85.2067 59.937 85.3533 59.777 85.54C59.617 85.7267 59.537 85.9533 59.537 86.22C59.537 86.5267 59.6303 86.74 59.817 86.86C60.017 86.98 60.2303 87.04 60.457 87.04C60.6703 87.04 60.8836 86.9933 61.097 86.9C61.3103 86.8067 61.497 86.6667 61.657 86.48C61.8303 86.28 61.977 86.04 62.097 85.76C62.217 85.48 62.2903 85.1467 62.317 84.76ZM74.4265 83.28C74.3465 83.28 74.2532 83.28 74.1465 83.28C74.0532 83.2667 73.9598 83.2533 73.8665 83.24C73.7732 83.2133 73.6932 83.1867 73.6265 83.16C73.5598 83.12 73.5265 83.0733 73.5265 83.02C73.5265 82.8467 73.5332 82.6867 73.5465 82.54C73.5598 82.3933 73.5665 82.24 73.5665 82.08C73.5665 81.7867 73.5265 81.5467 73.4465 81.36C73.3665 81.1733 73.2065 81.08 72.9665 81.08C72.5932 81.08 72.2798 81.3267 72.0265 81.82C71.7865 82.3 71.6332 83.0267 71.5665 84C71.5398 84.4267 71.4998 84.9133 71.4465 85.46C71.4065 85.9933 71.3665 86.5133 71.3265 87.02C71.2865 87.5133 71.2532 87.9533 71.2265 88.34C71.1998 88.7267 71.1865 88.98 71.1865 89.1C71.1865 89.2333 71.1398 89.3333 71.0465 89.4C70.9532 89.4667 70.8532 89.5 70.7465 89.5H70.0265C69.6132 89.5 69.2732 89.46 69.0065 89.38C68.7532 89.2867 68.5465 89.16 68.3865 89C68.2398 88.84 68.1332 88.6467 68.0665 88.42C68.0132 88.18 67.9865 87.9067 67.9865 87.6C67.9865 87.4 67.9932 87.12 68.0065 86.76C68.0332 86.3867 68.0732 85.88 68.1265 85.24C68.1798 84.5867 68.2398 83.7667 68.3065 82.78C68.3865 81.78 68.4798 80.5467 68.5865 79.08C68.6132 78.6933 68.7532 78.5 69.0065 78.5H69.7865C70.1598 78.5 70.4732 78.54 70.7265 78.62C70.9798 78.7 71.1865 78.8133 71.3465 78.96C71.5065 79.0933 71.6198 79.2533 71.6865 79.44C71.7665 79.6267 71.8198 79.82 71.8465 80.02C72.0065 79.7133 72.1932 79.4533 72.4065 79.24C72.6332 79.0133 72.8665 78.8333 73.1065 78.7C73.3465 78.5533 73.5932 78.4533 73.8465 78.4C74.0998 78.3333 74.3332 78.3 74.5465 78.3C74.7998 78.3 75.0532 78.3467 75.3065 78.44C75.5732 78.5333 75.8132 78.6733 76.0265 78.86C76.2398 79.0467 76.4065 79.2867 76.5265 79.58C76.6598 79.8733 76.7265 80.22 76.7265 80.62C76.7265 80.98 76.6732 81.32 76.5665 81.64C76.4598 81.96 76.3065 82.2467 76.1065 82.5C75.9065 82.74 75.6598 82.9333 75.3665 83.08C75.0865 83.2133 74.7732 83.28 74.4265 83.28ZM79.8568 89.68C79.0301 89.68 78.4368 89.46 78.0768 89.02C77.7168 88.58 77.5368 87.8533 77.5368 86.84C77.5368 86.68 77.5435 86.48 77.5568 86.24C77.5835 86 77.6101 85.6933 77.6368 85.32C77.6768 84.9333 77.7235 84.46 77.7768 83.9C77.8301 83.34 77.8835 82.66 77.9368 81.86C78.0035 81.06 78.0701 80.12 78.1368 79.04C78.2168 77.96 78.2968 76.7067 78.3768 75.28C78.3901 74.9867 78.4235 74.8133 78.4768 74.76C78.5168 74.72 78.6235 74.7 78.7968 74.7H79.5768C79.9768 74.7 80.3101 74.7467 80.5768 74.84C80.8435 74.9333 81.0568 75.06 81.2168 75.22C81.3768 75.38 81.4901 75.5667 81.5568 75.78C81.6235 75.98 81.6568 76.1933 81.6568 76.42C81.6568 76.6867 81.6368 77.0733 81.5968 77.58C81.5701 78.0733 81.5301 78.6333 81.4768 79.26C81.4235 79.8867 81.3701 80.54 81.3168 81.22C81.2635 81.9 81.2101 82.5533 81.1568 83.18C81.1035 83.7933 81.0568 84.3467 81.0168 84.84C80.9901 85.3333 80.9768 85.7067 80.9768 85.96C80.9768 86.3067 81.0368 86.5533 81.1568 86.7C81.2901 86.8467 81.4301 86.9533 81.5768 87.02C81.7235 87.0733 81.8568 87.1133 81.9768 87.14C82.1101 87.1533 82.1768 87.1933 82.1768 87.26C82.1768 87.5533 82.1435 87.8467 82.0768 88.14C82.0101 88.42 81.8901 88.68 81.7168 88.92C81.5435 89.1467 81.3035 89.3333 80.9968 89.48C80.7035 89.6133 80.3235 89.68 79.8568 89.68ZM87.392 80.34C87.392 80.6467 87.372 81.0133 87.332 81.44C87.292 81.8533 87.2453 82.2733 87.192 82.7C87.152 83.1133 87.112 83.5067 87.072 83.88C87.032 84.24 87.012 84.52 87.012 84.72C87.012 85.2267 87.132 85.6067 87.372 85.86C87.6253 86.1 87.932 86.22 88.292 86.22C88.9186 86.22 89.4186 85.8933 89.792 85.24C90.1653 84.5867 90.3986 83.72 90.492 82.64L90.812 78.9C90.8253 78.7533 90.872 78.6533 90.952 78.6C91.0453 78.5333 91.1453 78.5 91.252 78.5H91.972C92.252 78.5 92.512 78.5267 92.752 78.58C93.0053 78.62 93.2253 78.7067 93.412 78.84C93.5986 78.96 93.7453 79.1267 93.852 79.34C93.9586 79.5533 94.012 79.8267 94.012 80.16C94.012 80.2933 93.9986 80.5467 93.972 80.92C93.9586 81.28 93.9253 81.8067 93.872 82.5C93.832 83.18 93.772 84.0467 93.692 85.1C93.612 86.14 93.5186 87.4133 93.412 88.92C93.3453 89.8 93.1453 90.5267 92.812 91.1C92.492 91.6867 92.0853 92.1467 91.592 92.48C91.0986 92.8267 90.5453 93.0667 89.932 93.2C89.3186 93.3333 88.692 93.4 88.052 93.4C87.372 93.4 86.7453 93.34 86.172 93.22C85.612 93.1 85.1253 92.9333 84.712 92.72C84.2986 92.5067 83.972 92.26 83.732 91.98C83.5053 91.7 83.392 91.4 83.392 91.08C83.392 90.8267 83.4453 90.6067 83.552 90.42C83.672 90.2333 83.8253 90.08 84.012 89.96C84.1986 89.84 84.412 89.7467 84.652 89.68C84.9053 89.6267 85.1653 89.6 85.432 89.6C85.5653 89.6 85.6586 89.6667 85.712 89.8C85.7786 89.9333 85.872 90.08 85.992 90.24C86.1253 90.4133 86.332 90.5667 86.612 90.7C86.892 90.8333 87.312 90.9 87.872 90.9C88.3653 90.9 88.7653 90.78 89.072 90.54C89.3786 90.3 89.612 89.9933 89.772 89.62C89.9453 89.2467 90.0586 88.84 90.112 88.4C90.1653 87.96 90.192 87.54 90.192 87.14C89.9786 87.5133 89.7386 87.82 89.472 88.06C89.2186 88.2867 88.952 88.4667 88.672 88.6C88.392 88.72 88.112 88.8 87.832 88.84C87.552 88.88 87.2853 88.9 87.032 88.9C86.5386 88.9 86.0853 88.8333 85.672 88.7C85.272 88.5667 84.9253 88.3533 84.632 88.06C84.3386 87.7533 84.112 87.36 83.952 86.88C83.792 86.4 83.712 85.82 83.712 85.14C83.712 84.8867 83.7253 84.5533 83.752 84.14C83.7786 83.7133 83.812 83.24 83.852 82.72C83.892 82.1867 83.932 81.6133 83.972 81C84.0253 80.3867 84.0786 79.76 84.132 79.12C84.1586 78.7067 84.3453 78.5 84.692 78.5H85.332C85.7586 78.5 86.1053 78.54 86.372 78.62C86.6386 78.7 86.8453 78.82 86.992 78.98C87.152 79.1267 87.2586 79.32 87.312 79.56C87.3653 79.7867 87.392 80.0467 87.392 80.34Z" fill="#8DBE3D"/>
<path d="M122 61L122 101" stroke="#8DBE3D"/>
</g>
<defs>
<filter id="filter0_d_545_20462" x="0" y="0" width="316" height="165" filterUnits="userSpaceOnUse" color-interpolation-filters="sRGB">
<feFlood flood-opacity="0" result="BackgroundImageFix"/>
<feColorMatrix in="SourceAlpha" type="matrix" values="0 0 0 0 0 0 0 0 0 0 0 0 0 0 0 0 0 0 127 0" result="hardAlpha"/>
<feOffset dy="2"/>
<feGaussianBlur stdDeviation="4"/>
<feComposite in2="hardAlpha" operator="out"/>
<feColorMatrix type="matrix" values="0 0 0 0 0 0 0 0 0 0 0 0 0 0 0 0 0 0 0.1 0"/>
<feBlend mode="normal" in2="BackgroundImageFix" result="effect1_dropShadow_545_20462"/>
<feBlend mode="normal" in="SourceGraphic" in2="effect1_dropShadow_545_20462" result="shape"/>
</filter>
</defs>
</svg>
