<svg width="316" height="165" viewBox="0 0 316 165" fill="none" xmlns="http://www.w3.org/2000/svg">
<g filter="url(#filter0_d_545_20369)">
<rect x="8" y="6" width="300" height="149" rx="20" fill="white"/>
<path d="M153.176 69V66.648C158.832 61.58 162.136 57.688 162.136 54.496C162.136 52.424 161.044 51.136 159.056 51.136C157.516 51.136 156.312 52.116 155.248 53.292L152.98 51.052C154.884 49.008 156.76 47.916 159.588 47.916C163.48 47.916 166.112 50.408 166.112 54.272C166.112 58.052 162.976 62.084 159.196 65.78C160.232 65.668 161.604 65.528 162.584 65.528H167.064V69H153.176ZM176.776 69.392C172.548 69.392 169.748 65.724 169.748 58.556C169.748 51.416 172.548 47.916 176.776 47.916C180.976 47.916 183.776 51.416 183.776 58.556C183.776 65.724 180.976 69.392 176.776 69.392ZM176.776 66.172C178.568 66.172 179.884 64.38 179.884 58.556C179.884 52.76 178.568 51.08 176.776 51.08C174.984 51.08 173.64 52.76 173.64 58.556C173.64 64.38 174.984 66.172 176.776 66.172ZM186.907 47.692H199.255V60.208H186.907V47.692ZM195.587 50.632H190.575V57.268H195.587V50.632ZM202.839 45.564H206.563V64.464H202.839V45.564ZM205.499 53.04H210.007V56.092H205.499V53.04ZM189.847 68.076H207.487V71.044H189.847V68.076ZM189.847 62.616H193.571V69.56H189.847V62.616ZM218.657 58.864H222.381V64.548H218.657V58.864ZM230.025 45.564H233.749V65.192H230.025V45.564ZM215.073 68.076H234.309V71.044H215.073V68.076ZM215.073 63.344H218.797V68.86H215.073V63.344ZM212.273 59.984L211.825 57.016C216.557 57.016 222.885 56.96 228.317 56.26L228.541 58.92C223.025 59.844 216.949 59.984 212.273 59.984ZM225.125 60.628H230.837V63.176H225.125V60.628ZM220.169 46.46C223.949 46.46 226.609 48.336 226.609 51.08C226.609 53.852 223.949 55.7 220.169 55.7C216.361 55.7 213.701 53.852 213.701 51.08C213.701 48.336 216.361 46.46 220.169 46.46ZM220.169 49.176C218.433 49.176 217.229 49.82 217.229 51.08C217.229 52.34 218.433 52.984 220.169 52.984C221.877 52.984 223.081 52.34 223.081 51.08C223.081 49.82 221.877 49.176 220.169 49.176Z" fill="#505646"/>
<path d="M247.144 69.16L250.48 57.412H251.428L248.104 69.16H247.144ZM257.731 61.528H258.979V63.46H257.731V61.528ZM262.747 57.028H264.007V63.436H262.747V57.028ZM255.043 61.936L254.899 61.036C257.011 61.036 259.651 61.024 261.979 60.784L262.051 61.576C259.663 61.912 257.095 61.936 255.043 61.936ZM256.519 63.808H264.007V66.22H257.779V67.288H256.543V65.404H262.771V64.684H256.519V63.808ZM256.543 67.012H264.319V67.9H256.543V67.012ZM260.671 62.188H263.143V62.968H260.671V62.188ZM258.415 57.22C260.047 57.22 261.127 57.856 261.127 58.864C261.127 59.872 260.047 60.508 258.415 60.508C256.771 60.508 255.691 59.872 255.691 58.864C255.691 57.856 256.771 57.22 258.415 57.22ZM258.415 58.06C257.467 58.06 256.867 58.36 256.867 58.864C256.867 59.368 257.467 59.656 258.415 59.656C259.351 59.656 259.951 59.368 259.951 58.864C259.951 58.36 259.351 58.06 258.415 58.06Z" fill="#505646"/>
<path d="M161.492 96.282H163.368V109.246H161.492V96.282ZM157.67 97.626H159.518C159.518 101.588 158.174 104.836 153.568 107.062L152.602 105.578C156.326 103.786 157.67 101.434 157.67 97.962V97.626ZM153.288 97.626H158.552V99.096H153.288V97.626ZM166.937 96.758H168.771V98.018H173.825V96.758H175.673V102.036H166.937V96.758ZM168.771 99.446V100.566H173.825V99.446H168.771ZM165.439 103.128H177.157V104.612H165.439V103.128ZM170.353 101.252H172.215V103.744H170.353V101.252ZM166.853 107.538H175.841V109.022H166.853V107.538ZM166.853 105.368H168.715V108.084H166.853V105.368ZM190.394 96.296H192.27V105.606H190.394V96.296ZM183.632 107.538H192.592V109.022H183.632V107.538ZM183.632 104.668H185.494V108.14H183.632V104.668ZM185.214 97.108C187.202 97.108 188.728 98.48 188.728 100.398C188.728 102.302 187.202 103.688 185.214 103.688C183.226 103.688 181.686 102.302 181.686 100.398C181.686 98.48 183.226 97.108 185.214 97.108ZM185.214 98.718C184.248 98.718 183.506 99.334 183.506 100.398C183.506 101.448 184.248 102.064 185.214 102.064C186.166 102.064 186.908 101.448 186.908 100.398C186.908 99.334 186.166 98.718 185.214 98.718ZM197.743 102.932H199.605V105.774H197.743V102.932ZM203.427 96.282H205.289V106.096H203.427V96.282ZM195.951 107.538H205.569V109.022H195.951V107.538ZM195.951 105.172H197.813V107.93H195.951V105.172ZM194.551 103.492L194.327 102.008C196.693 102.008 199.857 101.98 202.573 101.63L202.685 102.96C199.927 103.422 196.889 103.492 194.551 103.492ZM200.977 103.814H203.833V105.088H200.977V103.814ZM198.499 96.73C200.389 96.73 201.719 97.668 201.719 99.04C201.719 100.426 200.389 101.35 198.499 101.35C196.595 101.35 195.265 100.426 195.265 99.04C195.265 97.668 196.595 96.73 198.499 96.73ZM198.499 98.088C197.631 98.088 197.029 98.41 197.029 99.04C197.029 99.67 197.631 99.992 198.499 99.992C199.353 99.992 199.955 99.67 199.955 99.04C199.955 98.41 199.353 98.088 198.499 98.088ZM215.305 96.66H216.943V97.262C216.943 99.754 214.983 101.868 211.581 102.372L210.853 100.874C213.835 100.482 215.305 98.788 215.305 97.262V96.66ZM215.655 96.66H217.279V97.262C217.279 98.774 218.763 100.482 221.731 100.874L221.017 102.372C217.615 101.868 215.655 99.754 215.655 97.262V96.66ZM215.319 104.5H217.167V109.246H215.319V104.5ZM210.433 103.324H222.151V104.836H210.433V103.324ZM228.178 102.89C227.436 102.89 226.904 102.316 226.904 101.546C226.904 100.79 227.436 100.216 228.178 100.216C228.906 100.216 229.466 100.79 229.466 101.546C229.466 102.316 228.906 102.89 228.178 102.89ZM228.178 108.196C227.436 108.196 226.904 107.622 226.904 106.852C226.904 106.082 227.436 105.522 228.178 105.522C228.906 105.522 229.466 106.082 229.466 106.852C229.466 107.622 228.906 108.196 228.178 108.196ZM237.457 108.196C235.819 108.196 234.713 107.594 233.985 106.754L234.965 105.452C235.581 106.054 236.323 106.53 237.261 106.53C238.325 106.53 239.039 105.998 239.039 105.074C239.039 104.052 238.437 103.422 236.183 103.422V101.938C238.087 101.938 238.703 101.294 238.703 100.37C238.703 99.558 238.199 99.068 237.317 99.068C236.575 99.068 235.973 99.418 235.357 99.992L234.307 98.718C235.203 97.948 236.197 97.458 237.401 97.458C239.403 97.458 240.761 98.438 240.761 100.216C240.761 101.322 240.145 102.148 239.039 102.568V102.638C240.215 102.974 241.111 103.828 241.111 105.2C241.111 107.104 239.445 108.196 237.457 108.196ZM246.023 108.196C243.909 108.196 242.509 106.362 242.509 102.778C242.509 99.208 243.909 97.458 246.023 97.458C248.123 97.458 249.523 99.208 249.523 102.778C249.523 106.362 248.123 108.196 246.023 108.196ZM246.023 106.586C246.919 106.586 247.577 105.69 247.577 102.778C247.577 99.88 246.919 99.04 246.023 99.04C245.127 99.04 244.455 99.88 244.455 102.778C244.455 105.69 245.127 106.586 246.023 106.586ZM256.982 98.158H260.286V99.628H256.982V98.158ZM256.982 100.748H260.342V102.232H256.982V100.748ZM259.698 96.282H261.56V103.87H259.698V96.282ZM251.242 97.22H257.374V103.17H251.242V97.22ZM255.54 98.69H253.076V101.714H255.54V98.69ZM257.164 104.206C259.908 104.206 261.602 105.144 261.602 106.726C261.602 108.322 259.908 109.246 257.164 109.246C254.42 109.246 252.726 108.322 252.726 106.726C252.726 105.144 254.42 104.206 257.164 104.206ZM257.164 105.634C255.484 105.634 254.588 105.984 254.588 106.726C254.588 107.468 255.484 107.832 257.164 107.832C258.858 107.832 259.754 107.468 259.754 106.726C259.754 105.984 258.858 105.634 257.164 105.634Z" fill="#8DBE3D"/>
<path d="M154.67 123.14C153.52 123.14 152.77 122.68 152.27 122.12L152.84 121.38C153.27 121.82 153.81 122.19 154.58 122.19C155.4 122.19 155.97 121.73 155.97 120.97C155.97 120.15 155.45 119.63 153.8 119.63V118.77C155.24 118.77 155.72 118.23 155.72 117.49C155.72 116.84 155.3 116.43 154.59 116.43C154.03 116.43 153.55 116.7 153.13 117.12L152.52 116.39C153.11 115.87 153.79 115.51 154.64 115.51C155.96 115.51 156.89 116.19 156.89 117.4C156.89 118.25 156.4 118.84 155.62 119.13V119.18C156.47 119.4 157.14 120.03 157.14 121.03C157.14 122.36 156.03 123.14 154.67 123.14ZM160.553 123.14C159.103 123.14 158.173 121.85 158.173 119.29C158.173 116.75 159.103 115.51 160.553 115.51C161.993 115.51 162.933 116.75 162.933 119.29C162.933 121.85 161.993 123.14 160.553 123.14ZM160.553 122.22C161.303 122.22 161.823 121.42 161.823 119.29C161.823 117.19 161.303 116.41 160.553 116.41C159.803 116.41 159.273 117.19 159.273 119.29C159.273 121.42 159.803 122.22 160.553 122.22ZM168.246 116.1H170.746V116.94H168.246V116.1ZM168.246 117.92H170.776V118.76H168.246V117.92ZM170.386 114.69H171.436V120.07H170.386V114.69ZM164.256 115.37H168.496V119.49H164.256V115.37ZM167.466 116.2H165.286V118.66H167.466V116.2ZM168.386 120.33C170.296 120.33 171.466 120.97 171.466 122.07C171.466 123.18 170.296 123.82 168.386 123.82C166.476 123.82 165.306 123.18 165.306 122.07C165.306 120.97 166.476 120.33 168.386 120.33ZM168.386 121.14C167.096 121.14 166.346 121.47 166.346 122.07C166.346 122.68 167.096 123.01 168.386 123.01C169.686 123.01 170.426 122.68 170.426 122.07C170.426 121.47 169.686 121.14 168.386 121.14ZM175.312 121.87H183.592V122.73H175.312V121.87ZM178.922 119.94H179.962V122.32H178.922V119.94ZM178.912 116.6H179.842V116.8C179.842 118.61 178.282 119.91 176.062 120.25L175.672 119.42C177.652 119.15 178.912 118.05 178.912 116.8V116.6ZM179.052 116.6H179.972V116.8C179.972 118.05 181.232 119.15 183.212 119.42L182.822 120.25C180.612 119.91 179.052 118.61 179.052 116.8V116.6ZM176.042 116.04H182.832V116.89H176.042V116.04ZM178.922 114.85H179.962V116.37H178.922V114.85ZM184.901 115.65H188.951V116.49H184.901V115.65ZM186.221 118.26H187.251V121.36H186.221V118.26ZM188.521 115.65H189.561V116.25C189.561 117.06 189.561 118.21 189.301 119.83L188.271 119.74C188.521 118.17 188.521 117.05 188.521 116.25V115.65ZM190.541 114.69H191.581V123.83H190.541V114.69ZM191.291 118.44H192.941V119.32H191.291V118.44ZM184.531 121.9L184.421 121.04C186.051 121.04 188.221 121.01 190.051 120.78L190.101 121.55C188.231 121.86 186.131 121.9 184.531 121.9ZM198.276 115.44H199.136V116.94C199.136 119.15 198.146 121.18 196.506 121.98L195.876 121.11C197.336 120.45 198.276 118.69 198.276 116.94V115.44ZM198.476 115.44H199.326V116.94C199.326 118.62 200.256 120.3 201.696 120.94L201.076 121.78C199.466 121.02 198.476 119.07 198.476 116.94V115.44ZM202.426 114.68H203.476V123.84H202.426V114.68ZM207.791 123V122.05H209.411V116.93H208.081V116.2C208.781 116.08 209.261 115.9 209.691 115.64H210.561V122.05H212.001V123H207.791ZM215.495 123.14C214.045 123.14 213.115 121.85 213.115 119.29C213.115 116.75 214.045 115.51 215.495 115.51C216.935 115.51 217.875 116.75 217.875 119.29C217.875 121.85 216.935 123.14 215.495 123.14ZM215.495 122.22C216.245 122.22 216.765 121.42 216.765 119.29C216.765 117.19 216.245 116.41 215.495 116.41C214.745 116.41 214.215 117.19 214.215 119.29C214.215 121.42 214.745 122.22 215.495 122.22ZM223.188 116.1H225.688V116.94H223.188V116.1ZM223.188 117.92H225.718V118.76H223.188V117.92ZM225.328 114.69H226.378V120.07H225.328V114.69ZM219.198 115.37H223.438V119.49H219.198V115.37ZM222.408 116.2H220.228V118.66H222.408V116.2ZM223.328 120.33C225.238 120.33 226.408 120.97 226.408 122.07C226.408 123.18 225.238 123.82 223.328 123.82C221.418 123.82 220.248 123.18 220.248 122.07C220.248 120.97 221.418 120.33 223.328 120.33ZM223.328 121.14C222.038 121.14 221.288 121.47 221.288 122.07C221.288 122.68 222.038 123.01 223.328 123.01C224.628 123.01 225.368 122.68 225.368 122.07C225.368 121.47 224.628 121.14 223.328 121.14ZM234.097 114.69H235.147V120.05H234.097V114.69ZM234.847 116.97H236.427V117.83H234.847V116.97ZM232.197 120.23C234.057 120.23 235.237 120.9 235.237 122.03C235.237 123.16 234.057 123.83 232.197 123.83C230.327 123.83 229.147 123.16 229.147 122.03C229.147 120.9 230.327 120.23 232.197 120.23ZM232.197 121.07C230.927 121.07 230.177 121.4 230.177 122.03C230.177 122.64 230.927 122.98 232.197 122.98C233.457 122.98 234.207 122.64 234.207 122.03C234.207 121.4 233.457 121.07 232.197 121.07ZM228.367 118.59H229.097C231.047 118.59 232.077 118.54 233.247 118.29L233.357 119.14C232.157 119.39 231.087 119.44 229.097 119.44H228.367V118.59ZM228.367 115.35H232.427V116.2H229.407V119.16H228.367V115.35ZM239.842 123V122.05H241.462V116.93H240.132V116.2C240.832 116.08 241.312 115.9 241.742 115.64H242.612V122.05H244.052V123H239.842ZM245.475 115.48H249.745V119.79H245.475V115.48ZM248.715 116.32H246.505V118.96H248.715V116.32ZM251.235 114.69H252.285V121.37H251.235V114.69ZM251.975 117.41H253.575V118.27H251.975V117.41ZM246.505 122.8H252.655V123.65H246.505V122.8ZM246.505 120.73H247.555V123.2H246.505V120.73ZM256.845 119.33H257.895V121.35H256.845V119.33ZM260.875 114.69H261.925V121.63H260.875V114.69ZM255.535 122.8H262.135V123.65H255.535V122.8ZM255.535 120.96H256.585V123.03H255.535V120.96ZM254.445 119.68L254.305 118.83C255.985 118.83 258.235 118.81 260.165 118.56L260.235 119.32C258.275 119.64 256.095 119.68 254.445 119.68ZM259.075 120.05H261.125V120.79H259.075V120.05ZM257.265 115.04C258.595 115.04 259.525 115.68 259.525 116.65C259.525 117.62 258.595 118.25 257.265 118.25C255.925 118.25 255.005 117.62 255.005 116.65C255.005 115.68 255.925 115.04 257.265 115.04ZM257.265 115.81C256.515 115.81 255.995 116.12 255.995 116.65C255.995 117.17 256.515 117.48 257.265 117.48C258.005 117.48 258.525 117.17 258.525 116.65C258.525 116.12 258.005 115.81 257.265 115.81ZM265.79 120.03H274.07V120.87H265.79V120.03ZM269.38 120.44H270.42V123.83H269.38V120.44ZM266.79 115.05H267.83V116.21H272.01V115.05H273.05V119.04H266.79V115.05ZM267.83 117.04V118.2H272.01V117.04H267.83ZM275.389 115.65H279.439V116.49H275.389V115.65ZM276.709 118.26H277.739V121.36H276.709V118.26ZM279.009 115.65H280.049V116.25C280.049 117.06 280.049 118.21 279.789 119.83L278.759 119.74C279.009 118.17 279.009 117.05 279.009 116.25V115.65ZM281.029 114.69H282.069V123.83H281.029V114.69ZM281.779 118.44H283.429V119.32H281.779V118.44ZM275.019 121.9L274.909 121.04C276.539 121.04 278.709 121.01 280.539 120.78L280.589 121.55C278.719 121.86 276.619 121.9 275.019 121.9Z" fill="#797979"/>
<path d="M37.7 78.84C37.5933 79.16 37.4533 79.58 37.28 80.1C37.12 80.6067 36.94 81.1667 36.74 81.78C36.54 82.3933 36.3333 83.0467 36.12 83.74C35.9067 84.42 35.6867 85.0867 35.46 85.74C35.2467 86.3933 35.0333 87.02 34.82 87.62C34.6067 88.2067 34.4133 88.72 34.24 89.16C34.1867 89.2667 34.0733 89.3533 33.9 89.42C33.74 89.4733 33.48 89.5 33.12 89.5C32.8933 89.5 32.66 89.4867 32.42 89.46C32.18 89.4333 31.9533 89.38 31.74 89.3C31.54 89.22 31.36 89.1133 31.2 88.98C31.0533 88.8467 30.94 88.68 30.86 88.48C30.66 87.8 30.4667 87.0467 30.28 86.22C30.1067 85.38 29.9333 84.5267 29.76 83.66C29.5867 82.7933 29.4133 81.9467 29.24 81.12C29.08 80.28 28.9133 79.52 28.74 78.84C28.74 79.0267 28.7333 79.3467 28.72 79.8C28.7067 80.2533 28.6933 80.78 28.68 81.38C28.6667 81.98 28.6467 82.6267 28.62 83.32C28.6067 84.0133 28.5933 84.6933 28.58 85.36C28.5667 86.0133 28.5533 86.6267 28.54 87.2C28.5267 87.76 28.52 88.22 28.52 88.58C28.52 88.98 28.4933 89.2333 28.44 89.34C28.4 89.4467 28.32 89.5 28.2 89.5H27.1C26.34 89.5 25.8 89.3533 25.48 89.06C25.1733 88.7533 25.02 88.3067 25.02 87.72C25.02 87.56 25.0267 87.2933 25.04 86.92C25.0667 86.5333 25.1 86.08 25.14 85.56C25.18 85.04 25.22 84.4733 25.26 83.86C25.3133 83.2333 25.3667 82.6 25.42 81.96C25.4867 81.0933 25.54 80.3733 25.58 79.8C25.6333 79.2133 25.6733 78.7267 25.7 78.34C25.7267 77.9533 25.7467 77.64 25.76 77.4C25.7867 77.16 25.8 76.9467 25.8 76.76C25.8133 76.5733 25.82 76.4 25.82 76.24C25.8333 76.0667 25.84 75.8533 25.84 75.6C25.84 75.4933 25.88 75.42 25.96 75.38C26.04 75.3267 26.1133 75.3 26.18 75.3H28.98C29.5 75.3 29.9267 75.3867 30.26 75.56C30.5933 75.72 30.8667 75.9733 31.08 76.32C31.2933 76.6667 31.4667 77.12 31.6 77.68C31.7333 78.2267 31.8533 78.88 31.96 79.64C32.08 80.4 32.2067 81.28 32.34 82.28C32.4867 83.2667 32.6733 84.38 32.9 85.62C33.1133 84.7933 33.2933 84.1067 33.44 83.56C33.5867 83.0133 33.7067 82.56 33.8 82.2C33.9067 81.8267 33.9933 81.52 34.06 81.28C34.1267 81.04 34.1867 80.82 34.24 80.62C34.2933 80.4067 34.3533 80.18 34.42 79.94C34.4867 79.7 34.5667 79.4 34.66 79.04C34.7533 78.68 34.8667 78.2333 35 77.7C35.1467 77.1533 35.3267 76.4667 35.54 75.64C35.5667 75.56 35.6133 75.4867 35.68 75.42C35.7467 75.34 35.8667 75.3 36.04 75.3H39.16C39.5867 75.3 39.9267 75.3467 40.18 75.44C40.4467 75.52 40.6533 75.64 40.8 75.8C40.9467 75.96 41.0467 76.16 41.1 76.4C41.1533 76.6267 41.18 76.8933 41.18 77.2C41.18 77.5067 41.16 78.0067 41.12 78.7C41.0933 79.38 41.0467 80.1533 40.98 81.02C40.9267 81.8733 40.8667 82.76 40.8 83.68C40.7467 84.6 40.6867 85.4533 40.62 86.24C40.5667 87.0267 40.52 87.6933 40.48 88.24C40.44 88.7867 40.4133 89.1067 40.4 89.2C40.3867 89.3067 40.36 89.3867 40.32 89.44C40.28 89.48 40.2 89.5 40.08 89.5H38.98C38.22 89.5 37.68 89.3533 37.36 89.06C37.0533 88.7533 36.9 88.36 36.9 87.88C36.9 87.7333 36.9133 87.4667 36.94 87.08C36.98 86.6933 37.0267 86.24 37.08 85.72C37.1333 85.2 37.1933 84.6333 37.26 84.02C37.3267 83.3933 37.3867 82.7733 37.44 82.16C37.4933 81.5467 37.54 80.9533 37.58 80.38C37.6333 79.7933 37.6733 79.28 37.7 78.84ZM47.3664 89.7C46.4464 89.7 45.6797 89.5733 45.0664 89.32C44.4664 89.0533 43.9864 88.6933 43.6264 88.24C43.2664 87.7867 43.0131 87.26 42.8664 86.66C42.7197 86.0467 42.6464 85.3933 42.6464 84.7C42.6464 83.9 42.7397 83.12 42.9264 82.36C43.1264 81.5867 43.4597 80.9 43.9264 80.3C44.3931 79.7 45.0064 79.22 45.7664 78.86C46.5397 78.4867 47.4997 78.3 48.6464 78.3C50.3264 78.3 51.5264 78.7133 52.2464 79.54C52.9797 80.3533 53.3464 81.5 53.3464 82.98C53.3464 83.3933 53.3131 83.8533 53.2464 84.36C53.1931 84.8533 53.0797 85.3467 52.9064 85.84C52.7464 86.3333 52.5197 86.8133 52.2264 87.28C51.9464 87.7467 51.5864 88.16 51.1464 88.52C50.7064 88.88 50.1731 89.1667 49.5464 89.38C48.9331 89.5933 48.2064 89.7 47.3664 89.7ZM48.3064 80.96C47.7997 80.96 47.3931 81.0933 47.0864 81.36C46.7931 81.6133 46.5664 81.9267 46.4064 82.3C46.2597 82.66 46.1597 83.0467 46.1064 83.46C46.0664 83.86 46.0464 84.2 46.0464 84.48C46.0464 85.36 46.1864 86.0067 46.4664 86.42C46.7464 86.8333 47.1464 87.04 47.6664 87.04C48.1331 87.04 48.5131 86.8933 48.8064 86.6C49.1131 86.3067 49.3464 85.9533 49.5064 85.54C49.6797 85.1267 49.7931 84.6933 49.8464 84.24C49.9131 83.7867 49.9464 83.4067 49.9464 83.1C49.9464 82.4333 49.8197 81.9133 49.5664 81.54C49.3264 81.1533 48.9064 80.96 48.3064 80.96ZM61.6595 87.74C61.6595 87.4467 61.6795 87.0667 61.7195 86.6C61.7729 86.12 61.8195 85.62 61.8595 85.1C61.9129 84.5667 61.9595 84.0533 61.9995 83.56C62.0529 83.0667 62.0795 82.6533 62.0795 82.32C62.0795 81.9733 61.9929 81.6667 61.8195 81.4C61.6595 81.12 61.3395 80.98 60.8595 80.98C60.3929 80.98 60.0062 81.0933 59.6995 81.32C59.3929 81.5467 59.1329 81.96 58.9195 82.56C58.7195 83.16 58.5529 83.9867 58.4195 85.04C58.2862 86.0933 58.1595 87.4467 58.0395 89.1C58.0262 89.26 57.9929 89.3667 57.9395 89.42C57.8862 89.4733 57.7729 89.5 57.5995 89.5H56.8795C56.4662 89.5 56.1262 89.46 55.8595 89.38C55.6062 89.2867 55.3995 89.16 55.2395 89C55.0929 88.84 54.9862 88.6467 54.9195 88.42C54.8662 88.18 54.8395 87.9067 54.8395 87.6C54.8395 87.4 54.8462 87.12 54.8595 86.76C54.8862 86.3867 54.9262 85.88 54.9795 85.24C55.0329 84.5867 55.0929 83.7667 55.1595 82.78C55.2395 81.78 55.3329 80.5467 55.4395 79.08C55.4529 78.7867 55.4862 78.6133 55.5395 78.56C55.5795 78.52 55.6862 78.5 55.8595 78.5H56.6395C57.0395 78.5 57.3662 78.5467 57.6195 78.64C57.8862 78.7333 58.0995 78.86 58.2595 79.02C58.4195 79.1667 58.5329 79.3467 58.5995 79.56C58.6662 79.76 58.7062 79.9667 58.7195 80.18C59.1329 79.4733 59.6062 78.9867 60.1395 78.72C60.6729 78.44 61.3395 78.3 62.1395 78.3C62.6995 78.3 63.1862 78.36 63.5995 78.48C64.0129 78.6 64.3529 78.8067 64.6195 79.1C64.8995 79.38 65.1062 79.7533 65.2395 80.22C65.3729 80.6733 65.4395 81.24 65.4395 81.92C65.4395 82.1333 65.4262 82.44 65.3995 82.84C65.3729 83.24 65.3395 83.68 65.2995 84.16C65.2595 84.6267 65.2129 85.12 65.1595 85.64C65.1195 86.1467 65.0795 86.62 65.0395 87.06C64.9995 87.5 64.9662 87.8867 64.9395 88.22C64.9129 88.5533 64.8995 88.7733 64.8995 88.88C64.8995 89.1733 64.8662 89.3533 64.7995 89.42C64.7329 89.4733 64.5862 89.5 64.3595 89.5H63.7195C63.2929 89.5 62.9462 89.46 62.6795 89.38C62.4129 89.3 62.2062 89.1867 62.0595 89.04C61.9129 88.8933 61.8062 88.7133 61.7395 88.5C61.6862 88.2733 61.6595 88.02 61.6595 87.74ZM71.5223 81.2C71.4823 81.7067 71.4357 82.2067 71.3823 82.7C71.3423 83.1933 71.3023 83.66 71.2623 84.1C71.2223 84.54 71.189 84.9333 71.1623 85.28C71.149 85.6267 71.1423 85.8933 71.1423 86.08C71.1423 86.4267 71.1823 86.66 71.2623 86.78C71.3423 86.8867 71.4757 86.94 71.6623 86.94C71.809 86.94 71.9357 86.9133 72.0423 86.86C72.149 86.8067 72.249 86.7467 72.3423 86.68C72.4357 86.6133 72.5157 86.5533 72.5823 86.5C72.6623 86.4467 72.749 86.42 72.8423 86.42C72.9357 86.42 73.0223 86.4733 73.1023 86.58C73.1823 86.6867 73.2223 86.9333 73.2223 87.32C73.2223 88.0533 73.0223 88.6333 72.6223 89.06C72.2223 89.4867 71.5357 89.7 70.5623 89.7C69.6023 89.7 68.889 89.48 68.4223 89.04C67.969 88.5867 67.7423 87.9 67.7423 86.98C67.7423 86.78 67.749 86.5467 67.7623 86.28C67.789 86 67.8223 85.64 67.8623 85.2C67.9023 84.76 67.949 84.22 68.0023 83.58C68.069 82.94 68.1357 82.1467 68.2023 81.2H67.1423C67.0357 81.2 66.969 81.18 66.9423 81.14C66.929 81.0867 66.9223 81.0133 66.9223 80.92L66.9823 79.9C66.9957 79.7267 67.0157 79.56 67.0423 79.4C67.0823 79.2267 67.149 79.0733 67.2423 78.94C67.349 78.8067 67.4957 78.7 67.6823 78.62C67.869 78.54 68.1157 78.5 68.4223 78.5C68.5157 78.26 68.6223 77.9733 68.7423 77.64C68.8623 77.3067 68.9823 76.9867 69.1023 76.68C69.2223 76.36 69.3357 76.0933 69.4423 75.88C69.5623 75.6667 69.669 75.56 69.7623 75.56H70.3423C70.9023 75.56 71.289 75.7333 71.5023 76.08C71.7157 76.4267 71.8223 76.84 71.8223 77.32C71.8223 77.5867 71.8023 77.98 71.7623 78.5H73.8623C74.0757 78.5 74.1823 78.5933 74.1823 78.78L74.1023 79.86C74.0757 80.26 73.9623 80.5867 73.7623 80.84C73.5757 81.08 73.1823 81.2 72.5823 81.2H71.5223ZM81.8506 87.02C81.8906 86.58 81.9306 86.12 81.9706 85.64C82.024 85.16 82.064 84.7 82.0906 84.26C82.1306 83.82 82.164 83.4267 82.1906 83.08C82.2173 82.7333 82.2306 82.48 82.2306 82.32C82.2306 81.9733 82.144 81.6667 81.9706 81.4C81.8106 81.12 81.4906 80.98 81.0106 80.98C80.3706 80.98 79.8506 81.28 79.4506 81.88C79.064 82.48 78.8373 83.28 78.7706 84.28C78.744 84.56 78.7106 84.9533 78.6706 85.46C78.6306 85.9533 78.5906 86.46 78.5506 86.98C78.5106 87.4867 78.4706 87.9467 78.4306 88.36C78.404 88.76 78.3906 89.0067 78.3906 89.1C78.3906 89.26 78.3573 89.3667 78.2906 89.42C78.2373 89.4733 78.124 89.5 77.9506 89.5H77.2306C76.8173 89.5 76.4773 89.46 76.2106 89.38C75.9573 89.2867 75.7506 89.16 75.5906 89C75.444 88.84 75.3373 88.6467 75.2706 88.42C75.2173 88.18 75.1906 87.9067 75.1906 87.6C75.1906 87.3067 75.2106 86.9 75.2506 86.38C75.304 85.8467 75.3706 85.12 75.4506 84.2C75.5306 83.2667 75.624 82.08 75.7306 80.64C75.8373 79.2 75.9506 77.4133 76.0706 75.28C76.084 74.9867 76.1173 74.8133 76.1706 74.76C76.2106 74.72 76.3173 74.7 76.4906 74.7H77.2706C77.6706 74.7 78.004 74.7467 78.2706 74.84C78.5373 74.9333 78.7506 75.06 78.9106 75.22C79.0706 75.38 79.184 75.5667 79.2506 75.78C79.3173 75.98 79.3506 76.1933 79.3506 76.42C79.3506 76.66 79.324 77.1067 79.2706 77.76C79.2306 78.4133 79.1773 79.18 79.1106 80.06C79.5106 79.3933 79.9506 78.9333 80.4306 78.68C80.924 78.4267 81.544 78.3 82.2906 78.3C82.8506 78.3 83.3373 78.36 83.7506 78.48C84.164 78.6 84.504 78.8067 84.7706 79.1C85.0506 79.38 85.2573 79.7533 85.3906 80.22C85.524 80.6733 85.5906 81.24 85.5906 81.92C85.5906 82.1333 85.5706 82.5 85.5306 83.02C85.4906 83.54 85.4373 84.1333 85.3706 84.8C85.3173 85.4667 85.2573 86.1667 85.1906 86.9C85.1373 87.62 85.0906 88.28 85.0506 88.88C85.0373 89.0267 85.024 89.14 85.0106 89.22C84.9973 89.3 84.9706 89.36 84.9306 89.4C84.904 89.44 84.8573 89.4667 84.7906 89.48C84.724 89.4933 84.6306 89.5 84.5106 89.5H83.8706C83.444 89.5 83.0973 89.46 82.8306 89.38C82.564 89.3 82.3573 89.1867 82.2106 89.04C82.064 88.8933 81.9573 88.7133 81.8906 88.5C81.8373 88.2733 81.8106 88.02 81.8106 87.74C81.8106 87.6067 81.8106 87.48 81.8106 87.36C81.824 87.24 81.8373 87.1267 81.8506 87.02ZM89.6986 89.68C88.8719 89.68 88.2786 89.46 87.9186 89.02C87.5586 88.58 87.3786 87.8533 87.3786 86.84C87.3786 86.68 87.3853 86.48 87.3986 86.24C87.4253 86 87.4519 85.6933 87.4786 85.32C87.5186 84.9333 87.5653 84.46 87.6186 83.9C87.6719 83.34 87.7253 82.66 87.7786 81.86C87.8453 81.06 87.9119 80.12 87.9786 79.04C88.0586 77.96 88.1386 76.7067 88.2186 75.28C88.2319 74.9867 88.2653 74.8133 88.3186 74.76C88.3586 74.72 88.4653 74.7 88.6386 74.7H89.4186C89.8186 74.7 90.1519 74.7467 90.4186 74.84C90.6853 74.9333 90.8986 75.06 91.0586 75.22C91.2186 75.38 91.3319 75.5667 91.3986 75.78C91.4653 75.98 91.4986 76.1933 91.4986 76.42C91.4986 76.6867 91.4786 77.0733 91.4386 77.58C91.4119 78.0733 91.3719 78.6333 91.3186 79.26C91.2653 79.8867 91.2119 80.54 91.1586 81.22C91.1053 81.9 91.0519 82.5533 90.9986 83.18C90.9453 83.7933 90.8986 84.3467 90.8586 84.84C90.8319 85.3333 90.8186 85.7067 90.8186 85.96C90.8186 86.3067 90.8786 86.5533 90.9986 86.7C91.1319 86.8467 91.2719 86.9533 91.4186 87.02C91.5653 87.0733 91.6986 87.1133 91.8186 87.14C91.9519 87.1533 92.0186 87.1933 92.0186 87.26C92.0186 87.5533 91.9853 87.8467 91.9186 88.14C91.8519 88.42 91.7319 88.68 91.5586 88.92C91.3853 89.1467 91.1453 89.3333 90.8386 89.48C90.5453 89.6133 90.1653 89.68 89.6986 89.68ZM97.2338 80.34C97.2338 80.6467 97.2138 81.0133 97.1738 81.44C97.1338 81.8533 97.0871 82.2733 97.0338 82.7C96.9938 83.1133 96.9538 83.5067 96.9138 83.88C96.8738 84.24 96.8538 84.52 96.8538 84.72C96.8538 85.2267 96.9738 85.6067 97.2138 85.86C97.4671 86.1 97.7738 86.22 98.1338 86.22C98.7604 86.22 99.2604 85.8933 99.6338 85.24C100.007 84.5867 100.24 83.72 100.334 82.64L100.654 78.9C100.667 78.7533 100.714 78.6533 100.794 78.6C100.887 78.5333 100.987 78.5 101.094 78.5H101.814C102.094 78.5 102.354 78.5267 102.594 78.58C102.847 78.62 103.067 78.7067 103.254 78.84C103.44 78.96 103.587 79.1267 103.694 79.34C103.8 79.5533 103.854 79.8267 103.854 80.16C103.854 80.2933 103.84 80.5467 103.814 80.92C103.8 81.28 103.767 81.8067 103.714 82.5C103.674 83.18 103.614 84.0467 103.534 85.1C103.454 86.14 103.36 87.4133 103.254 88.92C103.187 89.8 102.987 90.5267 102.654 91.1C102.334 91.6867 101.927 92.1467 101.434 92.48C100.94 92.8267 100.387 93.0667 99.7738 93.2C99.1604 93.3333 98.5338 93.4 97.8938 93.4C97.2138 93.4 96.5871 93.34 96.0138 93.22C95.4538 93.1 94.9671 92.9333 94.5538 92.72C94.1404 92.5067 93.8138 92.26 93.5738 91.98C93.3471 91.7 93.2338 91.4 93.2338 91.08C93.2338 90.8267 93.2871 90.6067 93.3938 90.42C93.5138 90.2333 93.6671 90.08 93.8538 89.96C94.0404 89.84 94.2538 89.7467 94.4938 89.68C94.7471 89.6267 95.0071 89.6 95.2738 89.6C95.4071 89.6 95.5004 89.6667 95.5538 89.8C95.6204 89.9333 95.7138 90.08 95.8338 90.24C95.9671 90.4133 96.1738 90.5667 96.4538 90.7C96.7338 90.8333 97.1538 90.9 97.7138 90.9C98.2071 90.9 98.6071 90.78 98.9138 90.54C99.2204 90.3 99.4538 89.9933 99.6138 89.62C99.7871 89.2467 99.9004 88.84 99.9538 88.4C100.007 87.96 100.034 87.54 100.034 87.14C99.8204 87.5133 99.5804 87.82 99.3138 88.06C99.0604 88.2867 98.7938 88.4667 98.5138 88.6C98.2338 88.72 97.9538 88.8 97.6738 88.84C97.3938 88.88 97.1271 88.9 96.8738 88.9C96.3804 88.9 95.9271 88.8333 95.5138 88.7C95.1138 88.5667 94.7671 88.3533 94.4738 88.06C94.1804 87.7533 93.9538 87.36 93.7938 86.88C93.6338 86.4 93.5538 85.82 93.5538 85.14C93.5538 84.8867 93.5671 84.5533 93.5938 84.14C93.6204 83.7133 93.6538 83.24 93.6938 82.72C93.7338 82.1867 93.7738 81.6133 93.8138 81C93.8671 80.3867 93.9204 79.76 93.9738 79.12C94.0004 78.7067 94.1871 78.5 94.5338 78.5H95.1738C95.6004 78.5 95.9471 78.54 96.2138 78.62C96.4804 78.7 96.6871 78.82 96.8338 78.98C96.9938 79.1267 97.1004 79.32 97.1538 79.56C97.2071 79.7867 97.2338 80.0467 97.2338 80.34Z" fill="#8DBE3D"/>
<path d="M122 61L122 101" stroke="#8DBE3D"/>
</g>
<defs>
<filter id="filter0_d_545_20369" x="0" y="0" width="316" height="165" filterUnits="userSpaceOnUse" color-interpolation-filters="sRGB">
<feFlood flood-opacity="0" result="BackgroundImageFix"/>
<feColorMatrix in="SourceAlpha" type="matrix" values="0 0 0 0 0 0 0 0 0 0 0 0 0 0 0 0 0 0 127 0" result="hardAlpha"/>
<feOffset dy="2"/>
<feGaussianBlur stdDeviation="4"/>
<feComposite in2="hardAlpha" operator="out"/>
<feColorMatrix type="matrix" values="0 0 0 0 0 0 0 0 0 0 0 0 0 0 0 0 0 0 0.1 0"/>
<feBlend mode="normal" in2="BackgroundImageFix" result="effect1_dropShadow_545_20369"/>
<feBlend mode="normal" in="SourceGraphic" in2="effect1_dropShadow_545_20369" result="shape"/>
</filter>
</defs>
</svg>
