<svg width="296" height="376" viewBox="0 0 296 376" fill="none" xmlns="http://www.w3.org/2000/svg">
<g filter="url(#filter0_d_545_20251)">
<rect x="8" y="6" width="280" height="360" rx="20" fill="white"/>
<path d="M121.7 62.34C121.593 62.66 121.453 63.08 121.28 63.6C121.12 64.1067 120.94 64.6667 120.74 65.28C120.54 65.8933 120.333 66.5467 120.12 67.24C119.907 67.92 119.687 68.5867 119.46 69.24C119.247 69.8933 119.033 70.52 118.82 71.12C118.607 71.7067 118.413 72.22 118.24 72.66C118.187 72.7667 118.073 72.8533 117.9 72.92C117.74 72.9733 117.48 73 117.12 73C116.893 73 116.66 72.9867 116.42 72.96C116.18 72.9333 115.953 72.88 115.74 72.8C115.54 72.72 115.36 72.6133 115.2 72.48C115.053 72.3467 114.94 72.18 114.86 71.98C114.66 71.3 114.467 70.5467 114.28 69.72C114.107 68.88 113.933 68.0267 113.76 67.16C113.587 66.2933 113.413 65.4467 113.24 64.62C113.08 63.78 112.913 63.02 112.74 62.34C112.74 62.5267 112.733 62.8467 112.72 63.3C112.707 63.7533 112.693 64.28 112.68 64.88C112.667 65.48 112.647 66.1267 112.62 66.82C112.607 67.5133 112.593 68.1933 112.58 68.86C112.567 69.5133 112.553 70.1267 112.54 70.7C112.527 71.26 112.52 71.72 112.52 72.08C112.52 72.48 112.493 72.7333 112.44 72.84C112.4 72.9467 112.32 73 112.2 73H111.1C110.34 73 109.8 72.8533 109.48 72.56C109.173 72.2533 109.02 71.8067 109.02 71.22C109.02 71.06 109.027 70.7933 109.04 70.42C109.067 70.0333 109.1 69.58 109.14 69.06C109.18 68.54 109.22 67.9733 109.26 67.36C109.313 66.7333 109.367 66.1 109.42 65.46C109.487 64.5933 109.54 63.8733 109.58 63.3C109.633 62.7133 109.673 62.2267 109.7 61.84C109.727 61.4533 109.747 61.14 109.76 60.9C109.787 60.66 109.8 60.4467 109.8 60.26C109.813 60.0733 109.82 59.9 109.82 59.74C109.833 59.5667 109.84 59.3533 109.84 59.1C109.84 58.9933 109.88 58.92 109.96 58.88C110.04 58.8267 110.113 58.8 110.18 58.8H112.98C113.5 58.8 113.927 58.8867 114.26 59.06C114.593 59.22 114.867 59.4733 115.08 59.82C115.293 60.1667 115.467 60.62 115.6 61.18C115.733 61.7267 115.853 62.38 115.96 63.14C116.08 63.9 116.207 64.78 116.34 65.78C116.487 66.7667 116.673 67.88 116.9 69.12C117.113 68.2933 117.293 67.6067 117.44 67.06C117.587 66.5133 117.707 66.06 117.8 65.7C117.907 65.3267 117.993 65.02 118.06 64.78C118.127 64.54 118.187 64.32 118.24 64.12C118.293 63.9067 118.353 63.68 118.42 63.44C118.487 63.2 118.567 62.9 118.66 62.54C118.753 62.18 118.867 61.7333 119 61.2C119.147 60.6533 119.327 59.9667 119.54 59.14C119.567 59.06 119.613 58.9867 119.68 58.92C119.747 58.84 119.867 58.8 120.04 58.8H123.16C123.587 58.8 123.927 58.8467 124.18 58.94C124.447 59.02 124.653 59.14 124.8 59.3C124.947 59.46 125.047 59.66 125.1 59.9C125.153 60.1267 125.18 60.3933 125.18 60.7C125.18 61.0067 125.16 61.5067 125.12 62.2C125.093 62.88 125.047 63.6533 124.98 64.52C124.927 65.3733 124.867 66.26 124.8 67.18C124.747 68.1 124.687 68.9533 124.62 69.74C124.567 70.5267 124.52 71.1933 124.48 71.74C124.44 72.2867 124.413 72.6067 124.4 72.7C124.387 72.8067 124.36 72.8867 124.32 72.94C124.28 72.98 124.2 73 124.08 73H122.98C122.22 73 121.68 72.8533 121.36 72.56C121.053 72.2533 120.9 71.86 120.9 71.38C120.9 71.2333 120.913 70.9667 120.94 70.58C120.98 70.1933 121.027 69.74 121.08 69.22C121.133 68.7 121.193 68.1333 121.26 67.52C121.327 66.8933 121.387 66.2733 121.44 65.66C121.493 65.0467 121.54 64.4533 121.58 63.88C121.633 63.2933 121.673 62.78 121.7 62.34ZM131.366 73.2C130.446 73.2 129.68 73.0733 129.066 72.82C128.466 72.5533 127.986 72.1933 127.626 71.74C127.266 71.2867 127.013 70.76 126.866 70.16C126.72 69.5467 126.646 68.8933 126.646 68.2C126.646 67.4 126.74 66.62 126.926 65.86C127.126 65.0867 127.46 64.4 127.926 63.8C128.393 63.2 129.006 62.72 129.766 62.36C130.54 61.9867 131.5 61.8 132.646 61.8C134.326 61.8 135.526 62.2133 136.246 63.04C136.98 63.8533 137.346 65 137.346 66.48C137.346 66.8933 137.313 67.3533 137.246 67.86C137.193 68.3533 137.08 68.8467 136.906 69.34C136.746 69.8333 136.52 70.3133 136.226 70.78C135.946 71.2467 135.586 71.66 135.146 72.02C134.706 72.38 134.173 72.6667 133.546 72.88C132.933 73.0933 132.206 73.2 131.366 73.2ZM132.306 64.46C131.8 64.46 131.393 64.5933 131.086 64.86C130.793 65.1133 130.566 65.4267 130.406 65.8C130.26 66.16 130.16 66.5467 130.106 66.96C130.066 67.36 130.046 67.7 130.046 67.98C130.046 68.86 130.186 69.5067 130.466 69.92C130.746 70.3333 131.146 70.54 131.666 70.54C132.133 70.54 132.513 70.3933 132.806 70.1C133.113 69.8067 133.346 69.4533 133.506 69.04C133.68 68.6267 133.793 68.1933 133.846 67.74C133.913 67.2867 133.946 66.9067 133.946 66.6C133.946 65.9333 133.82 65.4133 133.566 65.04C133.326 64.6533 132.906 64.46 132.306 64.46ZM145.66 71.24C145.66 70.9467 145.68 70.5667 145.72 70.1C145.773 69.62 145.82 69.12 145.86 68.6C145.913 68.0667 145.96 67.5533 146 67.06C146.053 66.5667 146.08 66.1533 146.08 65.82C146.08 65.4733 145.993 65.1667 145.82 64.9C145.66 64.62 145.34 64.48 144.86 64.48C144.393 64.48 144.006 64.5933 143.7 64.82C143.393 65.0467 143.133 65.46 142.92 66.06C142.72 66.66 142.553 67.4867 142.42 68.54C142.286 69.5933 142.16 70.9467 142.04 72.6C142.026 72.76 141.993 72.8667 141.94 72.92C141.886 72.9733 141.773 73 141.6 73H140.88C140.466 73 140.126 72.96 139.86 72.88C139.606 72.7867 139.4 72.66 139.24 72.5C139.093 72.34 138.986 72.1467 138.92 71.92C138.866 71.68 138.84 71.4067 138.84 71.1C138.84 70.9 138.846 70.62 138.86 70.26C138.886 69.8867 138.926 69.38 138.98 68.74C139.033 68.0867 139.093 67.2667 139.16 66.28C139.24 65.28 139.333 64.0467 139.44 62.58C139.453 62.2867 139.486 62.1133 139.54 62.06C139.58 62.02 139.686 62 139.86 62H140.64C141.04 62 141.366 62.0467 141.62 62.14C141.886 62.2333 142.1 62.36 142.26 62.52C142.42 62.6667 142.533 62.8467 142.6 63.06C142.666 63.26 142.706 63.4667 142.72 63.68C143.133 62.9733 143.606 62.4867 144.14 62.22C144.673 61.94 145.34 61.8 146.14 61.8C146.7 61.8 147.186 61.86 147.6 61.98C148.013 62.1 148.353 62.3067 148.62 62.6C148.9 62.88 149.106 63.2533 149.24 63.72C149.373 64.1733 149.44 64.74 149.44 65.42C149.44 65.6333 149.426 65.94 149.4 66.34C149.373 66.74 149.34 67.18 149.3 67.66C149.26 68.1267 149.213 68.62 149.16 69.14C149.12 69.6467 149.08 70.12 149.04 70.56C149 71 148.966 71.3867 148.94 71.72C148.913 72.0533 148.9 72.2733 148.9 72.38C148.9 72.6733 148.866 72.8533 148.8 72.92C148.733 72.9733 148.586 73 148.36 73H147.72C147.293 73 146.946 72.96 146.68 72.88C146.413 72.8 146.206 72.6867 146.06 72.54C145.913 72.3933 145.806 72.2133 145.74 72C145.686 71.7733 145.66 71.52 145.66 71.24ZM155.522 64.7C155.482 65.2067 155.436 65.7067 155.382 66.2C155.342 66.6933 155.302 67.16 155.262 67.6C155.222 68.04 155.189 68.4333 155.162 68.78C155.149 69.1267 155.142 69.3933 155.142 69.58C155.142 69.9267 155.182 70.16 155.262 70.28C155.342 70.3867 155.476 70.44 155.662 70.44C155.809 70.44 155.936 70.4133 156.042 70.36C156.149 70.3067 156.249 70.2467 156.342 70.18C156.436 70.1133 156.516 70.0533 156.582 70C156.662 69.9467 156.749 69.92 156.842 69.92C156.936 69.92 157.022 69.9733 157.102 70.08C157.182 70.1867 157.222 70.4333 157.222 70.82C157.222 71.5533 157.022 72.1333 156.622 72.56C156.222 72.9867 155.536 73.2 154.562 73.2C153.602 73.2 152.889 72.98 152.422 72.54C151.969 72.0867 151.742 71.4 151.742 70.48C151.742 70.28 151.749 70.0467 151.762 69.78C151.789 69.5 151.822 69.14 151.862 68.7C151.902 68.26 151.949 67.72 152.002 67.08C152.069 66.44 152.136 65.6467 152.202 64.7H151.142C151.036 64.7 150.969 64.68 150.942 64.64C150.929 64.5867 150.922 64.5133 150.922 64.42L150.982 63.4C150.996 63.2267 151.016 63.06 151.042 62.9C151.082 62.7267 151.149 62.5733 151.242 62.44C151.349 62.3067 151.496 62.2 151.682 62.12C151.869 62.04 152.116 62 152.422 62C152.516 61.76 152.622 61.4733 152.742 61.14C152.862 60.8067 152.982 60.4867 153.102 60.18C153.222 59.86 153.336 59.5933 153.442 59.38C153.562 59.1667 153.669 59.06 153.762 59.06H154.342C154.902 59.06 155.289 59.2333 155.502 59.58C155.716 59.9267 155.822 60.34 155.822 60.82C155.822 61.0867 155.802 61.48 155.762 62H157.862C158.076 62 158.182 62.0933 158.182 62.28L158.102 63.36C158.076 63.76 157.962 64.0867 157.762 64.34C157.576 64.58 157.182 64.7 156.582 64.7H155.522ZM165.851 70.52C165.891 70.08 165.931 69.62 165.971 69.14C166.024 68.66 166.064 68.2 166.091 67.76C166.131 67.32 166.164 66.9267 166.191 66.58C166.217 66.2333 166.231 65.98 166.231 65.82C166.231 65.4733 166.144 65.1667 165.971 64.9C165.811 64.62 165.491 64.48 165.011 64.48C164.371 64.48 163.851 64.78 163.451 65.38C163.064 65.98 162.837 66.78 162.771 67.78C162.744 68.06 162.711 68.4533 162.671 68.96C162.631 69.4533 162.591 69.96 162.551 70.48C162.511 70.9867 162.471 71.4467 162.431 71.86C162.404 72.26 162.391 72.5067 162.391 72.6C162.391 72.76 162.357 72.8667 162.291 72.92C162.237 72.9733 162.124 73 161.951 73H161.231C160.817 73 160.477 72.96 160.211 72.88C159.957 72.7867 159.751 72.66 159.591 72.5C159.444 72.34 159.337 72.1467 159.271 71.92C159.217 71.68 159.191 71.4067 159.191 71.1C159.191 70.8067 159.211 70.4 159.251 69.88C159.304 69.3467 159.371 68.62 159.451 67.7C159.531 66.7667 159.624 65.58 159.731 64.14C159.837 62.7 159.951 60.9133 160.071 58.78C160.084 58.4867 160.117 58.3133 160.171 58.26C160.211 58.22 160.317 58.2 160.491 58.2H161.271C161.671 58.2 162.004 58.2467 162.271 58.34C162.537 58.4333 162.751 58.56 162.911 58.72C163.071 58.88 163.184 59.0667 163.251 59.28C163.317 59.48 163.351 59.6933 163.351 59.92C163.351 60.16 163.324 60.6067 163.271 61.26C163.231 61.9133 163.177 62.68 163.111 63.56C163.511 62.8933 163.951 62.4333 164.431 62.18C164.924 61.9267 165.544 61.8 166.291 61.8C166.851 61.8 167.337 61.86 167.751 61.98C168.164 62.1 168.504 62.3067 168.771 62.6C169.051 62.88 169.257 63.2533 169.391 63.72C169.524 64.1733 169.591 64.74 169.591 65.42C169.591 65.6333 169.571 66 169.531 66.52C169.491 67.04 169.437 67.6333 169.371 68.3C169.317 68.9667 169.257 69.6667 169.191 70.4C169.137 71.12 169.091 71.78 169.051 72.38C169.037 72.5267 169.024 72.64 169.011 72.72C168.997 72.8 168.971 72.86 168.931 72.9C168.904 72.94 168.857 72.9667 168.791 72.98C168.724 72.9933 168.631 73 168.511 73H167.871C167.444 73 167.097 72.96 166.831 72.88C166.564 72.8 166.357 72.6867 166.211 72.54C166.064 72.3933 165.957 72.2133 165.891 72C165.837 71.7733 165.811 71.52 165.811 71.24C165.811 71.1067 165.811 70.98 165.811 70.86C165.824 70.74 165.837 70.6267 165.851 70.52ZM173.699 73.18C172.872 73.18 172.279 72.96 171.919 72.52C171.559 72.08 171.379 71.3533 171.379 70.34C171.379 70.18 171.385 69.98 171.399 69.74C171.425 69.5 171.452 69.1933 171.479 68.82C171.519 68.4333 171.565 67.96 171.619 67.4C171.672 66.84 171.725 66.16 171.779 65.36C171.845 64.56 171.912 63.62 171.979 62.54C172.059 61.46 172.139 60.2067 172.219 58.78C172.232 58.4867 172.265 58.3133 172.319 58.26C172.359 58.22 172.465 58.2 172.639 58.2H173.419C173.819 58.2 174.152 58.2467 174.419 58.34C174.685 58.4333 174.899 58.56 175.059 58.72C175.219 58.88 175.332 59.0667 175.399 59.28C175.465 59.48 175.499 59.6933 175.499 59.92C175.499 60.1867 175.479 60.5733 175.439 61.08C175.412 61.5733 175.372 62.1333 175.319 62.76C175.265 63.3867 175.212 64.04 175.159 64.72C175.105 65.4 175.052 66.0533 174.999 66.68C174.945 67.2933 174.899 67.8467 174.859 68.34C174.832 68.8333 174.819 69.2067 174.819 69.46C174.819 69.8067 174.879 70.0533 174.999 70.2C175.132 70.3467 175.272 70.4533 175.419 70.52C175.565 70.5733 175.699 70.6133 175.819 70.64C175.952 70.6533 176.019 70.6933 176.019 70.76C176.019 71.0533 175.985 71.3467 175.919 71.64C175.852 71.92 175.732 72.18 175.559 72.42C175.385 72.6467 175.145 72.8333 174.839 72.98C174.545 73.1133 174.165 73.18 173.699 73.18ZM181.234 63.84C181.234 64.1467 181.214 64.5133 181.174 64.94C181.134 65.3533 181.087 65.7733 181.034 66.2C180.994 66.6133 180.954 67.0067 180.914 67.38C180.874 67.74 180.854 68.02 180.854 68.22C180.854 68.7267 180.974 69.1067 181.214 69.36C181.467 69.6 181.774 69.72 182.134 69.72C182.76 69.72 183.26 69.3933 183.634 68.74C184.007 68.0867 184.24 67.22 184.334 66.14L184.654 62.4C184.667 62.2533 184.714 62.1533 184.794 62.1C184.887 62.0333 184.987 62 185.094 62H185.814C186.094 62 186.354 62.0267 186.594 62.08C186.847 62.12 187.067 62.2067 187.254 62.34C187.44 62.46 187.587 62.6267 187.694 62.84C187.8 63.0533 187.854 63.3267 187.854 63.66C187.854 63.7933 187.84 64.0467 187.814 64.42C187.8 64.78 187.767 65.3067 187.714 66C187.674 66.68 187.614 67.5467 187.534 68.6C187.454 69.64 187.36 70.9133 187.254 72.42C187.187 73.3 186.987 74.0267 186.654 74.6C186.334 75.1867 185.927 75.6467 185.434 75.98C184.94 76.3267 184.387 76.5667 183.774 76.7C183.16 76.8333 182.534 76.9 181.894 76.9C181.214 76.9 180.587 76.84 180.014 76.72C179.454 76.6 178.967 76.4333 178.554 76.22C178.14 76.0067 177.814 75.76 177.574 75.48C177.347 75.2 177.234 74.9 177.234 74.58C177.234 74.3267 177.287 74.1067 177.394 73.92C177.514 73.7333 177.667 73.58 177.854 73.46C178.04 73.34 178.254 73.2467 178.494 73.18C178.747 73.1267 179.007 73.1 179.274 73.1C179.407 73.1 179.5 73.1667 179.554 73.3C179.62 73.4333 179.714 73.58 179.834 73.74C179.967 73.9133 180.174 74.0667 180.454 74.2C180.734 74.3333 181.154 74.4 181.714 74.4C182.207 74.4 182.607 74.28 182.914 74.04C183.22 73.8 183.454 73.4933 183.614 73.12C183.787 72.7467 183.9 72.34 183.954 71.9C184.007 71.46 184.034 71.04 184.034 70.64C183.82 71.0133 183.58 71.32 183.314 71.56C183.06 71.7867 182.794 71.9667 182.514 72.1C182.234 72.22 181.954 72.3 181.674 72.34C181.394 72.38 181.127 72.4 180.874 72.4C180.38 72.4 179.927 72.3333 179.514 72.2C179.114 72.0667 178.767 71.8533 178.474 71.56C178.18 71.2533 177.954 70.86 177.794 70.38C177.634 69.9 177.554 69.32 177.554 68.64C177.554 68.3867 177.567 68.0533 177.594 67.64C177.62 67.2133 177.654 66.74 177.694 66.22C177.734 65.6867 177.774 65.1133 177.814 64.5C177.867 63.8867 177.92 63.26 177.974 62.62C178 62.2067 178.187 62 178.534 62H179.174C179.6 62 179.947 62.04 180.214 62.12C180.48 62.2 180.687 62.32 180.834 62.48C180.994 62.6267 181.1 62.82 181.154 63.06C181.207 63.2867 181.234 63.5467 181.234 63.84Z" fill="#8DBE3D"/>
<path d="M112.5 108H184.5" stroke="#8DBE3D"/>
<path d="M72.18 202V198.64C80.26 191.4 84.98 185.84 84.98 181.28C84.98 178.32 83.42 176.48 80.58 176.48C78.38 176.48 76.66 177.88 75.14 179.56L71.9 176.36C74.62 173.44 77.3 171.88 81.34 171.88C86.9 171.88 90.66 175.44 90.66 180.96C90.66 186.36 86.18 192.12 80.78 197.4C82.26 197.24 84.22 197.04 85.62 197.04H92.02V202H72.18ZM105.894 202.56C99.8538 202.56 95.8538 197.32 95.8538 187.08C95.8538 176.88 99.8538 171.88 105.894 171.88C111.894 171.88 115.894 176.88 115.894 187.08C115.894 197.32 111.894 202.56 105.894 202.56ZM105.894 197.96C108.454 197.96 110.334 195.4 110.334 187.08C110.334 178.8 108.454 176.4 105.894 176.4C103.334 176.4 101.414 178.8 101.414 187.08C101.414 195.4 103.334 197.96 105.894 197.96ZM120.368 171.56H138.008V189.44H120.368V171.56ZM132.768 175.76H125.608V185.24H132.768V175.76ZM143.128 168.52H148.448V195.52H143.128V168.52ZM146.928 179.2H153.368V183.56H146.928V179.2ZM124.568 200.68H149.768V204.92H124.568V200.68ZM124.568 192.88H129.888V202.8H124.568V192.88ZM165.724 187.52H171.044V195.64H165.724V187.52ZM181.964 168.52H187.284V196.56H181.964V168.52ZM160.604 200.68H188.084V204.92H160.604V200.68ZM160.604 193.92H165.924V201.8H160.604V193.92ZM156.604 189.12L155.964 184.88C162.724 184.88 171.764 184.8 179.524 183.8L179.844 187.6C171.964 188.92 163.284 189.12 156.604 189.12ZM174.964 190.04H183.124V193.68H174.964V190.04ZM167.884 169.8C173.284 169.8 177.084 172.48 177.084 176.4C177.084 180.36 173.284 183 167.884 183C162.444 183 158.644 180.36 158.644 176.4C158.644 172.48 162.444 169.8 167.884 169.8ZM167.884 173.68C165.404 173.68 163.684 174.6 163.684 176.4C163.684 178.2 165.404 179.12 167.884 179.12C170.324 179.12 172.044 178.2 172.044 176.4C172.044 174.6 170.324 173.68 167.884 173.68Z" fill="#505646"/>
<path d="M201.692 199.88L206.14 184.216H207.404L202.972 199.88H201.692ZM215.808 189.704H217.472V192.28H215.808V189.704ZM222.496 183.704H224.176V192.248H222.496V183.704ZM212.224 190.248L212.032 189.048C214.848 189.048 218.368 189.032 221.472 188.712L221.568 189.768C218.384 190.216 214.96 190.248 212.224 190.248ZM214.192 192.744H224.176V195.96H215.872V197.384H214.224V194.872H222.528V193.912H214.192V192.744ZM214.224 197.016H224.592V198.2H214.224V197.016ZM219.728 190.584H223.024V191.624H219.728V190.584ZM216.72 183.96C218.896 183.96 220.336 184.808 220.336 186.152C220.336 187.496 218.896 188.344 216.72 188.344C214.528 188.344 213.088 187.496 213.088 186.152C213.088 184.808 214.528 183.96 216.72 183.96ZM216.72 185.08C215.456 185.08 214.656 185.48 214.656 186.152C214.656 186.824 215.456 187.208 216.72 187.208C217.968 187.208 218.768 186.824 218.768 186.152C218.768 185.48 217.968 185.08 216.72 185.08Z" fill="#505646"/>
<path d="M82.7534 268.26H85.4334V286.78H82.7534V268.26ZM77.2934 270.18H79.9334C79.9334 275.84 78.0134 280.48 71.4334 283.66L70.0534 281.54C75.3734 278.98 77.2934 275.62 77.2934 270.66V270.18ZM71.0334 270.18H78.5534V272.28H71.0334V270.18ZM90.5318 268.94H93.1518V270.74H100.372V268.94H103.012V276.48H90.5318V268.94ZM93.1518 272.78V274.38H100.372V272.78H93.1518ZM88.3918 278.04H105.132V280.16H88.3918V278.04ZM95.4118 275.36H98.0718V278.92H95.4118V275.36ZM90.4118 284.34H103.252V286.46H90.4118V284.34ZM90.4118 281.24H93.0718V285.12H90.4118V281.24ZM124.041 268.28H126.721V281.58H124.041V268.28ZM114.381 284.34H127.181V286.46H114.381V284.34ZM114.381 280.24H117.041V285.2H114.381V280.24ZM116.641 269.44C119.481 269.44 121.661 271.4 121.661 274.14C121.661 276.86 119.481 278.84 116.641 278.84C113.801 278.84 111.601 276.86 111.601 274.14C111.601 271.4 113.801 269.44 116.641 269.44ZM116.641 271.74C115.261 271.74 114.201 272.62 114.201 274.14C114.201 275.64 115.261 276.52 116.641 276.52C118.001 276.52 119.061 275.64 119.061 274.14C119.061 272.62 118.001 271.74 116.641 271.74ZM134.54 277.76H137.2V281.82H134.54V277.76ZM142.66 268.26H145.32V282.28H142.66V268.26ZM131.98 284.34H145.72V286.46H131.98V284.34ZM131.98 280.96H134.64V284.9H131.98V280.96ZM129.98 278.56L129.66 276.44C133.04 276.44 137.56 276.4 141.44 275.9L141.6 277.8C137.66 278.46 133.32 278.56 129.98 278.56ZM139.16 279.02H143.24V280.84H139.16V279.02ZM135.62 268.9C138.32 268.9 140.22 270.24 140.22 272.2C140.22 274.18 138.32 275.5 135.62 275.5C132.9 275.5 131 274.18 131 272.2C131 270.24 132.9 268.9 135.62 268.9ZM135.62 270.84C134.38 270.84 133.52 271.3 133.52 272.2C133.52 273.1 134.38 273.56 135.62 273.56C136.84 273.56 137.7 273.1 137.7 272.2C137.7 271.3 136.84 270.84 135.62 270.84ZM159.63 268.8H161.97V269.66C161.97 273.22 159.17 276.24 154.31 276.96L153.27 274.82C157.53 274.26 159.63 271.84 159.63 269.66V268.8ZM160.13 268.8H162.45V269.66C162.45 271.82 164.57 274.26 168.81 274.82L167.79 276.96C162.93 276.24 160.13 273.22 160.13 269.66V268.8ZM159.65 280H162.29V286.78H159.65V280ZM152.67 278.32H169.41V280.48H152.67V278.32ZM178.019 277.7C176.959 277.7 176.199 276.88 176.199 275.78C176.199 274.7 176.959 273.88 178.019 273.88C179.059 273.88 179.859 274.7 179.859 275.78C179.859 276.88 179.059 277.7 178.019 277.7ZM178.019 285.28C176.959 285.28 176.199 284.46 176.199 283.36C176.199 282.26 176.959 281.46 178.019 281.46C179.059 281.46 179.859 282.26 179.859 283.36C179.859 284.46 179.059 285.28 178.019 285.28ZM191.274 285.28C188.934 285.28 187.354 284.42 186.314 283.22L187.714 281.36C188.594 282.22 189.654 282.9 190.994 282.9C192.514 282.9 193.534 282.14 193.534 280.82C193.534 279.36 192.674 278.46 189.454 278.46V276.34C192.174 276.34 193.054 275.42 193.054 274.1C193.054 272.94 192.334 272.24 191.074 272.24C190.014 272.24 189.154 272.74 188.274 273.56L186.774 271.74C188.054 270.64 189.474 269.94 191.194 269.94C194.054 269.94 195.994 271.34 195.994 273.88C195.994 275.46 195.114 276.64 193.534 277.24V277.34C195.214 277.82 196.494 279.04 196.494 281C196.494 283.72 194.114 285.28 191.274 285.28ZM203.511 285.28C200.491 285.28 198.491 282.66 198.491 277.54C198.491 272.44 200.491 269.94 203.511 269.94C206.511 269.94 208.511 272.44 208.511 277.54C208.511 282.66 206.511 285.28 203.511 285.28ZM203.511 282.98C204.791 282.98 205.731 281.7 205.731 277.54C205.731 273.4 204.791 272.2 203.511 272.2C202.231 272.2 201.271 273.4 201.271 277.54C201.271 281.7 202.231 282.98 203.511 282.98ZM219.168 270.94H223.888V273.04H219.168V270.94ZM219.168 274.64H223.968V276.76H219.168V274.64ZM223.048 268.26H225.708V279.1H223.048V268.26ZM210.968 269.6H219.728V278.1H210.968V269.6ZM217.108 271.7H213.588V276.02H217.108V271.7ZM219.428 279.58C223.348 279.58 225.768 280.92 225.768 283.18C225.768 285.46 223.348 286.78 219.428 286.78C215.508 286.78 213.088 285.46 213.088 283.18C213.088 280.92 215.508 279.58 219.428 279.58ZM219.428 281.62C217.028 281.62 215.748 282.12 215.748 283.18C215.748 284.24 217.028 284.76 219.428 284.76C221.848 284.76 223.128 284.24 223.128 283.18C223.128 282.12 221.848 281.62 219.428 281.62Z" fill="#8DBE3D"/>
<path d="M47.3814 309.224C45.5414 309.224 44.3414 308.488 43.5414 307.592L44.4534 306.408C45.1414 307.112 46.0054 307.704 47.2374 307.704C48.5494 307.704 49.4614 306.968 49.4614 305.752C49.4614 304.44 48.6294 303.608 45.9894 303.608V302.232C48.2934 302.232 49.0614 301.368 49.0614 300.184C49.0614 299.144 48.3894 298.488 47.2534 298.488C46.3574 298.488 45.5894 298.92 44.9174 299.592L43.9414 298.424C44.8854 297.592 45.9734 297.016 47.3334 297.016C49.4454 297.016 50.9334 298.104 50.9334 300.04C50.9334 301.4 50.1494 302.344 48.9014 302.808V302.888C50.2614 303.24 51.3334 304.248 51.3334 305.848C51.3334 307.976 49.5574 309.224 47.3814 309.224ZM56.7944 309.224C54.4744 309.224 52.9864 307.16 52.9864 303.064C52.9864 299 54.4744 297.016 56.7944 297.016C59.0984 297.016 60.6024 299 60.6024 303.064C60.6024 307.16 59.0984 309.224 56.7944 309.224ZM56.7944 307.752C57.9944 307.752 58.8264 306.472 58.8264 303.064C58.8264 299.704 57.9944 298.456 56.7944 298.456C55.5944 298.456 54.7464 299.704 54.7464 303.064C54.7464 306.472 55.5944 307.752 56.7944 307.752ZM69.1034 297.96H73.1034V299.304H69.1034V297.96ZM69.1034 300.872H73.1514V302.216H69.1034V300.872ZM72.5274 295.704H74.2074V304.312H72.5274V295.704ZM62.7194 296.792H69.5034V303.384H62.7194V296.792ZM67.8554 298.12H64.3674V302.056H67.8554V298.12ZM69.3274 304.728C72.3834 304.728 74.2554 305.752 74.2554 307.512C74.2554 309.288 72.3834 310.312 69.3274 310.312C66.2714 310.312 64.3994 309.288 64.3994 307.512C64.3994 305.752 66.2714 304.728 69.3274 304.728ZM69.3274 306.024C67.2634 306.024 66.0634 306.552 66.0634 307.512C66.0634 308.488 67.2634 309.016 69.3274 309.016C71.4074 309.016 72.5914 308.488 72.5914 307.512C72.5914 306.552 71.4074 306.024 69.3274 306.024ZM80.4079 307.192H93.6559V308.568H80.4079V307.192ZM86.1839 304.104H87.8479V307.912H86.1839V304.104ZM86.1679 298.76H87.6559V299.08C87.6559 301.976 85.1599 304.056 81.6079 304.6L80.9839 303.272C84.1519 302.84 86.1679 301.08 86.1679 299.08V298.76ZM86.3919 298.76H87.8639V299.08C87.8639 301.08 89.8799 302.84 93.0479 303.272L92.4239 304.6C88.8879 304.056 86.3919 301.976 86.3919 299.08V298.76ZM81.5759 297.864H92.4399V299.224H81.5759V297.864ZM86.1839 295.96H87.8479V298.392H86.1839V295.96ZM95.7506 297.24H102.231V298.584H95.7506V297.24ZM97.8626 301.416H99.5106V306.376H97.8626V301.416ZM101.543 297.24H103.207V298.2C103.207 299.496 103.207 301.336 102.791 303.928L101.143 303.784C101.543 301.272 101.543 299.48 101.543 298.2V297.24ZM104.775 295.704H106.439V310.328H104.775V295.704ZM105.975 301.704H108.615V303.112H105.975V301.704ZM95.1586 307.24L94.9826 305.864C97.5906 305.864 101.063 305.816 103.991 305.448L104.071 306.68C101.079 307.176 97.7186 307.24 95.1586 307.24ZM117.151 296.904H118.527V299.304C118.527 302.84 116.943 306.088 114.319 307.368L113.311 305.976C115.647 304.92 117.151 302.104 117.151 299.304V296.904ZM117.471 296.904H118.831V299.304C118.831 301.992 120.319 304.68 122.623 305.704L121.631 307.048C119.055 305.832 117.471 302.712 117.471 299.304V296.904ZM123.791 295.688H125.471V310.344H123.791V295.688ZM132.376 309V307.48H134.968V299.288H132.84V298.12C133.96 297.928 134.728 297.64 135.416 297.224H136.808V307.48H139.112V309H132.376ZM144.701 309.224C142.381 309.224 140.893 307.16 140.893 303.064C140.893 299 142.381 297.016 144.701 297.016C147.005 297.016 148.509 299 148.509 303.064C148.509 307.16 147.005 309.224 144.701 309.224ZM144.701 307.752C145.901 307.752 146.733 306.472 146.733 303.064C146.733 299.704 145.901 298.456 144.701 298.456C143.501 298.456 142.653 299.704 142.653 303.064C142.653 306.472 143.501 307.752 144.701 307.752ZM157.01 297.96H161.01V299.304H157.01V297.96ZM157.01 300.872H161.058V302.216H157.01V300.872ZM160.434 295.704H162.114V304.312H160.434V295.704ZM150.626 296.792H157.41V303.384H150.626V296.792ZM155.762 298.12H152.274V302.056H155.762V298.12ZM157.234 304.728C160.29 304.728 162.162 305.752 162.162 307.512C162.162 309.288 160.29 310.312 157.234 310.312C154.178 310.312 152.306 309.288 152.306 307.512C152.306 305.752 154.178 304.728 157.234 304.728ZM157.234 306.024C155.17 306.024 153.97 306.552 153.97 307.512C153.97 308.488 155.17 309.016 157.234 309.016C159.314 309.016 160.498 308.488 160.498 307.512C160.498 306.552 159.314 306.024 157.234 306.024ZM174.464 295.704H176.144V304.28H174.464V295.704ZM175.664 299.352H178.192V300.728H175.664V299.352ZM171.424 304.568C174.4 304.568 176.288 305.64 176.288 307.448C176.288 309.256 174.4 310.328 171.424 310.328C168.432 310.328 166.544 309.256 166.544 307.448C166.544 305.64 168.432 304.568 171.424 304.568ZM171.424 305.912C169.392 305.912 168.192 306.44 168.192 307.448C168.192 308.424 169.392 308.968 171.424 308.968C173.44 308.968 174.64 308.424 174.64 307.448C174.64 306.44 173.44 305.912 171.424 305.912ZM165.296 301.944H166.464C169.584 301.944 171.232 301.864 173.104 301.464L173.28 302.824C171.36 303.224 169.648 303.304 166.464 303.304H165.296V301.944ZM165.296 296.76H171.792V298.12H166.96V302.856H165.296V296.76ZM183.657 309V307.48H186.249V299.288H184.121V298.12C185.241 297.928 186.009 297.64 186.697 297.224H188.089V307.48H190.393V309H183.657ZM192.67 296.968H199.502V303.864H192.67V296.968ZM197.854 298.312H194.318V302.536H197.854V298.312ZM201.886 295.704H203.566V306.392H201.886V295.704ZM203.07 300.056H205.63V301.432H203.07V300.056ZM194.318 308.68H204.158V310.04H194.318V308.68ZM194.318 305.368H195.998V309.32H194.318V305.368ZM210.861 303.128H212.541V306.36H210.861V303.128ZM217.309 295.704H218.989V306.808H217.309V295.704ZM208.765 308.68H219.325V310.04H208.765V308.68ZM208.765 305.736H210.445V309.048H208.765V305.736ZM207.021 303.688L206.797 302.328C209.485 302.328 213.085 302.296 216.173 301.896L216.285 303.112C213.149 303.624 209.661 303.688 207.021 303.688ZM214.429 304.28H217.709V305.464H214.429V304.28ZM211.533 296.264C213.661 296.264 215.149 297.288 215.149 298.84C215.149 300.392 213.661 301.4 211.533 301.4C209.389 301.4 207.917 300.392 207.917 298.84C207.917 297.288 209.389 296.264 211.533 296.264ZM211.533 297.496C210.333 297.496 209.501 297.992 209.501 298.84C209.501 299.672 210.333 300.168 211.533 300.168C212.717 300.168 213.549 299.672 213.549 298.84C213.549 297.992 212.717 297.496 211.533 297.496ZM225.173 304.248H238.421V305.592H225.173V304.248ZM230.917 304.904H232.581V310.328H230.917V304.904ZM226.773 296.28H228.437V298.136H235.125V296.28H236.789V302.664H226.773V296.28ZM228.437 299.464V301.32H235.125V299.464H228.437ZM240.532 297.24H247.012V298.584H240.532V297.24ZM242.644 301.416H244.292V306.376H242.644V301.416ZM246.324 297.24H247.988V298.2C247.988 299.496 247.988 301.336 247.572 303.928L245.924 303.784C246.324 301.272 246.324 299.48 246.324 298.2V297.24ZM249.556 295.704H251.22V310.328H249.556V295.704ZM250.756 301.704H253.396V303.112H250.756V301.704ZM239.94 307.24L239.764 305.864C242.372 305.864 245.844 305.816 248.772 305.448L248.852 306.68C245.86 307.176 242.5 307.24 239.94 307.24Z" fill="#797979"/>
</g>
<defs>
<filter id="filter0_d_545_20251" x="0" y="0" width="296" height="376" filterUnits="userSpaceOnUse" color-interpolation-filters="sRGB">
<feFlood flood-opacity="0" result="BackgroundImageFix"/>
<feColorMatrix in="SourceAlpha" type="matrix" values="0 0 0 0 0 0 0 0 0 0 0 0 0 0 0 0 0 0 127 0" result="hardAlpha"/>
<feOffset dy="2"/>
<feGaussianBlur stdDeviation="4"/>
<feComposite in2="hardAlpha" operator="out"/>
<feColorMatrix type="matrix" values="0 0 0 0 0 0 0 0 0 0 0 0 0 0 0 0 0 0 0.1 0"/>
<feBlend mode="normal" in2="BackgroundImageFix" result="effect1_dropShadow_545_20251"/>
<feBlend mode="normal" in="SourceGraphic" in2="effect1_dropShadow_545_20251" result="shape"/>
</filter>
</defs>
</svg>
