<svg width="296" height="376" viewBox="0 0 296 376" fill="none" xmlns="http://www.w3.org/2000/svg">
<g filter="url(#filter0_d_487_12628)">
<rect x="8" y="6" width="280" height="360" rx="20" fill="white"/>
<path d="M123.961 73C123.161 73 122.614 72.8467 122.321 72.54C122.028 72.22 121.881 71.7333 121.881 71.08C121.881 70.8533 121.894 70.4867 121.921 69.98C121.948 69.4733 122.008 68.6867 122.101 67.62C121.994 67.42 121.901 67.2467 121.821 67.1C121.741 66.9533 121.661 66.8 121.581 66.64C121.501 66.48 121.414 66.2933 121.321 66.08C121.228 65.8667 121.108 65.6 120.961 65.28C120.734 64.7867 120.474 64.2133 120.181 63.56C119.901 62.9067 119.628 62.28 119.361 61.68C119.094 61.0667 118.868 60.5267 118.681 60.06C118.508 59.5933 118.421 59.3 118.421 59.18C118.421 58.9 118.868 58.76 119.761 58.76C120.321 58.76 120.768 58.82 121.101 58.94C121.448 59.0467 121.728 59.2 121.941 59.4C122.154 59.5867 122.314 59.8133 122.421 60.08C122.528 60.3333 122.628 60.6067 122.721 60.9C122.841 61.2867 122.928 61.5733 122.981 61.76C123.034 61.9467 123.074 62.1 123.101 62.22C123.141 62.34 123.181 62.46 123.221 62.58C123.261 62.6867 123.314 62.86 123.381 63.1C123.461 63.34 123.568 63.6733 123.701 64.1C123.834 64.5267 124.021 65.1133 124.261 65.86C124.648 65.0467 124.954 64.3867 125.181 63.88C125.421 63.3733 125.628 62.9067 125.801 62.48C125.974 62.04 126.134 61.5933 126.281 61.14C126.441 60.6733 126.641 60.0867 126.881 59.38C126.961 59.1267 127.041 58.9667 127.121 58.9C127.214 58.82 127.354 58.78 127.541 58.78C127.608 58.78 127.788 58.7933 128.081 58.82C128.388 58.8333 128.701 58.88 129.021 58.96C129.354 59.04 129.654 59.1667 129.921 59.34C130.188 59.5133 130.321 59.7467 130.321 60.04C130.321 60.2667 130.241 60.5867 130.081 61C129.934 61.4133 129.734 61.88 129.481 62.4C129.241 62.9067 128.954 63.4467 128.621 64.02C128.301 64.5933 127.968 65.1533 127.621 65.7C127.274 66.2467 126.928 66.7533 126.581 67.22C126.248 67.6733 125.941 68.0467 125.661 68.34C125.648 68.66 125.628 69.04 125.601 69.48C125.588 69.92 125.561 70.36 125.521 70.8C125.494 71.2267 125.468 71.62 125.441 71.98C125.414 72.3267 125.394 72.5667 125.381 72.7C125.368 72.8067 125.341 72.8867 125.301 72.94C125.261 72.98 125.181 73 125.061 73H123.961ZM134.672 73.2C134.086 73.2 133.499 73.1267 132.912 72.98C132.339 72.8333 131.819 72.58 131.352 72.22C130.899 71.86 130.526 71.38 130.232 70.78C129.939 70.18 129.792 69.4267 129.792 68.52C129.792 68.1867 129.819 67.7867 129.872 67.32C129.926 66.8533 130.026 66.3733 130.172 65.88C130.332 65.3867 130.546 64.9 130.812 64.42C131.092 63.9267 131.452 63.4867 131.892 63.1C132.332 62.7133 132.866 62.4 133.492 62.16C134.119 61.92 134.866 61.8 135.732 61.8C136.426 61.8 137.012 61.88 137.492 62.04C137.972 62.2 138.359 62.42 138.652 62.7C138.946 62.9667 139.159 63.28 139.292 63.64C139.426 64 139.492 64.3867 139.492 64.8C139.492 65.4133 139.366 65.9333 139.112 66.36C138.872 66.7867 138.552 67.1467 138.152 67.44C137.766 67.72 137.332 67.94 136.852 68.1C136.372 68.26 135.899 68.3867 135.432 68.48C134.966 68.56 134.532 68.6133 134.132 68.64C133.746 68.6533 133.446 68.66 133.232 68.66C133.232 68.9133 133.266 69.1667 133.332 69.42C133.412 69.66 133.526 69.8733 133.672 70.06C133.819 70.2467 134.012 70.4 134.252 70.52C134.492 70.64 134.786 70.7 135.132 70.7C135.479 70.7 135.746 70.6467 135.932 70.54C136.132 70.42 136.292 70.2933 136.412 70.16C136.532 70.0133 136.632 69.8867 136.712 69.78C136.806 69.66 136.926 69.6 137.072 69.6C137.139 69.6 137.252 69.62 137.412 69.66C137.586 69.6867 137.759 69.7533 137.932 69.86C138.106 69.9667 138.259 70.1133 138.392 70.3C138.526 70.4867 138.592 70.7267 138.592 71.02C138.592 71.4067 138.472 71.74 138.232 72.02C137.992 72.3 137.679 72.5267 137.292 72.7C136.919 72.8733 136.499 73 136.032 73.08C135.566 73.16 135.112 73.2 134.672 73.2ZM135.052 64.46C134.759 64.46 134.506 64.5467 134.292 64.72C134.092 64.88 133.919 65.0867 133.772 65.34C133.639 65.5933 133.532 65.8733 133.452 66.18C133.386 66.4867 133.332 66.78 133.292 67.06C134.119 67.0467 134.786 66.9067 135.292 66.64C135.812 66.3733 136.072 65.9933 136.072 65.5C136.072 65.2333 135.986 64.9933 135.812 64.78C135.652 64.5667 135.399 64.46 135.052 64.46ZM140.097 70.54C140.097 69.34 140.637 68.4 141.717 67.72C142.797 67.04 144.39 66.6733 146.497 66.62C146.51 66.4733 146.517 66.3533 146.517 66.26C146.53 66.1533 146.537 66.0267 146.537 65.88C146.537 65.4533 146.457 65.1133 146.297 64.86C146.137 64.6067 145.804 64.48 145.297 64.48C145.017 64.48 144.79 64.52 144.617 64.6C144.444 64.68 144.304 64.7933 144.197 64.94C144.09 65.0733 144.004 65.24 143.937 65.44C143.87 65.64 143.81 65.86 143.757 66.1C143.73 66.22 143.67 66.3 143.577 66.34C143.484 66.3667 143.337 66.38 143.137 66.38C141.777 66.38 141.097 65.8667 141.097 64.84C141.097 64.4267 141.19 64.0333 141.377 63.66C141.577 63.2867 141.864 62.9667 142.237 62.7C142.624 62.42 143.104 62.2 143.677 62.04C144.25 61.88 144.917 61.8 145.677 61.8C147.157 61.8 148.23 62.1067 148.897 62.72C149.564 63.3333 149.897 64.2 149.897 65.32C149.897 65.4667 149.877 65.7333 149.837 66.12C149.81 66.4933 149.77 66.8933 149.717 67.32C149.677 67.7333 149.637 68.1267 149.597 68.5C149.57 68.8733 149.557 69.1333 149.557 69.28C149.557 69.6133 149.617 69.8533 149.737 70C149.857 70.1333 149.99 70.2267 150.137 70.28C150.297 70.3333 150.437 70.3733 150.557 70.4C150.677 70.4267 150.737 70.4933 150.737 70.6C150.737 70.8933 150.697 71.1933 150.617 71.5C150.537 71.8067 150.404 72.0867 150.217 72.34C150.044 72.5933 149.797 72.8 149.477 72.96C149.17 73.12 148.79 73.2 148.337 73.2C147.697 73.2 147.217 73.0467 146.897 72.74C146.577 72.4333 146.364 72.0067 146.257 71.46C145.937 71.9267 145.517 72.3333 144.997 72.68C144.49 73.0267 143.824 73.2 142.997 73.2C142.597 73.2 142.217 73.1533 141.857 73.06C141.51 72.9667 141.204 72.8133 140.937 72.6C140.684 72.3867 140.477 72.1133 140.317 71.78C140.17 71.4333 140.097 71.02 140.097 70.54ZM146.317 68.26C145.97 68.26 145.63 68.2867 145.297 68.34C144.964 68.3933 144.664 68.48 144.397 68.6C144.144 68.7067 143.937 68.8533 143.777 69.04C143.617 69.2267 143.537 69.4533 143.537 69.72C143.537 70.0267 143.63 70.24 143.817 70.36C144.017 70.48 144.23 70.54 144.457 70.54C144.67 70.54 144.884 70.4933 145.097 70.4C145.31 70.3067 145.497 70.1667 145.657 69.98C145.83 69.78 145.977 69.54 146.097 69.26C146.217 68.98 146.29 68.6467 146.317 68.26ZM158.426 66.78C158.346 66.78 158.253 66.78 158.146 66.78C158.053 66.7667 157.96 66.7533 157.866 66.74C157.773 66.7133 157.693 66.6867 157.626 66.66C157.56 66.62 157.526 66.5733 157.526 66.52C157.526 66.3467 157.533 66.1867 157.546 66.04C157.56 65.8933 157.566 65.74 157.566 65.58C157.566 65.2867 157.526 65.0467 157.446 64.86C157.366 64.6733 157.206 64.58 156.966 64.58C156.593 64.58 156.28 64.8267 156.026 65.32C155.786 65.8 155.633 66.5267 155.566 67.5C155.54 67.9267 155.5 68.4133 155.446 68.96C155.406 69.4933 155.366 70.0133 155.326 70.52C155.286 71.0133 155.253 71.4533 155.226 71.84C155.2 72.2267 155.186 72.48 155.186 72.6C155.186 72.7333 155.14 72.8333 155.046 72.9C154.953 72.9667 154.853 73 154.746 73H154.026C153.613 73 153.273 72.96 153.006 72.88C152.753 72.7867 152.546 72.66 152.386 72.5C152.24 72.34 152.133 72.1467 152.066 71.92C152.013 71.68 151.986 71.4067 151.986 71.1C151.986 70.9 151.993 70.62 152.006 70.26C152.033 69.8867 152.073 69.38 152.126 68.74C152.18 68.0867 152.24 67.2667 152.306 66.28C152.386 65.28 152.48 64.0467 152.586 62.58C152.613 62.1933 152.753 62 153.006 62H153.786C154.16 62 154.473 62.04 154.726 62.12C154.98 62.2 155.186 62.3133 155.346 62.46C155.506 62.5933 155.62 62.7533 155.686 62.94C155.766 63.1267 155.82 63.32 155.846 63.52C156.006 63.2133 156.193 62.9533 156.406 62.74C156.633 62.5133 156.866 62.3333 157.106 62.2C157.346 62.0533 157.593 61.9533 157.846 61.9C158.1 61.8333 158.333 61.8 158.546 61.8C158.8 61.8 159.053 61.8467 159.306 61.94C159.573 62.0333 159.813 62.1733 160.026 62.36C160.24 62.5467 160.406 62.7867 160.526 63.08C160.66 63.3733 160.726 63.72 160.726 64.12C160.726 64.48 160.673 64.82 160.566 65.14C160.46 65.46 160.306 65.7467 160.106 66C159.906 66.24 159.66 66.4333 159.366 66.58C159.086 66.7133 158.773 66.78 158.426 66.78ZM163.857 73.18C163.03 73.18 162.437 72.96 162.077 72.52C161.717 72.08 161.537 71.3533 161.537 70.34C161.537 70.18 161.543 69.98 161.557 69.74C161.583 69.5 161.61 69.1933 161.637 68.82C161.677 68.4333 161.723 67.96 161.777 67.4C161.83 66.84 161.883 66.16 161.937 65.36C162.003 64.56 162.07 63.62 162.137 62.54C162.217 61.46 162.297 60.2067 162.377 58.78C162.39 58.4867 162.423 58.3133 162.477 58.26C162.517 58.22 162.623 58.2 162.797 58.2H163.577C163.977 58.2 164.31 58.2467 164.577 58.34C164.843 58.4333 165.057 58.56 165.217 58.72C165.377 58.88 165.49 59.0667 165.557 59.28C165.623 59.48 165.657 59.6933 165.657 59.92C165.657 60.1867 165.637 60.5733 165.597 61.08C165.57 61.5733 165.53 62.1333 165.477 62.76C165.423 63.3867 165.37 64.04 165.317 64.72C165.263 65.4 165.21 66.0533 165.157 66.68C165.103 67.2933 165.057 67.8467 165.017 68.34C164.99 68.8333 164.977 69.2067 164.977 69.46C164.977 69.8067 165.037 70.0533 165.157 70.2C165.29 70.3467 165.43 70.4533 165.577 70.52C165.723 70.5733 165.857 70.6133 165.977 70.64C166.11 70.6533 166.177 70.6933 166.177 70.76C166.177 71.0533 166.143 71.3467 166.077 71.64C166.01 71.92 165.89 72.18 165.717 72.42C165.543 72.6467 165.303 72.8333 164.997 72.98C164.703 73.1133 164.323 73.18 163.857 73.18ZM171.392 63.84C171.392 64.1467 171.372 64.5133 171.332 64.94C171.292 65.3533 171.245 65.7733 171.192 66.2C171.152 66.6133 171.112 67.0067 171.072 67.38C171.032 67.74 171.012 68.02 171.012 68.22C171.012 68.7267 171.132 69.1067 171.372 69.36C171.625 69.6 171.932 69.72 172.292 69.72C172.919 69.72 173.419 69.3933 173.792 68.74C174.165 68.0867 174.399 67.22 174.492 66.14L174.812 62.4C174.825 62.2533 174.872 62.1533 174.952 62.1C175.045 62.0333 175.145 62 175.252 62H175.972C176.252 62 176.512 62.0267 176.752 62.08C177.005 62.12 177.225 62.2067 177.412 62.34C177.599 62.46 177.745 62.6267 177.852 62.84C177.959 63.0533 178.012 63.3267 178.012 63.66C178.012 63.7933 177.999 64.0467 177.972 64.42C177.959 64.78 177.925 65.3067 177.872 66C177.832 66.68 177.772 67.5467 177.692 68.6C177.612 69.64 177.519 70.9133 177.412 72.42C177.345 73.3 177.145 74.0267 176.812 74.6C176.492 75.1867 176.085 75.6467 175.592 75.98C175.099 76.3267 174.545 76.5667 173.932 76.7C173.319 76.8333 172.692 76.9 172.052 76.9C171.372 76.9 170.745 76.84 170.172 76.72C169.612 76.6 169.125 76.4333 168.712 76.22C168.299 76.0067 167.972 75.76 167.732 75.48C167.505 75.2 167.392 74.9 167.392 74.58C167.392 74.3267 167.445 74.1067 167.552 73.92C167.672 73.7333 167.825 73.58 168.012 73.46C168.199 73.34 168.412 73.2467 168.652 73.18C168.905 73.1267 169.165 73.1 169.432 73.1C169.565 73.1 169.659 73.1667 169.712 73.3C169.779 73.4333 169.872 73.58 169.992 73.74C170.125 73.9133 170.332 74.0667 170.612 74.2C170.892 74.3333 171.312 74.4 171.872 74.4C172.365 74.4 172.765 74.28 173.072 74.04C173.379 73.8 173.612 73.4933 173.772 73.12C173.945 72.7467 174.059 72.34 174.112 71.9C174.165 71.46 174.192 71.04 174.192 70.64C173.979 71.0133 173.739 71.32 173.472 71.56C173.219 71.7867 172.952 71.9667 172.672 72.1C172.392 72.22 172.112 72.3 171.832 72.34C171.552 72.38 171.285 72.4 171.032 72.4C170.539 72.4 170.085 72.3333 169.672 72.2C169.272 72.0667 168.925 71.8533 168.632 71.56C168.339 71.2533 168.112 70.86 167.952 70.38C167.792 69.9 167.712 69.32 167.712 68.64C167.712 68.3867 167.725 68.0533 167.752 67.64C167.779 67.2133 167.812 66.74 167.852 66.22C167.892 65.6867 167.932 65.1133 167.972 64.5C168.025 63.8867 168.079 63.26 168.132 62.62C168.159 62.2067 168.345 62 168.692 62H169.332C169.759 62 170.105 62.04 170.372 62.12C170.639 62.2 170.845 62.32 170.992 62.48C171.152 62.6267 171.259 62.82 171.312 63.06C171.365 63.2867 171.392 63.5467 171.392 63.84Z" fill="#8DBE3D"/>
<path d="M112.5 108H184.5" stroke="#8DBE3D"/>
<path d="M60.18 202V198.64C68.26 191.4 72.98 185.84 72.98 181.28C72.98 178.32 71.42 176.48 68.58 176.48C66.38 176.48 64.66 177.88 63.14 179.56L59.9 176.36C62.62 173.44 65.3 171.88 69.34 171.88C74.9 171.88 78.66 175.44 78.66 180.96C78.66 186.36 74.18 192.12 68.78 197.4C70.26 197.24 72.22 197.04 73.62 197.04H80.02V202H60.18ZM85.3338 202V197.24H91.7338V178.52H86.3338V174.88C89.3338 174.32 91.3338 173.56 93.2538 172.4H97.6138V197.24H103.174V202H85.3338ZM118.288 202.56C112.688 202.56 107.648 198.04 107.648 187.6C107.648 176.6 113.128 171.88 119.128 171.88C122.728 171.88 125.368 173.36 127.168 175.24L124.008 178.72C123.008 177.56 121.168 176.6 119.488 176.6C115.888 176.6 113.048 179.36 113.048 187.6C113.048 195.28 115.288 198.12 118.208 198.12C120.408 198.12 122.208 196.28 122.208 192.68C122.208 189.16 120.528 187.56 118.008 187.56C116.368 187.56 114.488 188.44 113.008 190.88L112.768 186.88C114.328 184.68 117.088 183.4 119.088 183.4C124.048 183.4 127.608 186.32 127.608 192.68C127.608 198.76 123.328 202.56 118.288 202.56ZM131.961 171.56H149.601V189.44H131.961V171.56ZM144.361 175.76H137.201V185.24H144.361V175.76ZM154.721 168.52H160.041V195.52H154.721V168.52ZM158.521 179.2H164.961V183.56H158.521V179.2ZM136.161 200.68H161.361V204.92H136.161V200.68ZM136.161 192.88H141.481V202.8H136.161V192.88ZM177.318 187.52H182.638V195.64H177.318V187.52ZM193.558 168.52H198.878V196.56H193.558V168.52ZM172.198 200.68H199.678V204.92H172.198V200.68ZM172.198 193.92H177.518V201.8H172.198V193.92ZM168.198 189.12L167.558 184.88C174.318 184.88 183.358 184.8 191.118 183.8L191.438 187.6C183.558 188.92 174.878 189.12 168.198 189.12ZM186.558 190.04H194.718V193.68H186.558V190.04ZM179.478 169.8C184.878 169.8 188.678 172.48 188.678 176.4C188.678 180.36 184.878 183 179.478 183C174.038 183 170.238 180.36 170.238 176.4C170.238 172.48 174.038 169.8 179.478 169.8ZM179.478 173.68C176.998 173.68 175.278 174.6 175.278 176.4C175.278 178.2 176.998 179.12 179.478 179.12C181.918 179.12 183.638 178.2 183.638 176.4C183.638 174.6 181.918 173.68 179.478 173.68Z" fill="#505646"/>
<path d="M213.692 199.88L218.14 184.216H219.404L214.972 199.88H213.692ZM234.496 183.704H236.176V194.504H234.496V183.704ZM230.624 185.496H235.088V186.824H230.624V185.496ZM226.688 196.68H236.528V198.04H226.688V196.68ZM226.688 193.56H228.368V197.336H226.688V193.56ZM224.88 184.712H226.544V191.592H224.88V184.712ZM224.88 191.08H226.016C228.112 191.08 230.032 190.984 232.224 190.584L232.384 191.96C230.128 192.376 228.176 192.456 226.016 192.456H224.88V191.08ZM230.624 188.248H235.088V189.592H230.624V188.248Z" fill="#505646"/>
<path d="M82.7534 268.26H85.4334V286.78H82.7534V268.26ZM77.2934 270.18H79.9334C79.9334 275.84 78.0134 280.48 71.4334 283.66L70.0534 281.54C75.3734 278.98 77.2934 275.62 77.2934 270.66V270.18ZM71.0334 270.18H78.5534V272.28H71.0334V270.18ZM90.5318 268.94H93.1518V270.74H100.372V268.94H103.012V276.48H90.5318V268.94ZM93.1518 272.78V274.38H100.372V272.78H93.1518ZM88.3918 278.04H105.132V280.16H88.3918V278.04ZM95.4118 275.36H98.0718V278.92H95.4118V275.36ZM90.4118 284.34H103.252V286.46H90.4118V284.34ZM90.4118 281.24H93.0718V285.12H90.4118V281.24ZM124.041 268.28H126.721V281.58H124.041V268.28ZM114.381 284.34H127.181V286.46H114.381V284.34ZM114.381 280.24H117.041V285.2H114.381V280.24ZM116.641 269.44C119.481 269.44 121.661 271.4 121.661 274.14C121.661 276.86 119.481 278.84 116.641 278.84C113.801 278.84 111.601 276.86 111.601 274.14C111.601 271.4 113.801 269.44 116.641 269.44ZM116.641 271.74C115.261 271.74 114.201 272.62 114.201 274.14C114.201 275.64 115.261 276.52 116.641 276.52C118.001 276.52 119.061 275.64 119.061 274.14C119.061 272.62 118.001 271.74 116.641 271.74ZM134.54 277.76H137.2V281.82H134.54V277.76ZM142.66 268.26H145.32V282.28H142.66V268.26ZM131.98 284.34H145.72V286.46H131.98V284.34ZM131.98 280.96H134.64V284.9H131.98V280.96ZM129.98 278.56L129.66 276.44C133.04 276.44 137.56 276.4 141.44 275.9L141.6 277.8C137.66 278.46 133.32 278.56 129.98 278.56ZM139.16 279.02H143.24V280.84H139.16V279.02ZM135.62 268.9C138.32 268.9 140.22 270.24 140.22 272.2C140.22 274.18 138.32 275.5 135.62 275.5C132.9 275.5 131 274.18 131 272.2C131 270.24 132.9 268.9 135.62 268.9ZM135.62 270.84C134.38 270.84 133.52 271.3 133.52 272.2C133.52 273.1 134.38 273.56 135.62 273.56C136.84 273.56 137.7 273.1 137.7 272.2C137.7 271.3 136.84 270.84 135.62 270.84ZM159.63 268.8H161.97V269.66C161.97 273.22 159.17 276.24 154.31 276.96L153.27 274.82C157.53 274.26 159.63 271.84 159.63 269.66V268.8ZM160.13 268.8H162.45V269.66C162.45 271.82 164.57 274.26 168.81 274.82L167.79 276.96C162.93 276.24 160.13 273.22 160.13 269.66V268.8ZM159.65 280H162.29V286.78H159.65V280ZM152.67 278.32H169.41V280.48H152.67V278.32ZM178.019 277.7C176.959 277.7 176.199 276.88 176.199 275.78C176.199 274.7 176.959 273.88 178.019 273.88C179.059 273.88 179.859 274.7 179.859 275.78C179.859 276.88 179.059 277.7 178.019 277.7ZM178.019 285.28C176.959 285.28 176.199 284.46 176.199 283.36C176.199 282.26 176.959 281.46 178.019 281.46C179.059 281.46 179.859 282.26 179.859 283.36C179.859 284.46 179.059 285.28 178.019 285.28ZM191.274 285.28C188.934 285.28 187.354 284.42 186.314 283.22L187.714 281.36C188.594 282.22 189.654 282.9 190.994 282.9C192.514 282.9 193.534 282.14 193.534 280.82C193.534 279.36 192.674 278.46 189.454 278.46V276.34C192.174 276.34 193.054 275.42 193.054 274.1C193.054 272.94 192.334 272.24 191.074 272.24C190.014 272.24 189.154 272.74 188.274 273.56L186.774 271.74C188.054 270.64 189.474 269.94 191.194 269.94C194.054 269.94 195.994 271.34 195.994 273.88C195.994 275.46 195.114 276.64 193.534 277.24V277.34C195.214 277.82 196.494 279.04 196.494 281C196.494 283.72 194.114 285.28 191.274 285.28ZM203.511 285.28C200.491 285.28 198.491 282.66 198.491 277.54C198.491 272.44 200.491 269.94 203.511 269.94C206.511 269.94 208.511 272.44 208.511 277.54C208.511 282.66 206.511 285.28 203.511 285.28ZM203.511 282.98C204.791 282.98 205.731 281.7 205.731 277.54C205.731 273.4 204.791 272.2 203.511 272.2C202.231 272.2 201.271 273.4 201.271 277.54C201.271 281.7 202.231 282.98 203.511 282.98ZM219.168 270.94H223.888V273.04H219.168V270.94ZM219.168 274.64H223.968V276.76H219.168V274.64ZM223.048 268.26H225.708V279.1H223.048V268.26ZM210.968 269.6H219.728V278.1H210.968V269.6ZM217.108 271.7H213.588V276.02H217.108V271.7ZM219.428 279.58C223.348 279.58 225.768 280.92 225.768 283.18C225.768 285.46 223.348 286.78 219.428 286.78C215.508 286.78 213.088 285.46 213.088 283.18C213.088 280.92 215.508 279.58 219.428 279.58ZM219.428 281.62C217.028 281.62 215.748 282.12 215.748 283.18C215.748 284.24 217.028 284.76 219.428 284.76C221.848 284.76 223.128 284.24 223.128 283.18C223.128 282.12 221.848 281.62 219.428 281.62Z" fill="#8DBE3D"/>
<path d="M38.1334 309V307.48H40.7254V299.288H38.5974V298.12C39.7174 297.928 40.4854 297.64 41.1734 297.224H42.5654V307.48H44.8694V309H38.1334ZM57.0664 295.704H58.7464V306.504H57.0664V295.704ZM53.1944 297.496H57.6584V298.824H53.1944V297.496ZM49.2584 308.68H59.0984V310.04H49.2584V308.68ZM49.2584 305.56H50.9384V309.336H49.2584V305.56ZM47.4504 296.712H49.1144V303.592H47.4504V296.712ZM47.4504 303.08H48.5864C50.6824 303.08 52.6024 302.984 54.7944 302.584L54.9544 303.96C52.6984 304.376 50.7464 304.456 48.5864 304.456H47.4504V303.08ZM53.1944 300.248H57.6584V301.592H53.1944V300.248ZM74.6749 295.704H76.3549V306.28H74.6749V295.704ZM75.8589 299.88H78.4189V301.272H75.8589V299.88ZM65.5549 302.424H66.7229C69.8109 302.424 71.4429 302.344 73.3149 301.944L73.4909 303.288C71.5709 303.704 69.8749 303.784 66.7229 303.784H65.5549V302.424ZM65.5549 296.92H72.0509V298.28H67.2189V303.144H65.5549V296.92ZM67.1069 308.68H76.9469V310.04H67.1069V308.68ZM67.1069 305.192H68.7869V309.336H67.1069V305.192ZM84.4177 296.344C86.6097 296.344 88.1937 297.592 88.1937 299.4C88.1937 301.208 86.6097 302.472 84.4177 302.472C82.2257 302.472 80.6417 301.208 80.6417 299.4C80.6417 297.592 82.2257 296.344 84.4177 296.344ZM84.4177 297.72C83.1537 297.72 82.2577 298.376 82.2577 299.4C82.2577 300.44 83.1537 301.08 84.4177 301.08C85.6817 301.08 86.5937 300.44 86.5937 299.4C86.5937 298.376 85.6817 297.72 84.4177 297.72ZM83.6497 304.024H85.3297V309.88H83.6497V304.024ZM90.0817 295.704H91.7457V310.328H90.0817V295.704ZM79.8737 304.92L79.6657 303.528C82.3057 303.528 85.9697 303.496 89.1377 303.016L89.2497 304.248C86.0017 304.872 82.4817 304.904 79.8737 304.92ZM103.626 299.672H106.746V301.016H103.626V299.672ZM103.53 303.336H106.698V304.68H103.53V303.336ZM108.858 295.704H110.474V310.328H108.858V295.704ZM105.898 296.056H107.466V309.624H105.898V296.056ZM102.618 297.496H104.234C104.234 301.464 102.826 304.856 98.8262 307.224L97.8662 306.04C101.242 304.008 102.618 301.304 102.618 297.816V297.496ZM98.6022 297.496H103.226V298.856H98.6022V297.496ZM123.593 297.784H126.121V299.176H123.593V297.784ZM123.593 300.936H126.121V302.312H123.593V300.936ZM122.425 295.704H124.105V304.36H122.425V295.704ZM114.489 305.016H124.105V310.328H122.425V306.36H114.489V305.016ZM116.761 296.536C118.985 296.536 120.649 297.992 120.649 300.056C120.649 302.12 118.985 303.56 116.761 303.56C114.537 303.56 112.889 302.12 112.889 300.056C112.889 297.992 114.537 296.536 116.761 296.536ZM116.761 297.96C115.465 297.96 114.521 298.776 114.521 300.056C114.521 301.336 115.465 302.152 116.761 302.152C118.057 302.152 119.017 301.336 119.017 300.056C119.017 298.776 118.057 297.96 116.761 297.96ZM131.128 296.904H132.504V299.304C132.504 302.84 130.92 306.088 128.296 307.368L127.288 305.976C129.624 304.92 131.128 302.104 131.128 299.304V296.904ZM131.448 296.904H132.808V299.304C132.808 301.992 134.296 304.68 136.6 305.704L135.608 307.048C133.032 305.832 131.448 302.712 131.448 299.304V296.904ZM137.768 295.688H139.448V310.344H137.768V295.688ZM146.352 309V307.48H148.944V299.288H146.816V298.12C147.936 297.928 148.704 297.64 149.392 297.224H150.784V307.48H153.088V309H146.352ZM158.677 309.224C156.357 309.224 154.869 307.16 154.869 303.064C154.869 299 156.357 297.016 158.677 297.016C160.981 297.016 162.485 299 162.485 303.064C162.485 307.16 160.981 309.224 158.677 309.224ZM158.677 307.752C159.877 307.752 160.709 306.472 160.709 303.064C160.709 299.704 159.877 298.456 158.677 298.456C157.477 298.456 156.629 299.704 156.629 303.064C156.629 306.472 157.477 307.752 158.677 307.752ZM166.57 304.456C164.922 304.456 163.802 303.08 163.802 300.712C163.802 298.36 164.922 297.016 166.57 297.016C168.218 297.016 169.338 298.36 169.338 300.712C169.338 303.08 168.218 304.456 166.57 304.456ZM166.57 303.368C167.386 303.368 167.978 302.52 167.978 300.712C167.978 298.904 167.386 298.088 166.57 298.088C165.738 298.088 165.146 298.904 165.146 300.712C165.146 302.52 165.738 303.368 166.57 303.368ZM166.922 309.224L173.386 297.016H174.554L168.09 309.224H166.922ZM174.938 309.224C173.29 309.224 172.17 307.864 172.17 305.48C172.17 303.128 173.29 301.768 174.938 301.768C176.57 301.768 177.69 303.128 177.69 305.48C177.69 307.864 176.57 309.224 174.938 309.224ZM174.938 308.136C175.754 308.136 176.346 307.288 176.346 305.48C176.346 303.656 175.754 302.872 174.938 302.872C174.106 302.872 173.514 303.656 173.514 305.48C173.514 307.288 174.106 308.136 174.938 308.136ZM192.331 295.672H194.011V303.672H192.331V295.672ZM193.323 299.016H196.075V300.392H193.323V299.016ZM184.571 304.344H194.011V307.8H186.251V309.368H184.587V306.632H192.363V305.576H184.571V304.344ZM184.587 308.936H194.491V310.2H184.587V308.936ZM182.619 296.92H191.227V298.2H182.619V296.92ZM186.923 298.712C189.067 298.712 190.459 299.64 190.459 301.112C190.459 302.584 189.067 303.496 186.923 303.496C184.779 303.496 183.371 302.584 183.371 301.112C183.371 299.64 184.779 298.712 186.923 298.712ZM186.923 299.912C185.739 299.912 184.987 300.36 184.987 301.112C184.987 301.848 185.739 302.296 186.923 302.296C188.107 302.296 188.859 301.848 188.859 301.112C188.859 300.36 188.107 299.912 186.923 299.912ZM186.091 295.576H187.755V297.816H186.091V295.576ZM207.69 295.72H209.37V306.312H207.69V295.72ZM199.818 308.68H209.786V310.04H199.818V308.68ZM199.818 305.24H201.498V309.192H199.818V305.24ZM201.482 296.696C203.69 296.696 205.354 298.2 205.354 300.344C205.354 302.456 203.69 303.992 201.482 303.992C199.274 303.992 197.594 302.456 197.594 300.344C197.594 298.2 199.274 296.696 201.482 296.696ZM201.482 298.136C200.202 298.136 199.226 299 199.226 300.344C199.226 301.656 200.202 302.52 201.482 302.52C202.762 302.52 203.722 301.656 203.722 300.344C203.722 299 202.762 298.136 201.482 298.136ZM216.025 300.632H217.705V303.032H216.025V300.632ZM222.441 295.704H224.121V304.152H222.441V295.704ZM212.297 303.896L212.073 302.568C214.729 302.568 218.313 302.536 221.369 302.104L221.481 303.272C218.345 303.832 214.889 303.88 212.297 303.896ZM213.353 299.8H220.409V301.128H213.353V299.8ZM213.353 296.408H220.297V297.752H215.033V300.264H213.353V296.408ZM214.393 304.776H216.057V306.12H222.457V304.776H224.121V310.152H214.393V304.776ZM216.057 307.4V308.808H222.457V307.4H216.057ZM237.159 295.704H238.823V310.328H237.159V295.704ZM227.607 297.112H229.271V306.184H227.607V297.112ZM227.607 305.192H228.855C231.031 305.192 233.367 305.032 235.815 304.536L236.007 305.944C233.479 306.472 231.127 306.632 228.855 306.632H227.607V305.192ZM251.126 295.688H252.806V310.344H251.126V295.688ZM252.422 301.304H255.078V302.696H252.422V301.304ZM242.07 305.368H243.254C245.846 305.368 247.766 305.272 249.926 304.872L250.102 306.28C247.862 306.68 245.91 306.76 243.254 306.76H242.07V305.368ZM242.07 297.08H248.87V298.44H243.734V306.008H242.07V297.08ZM257.845 309.224C257.141 309.224 256.613 308.68 256.613 307.928C256.613 307.16 257.141 306.632 257.845 306.632C258.533 306.632 259.077 307.16 259.077 307.928C259.077 308.68 258.533 309.224 257.845 309.224Z" fill="#797979"/>
<path d="M101 152L93 152M93 152L93 144M93 152L101 144L105 148L111 142" stroke="#8DBE3D" stroke-width="2" stroke-linecap="round" stroke-linejoin="round"/>
<path d="M117.556 151V149.728C123.076 144.904 125.596 141.376 125.596 138.376C125.596 136.36 124.564 134.872 122.38 134.872C120.94 134.872 119.692 135.76 118.708 136.912L117.436 135.688C118.876 134.128 120.412 133.096 122.644 133.096C125.788 133.096 127.756 135.136 127.756 138.28C127.756 141.808 124.996 145.384 120.844 149.296C121.78 149.2 122.836 149.128 123.724 149.128H128.596V151H117.556ZM137.949 151V139.024C137.949 138.136 138.021 136.72 138.093 135.808H137.973C137.541 136.672 137.061 137.56 136.581 138.424L132.573 144.424H142.365V146.152H130.269V144.712L137.589 133.408H140.013V151H137.949ZM149.797 151.336C146.437 151.336 144.301 148.288 144.301 142.144C144.301 136.048 146.437 133.096 149.797 133.096C153.109 133.096 155.245 136.048 155.245 142.144C155.245 148.288 153.109 151.336 149.797 151.336ZM149.797 149.56C151.789 149.56 153.133 147.328 153.133 142.144C153.133 137.032 151.789 134.848 149.797 134.848C147.781 134.848 146.413 137.032 146.413 142.144C146.413 147.328 147.781 149.56 149.797 149.56ZM158.526 133.12H168.486V143.176H158.526V133.12ZM166.542 134.728H160.47V141.568H166.542V134.728ZM172.47 131.152H174.462V147.064H172.47V131.152ZM173.838 137.776H177.678V139.432H173.838V137.776ZM160.95 150.76H175.446V152.392H160.95V150.76ZM160.95 145.552H162.942V151.456H160.95V145.552ZM185.86 142.096H187.852V146.92H185.86V142.096ZM195.484 131.176H197.476V147.688H195.484V131.176ZM182.668 150.76H198.004V152.392H182.668V150.76ZM182.668 146.08H184.66V151.216H182.668V146.08ZM179.86 142.84L179.596 141.208C183.604 141.208 188.98 141.16 193.588 140.56L193.732 142.024C189.052 142.768 183.796 142.84 179.86 142.84ZM191.068 143.992H195.988V145.456H191.068V143.992ZM186.652 132.064C189.82 132.064 191.98 133.552 191.98 135.832C191.98 138.136 189.82 139.624 186.652 139.624C183.46 139.624 181.3 138.136 181.3 135.832C181.3 133.552 183.46 132.064 186.652 132.064ZM186.652 133.552C184.612 133.552 183.196 134.44 183.196 135.832C183.196 137.224 184.612 138.112 186.652 138.112C188.668 138.112 190.084 137.224 190.084 135.832C190.084 134.44 188.668 133.552 186.652 133.552Z" fill="#8DBE3D"/>
<path d="M209 143C209.552 143 210 142.552 210 142C210 141.448 209.552 141 209 141V143ZM111 143H209V141H111V143Z" fill="#8DBE3D"/>
</g>
<defs>
<filter id="filter0_d_487_12628" x="0" y="0" width="296" height="376" filterUnits="userSpaceOnUse" color-interpolation-filters="sRGB">
<feFlood flood-opacity="0" result="BackgroundImageFix"/>
<feColorMatrix in="SourceAlpha" type="matrix" values="0 0 0 0 0 0 0 0 0 0 0 0 0 0 0 0 0 0 127 0" result="hardAlpha"/>
<feOffset dy="2"/>
<feGaussianBlur stdDeviation="4"/>
<feComposite in2="hardAlpha" operator="out"/>
<feColorMatrix type="matrix" values="0 0 0 0 0 0 0 0 0 0 0 0 0 0 0 0 0 0 0.1 0"/>
<feBlend mode="normal" in2="BackgroundImageFix" result="effect1_dropShadow_487_12628"/>
<feBlend mode="normal" in="SourceGraphic" in2="effect1_dropShadow_487_12628" result="shape"/>
</filter>
</defs>
</svg>
