<svg width="2560" height="846" viewBox="0 0 2560 846" fill="none" xmlns="http://www.w3.org/2000/svg">
<path fill-rule="evenodd" clip-rule="evenodd" d="M2561 31H2078.5C1963.07 31 1869.5 124.572 1869.5 240V564.5H1872.36V620.996C1872.36 704.391 1804.76 772 1721.36 772L-2.5 772.002L-2.5 846.002L1737.5 846C1852.93 846 1946.5 752.428 1946.5 637V441H1944.05V256C1944.05 172.605 2011.62 105 2095.02 105H2561V31Z" fill="#E9EAEC"/>
<path fill-rule="evenodd" clip-rule="evenodd" d="M2112.47 199C2122.81 199 2128.53 205.232 2131.29 217.954C2150.8 308.999 2074.2 308.999 2093.71 217.954C2096.4 205.232 2102.19 199 2112.53 199" fill="#B9CF71"/>
<path fill-rule="evenodd" clip-rule="evenodd" d="M2112.54 263.83C2114.3 263.83 2115.77 265.115 2115.77 266.657V267.364L2118.55 264.922C2119.8 263.83 2121.92 263.83 2123.17 264.922C2124.41 266.015 2124.41 267.814 2123.17 268.97L2115.77 275.46V323.263C2115.77 324.805 2114.3 326.09 2112.54 326.09C2110.79 326.09 2109.32 324.805 2109.32 323.263V283.877C2109.32 283.877 2109.03 283.684 2108.88 283.555L2100.67 276.359C2099.43 275.267 2099.43 273.404 2100.67 272.311C2101.92 271.219 2104.04 271.219 2105.29 272.311L2109.39 275.909V266.786C2109.39 265.244 2110.86 263.959 2112.62 263.959" fill="#797979"/>
<path fill-rule="evenodd" clip-rule="evenodd" d="M883.85 629C893.502 629 898.843 635.232 901.417 647.954C919.628 738.999 848.135 738.999 866.346 647.954C868.856 635.232 874.261 629 883.914 629" fill="#B9CF71"/>
<path fill-rule="evenodd" clip-rule="evenodd" d="M883.849 693.83C885.393 693.83 886.68 695.115 886.68 696.657V697.364L889.125 694.922C890.219 693.83 892.085 693.83 893.179 694.922C894.273 696.015 894.273 697.814 893.179 698.97L886.68 705.46V753.263C886.68 754.805 885.393 756.09 883.849 756.09C882.304 756.09 881.017 754.805 881.017 753.263V713.877C881.017 713.877 880.76 713.684 880.631 713.555L873.424 706.359C872.33 705.267 872.33 703.404 873.424 702.311C874.518 701.219 876.384 701.219 877.478 702.311L881.082 705.909V696.786C881.082 695.244 882.369 693.959 883.913 693.959" fill="#797979"/>
<path fill-rule="evenodd" clip-rule="evenodd" d="M2194 287.143C2208.63 287.143 2220.5 291.104 2220.5 295.954C2220.5 300.804 2208.63 304.766 2194 304.766C2179.37 304.766 2167.5 300.804 2167.5 295.954C2167.5 291.104 2179.37 287.143 2194 287.143Z" fill="#C5C782"/>
<path fill-rule="evenodd" clip-rule="evenodd" d="M2206.01 280.585L2213.12 294.246L2194.67 300.121L2174.88 294.246L2181.99 280.585C2189.7 265.83 2199.11 267.401 2206.01 280.585Z" fill="#996633"/>
<path fill-rule="evenodd" clip-rule="evenodd" d="M2102.44 0C2108.13 0 2111.22 4.88542 2112.82 10.369L2119.01 30.7083H2085.76L2091.95 10.369C2093.65 4.88542 2096.64 0 2102.34 0" fill="#DEEBC8"/>
<path fill-rule="evenodd" clip-rule="evenodd" d="M2135.69 0C2130 0 2126.9 4.88542 2125.3 10.369L2119.11 30.7083H2152.36L2146.17 10.369C2144.47 4.88542 2141.48 0 2135.79 0" fill="#DEEBC8"/>
<path fill-rule="evenodd" clip-rule="evenodd" d="M2168.94 0C2174.63 0 2177.73 4.88542 2179.32 10.369L2185.52 30.7083H2152.26L2158.45 10.369C2160.15 4.88542 2163.15 0 2168.84 0" fill="#DEEBC8"/>
<path fill-rule="evenodd" clip-rule="evenodd" d="M2202.09 0C2196.4 0 2193.3 4.88542 2191.71 10.369L2185.52 30.7083H2218.77L2212.58 10.369C2210.88 4.88542 2207.88 0 2202.19 0" fill="#DEEBC8"/>
<path fill-rule="evenodd" clip-rule="evenodd" d="M2235.34 0C2241.03 0 2244.13 4.88542 2245.73 10.369L2251.92 30.7083H2218.67L2224.86 10.369C2226.55 4.88542 2229.55 0 2235.24 0" fill="#DEEBC8"/>
<path fill-rule="evenodd" clip-rule="evenodd" d="M2268.49 0C2262.8 0 2259.71 4.88542 2258.11 10.369L2251.92 30.7083H2285.17L2278.98 10.369C2277.28 4.88542 2274.29 0 2268.59 0" fill="#DEEBC8"/>
<path fill-rule="evenodd" clip-rule="evenodd" d="M2301.75 0C2307.44 0 2310.53 4.88542 2312.13 10.369L2318.32 30.7083H2285.07L2291.26 10.369C2292.96 4.88542 2295.95 0 2301.65 0" fill="#DEEBC8"/>
<path fill-rule="evenodd" clip-rule="evenodd" d="M2334.9 0C2329.21 0 2326.11 4.88542 2324.51 10.369L2318.32 30.7083H2351.57L2345.38 10.369C2343.69 4.88542 2340.69 0 2335 0" fill="#DEEBC8"/>
<path fill-rule="evenodd" clip-rule="evenodd" d="M2368.15 0C2373.84 0 2376.94 4.88542 2378.54 10.369L2384.73 30.7083H2351.47L2357.67 10.369C2359.36 4.88542 2362.36 0 2368.05 0" fill="#DEEBC8"/>
<path fill-rule="evenodd" clip-rule="evenodd" d="M2401.4 0C2395.71 0 2392.61 4.88542 2391.02 10.369L2384.82 30.7083H2418.08L2411.88 10.369C2410.19 4.88542 2407.19 0 2401.5 0" fill="#DEEBC8"/>
<path fill-rule="evenodd" clip-rule="evenodd" d="M2024.97 634C2035.07 634 2040.67 640.08 2043.36 652.492C2062.43 741.316 1987.57 741.316 2006.64 652.492C2009.27 640.08 2014.93 634 2025.03 634" fill="#B9CF71"/>
<path fill-rule="evenodd" clip-rule="evenodd" d="M2025.05 697.249C2026.77 697.249 2028.2 698.503 2028.2 700.007V700.697L2030.93 698.315C2032.14 697.249 2034.22 697.249 2035.44 698.315C2036.66 699.38 2036.66 701.135 2035.44 702.264L2028.2 708.595V755.232C2028.2 756.737 2026.77 757.99 2025.05 757.99C2023.33 757.99 2021.89 756.737 2021.89 755.232V716.807C2021.89 716.807 2021.6 716.619 2021.46 716.493L2013.43 709.472C2012.21 708.407 2012.21 706.589 2013.43 705.523C2014.65 704.458 2016.73 704.458 2017.95 705.523L2021.96 709.034V700.133C2021.96 698.628 2023.4 697.374 2025.12 697.374" fill="#797979"/>
<path d="M1909.5 440.998L1909.5 636.996C1909.5 731.989 1832.49 808.996 1737.5 808.996L-7 808.996" stroke="white" stroke-width="5" stroke-dasharray="20 20"/>
<path d="M434.314 770.877C534.265 770.405 646.384 770.398 746.335 770.877C646.423 771.357 534.265 771.349 434.314 770.877Z" fill="#263238"/>
<path d="M503.914 520.737C509.026 539.985 517.677 558.629 523.842 560.098C531.308 561.869 534.383 541.539 533.345 540.99C532.571 540.596 521.062 527.79 510.427 516.739C500.607 506.539 502.644 515.974 503.914 520.737Z" fill="#D3766A"/>
<path d="M521.537 558.521C523.721 561.552 529.437 562.348 551.255 562C554.276 561.954 558.11 539.923 554.88 539.814C550.814 539.667 534.479 540.758 533.341 540.99C524.837 542.699 519.361 555.497 521.537 558.521Z" fill="#D3766A"/>
<path d="M546.817 561.923C549.858 562.891 552.963 563.643 556.111 564.173C558.597 564.467 565.777 565.124 566.373 562.425C566.784 560.577 562.609 559.696 559.666 559.007C558.117 558.644 556.08 557.461 556.351 556.425C556.831 554.677 560.828 555.698 563.515 556.711C568.72 558.683 575.853 562.588 578.355 559.703C579.3 558.621 577.751 557.175 575.621 555.837C578.951 557.229 582.429 558.25 583.529 557.074C583.81 556.775 583.967 556.379 583.967 555.968C583.967 555.558 583.81 555.162 583.529 554.863C583.941 554.973 584.377 554.958 584.781 554.82C585.185 554.683 585.539 554.428 585.798 554.089C586.611 552.898 585.883 551.468 584.551 550.091C584.729 550.04 584.893 549.946 585.028 549.818C585.163 549.69 585.265 549.532 585.325 549.357C586.874 545.854 574.978 538.492 571.245 538.237C563.854 537.865 556.445 538.384 549.179 539.783C545.577 543.835 546.809 561.915 546.817 561.923Z" fill="#D3766A"/>
<path d="M560.76 549.628C563.346 549.605 565.907 550.132 568.273 551.174C571.247 552.497 573.369 554.267 575.963 555.984C575.978 555.993 575.988 556.008 575.992 556.025C575.995 556.041 575.992 556.059 575.983 556.073C575.974 556.087 575.959 556.098 575.942 556.101C575.926 556.105 575.908 556.102 575.894 556.092C574.655 555.281 569.597 552.288 568.311 551.631C565.975 550.415 563.393 549.746 560.76 549.674V549.628Z" fill="#263238"/>
<path d="M561.989 544.817C564.926 545.017 567.835 545.514 570.671 546.302C573.73 547.269 576.333 549.248 578.881 551.143C580.43 552.28 581.917 553.463 583.388 554.662C583.45 554.708 583.388 554.816 583.319 554.77C580.732 552.806 578.083 550.903 575.372 549.109C572.869 547.418 570.055 546.238 567.093 545.637C565.396 545.289 563.685 545.08 561.973 544.864C561.958 544.864 561.958 544.817 561.989 544.817Z" fill="#263238"/>
<path d="M564.317 540.41C567.106 540.518 569.545 540.603 572.179 541.647C575.159 542.996 577.958 544.71 580.513 546.751C581.907 547.818 583.262 548.924 584.602 550.061C584.664 550.107 584.602 550.2 584.524 550.154C581.478 547.689 578.275 545.424 574.936 543.372C573.36 542.37 571.638 541.616 569.832 541.137C568.016 540.753 566.172 540.523 564.317 540.449C564.317 540.449 564.302 540.41 564.317 540.41Z" fill="#263238"/>
<path d="M533.345 540.99C529.782 542.142 527.249 544.663 524.686 547.308C526.312 544.045 529.503 541.052 533.345 540.99Z" fill="#263238"/>
<path d="M508.562 537.038L527.971 532.159C527.971 532.159 513.302 515.772 507.625 512.169C501.243 508.109 500.561 512.262 502.064 519.283C503.566 526.305 508.562 537.038 508.562 537.038Z" fill="#B7D487"/>
<path d="M508.233 533.604C508.884 533.341 514.917 531.764 516.234 531.455C517.55 531.145 522.941 529.807 524.327 529.599C524.338 529.603 524.346 529.61 524.352 529.619C524.358 529.627 524.362 529.638 524.362 529.649C524.362 529.66 524.358 529.67 524.352 529.679C524.346 529.688 524.338 529.695 524.327 529.699C523.003 530.163 517.581 531.516 516.242 531.864C514.902 532.212 508.899 533.635 508.218 533.697C508.179 533.728 508.171 533.651 508.233 533.604Z" fill="#263238"/>
<path opacity="0.1" d="M524.322 533.071L508.553 537.038C508.553 537.038 503.565 526.305 502.055 519.252C501.079 514.674 501.033 511.311 502.884 510.653L524.322 533.071Z" fill="black"/>
<path d="M472.45 762.387C470.599 761.714 428.869 728.562 428.086 726.289C427.769 725.43 459.919 684.731 459.919 684.731L485.54 705.611L464.86 732.862C464.86 732.862 475.146 752.689 475.75 755.288C476.354 757.886 474.294 763.059 472.45 762.387Z" fill="#D3766A"/>
<path d="M469.01 740.68C468.932 740.564 468.894 740.486 468.917 740.455C468.94 740.425 468.956 740.533 469.01 740.68Z" fill="#B7D487"/>
<path d="M472.534 763.199C470.66 762.503 428.457 728.64 427.682 726.335C427.38 725.461 431.973 718.455 438.332 711.735L465.525 733.597C465.525 733.597 475.353 753.362 475.95 755.984C476.546 758.605 474.401 763.887 472.534 763.199Z" fill="#B7D487"/>
<path d="M473.282 761.025C466.312 755.171 437.81 732.235 430.506 727C430.452 726.953 430.421 727 430.506 727.046C437.252 732.993 465.971 755.705 473.22 761.164C473.375 761.257 473.422 761.149 473.282 761.025Z" fill="#263238"/>
<path d="M474.426 752.295C473.656 751.643 472.758 751.158 471.79 750.871C470.822 750.583 469.805 750.5 468.803 750.625C466.99 750.827 465.324 751.722 464.156 753.123C464.156 753.169 464.195 753.231 464.241 753.192C465.611 751.995 467.332 751.272 469.147 751.133C470.962 750.993 472.773 751.445 474.31 752.419C474.411 752.45 474.481 752.342 474.426 752.295Z" fill="#263238"/>
<path d="M467.183 736.087C464.38 733.767 460.298 732.135 456.673 733.04C456.534 733.04 456.588 733.272 456.673 733.295C460.193 733.985 463.629 735.05 466.92 736.473C466.946 736.491 466.974 736.503 467.004 736.509C467.034 736.515 467.065 736.515 467.096 736.51C467.126 736.504 467.155 736.492 467.18 736.475C467.206 736.459 467.228 736.437 467.245 736.411C467.263 736.386 467.275 736.358 467.281 736.327C467.287 736.297 467.288 736.266 467.282 736.236C467.276 736.206 467.264 736.177 467.248 736.152C467.231 736.126 467.209 736.104 467.183 736.087Z" fill="#263238"/>
<path d="M468.646 738.692C465.843 736.372 461.761 734.741 458.136 735.645C457.997 735.645 458.051 735.877 458.136 735.901C461.656 736.591 465.091 737.657 468.383 739.079C468.434 739.114 468.497 739.127 468.558 739.115C468.619 739.104 468.673 739.068 468.708 739.017C468.743 738.966 468.756 738.903 468.745 738.842C468.733 738.781 468.698 738.727 468.646 738.692Z" fill="#263238"/>
<path d="M470.149 741.299C467.345 738.979 463.256 737.347 459.639 738.252C459.499 738.252 459.546 738.484 459.639 738.507C463.158 739.198 466.594 740.263 469.886 741.685C469.937 741.72 470 741.733 470.061 741.722C470.122 741.71 470.176 741.675 470.211 741.623C470.246 741.572 470.259 741.509 470.247 741.448C470.236 741.387 470.2 741.333 470.149 741.299Z" fill="#263238"/>
<path d="M471.651 743.897C468.847 741.577 464.758 739.953 461.141 740.858C461.001 740.858 461.048 741.09 461.141 741.113C464.66 741.803 468.095 742.865 471.388 744.284C471.413 744.301 471.442 744.313 471.472 744.319C471.502 744.326 471.533 744.326 471.563 744.32C471.593 744.314 471.622 744.303 471.648 744.286C471.673 744.269 471.696 744.247 471.713 744.222C471.73 744.196 471.742 744.168 471.748 744.138C471.755 744.108 471.755 744.077 471.749 744.047C471.743 744.016 471.732 743.988 471.715 743.962C471.698 743.936 471.676 743.914 471.651 743.897Z" fill="#263238"/>
<path d="M437.752 721.711C434.568 719.174 430.611 724.108 433.802 726.652C436.993 729.196 440.904 724.255 437.752 721.711Z" fill="white"/>
<path d="M476.27 730.99C475.789 728.67 473.055 728.369 471.173 728.894C467.97 729.848 465.077 731.63 462.785 734.06C462.774 734.069 462.765 734.08 462.759 734.093C462.752 734.105 462.749 734.119 462.749 734.134C462.749 734.148 462.752 734.162 462.759 734.174C462.765 734.187 462.774 734.198 462.785 734.207C462.754 734.27 462.738 734.339 462.738 734.408C462.739 734.478 462.755 734.547 462.787 734.609C462.818 734.672 462.864 734.726 462.92 734.767C462.977 734.809 463.042 734.837 463.111 734.849C466.209 735.073 469.57 735.699 472.684 734.957C474.527 734.524 476.727 733.202 476.27 730.99ZM467.951 734.215C466.402 734.145 464.853 733.998 463.304 733.983C464.909 732.928 466.566 731.955 468.269 731.067C469.111 730.66 469.981 730.311 470.871 730.023C472.234 729.583 476.92 729.451 474.744 732.753C473.512 734.54 469.802 734.308 467.951 734.215Z" fill="#263238"/>
<path d="M454.905 729.459C457.066 731.817 460.179 733.155 462.906 734.725C462.968 734.755 463.037 734.769 463.107 734.767C463.177 734.766 463.245 734.747 463.306 734.714C463.367 734.681 463.42 734.634 463.459 734.577C463.498 734.519 463.524 734.454 463.533 734.385C463.548 734.385 463.562 734.382 463.575 734.376C463.589 734.37 463.601 734.361 463.61 734.35C463.62 734.339 463.627 734.326 463.631 734.312C463.635 734.298 463.636 734.283 463.634 734.269C463.094 730.973 461.697 727.878 459.583 725.291C458.32 723.814 455.888 722.522 454.161 724.185C452.434 725.847 453.642 728.09 454.905 729.459ZM454.494 726.481C454.494 722.514 458.328 725.244 459.219 726.373C459.786 727.112 460.303 727.887 460.768 728.693C461.736 730.356 462.449 732.134 463.246 733.882C461.953 733.031 460.605 732.297 459.281 731.492C457.685 730.549 454.471 728.662 454.494 726.481Z" fill="#263238"/>
<path d="M446.65 701.636L473.116 722.786C473.116 722.786 516.914 671.183 518.517 663.435C520.345 654.627 525.418 585.625 525.302 582.184C525.155 578.016 520.554 559.688 520.554 559.688H487.746C487.746 559.688 483.161 649.925 482.208 652.694C481.178 655.725 446.65 701.636 446.65 701.636Z" fill="#B7D487"/>
<path d="M475.702 715.942C471.473 711.866 454.976 698.782 452.924 697.715C452.877 697.715 452.815 697.769 452.846 697.808C454.341 699.571 468.375 711.085 475.594 716.073C475.702 716.104 475.772 716.003 475.702 715.942Z" fill="#263238"/>
<path d="M522.17 573.252C521.733 573.119 521.288 573.016 520.838 572.942C520.362 572.806 519.898 572.63 519.451 572.417C518.524 571.949 517.673 571.344 516.926 570.622C516.083 569.728 515.422 568.677 514.982 567.529C514.696 566.872 513.356 563.353 513.34 563.33C513.325 563.307 513.209 563.33 513.224 563.384C513.317 563.872 514.231 566.903 514.502 567.661C514.915 568.999 515.607 570.235 516.531 571.288C517.323 572.106 518.278 572.749 519.335 573.174C519.817 573.37 520.322 573.505 520.838 573.577C521.293 573.681 521.769 573.651 522.208 573.491C522.286 573.437 522.239 573.283 522.17 573.252Z" fill="#263238"/>
<path d="M493.162 561.289L492.472 579.408L491.698 597.526L489.947 633.755C489.622 639.795 489.297 645.827 488.917 651.866C488.917 652.639 488.817 653.413 488.739 654.186C488.736 654.305 488.712 654.423 488.669 654.534C488.628 654.633 488.579 654.729 488.522 654.82L488.22 655.33C488.003 655.655 487.786 655.965 487.57 656.274C486.694 657.519 485.781 658.725 484.867 659.932C483.031 662.344 481.149 664.711 479.267 667.077C475.487 671.81 471.684 676.516 467.858 681.197L456.279 695.156L467.564 680.942C471.32 676.202 475.084 671.469 478.794 666.698C480.653 664.306 482.497 661.909 484.324 659.506C485.238 658.3 486.137 657.094 487.004 655.864C487.221 655.555 487.43 655.245 487.632 654.936C487.81 654.619 488.065 654.31 488.05 654.047C488.112 653.32 488.174 652.585 488.212 651.82C488.569 645.796 488.863 639.756 489.173 633.717L491.086 597.495L492.085 579.392L493.162 561.289Z" fill="#263238"/>
<path d="M519.175 658.625C518.935 660.852 518.718 662.491 518.516 663.435C517.618 667.788 503.406 685.969 491.122 701.079L482.672 648.177C484.174 629.402 487.722 559.681 487.722 559.681H504.072L519.175 658.625Z" fill="#263238"/>
<path d="M565.199 761.358C563.48 762.301 510.983 771.728 508.76 770.816C507.908 770.483 498.506 719.507 498.506 719.507L531.105 714.094L537.983 747.609C537.983 747.609 559.669 752.975 562.031 754.228C564.394 755.481 566.926 760.422 565.199 761.358Z" fill="#D3766A"/>
<path d="M546.609 749.611C546.462 749.611 546.385 749.573 546.369 749.534L546.609 749.611Z" fill="#B7D487"/>
<path d="M566.111 761.528C564.353 762.471 511.005 771.743 508.751 770.808C507.891 770.46 505.653 762.386 504.809 753.176L539.212 747.245C539.212 747.245 560.566 752.944 562.936 754.205C565.306 755.465 567.869 760.577 566.111 761.528Z" fill="#B7D487"/>
<path d="M564.97 759.533C555.993 760.863 519.893 767.096 511.118 769.091C511.048 769.091 511.056 769.161 511.118 769.153C520.048 768.024 556.094 761.497 564.993 759.672C565.187 759.634 565.163 759.502 564.97 759.533Z" fill="#263238"/>
<path d="M559.16 752.906C558.162 753.051 557.206 753.401 556.35 753.933C555.494 754.466 554.758 755.169 554.188 755.999C553.157 757.494 552.739 759.325 553.018 761.118C553.018 761.172 553.134 761.118 553.126 761.118C553.124 759.298 553.712 757.527 554.802 756.069C555.893 754.61 557.427 753.544 559.175 753.029C559.192 753.027 559.207 753.019 559.217 753.006C559.227 752.993 559.232 752.976 559.23 752.96C559.228 752.943 559.219 752.929 559.206 752.918C559.193 752.908 559.176 752.904 559.16 752.906Z" fill="#263238"/>
<path d="M542.169 747.655C538.576 748.228 534.649 750.207 532.937 753.517C532.867 753.648 533.053 753.741 533.146 753.664C535.994 751.485 539.066 749.613 542.309 748.081C542.362 748.059 542.404 748.019 542.428 747.967C542.452 747.916 542.456 747.857 542.438 747.803C542.421 747.749 542.383 747.704 542.333 747.676C542.283 747.649 542.225 747.641 542.169 747.655Z" fill="#263238"/>
<path d="M545.122 748.25C541.529 748.822 537.602 750.802 535.89 754.112C535.821 754.243 536.006 754.336 536.099 754.259C538.947 752.08 542.019 750.208 545.262 748.675C545.315 748.654 545.358 748.614 545.382 748.562C545.406 748.51 545.409 748.452 545.391 748.398C545.374 748.344 545.336 748.298 545.286 748.271C545.236 748.243 545.178 748.236 545.122 748.25Z" fill="#263238"/>
<path d="M548.073 748.846C544.48 749.418 540.553 751.398 538.841 754.707C538.772 754.839 538.957 754.932 539.05 754.854C541.898 752.675 544.97 750.804 548.213 749.271C548.266 749.25 548.308 749.209 548.332 749.158C548.357 749.106 548.36 749.047 548.342 748.993C548.325 748.939 548.287 748.894 548.237 748.867C548.187 748.839 548.129 748.832 548.073 748.846Z" fill="#263238"/>
<path d="M551.025 749.442C547.431 750.014 543.504 751.993 541.793 755.303C541.723 755.435 541.909 755.527 542.002 755.45C544.849 753.269 547.92 751.398 551.164 749.867C551.217 749.846 551.26 749.805 551.284 749.753C551.308 749.702 551.311 749.643 551.294 749.589C551.276 749.535 551.238 749.49 551.188 749.462C551.139 749.435 551.08 749.427 551.025 749.442Z" fill="#263238"/>
<path d="M511.917 760.182C507.905 760.893 509.004 767.142 513.024 766.415C517.044 765.688 515.975 759.509 511.917 760.182Z" fill="white"/>
<path d="M544.377 737.447C542.301 736.264 540.272 738.12 539.428 739.875C538.03 742.909 537.459 746.256 537.77 749.58C537.77 749.658 537.84 749.673 537.894 749.665C537.92 749.73 537.962 749.788 538.015 749.834C538.068 749.88 538.131 749.913 538.199 749.929C538.267 749.946 538.338 749.946 538.407 749.93C538.475 749.913 538.538 749.881 538.591 749.836C540.83 747.632 543.502 745.559 545.004 742.737C545.88 741.082 546.336 738.569 544.377 737.447ZM541.279 745.807C540.202 746.912 539.072 747.964 538.041 749.116C538.308 747.217 538.673 745.333 539.134 743.471C539.367 742.572 539.665 741.691 540.024 740.834C540.59 739.512 543.587 735.916 544.617 739.744C545.221 741.855 542.588 744.484 541.31 745.807H541.279Z" fill="#263238"/>
<path d="M529.144 752.45C532.342 752.388 535.409 750.942 538.383 749.936C538.447 749.909 538.504 749.866 538.548 749.813C538.592 749.759 538.623 749.696 538.638 749.628C538.653 749.56 538.652 749.489 538.635 749.422C538.618 749.355 538.584 749.292 538.538 749.24C538.538 749.194 538.593 749.124 538.538 749.086C535.706 747.31 532.455 746.312 529.113 746.193C527.168 746.155 524.589 747.129 524.713 749.511C524.783 751.761 527.238 752.488 529.144 752.45ZM526.634 750.787C523.675 748.142 528.237 747.098 529.67 747.183C530.6 747.253 531.523 747.385 532.435 747.578C534.307 747.997 536.155 748.514 537.973 749.124C536.478 749.526 535.03 750.052 533.558 750.516C531.754 751.088 528.222 752.248 526.595 750.787H526.634Z" fill="#263238"/>
<path d="M514.02 559.688C514.02 559.688 513.16 573.693 509.287 583.661C509.287 583.661 503.703 587.133 503.091 587.682L536.326 737.192L502.247 743.812C502.247 743.812 488.864 671.384 487.74 666.42C485.913 658.447 471.476 590.636 470.802 586.816C469.462 578.758 476.913 559.688 476.913 559.688H514.02Z" fill="#B7D487"/>
<path d="M532.885 729.73C523.514 731.13 505.591 734.926 503.384 735.839C503.337 735.839 503.384 735.955 503.384 735.955C505.777 735.916 527.611 731.594 532.901 729.9C532.912 729.899 532.923 729.896 532.933 729.891C532.943 729.885 532.951 729.878 532.959 729.87C532.966 729.861 532.971 729.851 532.975 729.84C532.978 729.83 532.979 729.818 532.978 729.807C532.977 729.796 532.974 729.785 532.969 729.775C532.963 729.765 532.956 729.756 532.948 729.749C532.939 729.742 532.929 729.737 532.918 729.733C532.908 729.73 532.896 729.729 532.885 729.73Z" fill="#263238"/>
<path d="M481.12 573.26C481.819 573.16 482.522 573.095 483.227 573.066C483.956 572.98 484.678 572.843 485.388 572.656C486.743 572.318 488.045 571.797 489.261 571.11C490.436 570.367 491.406 569.34 492.08 568.125C492.475 567.483 494.287 564.042 494.31 564.019C494.334 563.995 494.527 564.019 494.504 564.08C494.026 565.515 493.475 566.924 492.854 568.303C492.24 569.721 491.232 570.933 489.95 571.798C488.629 572.602 487.172 573.16 485.651 573.445C484.871 573.604 484.078 573.695 483.281 573.716C482.542 573.778 481.796 573.708 481.082 573.507C480.942 573.43 481.012 573.283 481.12 573.26Z" fill="#263238"/>
<path d="M510.103 583.29C506.995 584.387 503.988 585.753 501.119 587.373C501.106 587.378 501.095 587.385 501.086 587.395C501.077 587.404 501.069 587.415 501.064 587.427C501.059 587.44 501.057 587.453 501.057 587.466C501.057 587.479 501.059 587.492 501.064 587.504C501.069 587.516 501.077 587.527 501.086 587.537C501.096 587.546 501.107 587.553 501.119 587.559C501.131 587.564 501.144 587.566 501.158 587.566C501.171 587.566 501.184 587.563 501.196 587.558C504.224 586.29 507.307 585.084 510.258 583.653C510.297 583.627 510.325 583.588 510.339 583.543C510.352 583.499 510.349 583.451 510.331 583.407C510.313 583.364 510.28 583.329 510.238 583.308C510.197 583.286 510.149 583.28 510.103 583.29Z" fill="#263238"/>
<path d="M511.247 562.65C511.247 562.549 511.053 562.518 511.053 562.65C511.023 566.009 510.824 569.364 510.457 572.703C510.302 574.249 508.977 582.802 506.29 582.153C505.841 582.044 505.616 581.604 505.515 580.923C505.533 580.036 505.663 579.156 505.903 578.302C506.212 576.507 506.468 574.713 506.677 572.888C507.029 569.518 507.029 566.121 506.677 562.75C506.677 562.728 506.668 562.706 506.652 562.69C506.636 562.674 506.614 562.665 506.592 562.665C506.569 562.665 506.548 562.674 506.532 562.69C506.516 562.706 506.507 562.728 506.507 562.75C506.545 567.428 506.229 572.102 505.562 576.732C505.198 578.959 504.013 582.3 506.375 582.663C508.737 583.026 510.34 577.435 510.643 575.897C511.416 571.526 511.619 567.073 511.247 562.65Z" fill="#263238"/>
<path d="M506.362 582.369C506.117 582.945 505.91 583.537 505.742 584.14C505.563 584.606 505.474 585.102 505.479 585.602C505.479 585.694 505.61 585.702 505.665 585.602C505.948 585.165 506.162 584.688 506.3 584.186C506.509 583.637 506.733 583.096 506.927 582.547C506.935 582.478 506.918 582.408 506.88 582.349C506.842 582.29 506.784 582.247 506.718 582.226C506.651 582.205 506.579 582.208 506.514 582.234C506.449 582.26 506.395 582.308 506.362 582.369Z" fill="#263238"/>
<path d="M479.707 559.688C478.778 563.241 477.908 566.805 477.097 570.383C476.323 573.964 475.548 577.56 475.091 581.21L474.967 582.571C474.967 583.027 474.967 583.475 474.967 583.924L475.37 586.623L476.392 592.036L478.592 602.862L487.599 645.974L496.615 689.039L501.091 710.599L505.514 732.174L500.72 710.676L496.026 689.163L486.833 646.09C483.859 631.714 480.853 617.338 478.003 602.939L475.912 592.113L474.936 586.7L474.557 583.947C474.569 583.018 474.636 582.091 474.758 581.171C475.277 577.521 476.098 573.94 476.95 570.345C477.802 566.749 478.716 563.222 479.707 559.688Z" fill="#263238"/>
<path d="M505.243 482.613C507.241 481.152 511.834 470.48 502.664 465.314C493.633 460.234 482.604 471.903 489.234 480.525C493.695 486.317 500.991 485.714 505.243 482.613Z" fill="#263238"/>
<path d="M522.31 563.307L520.847 549.581C520.847 549.581 526.307 541.075 523.697 534.633C522.388 531.377 513.055 515.3 507.812 511.101C502.893 507.15 494.924 510.405 492.391 513.506C485.103 522.415 481.13 531.022 475.824 561.018L522.31 563.307Z" fill="#B7D487"/>
<path d="M512.102 546.751C509.761 546.868 507.431 547.154 505.131 547.609C503.993 547.857 502.87 548.151 501.747 548.468C501.189 548.63 500.624 548.769 500.058 548.908C499.47 549.069 498.864 549.158 498.254 549.171C498.199 549.171 498.199 549.249 498.254 549.256C498.828 549.308 499.405 549.321 499.981 549.295C500.536 549.251 501.087 549.168 501.63 549.048C502.792 548.816 503.954 548.522 505.1 548.274C507.424 547.779 509.747 547.277 512.141 546.944C512.162 546.935 512.18 546.919 512.191 546.899C512.202 546.878 512.205 546.855 512.201 546.832C512.196 546.809 512.184 546.788 512.166 546.774C512.148 546.759 512.125 546.751 512.102 546.751Z" fill="#263238"/>
<path d="M517.775 549.071C515.855 548.793 513.921 548.622 511.982 548.561C511.014 548.561 510.054 548.561 509.085 548.615C508.621 548.615 508.156 548.677 507.699 548.715C507.242 548.754 506.684 548.87 506.15 548.909C506.096 548.909 506.096 548.994 506.15 548.986C506.63 548.986 507.11 549.025 507.591 549.032H509.039C510.007 549.032 510.975 549.071 511.943 549.079C513.88 549.079 515.816 549.125 517.737 549.202C517.876 549.249 517.868 549.071 517.775 549.071Z" fill="#263238"/>
<path d="M491.725 515.045C475.956 527.24 460.265 549.952 462.72 556.386C465.454 563.547 483.306 550.671 483.384 549.504C483.446 548.63 491.904 533.566 497.952 519.484C503.537 506.462 495.629 512.014 491.725 515.045Z" fill="#D3766A"/>
<path d="M492.391 536.907L473.152 531.385C473.152 531.385 488.364 515.494 494.157 512.053C500.671 508.186 501.213 512.377 499.478 519.353C497.743 526.328 492.391 536.907 492.391 536.907Z" fill="#B7D487"/>
<path d="M492.849 533.512C492.214 533.226 486.227 531.447 484.918 531.092C483.609 530.736 478.281 529.228 476.902 528.973C476.89 528.973 476.878 528.978 476.869 528.986C476.86 528.995 476.855 529.007 476.855 529.019C476.855 529.031 476.86 529.043 476.869 529.052C476.878 529.061 476.89 529.065 476.902 529.065C478.203 529.576 483.578 531.115 484.903 531.501C486.227 531.888 492.183 533.512 492.865 533.605C492.888 533.605 492.888 533.527 492.849 533.512Z" fill="#263238"/>
<path d="M490.045 536.234C490.819 536.388 491.64 536.574 492.43 536.759L492.252 536.837L495.188 530.457C496.063 528.586 497.279 525.926 498.177 524.093C496.771 528.582 494.878 532.905 492.531 536.984L492.461 537.1C491.687 536.821 490.843 536.543 490.045 536.234Z" fill="#263238"/>
<path d="M496.131 529.034C496.797 528.169 497.519 527.347 498.292 526.575C498.119 527.111 497.838 527.605 497.467 528.028C497.095 528.451 496.64 528.794 496.131 529.034Z" fill="#263238"/>
<path d="M463.519 557.515C465.424 560.724 471.829 564.537 493.516 566.137C496.529 566.362 502.307 544.755 499.1 544.361C495.065 543.858 481.495 543.487 480.341 543.588C471.744 544.57 461.621 554.306 463.519 557.515Z" fill="#D3766A"/>
<path d="M491.734 544.964C491.734 544.964 499.952 544.291 505.458 544.307C508.556 544.307 513.792 544.786 516.046 545.854C519.423 547.4 532.535 556.022 530.514 559.247C528.678 562.162 518.354 553.324 518.354 553.324C518.354 553.324 529.561 561.32 526.703 564.428C523.845 567.537 513.537 555.999 513.537 555.999C513.537 555.999 524.868 564.506 521.421 567.204C518.811 569.277 508.859 559.355 508.859 559.355C508.859 559.355 518.548 566.709 515.961 568.952C513.103 571.427 503.336 562.843 503.336 562.843C495.792 567.436 490.324 566.539 486.506 565.441C485.553 565.147 491.734 544.964 491.734 544.964Z" fill="#D3766A"/>
<path d="M514.652 550.277C516.007 551.174 517.378 552.063 518.64 553.076C519.903 554.089 521.142 555.133 522.312 556.255C523.866 557.691 525.248 559.303 526.432 561.057C524.108 558.103 519.624 554.422 518.354 553.409C517.084 552.396 515.875 551.336 514.613 550.316C514.582 550.3 514.621 550.254 514.652 550.277Z" fill="#263238"/>
<path d="M510.918 554.777C512.598 555.991 514.302 557.136 515.929 558.42C517.555 559.703 518.957 561.064 520.483 562.449C520.599 562.557 520.483 562.588 520.382 562.449C518.833 561.126 517.245 560.02 515.65 558.706C514.054 557.391 512.552 556.03 510.887 554.785L510.918 554.777Z" fill="#263238"/>
<path d="M507.023 558.064C509.637 559.874 512.059 561.947 514.249 564.251C514.365 564.367 514.249 564.39 514.11 564.251C511.747 562.155 509.912 560.5 506.961 558.157C506.914 558.118 506.969 558.033 507.023 558.064Z" fill="#263238"/>
<path d="M502.809 544.346C506.432 544.252 510.057 544.438 513.652 544.902C514.565 545.039 515.451 545.318 516.278 545.73C518.706 546.974 521.037 548.401 523.248 549.998C525.262 551.545 533.317 557.036 530.312 559.812C528.205 561.204 523.883 558.01 522.218 556.672L522.427 556.432C524.17 558.242 526.362 560.051 527.129 562.503C526.261 560.082 523.992 558.428 522.218 556.672L522.427 556.432C523.976 557.639 528.089 560.477 529.987 559.425C532.387 557.105 524.627 551.785 522.923 550.439C520.019 548.521 517.037 546.062 513.629 545.297C510.046 544.752 506.432 544.434 502.809 544.346Z" fill="#263238"/>
<path d="M496.508 544.09C494.518 544.09 492.535 543.99 490.544 543.936C488.554 543.882 486.579 543.789 484.596 543.789C482.628 543.678 480.655 543.805 478.718 544.168C476.773 544.545 474.852 545.033 472.963 545.629C474.78 544.799 476.673 544.146 478.617 543.681C480.581 543.245 482.593 543.066 484.604 543.147C486.602 543.201 488.593 543.286 490.575 543.449C492.558 543.611 494.541 543.804 496.508 544.09Z" fill="#263238"/>
<path d="M499.059 511.527C499.175 512.408 510.677 527.078 513.372 527.24C514.875 527.333 508.601 512.547 508.601 512.547L511.134 504.884L501.902 497.669C501.902 497.669 499.013 511.179 499.059 511.527Z" fill="#D3766A"/>
<path d="M500.84 502.673C501.441 504.697 502.452 506.576 503.811 508.194C505.17 509.812 506.848 511.133 508.74 512.076L511.133 504.838L501.901 497.623L500.84 502.673Z" fill="#263238"/>
<path d="M522.271 493.501C523.045 506.694 515.246 508.666 512.396 508.836C509.809 508.991 500.98 509.184 498.811 496.146C496.642 483.108 502.536 478.553 508.438 477.927C514.34 477.301 521.465 480.301 522.271 493.501Z" fill="#D3766A"/>
<path d="M519.478 491.073C519.176 491.032 518.876 490.975 518.579 490.903C518.254 490.89 517.943 490.767 517.697 490.555C517.632 490.473 517.598 490.373 517.598 490.269C517.598 490.165 517.632 490.065 517.697 489.983C517.844 489.837 518.028 489.732 518.229 489.679C518.43 489.626 518.642 489.627 518.843 489.681C519.266 489.733 519.655 489.94 519.935 490.261C519.994 490.34 520.028 490.435 520.034 490.533C520.04 490.631 520.018 490.729 519.97 490.815C519.921 490.901 519.849 490.971 519.762 491.017C519.675 491.062 519.576 491.082 519.478 491.073Z" fill="#263238"/>
<path d="M510.677 491.359C510.987 491.313 511.266 491.22 511.568 491.151C511.892 491.12 512.196 490.984 512.435 490.764C512.499 490.68 512.533 490.579 512.533 490.474C512.533 490.369 512.499 490.267 512.435 490.184C512.282 490.046 512.094 489.95 511.891 489.908C511.688 489.866 511.478 489.879 511.281 489.944C510.861 490.015 510.482 490.242 510.22 490.578C510.164 490.656 510.132 490.748 510.128 490.844C510.123 490.94 510.146 491.034 510.195 491.117C510.243 491.2 510.314 491.267 510.4 491.31C510.486 491.353 510.582 491.37 510.677 491.359Z" fill="#263238"/>
<path d="M512.651 494.653C512.651 494.653 512.581 494.7 512.589 494.738C512.659 495.635 512.589 496.672 511.814 497.012C511.814 497.012 511.814 497.066 511.814 497.058C512.783 496.873 512.876 495.496 512.651 494.653Z" fill="#263238"/>
<path d="M511.809 493.749C510.353 493.749 510.376 496.618 511.724 496.657C513.071 496.695 513.025 493.788 511.809 493.749Z" fill="#263238"/>
<path d="M511.235 493.911C510.98 494.074 510.732 494.368 510.461 494.406C510.19 494.445 509.834 494.136 509.601 493.85H509.555C509.555 494.406 509.764 494.979 510.368 495.056C510.972 495.133 511.297 494.631 511.437 494.066C511.429 493.997 511.328 493.842 511.235 493.911Z" fill="#263238"/>
<path d="M517.812 494.422C517.812 494.422 517.881 494.468 517.881 494.499C517.881 495.404 517.974 496.44 518.788 496.734V496.788C517.781 496.649 517.641 495.273 517.812 494.422Z" fill="#263238"/>
<path d="M518.613 493.479C520.061 493.37 520.162 496.278 518.829 496.378C517.497 496.479 517.397 493.579 518.613 493.479Z" fill="#263238"/>
<path d="M519.231 493.648C519.464 493.795 519.704 494.066 520.006 494.074C520.308 494.081 520.548 493.757 520.734 493.447H520.78C520.819 494.004 520.664 494.584 520.13 494.715C519.595 494.847 519.27 494.367 519.115 493.818C519.077 493.749 519.138 493.594 519.231 493.648Z" fill="#263238"/>
<path d="M516.622 498.899C516.622 498.899 516.769 500.245 516.754 500.879C516.754 500.941 516.599 500.964 516.382 500.972C515.834 501.056 515.273 500.988 514.76 500.776C514.248 500.563 513.804 500.213 513.478 499.765C513.439 499.703 513.478 499.641 513.578 499.68C514.372 500.256 515.331 500.56 516.312 500.546C516.359 500.368 515.979 498.226 516.08 498.226C516.571 498.289 517.052 498.411 517.513 498.59C517.281 495.775 516.599 493.014 516.405 490.207C516.405 490.185 516.414 490.163 516.43 490.147C516.446 490.131 516.468 490.122 516.491 490.122C516.513 490.122 516.535 490.131 516.551 490.147C516.567 490.163 516.576 490.185 516.576 490.207C517.39 493.144 517.909 496.154 518.125 499.193C518.171 499.525 516.87 499.015 516.622 498.899Z" fill="#263238"/>
<path d="M515.975 500.84C515.635 501.287 515.188 501.641 514.674 501.868C514.387 501.977 514.074 501.999 513.775 501.93C513.125 501.768 513.109 501.157 513.226 500.662C513.288 500.394 513.382 500.135 513.504 499.889C514.205 500.462 515.071 500.795 515.975 500.84Z" fill="#263238"/>
<path d="M514.707 501.9C514.42 502.009 514.108 502.03 513.809 501.962C513.158 501.799 513.143 501.188 513.259 500.693C513.599 500.707 513.926 500.833 514.188 501.051C514.45 501.269 514.632 501.567 514.707 501.9Z" fill="#FF9BBC"/>
<path d="M513.804 480.479C514.096 481.619 514.039 482.82 513.642 483.928C512.217 486.905 508.638 486.116 507.446 487.292C506.253 488.467 506.671 490.679 505.664 491.785C504.224 493.331 502.272 492.713 502.032 493.749C501.792 494.785 501.11 498.048 499.801 498.466C498.492 498.883 492.505 477.076 509.599 477.788C509.599 477.788 511.922 476.829 515.586 478.669C519.605 480.711 521.348 487.338 521.348 487.338C521.348 487.338 521.255 487.245 520.674 486.727C519.853 486 519.528 485.32 518.924 484.848C517.979 484.075 517.46 484.384 516.469 483.657C515.392 482.77 514.489 481.693 513.804 480.479Z" fill="#263238"/>
<path d="M513.542 479.527C513.813 480.378 513.982 481.258 514.046 482.149C514.152 483.017 514.024 483.899 513.674 484.701C513.233 485.439 512.536 485.99 511.714 486.247C510.901 486.549 510.003 486.634 509.127 487.021C508.674 487.201 508.278 487.5 507.981 487.887C507.729 488.288 507.558 488.734 507.478 489.201C507.389 490.066 507.059 490.889 506.525 491.575C506.233 491.897 505.873 492.149 505.471 492.315C505.069 492.481 504.636 492.556 504.202 492.534C503.342 492.534 502.389 492.295 501.553 492.673C502.42 492.364 503.295 492.673 504.202 492.743C504.667 492.778 505.134 492.712 505.572 492.549C506.009 492.386 506.405 492.13 506.734 491.8C507.333 491.085 507.709 490.212 507.819 489.286C507.895 488.872 508.05 488.476 508.276 488.119C508.535 487.802 508.875 487.559 509.259 487.415C510.034 487.083 510.955 486.974 511.815 486.642C512.252 486.484 512.662 486.259 513.031 485.977C513.434 485.702 513.757 485.326 513.968 484.886C514.309 484.022 514.406 483.08 514.247 482.164C514.117 481.261 513.881 480.375 513.542 479.527Z" fill="#263238"/>
<path d="M513.879 480.309C514.045 481.131 514.321 481.926 514.7 482.675C515.075 483.461 515.673 484.119 516.419 484.569C516.796 484.759 517.19 484.912 517.597 485.026C517.956 485.146 518.275 485.363 518.518 485.652C518.742 486.015 519.001 486.354 519.293 486.665C519.603 486.954 519.973 487.171 520.377 487.299C520.019 487.105 519.704 486.842 519.448 486.526C519.206 486.195 518.996 485.843 518.82 485.474C518.565 485.096 518.196 484.809 517.767 484.655C517.382 484.538 517.008 484.385 516.652 484.198C515.976 483.781 515.419 483.198 515.033 482.505C514.598 481.8 514.212 481.067 513.879 480.309Z" fill="#263238"/>
<path d="M501.412 496.881C501.412 496.881 498.415 492.829 496.564 493.911C494.713 494.994 497.044 500.871 499.267 501.644C499.545 501.762 499.844 501.821 500.145 501.82C500.447 501.819 500.746 501.757 501.023 501.638C501.3 501.519 501.55 501.345 501.758 501.127C501.966 500.908 502.128 500.651 502.233 500.368L501.412 496.881Z" fill="#D3766A"/>
<path d="M497.281 495.589V495.651C498.83 496.231 499.698 497.638 500.302 499.107C500.208 498.955 500.083 498.825 499.934 498.726C499.785 498.627 499.617 498.562 499.44 498.534C499.264 498.506 499.083 498.516 498.911 498.565C498.739 498.613 498.579 498.698 498.443 498.814C498.404 498.814 498.443 498.906 498.489 498.899C498.761 498.799 499.057 498.789 499.336 498.868C499.614 498.947 499.86 499.112 500.039 499.339C500.341 499.712 500.6 500.116 500.813 500.546C500.89 500.677 501.138 500.6 501.076 500.437C500.999 498.442 499.396 495.713 497.281 495.589Z" fill="#263238"/>
<path d="M499.059 511.52L513.364 527.241L508.601 512.517L514.332 517.953L512.458 519.106L514.967 521.426L514.479 529.53L504.039 523.251L505.2 520.211L501.049 520.003L499.059 511.52Z" fill="#B7D487"/>
<path opacity="0.5" d="M499.059 511.52L513.364 527.241L508.601 512.517L514.332 517.953L512.458 519.106L514.967 521.426L514.479 529.53L504.039 523.251L505.2 520.211L501.049 520.003L499.059 511.52Z" fill="white"/>
<path d="M556.254 710.359C556.254 677.88 577.46 651.456 603.499 651.456C629.538 651.456 650.745 677.88 650.745 710.359C650.745 742.837 629.538 769.261 603.499 769.261C577.46 769.261 556.254 742.837 556.254 710.359ZM560.986 710.359C560.986 740.231 580.07 764.536 603.522 764.536C626.975 764.536 646.059 740.231 646.059 710.359C646.059 680.486 626.936 656.181 603.499 656.181C580.062 656.181 560.947 680.486 560.947 710.359H560.986Z" fill="#263238"/>
<path d="M557.934 710.359C557.934 681.569 576.692 658.146 599.757 658.146C622.822 658.146 641.581 681.569 641.581 710.359C641.581 739.149 622.83 762.572 599.757 762.572C576.685 762.572 557.934 739.149 557.934 710.359ZM561.318 710.359C561.318 737.293 578.559 759.201 599.75 759.201C620.94 759.201 638.189 737.293 638.189 710.359C638.189 683.425 620.948 661.517 599.75 661.517C578.551 661.517 561.318 683.425 561.318 710.359Z" fill="#C7C7C7"/>
<path d="M594.582 710.359C594.582 715.076 597.618 718.865 601.359 718.865C605.1 718.865 608.144 715.045 608.144 710.359C608.144 705.673 605.108 701.853 601.359 701.853C597.61 701.853 594.582 705.642 594.582 710.359Z" fill="#C7C7C7"/>
<path d="M599.189 718.896C602.932 718.896 605.966 715.074 605.966 710.359C605.966 705.644 602.932 701.821 599.189 701.821C595.446 701.821 592.412 705.644 592.412 710.359C592.412 715.074 595.446 718.896 599.189 718.896Z" fill="#DBDBDB"/>
<path d="M599.191 708.673H537.803V712.044H599.191V708.673Z" fill="#C7C7C7"/>
<path d="M661.48 759.773C661.48 765.905 665.43 770.877 670.302 770.877C675.174 770.877 679.116 765.905 679.116 759.773C679.116 753.64 675.166 748.668 670.302 748.668C665.438 748.668 661.48 753.64 661.48 759.773Z" fill="#C7C7C7"/>
<path d="M667.472 770.877C672.344 770.877 676.294 765.906 676.294 759.773C676.294 753.64 672.344 748.668 667.472 748.668C662.6 748.668 658.65 753.64 658.65 759.773C658.65 765.906 662.6 770.877 667.472 770.877Z" fill="#DBDBDB"/>
<path d="M598.959 659.05H668.805V632.123H598.959V659.05Z" fill="#A6A6A6"/>
<path d="M610.282 723.838H668.804V720.458H610.282C607.737 720.456 605.296 719.446 603.496 717.65C601.695 715.854 600.682 713.418 600.678 710.877V572.27C600.674 568.834 599.305 565.54 596.871 563.11C594.438 560.68 591.139 559.314 587.697 559.31H579.812V562.681H587.697C590.244 562.683 592.685 563.694 594.486 565.492C596.286 567.29 597.299 569.728 597.301 572.27V710.861C597.301 714.3 598.668 717.598 601.102 720.031C603.536 722.464 606.838 723.833 610.282 723.838Z" fill="#C7C7C7"/>
<path d="M667.112 748.668H670.489V615.738C670.485 612.644 669.252 609.678 667.061 607.491C664.871 605.303 661.9 604.072 658.802 604.068H598.986V607.44H658.802C661.005 607.442 663.118 608.317 664.676 609.873C666.234 611.428 667.11 613.537 667.112 615.738V748.668Z" fill="#C7C7C7"/>
<path d="M569.34 564.259H590.275V557.554H569.34V564.259Z" fill="#263238"/>
<path d="M537.791 653.814H597.467V572.2H537.791V653.814Z" fill="#263238"/>
<path d="M592.094 548.545C588.577 567.359 589.847 593.396 593.805 597.735C598.778 603.148 610.697 581.596 610.008 580.722C609.489 580.049 605.516 562.023 601.364 549.651C597.043 536.752 592.961 543.89 592.094 548.545Z" fill="#F7A9A0"/>
<path d="M593.015 596.513C595.184 601.354 602.596 602.568 625.87 604.64C629.092 604.927 637.232 582.779 633.809 582.3C629.502 581.689 610.798 579.601 609.551 579.647C599.033 580.08 591.381 592.863 593.015 596.513Z" fill="#F7A9A0"/>
<path d="M609.555 579.647C604.846 580.42 600.811 582.941 597.295 586.073C600.029 582.16 604.676 579.353 609.555 579.647Z" fill="#263238"/>
<path d="M622.295 604.177C625.237 605.805 628.291 607.224 631.434 608.422C633.936 609.242 641.216 611.399 642.394 608.732C643.168 606.914 639.063 605.143 636.197 603.821C634.648 603.125 632.821 601.447 633.309 600.473C634.168 598.764 638.087 600.643 640.651 602.244C645.616 605.337 652.176 610.866 655.367 608.43C656.567 607.494 655.274 605.685 653.345 603.891C656.497 606.017 659.874 607.757 661.253 606.806C662.027 606.249 662.097 605.445 661.702 604.486C662.102 604.689 662.553 604.769 662.999 604.715C663.444 604.662 663.864 604.477 664.204 604.185C665.288 603.125 664.831 601.493 663.739 599.8C663.937 599.784 664.129 599.722 664.299 599.619C664.468 599.515 664.611 599.373 664.715 599.204C667.039 595.902 656.273 585.842 652.47 584.806C644.913 582.9 637.153 581.908 629.359 581.852C624.766 585.246 622.287 604.169 622.295 604.177Z" fill="#F7A9A0"/>
<path d="M639.246 594.355C641.917 594.868 644.449 595.941 646.674 597.503C649.478 599.49 651.321 601.756 653.645 604.06C653.707 604.122 653.645 604.223 653.552 604.161C652.444 603.063 647.836 598.933 646.635 597.975C644.478 596.233 641.951 595.006 639.246 594.386C639.246 594.386 639.215 594.355 639.246 594.355Z" fill="#263238"/>
<path d="M641.514 589.646C644.506 590.459 647.407 591.573 650.173 592.972C653.14 594.603 655.409 597.186 657.647 599.668C658.995 601.161 660.304 602.677 661.582 604.231C661.636 604.293 661.543 604.393 661.489 604.331C659.222 601.754 656.875 599.259 654.449 596.846C652.221 594.581 649.564 592.78 646.634 591.549C644.953 590.845 643.226 590.273 641.507 589.7C641.452 589.685 641.452 589.639 641.514 589.646Z" fill="#263238"/>
<path d="M644.826 585.571C647.684 586.259 650.186 586.847 652.687 588.479C655.994 590.628 659.139 594.186 660.247 595.438C661.463 596.83 662.632 598.261 663.786 599.707C663.833 599.769 663.732 599.846 663.685 599.792C661.044 596.613 658.198 593.609 655.166 590.798C653.746 589.438 652.123 588.306 650.356 587.442C648.562 586.666 646.704 586.045 644.803 585.586C644.803 585.586 644.81 585.563 644.826 585.571Z" fill="#263238"/>
<path d="M586.25 575.239L606.906 564.413C606.906 564.413 604.095 553.053 601.647 546.983C598.418 538.948 594.677 538.26 591.16 548.282C588.783 554.979 586.25 575.239 586.25 575.239Z" fill="#B7D487"/>
<g opacity="0.5">
<path d="M586.248 575.239L606.904 564.413C606.904 564.413 604.093 553.053 601.645 546.983C598.416 538.948 594.675 538.26 591.158 548.282C588.781 554.979 586.248 575.239 586.248 575.239Z" fill="white"/>
</g>
<path d="M587.319 572.184C590.216 570.398 593.128 568.658 596.125 567.05C597.617 566.245 599.125 565.472 600.648 564.73C602.197 563.956 603.746 563.369 605.295 562.595C605.381 562.549 605.443 562.688 605.357 562.727C603.808 563.423 602.36 564.335 600.857 565.116C599.355 565.897 597.845 566.663 596.35 567.49C593.36 569.083 590.363 570.676 587.412 572.339C587.296 572.362 587.234 572.269 587.319 572.184Z" fill="#263238"/>
<path d="M594.007 554.484C593.307 554.206 592.572 554.029 591.823 553.958C592.427 554.406 593.092 554.765 593.798 555.025C594.497 555.305 595.232 555.485 595.982 555.559C595.378 555.108 594.713 554.747 594.007 554.484ZM604.269 561.111C603.969 560.424 603.576 559.781 603.099 559.201C603.211 559.943 603.424 560.667 603.735 561.351C604.035 562.04 604.428 562.686 604.904 563.269C604.795 562.523 604.581 561.797 604.269 561.111ZM591.753 566.269C591.06 566.564 590.413 566.957 589.832 567.437C590.579 567.324 591.306 567.108 591.993 566.795C592.684 566.5 593.328 566.106 593.906 565.627C593.158 565.735 592.43 565.951 591.745 566.269H591.753Z" fill="white"/>
<path opacity="0.1" d="M604.002 565.929L586.25 575.208C586.25 575.208 588.814 554.948 591.16 548.243C592.957 543.101 594.824 540.789 596.644 540.82L604.002 565.929Z" fill="black"/>
<path d="M596.108 590.512L601.344 605.885C601.344 605.885 651.579 614.152 662.747 626.625C679.012 644.782 713.284 706.708 713.284 706.708L683.582 727.928C683.582 727.928 641.022 658.531 636.754 652.732C632.487 646.932 570.115 641.217 558.575 632.278C547.035 623.338 555.043 590.519 555.043 590.519L596.108 590.512Z" fill="#F7A9A0"/>
<path d="M748.856 721.625C747.408 723.056 696.282 747.74 693.796 747.446C693.509 747.446 686.825 737.153 686.825 737.153C684.858 733.171 666.076 703.661 666.076 703.661L701.634 683.068L718.364 715.725C718.364 715.725 726.659 715.238 734.055 715.16C738.617 715.106 742.575 715.16 743.636 715.361C746.339 715.972 750.312 720.21 748.856 721.625Z" fill="#EBEBEB"/>
<path d="M678.19 723.18L674.441 716.994C674.441 716.994 689.684 713.97 702.262 707.25C702.262 707.25 696.438 721.742 691.419 723.149C686.4 724.557 678.19 723.18 678.19 723.18Z" fill="#EBEBEB"/>
<path d="M678.192 723.18L674.319 717.109L674.203 716.924C676.666 716.352 679.129 715.718 681.561 715.006C688.988 712.913 696.18 710.062 703.023 706.5L702.628 707.451C700.389 712.493 698.105 717.635 694.248 721.68C692.296 723.876 689.143 724 686.409 724C683.655 723.986 680.908 723.727 678.2 723.226L678.192 723.18ZM678.192 723.18C680.909 723.551 683.652 723.698 686.394 723.621C689.027 723.482 691.994 723.412 693.829 721.247C697.469 717.225 699.785 712.091 701.915 707.142L702.442 707.613C698.054 709.899 693.487 711.826 688.787 713.374C684.104 714.954 679.323 716.227 674.474 717.187L674.583 716.947L678.192 723.18Z" fill="#DBDBDB"/>
<path d="M709.325 696.903L715.157 707.544C715.157 707.544 703.493 723.01 697.242 726.01C690.992 729.011 683.27 731.996 683.27 731.996L677.516 723.18C677.516 723.18 688.266 719.693 693.68 715.695C699.094 711.697 709.325 696.903 709.325 696.903Z" fill="#EBEBEB"/>
<path d="M709.328 696.903L715.307 707.467L715.369 707.559L715.299 707.652C713.247 710.405 711.094 713.065 708.871 715.679C705.447 719.546 702.094 723.621 697.571 726.227C692.924 728.493 688.184 730.449 683.397 732.359L683.103 732.475L682.932 732.212L677.201 723.381L676.945 722.987C680.443 721.85 683.872 720.513 687.215 718.981C690.391 717.481 693.543 715.849 695.975 713.297C700.901 708.263 705.138 702.564 709.328 696.903ZM709.328 696.903C705.331 702.734 701.226 708.503 696.331 713.661C693.892 716.275 690.701 718.061 687.494 719.577C684.277 721.077 680.978 722.394 677.611 723.52L677.805 722.987L683.583 731.787L683.118 731.64C687.881 729.769 692.652 727.828 697.261 725.608C701.652 723.08 705.052 719.035 708.476 715.339C710.737 712.761 712.919 710.129 715.02 707.443V707.629L709.343 696.903H709.328Z" fill="#DBDBDB"/>
<path d="M718.574 715.261C718.574 715.261 726.815 714.952 730.734 714.952C730.734 714.952 725.94 722.353 724.36 725.26C722.78 728.168 722.811 735.035 722.811 735.035L706.693 742.559C706.693 742.559 708.606 731.547 710.651 727.928C712.696 724.309 718.574 715.261 718.574 715.261Z" fill="#EBEBEB"/>
<path d="M718.576 715.261C721.798 715.122 727.87 714.843 731.123 714.72C729.102 717.952 727.065 721.192 725.175 724.487C724.699 725.246 724.327 726.065 724.067 726.922C723.423 729.578 723.114 732.303 723.146 735.034V735.266L722.944 735.359C718.932 737.254 710.846 741.027 706.819 742.876L706.199 743.162C706.872 739.209 707.787 735.302 708.941 731.462C709.979 727.804 712.372 724.703 714.363 721.525C715.749 719.421 717.143 717.334 718.568 715.261H718.576ZM718.576 715.261L714.61 721.679C712.736 724.927 710.428 727.951 709.468 731.632C708.507 735.313 707.671 738.932 707.005 742.621L706.517 742.242C710.521 740.339 718.599 736.566 722.627 734.702L722.418 735.034C722.572 731.369 722.619 727.371 724.609 724.162C726.6 720.953 728.536 717.913 730.558 714.836L730.736 715.161C727.7 715.199 721.604 715.238 718.576 715.261Z" fill="#DBDBDB"/>
<path opacity="0.1" d="M650.386 674.16C643.632 663.334 638.149 654.626 636.754 652.732C632.487 646.924 570.108 641.21 558.567 632.278C547.027 623.346 555.036 590.52 555.036 590.52H596.085L601.32 605.893C601.32 605.893 630.264 610.656 649.1 618.413L650.386 674.16Z" fill="black"/>
<path d="M675.967 755.845C674.031 756.487 617.252 756.123 615.153 754.77C614.897 754.631 614.827 749.496 614.835 742.482V742.343C614.835 737.897 614.061 699.896 614.061 699.896L650.091 699.703L651.237 737.123C651.237 737.123 658.897 740.34 665.566 743.534C669.686 745.49 673.257 747.277 674.085 747.926C676.207 749.658 677.904 755.219 675.967 755.845Z" fill="#F7A9A0"/>
<path d="M650.504 725.507L614.559 725.592C614.559 725.592 611.771 649.994 607.31 647.945C599.804 644.504 570.481 645.107 553.628 632.943C539.942 623.068 551.25 590.512 551.25 590.512H587.482C587.482 590.512 592.447 601.988 593.275 605.467C593.275 605.467 628.322 615.087 640.42 628.334C651.914 640.931 650.504 725.507 650.504 725.507Z" fill="#F7A9A0"/>
<path d="M639.685 749.218C639.685 749.218 644.998 741.485 649.142 739.737C651.723 738.654 654.583 738.421 657.305 739.072C658.134 739.149 673.129 746.032 675.119 747.926C677.11 749.821 678.318 755.149 676.8 756.154C675.282 757.159 615.698 756.154 614.994 755.829C614.289 755.505 613.785 749.643 614.157 749.218C614.529 748.792 639.685 749.218 639.685 749.218Z" fill="#B7D487"/>
<path d="M546.515 603.271C545.214 608.491 541.093 629.865 559.287 639.269C577.48 648.672 602.698 646.275 605.564 648.169C608.43 650.064 609.119 664.966 609.119 664.966C609.119 664.966 631.34 645.169 640.332 643.592C649.324 642.014 674.193 640.637 674.193 640.637C674.193 640.637 668.485 626.927 655.923 619.472C640.502 610.324 601.343 605.885 601.343 605.885L546.515 603.271Z" fill="#B7D487"/>
<path opacity="0.5" d="M546.515 603.271C545.214 608.491 541.093 629.865 559.287 639.269C577.48 648.672 602.698 646.275 605.564 648.169C608.43 650.064 609.119 664.966 609.119 664.966C609.119 664.966 631.34 645.169 640.332 643.592C649.324 642.014 674.193 640.637 674.193 640.637C674.193 640.637 668.485 626.927 655.923 619.472C640.502 610.324 601.343 605.885 601.343 605.885L546.515 603.271Z" fill="white"/>
<path d="M574.908 604.625C574.904 604.687 574.904 604.749 574.908 604.811C574.954 604.749 575.001 604.695 575.04 604.633L574.908 604.625ZM601.489 607.587C600.791 607.305 600.055 607.128 599.305 607.061C599.909 607.509 600.574 607.868 601.28 608.128C601.978 608.41 602.714 608.587 603.464 608.654C602.858 608.209 602.194 607.85 601.489 607.587ZM558.837 603.86L557.21 603.782L557.791 604.03C558.491 604.308 559.226 604.485 559.975 604.556C559.621 604.285 559.24 604.051 558.837 603.86ZM547.994 612.033C547.693 611.343 547.296 610.697 546.816 610.116C546.929 610.859 547.145 611.582 547.459 612.265C547.753 612.958 548.147 613.605 548.629 614.183C548.532 613.442 548.331 612.718 548.032 612.033H547.994ZM584.667 609.868C583.975 610.166 583.329 610.559 582.746 611.036C584.24 610.802 585.646 610.178 586.82 609.226C586.088 609.338 585.376 609.554 584.706 609.868H584.667ZM600.529 624.754C600.243 625.45 600.065 626.185 600.002 626.935C600.887 625.713 601.437 624.281 601.598 622.782C601.163 623.388 600.816 624.052 600.568 624.754H600.529ZM548.358 626.68C548.217 627.057 548.095 627.442 547.994 627.832C548.063 627.987 548.141 628.141 548.218 628.288C548.49 627.841 548.72 627.369 548.908 626.881C549.187 626.183 549.362 625.449 549.427 624.7C548.993 625.309 548.646 625.975 548.396 626.68H548.358ZM575.83 620.602C575.545 621.298 575.365 622.033 575.295 622.782C576.196 621.58 576.76 620.16 576.929 618.668C576.488 619.261 576.131 619.911 575.868 620.602H575.83ZM594.054 635.464C593.359 635.176 592.626 634.988 591.878 634.908C592.485 635.356 593.152 635.718 593.86 635.983C594.56 636.261 595.295 636.438 596.044 636.508C595.448 636.068 594.79 635.717 594.093 635.464H594.054ZM592.505 616.905C591.81 616.617 591.077 616.43 590.329 616.348C591.55 617.238 592.984 617.79 594.488 617.949C593.883 617.504 593.218 617.148 592.513 616.89L592.505 616.905ZM557.35 620.455C556.65 620.176 555.915 619.996 555.166 619.921C555.768 620.377 556.437 620.74 557.148 620.996C557.847 621.275 558.583 621.452 559.333 621.522C558.727 621.072 558.063 620.708 557.358 620.439L557.35 620.455ZM567 613.155C566.704 612.463 566.31 611.817 565.831 611.237C565.939 611.981 566.156 612.705 566.474 613.387C566.772 614.077 567.166 614.723 567.643 615.304C567.539 614.556 567.325 613.826 567.008 613.139L567 613.155ZM599.762 643.383C599.481 644.081 599.301 644.815 599.228 645.564C599.681 644.96 600.044 644.293 600.304 643.584C600.584 642.886 600.761 642.152 600.831 641.403C600.386 642.005 600.029 642.666 599.77 643.368L599.762 643.383ZM582.94 642.904C582.659 643.601 582.479 644.336 582.405 645.084C583.296 643.865 583.849 642.433 584.009 640.932C583.564 641.53 583.207 642.189 582.947 642.888L582.94 642.904ZM557.954 638.179C557.66 637.488 557.266 636.845 556.784 636.269C556.879 636.927 557.061 637.569 557.327 638.179C557.598 638.341 557.869 638.511 558.155 638.666C558.101 638.488 558.031 638.326 557.962 638.163L557.954 638.179ZM574.722 635.627C574.421 634.938 574.025 634.296 573.545 633.717C573.657 634.46 573.874 635.183 574.188 635.867C574.481 636.557 574.875 637.201 575.357 637.777C575.25 637.029 575.039 636.3 574.73 635.611L574.722 635.627ZM585.124 627.592C584.432 627.888 583.787 628.284 583.211 628.768C583.956 628.659 584.681 628.443 585.364 628.126C586.059 627.831 586.706 627.435 587.285 626.95C586.541 627.059 585.817 627.269 585.132 627.577L585.124 627.592ZM608.917 616.905C608.225 617.2 607.579 617.591 606.996 618.065C608.488 617.829 609.893 617.208 611.07 616.263C610.323 616.364 609.597 616.58 608.917 616.905ZM564.653 627.948C563.961 628.244 563.314 628.637 562.733 629.116C563.478 629.01 564.203 628.797 564.886 628.482C565.579 628.184 566.226 627.788 566.807 627.306C566.062 627.419 565.338 627.635 564.653 627.948ZM642.221 613.889C642.118 614.279 642.051 614.678 642.02 615.08C642.273 614.752 642.494 614.4 642.678 614.028L642.221 613.889ZM619.226 624.221C618.947 624.919 618.77 625.653 618.699 626.401C619.15 625.8 619.511 625.136 619.768 624.429C620.046 623.731 620.224 622.997 620.294 622.249C619.857 622.855 619.505 623.519 619.249 624.221H619.226ZM638.008 642.896C637.814 643.397 637.666 643.915 637.566 644.442C637.713 644.381 637.86 644.319 638 644.272C638.21 643.893 638.393 643.501 638.55 643.097C638.828 642.399 639.006 641.664 639.076 640.916C638.634 641.522 638.282 642.189 638.031 642.896H638.008ZM655.047 639.803C654.769 640.502 654.589 641.235 654.512 641.983C654.963 641.381 655.326 640.717 655.589 640.011C655.869 639.314 656.046 638.579 656.116 637.831C655.677 638.432 655.322 639.09 655.062 639.787L655.047 639.803ZM619.419 641.898C618.72 641.618 617.985 641.438 617.235 641.365C617.837 641.818 618.503 642.18 619.21 642.44C619.909 642.718 620.645 642.895 621.394 642.965C620.806 642.511 620.157 642.141 619.466 641.867L619.419 641.898ZM618.49 610.672C617.791 610.392 617.055 610.212 616.306 610.139C617.55 611.029 619.01 611.571 620.535 611.709C619.924 611.261 619.251 610.907 618.536 610.657L618.49 610.672ZM637.179 624.081C636.479 623.802 635.744 623.623 634.995 623.548C635.601 623.998 636.269 624.36 636.977 624.623C637.676 624.902 638.412 625.079 639.162 625.149C638.553 624.704 637.886 624.344 637.179 624.081ZM653.839 621.885C653.542 621.196 653.151 620.55 652.677 619.967C652.784 620.711 652.998 621.435 653.312 622.117C653.612 622.807 654.006 623.452 654.481 624.035C654.375 623.291 654.158 622.566 653.839 621.885ZM628.559 634.815C628.263 634.123 627.869 633.477 627.389 632.897C627.498 633.643 627.715 634.37 628.032 635.055C628.326 635.745 628.72 636.389 629.201 636.965C629.092 636.221 628.876 635.497 628.559 634.815ZM609.498 650.428C609.202 649.734 608.806 649.088 608.321 648.51C608.436 649.253 608.652 649.976 608.963 650.66C609.263 651.352 609.659 651.997 610.141 652.578C610.032 651.834 609.815 651.11 609.498 650.428ZM665.689 630.995C664.997 631.29 664.351 631.68 663.768 632.155C665.26 631.919 666.664 631.298 667.842 630.353C667.097 630.462 666.372 630.678 665.689 630.995ZM629.248 614.802C628.555 615.097 627.908 615.49 627.327 615.969C628.074 615.857 628.801 615.641 629.488 615.328C630.179 615.033 630.823 614.639 631.401 614.16C630.656 614.269 629.931 614.485 629.248 614.802ZM645.714 633.005C645.022 633.303 644.376 633.696 643.793 634.173C644.54 634.067 645.268 633.853 645.954 633.539C646.646 633.238 647.292 632.842 647.875 632.364C647.127 632.48 646.4 632.701 645.714 633.021V633.005ZM610.505 663.752L610.9 663.412C610.921 663.307 610.934 663.201 610.938 663.095C610.777 663.302 610.632 663.522 610.505 663.752ZM616.647 658.3L616.84 658.447L616.964 658.346C616.865 658.324 616.764 658.308 616.662 658.3H616.647ZM627.312 649.6C627.342 649.862 627.394 650.121 627.466 650.374L627.738 650.18C627.606 649.987 627.505 649.801 627.312 649.6ZM672.574 638.094C672.277 637.405 671.884 636.761 671.405 636.184C671.515 636.927 671.731 637.651 672.047 638.333C672.345 639.025 672.738 639.67 673.217 640.251C673.104 639.511 672.888 638.79 672.574 638.109V638.094ZM609.575 633.005C608.884 633.303 608.237 633.696 607.654 634.173C608.402 634.067 609.129 633.853 609.815 633.539C610.505 633.239 611.149 632.844 611.728 632.364C610.983 632.481 610.259 632.702 609.575 633.021V633.005Z" fill="white"/>
<path opacity="0.1" d="M591.824 610.022C599.848 611.399 611.551 613.116 619.707 614.392L626.677 615.528C633.787 616.48 640.084 621.228 643.639 627.314C640.208 622.264 635.119 618.235 629.14 616.704C627.405 616.294 621.449 615.459 619.59 615.157C610.296 613.611 601.002 612.203 591.816 610.022H591.824Z" fill="black"/>
<path opacity="0.1" d="M605.047 611.005C610.871 611.461 616.587 612.08 622.419 612.389C616.593 613.064 610.692 612.594 605.047 611.005Z" fill="black"/>
<path d="M601.344 605.885L546.516 603.271C546.307 602.745 560.813 554.398 583.452 539.752C587.441 537.177 595 539.528 596.828 542.296C604.062 553.215 601.344 605.885 601.344 605.885Z" fill="#B7D487"/>
<g opacity="0.5">
<path d="M601.34 605.886L546.512 603.272C546.303 602.746 560.81 554.399 583.449 539.753C587.437 537.178 594.997 539.529 596.824 542.297C604.058 553.216 601.34 605.886 601.34 605.886Z" fill="white"/>
</g>
<path d="M587.101 544.362C586.823 545.06 586.645 545.794 586.575 546.542C587.026 545.939 587.388 545.275 587.651 544.57C587.926 543.871 588.104 543.137 588.178 542.39C587.727 542.992 587.364 543.656 587.101 544.362ZM579.953 572.641C579.674 573.339 579.497 574.074 579.426 574.822C580.319 573.604 580.87 572.171 581.021 570.669C580.576 571.274 580.216 571.938 579.953 572.641ZM556.632 583.962C556.352 584.663 556.175 585.4 556.105 586.151C556.555 585.544 556.917 584.878 557.182 584.171C557.459 583.473 557.634 582.739 557.701 581.99C557.257 582.596 556.897 583.26 556.632 583.962ZM575.414 602.638C575.164 603.277 574.995 603.944 574.91 604.625H575.019C575.404 604.068 575.718 603.465 575.956 602.831C576.235 602.133 576.412 601.399 576.483 600.65C576.035 601.259 575.675 601.928 575.414 602.638ZM592.453 599.544C592.176 600.243 591.996 600.977 591.919 601.725C592.375 601.129 592.738 600.466 592.995 599.761C593.278 599.064 593.455 598.329 593.522 597.58C593.075 598.177 592.713 598.833 592.445 599.529L592.453 599.544ZM566.507 561.699C566.228 562.397 566.051 563.132 565.98 563.88C566.863 562.656 567.415 561.226 567.584 559.727C567.128 560.323 566.763 560.982 566.499 561.684L566.507 561.699ZM594.01 554.484C593.311 554.206 592.575 554.029 591.826 553.958C592.43 554.406 593.095 554.766 593.801 555.025C594.5 555.305 595.235 555.485 595.985 555.559C595.381 555.109 594.716 554.747 594.01 554.484ZM601.755 577.126L601.197 576.887C600.501 576.609 599.768 576.432 599.021 576.361C599.62 576.813 600.283 577.173 600.988 577.428C601.244 577.521 601.507 577.614 601.763 577.691C601.794 577.521 601.786 577.335 601.778 577.15L601.755 577.126ZM557.972 603.465C557.273 603.183 556.538 603.004 555.788 602.932C556.22 603.262 556.691 603.54 557.19 603.759L558.816 603.836C558.576 603.72 558.282 603.604 557.995 603.488L557.972 603.465ZM574.546 583.785C573.846 583.499 573.108 583.32 572.355 583.251C572.961 583.701 573.629 584.063 574.337 584.326C575.037 584.602 575.772 584.777 576.521 584.844C575.923 584.409 575.266 584.06 574.57 583.808L574.546 583.785ZM579.689 557.817C579.394 557.125 579 556.479 578.52 555.899C578.751 557.392 579.377 558.796 580.332 559.967C580.228 559.232 580.02 558.516 579.712 557.84L579.689 557.817ZM591.206 581.604C590.907 580.914 590.513 580.268 590.037 579.686C590.146 580.429 590.36 581.153 590.672 581.836C590.97 582.526 591.364 583.172 591.841 583.754C591.738 583.02 591.532 582.304 591.229 581.627L591.206 581.604ZM565.926 594.533C565.627 593.844 565.23 593.201 564.749 592.623C564.863 593.366 565.079 594.09 565.392 594.773C565.685 595.464 566.079 596.107 566.561 596.683C566.456 595.95 566.251 595.234 565.949 594.557L565.926 594.533ZM601.174 591.897C601.389 591.874 601.601 591.835 601.809 591.781C601.809 591.665 601.809 591.549 601.809 591.433C601.584 591.568 601.372 591.724 601.174 591.897ZM566.631 574.59C565.938 574.885 565.291 575.278 564.71 575.758C565.457 575.645 566.184 575.429 566.871 575.116C567.562 574.821 568.206 574.427 568.784 573.948C568.039 574.057 567.314 574.273 566.631 574.59ZM583.097 592.794C582.405 593.094 581.759 593.49 581.176 593.969C582.673 593.73 584.08 593.103 585.258 592.152C584.513 592.253 583.785 592.459 583.097 592.763V592.794ZM549.383 594.201L549.127 594.928C549.782 594.636 550.395 594.256 550.947 593.799C550.413 593.861 549.888 593.986 549.383 594.17V594.201ZM591.748 566.3C591.055 566.595 590.408 566.988 589.828 567.468C590.574 567.355 591.302 567.139 591.989 566.826C592.679 566.531 593.324 566.138 593.902 565.658C593.158 565.757 592.433 565.963 591.748 566.269V566.3Z" fill="white"/>
<path d="M576.745 545.305C562.866 561.544 546.33 594.735 550.303 600.983C554.726 607.896 576.304 587.605 576.133 586.367C576.01 585.439 579.743 566.262 584.297 551.785C588.851 537.309 580.176 541.338 576.745 545.305Z" fill="#F7A9A0"/>
<path d="M550.055 600.495C553.23 605.452 562.385 606.736 585.117 612.134C588.262 612.907 599.244 590.589 595.96 589.615C591.778 588.393 575.56 586.104 574.32 585.973C563.849 584.89 547.925 597.139 550.055 600.495Z" fill="#F7A9A0"/>
<path d="M589.036 588.401C589.036 588.401 598.555 589.221 604.836 590.288C608.344 590.884 614.262 592.446 616.64 594.062C620.195 596.475 633.501 608.848 630.581 612.134C627.924 615.111 617.832 603.032 617.832 603.032C617.832 603.032 629.094 614.322 625.229 617.323C621.364 620.323 611.799 605.151 611.799 605.151C611.799 605.151 623.099 617.014 618.63 619.473C615.253 621.336 605.804 608.09 605.804 608.09C605.804 608.09 615.455 618.351 612.062 620.416C608.306 622.69 598.849 611.013 598.849 611.013C589.346 614.81 583.266 612.729 579.122 610.742C578.084 610.263 589.036 588.401 589.036 588.401Z" fill="#F7A9A0"/>
<path d="M614.185 598.879C615.556 600.155 616.95 601.439 618.205 602.839C619.459 604.238 620.66 605.677 621.775 607.177C623.269 609.119 624.539 611.223 625.563 613.448C623.464 609.628 619.057 604.563 617.817 603.171C616.578 601.779 615.385 600.318 614.138 598.926C614.1 598.887 614.154 598.848 614.185 598.879Z" fill="#263238"/>
<path d="M609.059 603.302C610.739 605.011 612.467 606.643 614.07 608.421C615.673 610.2 617.021 612.025 618.492 613.896C618.608 614.043 618.492 614.059 618.368 613.896C616.819 612.079 615.27 610.509 613.721 608.715C612.172 606.921 610.662 605.05 609.036 603.302C608.989 603.31 609.036 603.271 609.059 603.302Z" fill="#263238"/>
<path d="M603.964 606.295C606.603 608.852 608.97 611.674 611.027 614.717C611.136 614.863 610.981 614.863 610.865 614.717C608.541 611.871 606.791 609.62 603.894 606.38C603.832 606.349 603.909 606.249 603.964 606.295Z" fill="#263238"/>
<path d="M601.81 589.824C604.687 590.197 607.544 590.713 610.369 591.371C612.476 591.912 614.729 592.384 616.565 593.629C621.739 597.495 626.634 602.243 629.894 607.858C629.082 606.665 628.183 605.533 627.207 604.471C624.322 601.255 621.189 598.271 617.835 595.547C616.788 594.602 615.592 593.836 614.296 593.281C610.268 591.734 605.985 590.868 601.803 589.824H601.81Z" fill="#263238"/>
<path d="M576.133 586.329C571.381 586.194 566.652 587.045 562.246 588.827C564.249 587.446 566.524 586.509 568.919 586.079C571.314 585.648 573.774 585.733 576.133 586.329Z" fill="#263238"/>
<path d="M558.762 564.599L582.067 565.627C582.067 565.627 585.374 554.399 586.319 547.918C587.581 539.358 584.685 536.883 576.606 543.774C571.193 548.382 558.762 564.599 558.762 564.599Z" fill="#B7D487"/>
<g opacity="0.5">
<path d="M558.752 564.599L582.057 565.627C582.057 565.627 585.364 554.399 586.309 547.918C587.572 539.358 584.675 536.883 576.597 543.774C571.183 548.382 558.752 564.599 558.752 564.599Z" fill="white"/>
</g>
<path d="M580.463 565.558C581.005 565.465 581.539 565.411 582.074 565.372L581.818 565.55C582.988 560.91 584.212 556.325 585.799 551.816C585.453 554.181 584.978 556.525 584.374 558.838C583.77 561.228 583.073 563.594 582.237 565.914C581.64 565.826 581.048 565.707 580.463 565.558Z" fill="#263238"/>
<path d="M584.717 556.03C585.251 555.095 585.762 554.19 586.336 553.293C586.297 553.843 586.13 554.377 585.849 554.852C585.569 555.327 585.181 555.731 584.717 556.03Z" fill="#263238"/>
<path d="M573.288 547.029C573.001 547.33 572.715 547.64 572.428 547.965C573.496 547.639 574.492 547.114 575.364 546.418C574.645 546.518 573.946 546.724 573.288 547.029ZM579.701 557.855C579.405 557.163 579.012 556.517 578.531 555.937C578.763 557.43 579.389 558.834 580.344 560.005C580.239 559.256 580.025 558.527 579.709 557.84L579.701 557.855ZM566.488 561.722C566.209 562.42 566.032 563.154 565.961 563.902C566.843 562.678 567.396 561.248 567.564 559.75C567.116 560.339 566.756 560.99 566.495 561.683L566.488 561.722Z" fill="white"/>
<path d="M561.224 562.495C564.624 562.41 568.024 562.371 571.424 562.495C573.118 562.557 574.812 562.642 576.505 562.75C578.201 562.858 579.89 563.137 581.578 563.222C581.671 563.222 581.656 563.377 581.578 563.369C579.898 563.199 578.17 563.253 576.482 563.168C574.794 563.083 573.09 563.013 571.393 562.951C568.009 562.827 564.616 562.696 561.224 562.65C561.116 562.634 561.131 562.495 561.224 562.495Z" fill="#263238"/>
<path d="M594.519 549.551C591.421 549.86 586.929 544.617 585.403 540.658C585.303 540.387 587.727 530.419 587.983 528.393C588.037 527.975 600.297 533.18 600.297 533.18C599.232 535.617 598.467 538.175 598.02 540.797C597.989 541.091 597.494 549.257 594.519 549.551Z" fill="#F7A9A0"/>
<path d="M597.985 541.207C597.985 541.361 597.985 541.555 597.931 541.771C597.51 541.774 597.09 541.74 596.676 541.671C589.775 540.588 588.582 531.788 588.381 528.432L588.613 528.501L589.132 528.679L589.419 528.78L589.806 528.919L590.007 528.996L590.441 529.159L591.905 529.723C591.949 529.746 591.996 529.764 592.044 529.777C592.176 529.831 592.3 529.878 592.424 529.94C593.454 530.342 594.561 530.798 595.607 531.231L595.932 531.362L597.481 532.012L597.869 532.174L598.085 532.267L598.302 532.36L598.868 532.6L599.178 532.723L599.387 532.816C599.457 532.837 599.524 532.866 599.588 532.901L600.239 533.172C599.169 535.608 598.405 538.166 597.962 540.789V541.067V541.199L597.985 541.207Z" fill="#263238"/>
<path d="M603.73 511.249C605.071 511.49 606.307 512.131 607.275 513.087C608.243 514.044 608.898 515.272 609.152 516.608C610.02 521.294 608.463 525.563 608.052 525.81C607.642 526.058 603.73 511.249 603.73 511.249Z" fill="#263238"/>
<path d="M587.138 515.169C585.588 519.67 587.571 532.87 590.708 535.909C595.262 540.302 602.93 540.959 606.725 535.445C610.404 530.102 607.499 512.942 603.999 510.166C598.802 506.075 589.407 508.527 587.138 515.169Z" fill="#F7A9A0"/>
<path d="M599.924 523.552C599.924 523.552 599.862 523.606 599.87 523.645C600.025 524.526 600.056 525.57 599.297 525.964C599.297 525.964 599.297 526.019 599.297 526.011C600.273 525.74 600.219 524.364 599.924 523.552Z" fill="#263238"/>
<path d="M598.997 522.732C597.549 522.833 597.851 525.717 599.199 525.624C600.546 525.532 600.213 522.647 598.997 522.732Z" fill="#263238"/>
<path d="M604.891 523.166C604.891 523.127 604.969 523.166 604.969 523.235C605.031 524.132 605.255 525.153 606.099 525.362V525.416C605.092 525.377 604.806 524.024 604.891 523.166Z" fill="#263238"/>
<path d="M605.595 522.145C607.02 521.89 607.438 524.759 606.114 524.998C604.789 525.238 604.394 522.361 605.595 522.145Z" fill="#263238"/>
<path d="M597.721 521.534C598.108 521.387 598.433 521.201 598.797 521.023C599.205 520.895 599.559 520.637 599.804 520.289C599.857 520.164 599.868 520.027 599.836 519.896C599.804 519.765 599.73 519.648 599.626 519.562C599.391 519.426 599.124 519.354 598.852 519.354C598.58 519.354 598.313 519.426 598.077 519.562C597.562 519.769 597.142 520.161 596.9 520.66C596.851 520.777 596.838 520.905 596.86 521.029C596.883 521.154 596.941 521.269 597.028 521.361C597.114 521.454 597.226 521.519 597.349 521.549C597.472 521.58 597.601 521.575 597.721 521.534Z" fill="#263238"/>
<path d="M606.591 520.575C606.196 520.538 605.803 520.479 605.414 520.397C604.989 520.395 604.577 520.25 604.244 519.987C604.151 519.882 604.095 519.748 604.087 519.608C604.079 519.468 604.118 519.329 604.198 519.214C604.384 519.017 604.619 518.873 604.879 518.796C605.138 518.719 605.414 518.711 605.677 518.773C606.234 518.824 606.752 519.077 607.133 519.484C607.224 519.581 607.283 519.703 607.302 519.834C607.322 519.965 607.3 520.099 607.241 520.217C607.182 520.336 607.089 520.434 606.972 520.498C606.856 520.561 606.723 520.588 606.591 520.575Z" fill="#263238"/>
<path d="M600.399 529.173C600.665 529.501 600.995 529.771 601.37 529.966C601.744 530.162 602.154 530.279 602.576 530.31C602.946 530.343 603.319 530.323 603.683 530.248C603.752 530.241 603.82 530.225 603.885 530.202L604.078 530.148C604.125 530.134 604.167 530.106 604.196 530.067C604.225 530.028 604.241 529.98 604.241 529.931C604.244 529.903 604.244 529.874 604.241 529.846V529.738C604.187 529.042 604.008 528.006 604.008 528.006C604.272 528.106 605.619 528.547 605.557 528.191C605.148 525.095 604.427 522.048 603.404 519.097C603.404 519.004 603.226 519.043 603.249 519.136C603.606 521.997 604.465 524.781 604.868 527.642C604.388 527.478 603.888 527.382 603.381 527.356C603.288 527.395 603.761 529.359 603.761 529.676C603.201 529.792 602.624 529.794 602.064 529.683C601.504 529.571 600.972 529.348 600.5 529.026C600.399 529.034 600.33 529.104 600.399 529.173Z" fill="#263238"/>
<path d="M588.601 528.748C590.236 528.872 590.979 523.908 591.08 522.036C591.173 520.381 590.584 515.347 590.584 514.999C590.584 514.651 598.205 517.883 601.807 515.912C605.408 513.94 607.228 509.926 606.903 508.302C606.578 506.678 600.924 503.662 596.742 504.358C592.559 505.054 588.129 511.542 588.129 511.542C588.636 510.628 589.069 509.673 589.422 508.689C589.322 508.519 586.882 510.174 586.812 512.176C586.812 512.176 586.812 509.679 586.603 509.679C586.394 509.679 584.768 512.177 585.581 513.623C585.581 513.623 583.637 516.229 583.923 518.556C584.21 520.884 586.688 528.594 588.601 528.748Z" fill="#263238"/>
<path d="M604.365 514.504C603.36 515.363 602.232 516.067 601.019 516.592C599.629 517.028 598.152 517.116 596.72 516.847C595.286 516.621 593.898 516.167 592.608 515.502C591.469 514.922 590.408 514.156 589.223 513.677C588.929 513.561 588.712 513.994 588.921 514.195C591.171 516.229 594.017 517.487 597.038 517.783C598.44 517.921 599.854 517.693 601.142 517.121C602.429 516.549 603.545 515.652 604.38 514.52C604.38 514.52 604.38 514.496 604.365 514.504Z" fill="#263238"/>
<path d="M590.529 525.956C590.529 525.956 587.609 521.68 585.665 522.709C583.721 523.737 585.875 529.931 588.136 530.797C588.418 530.925 588.722 530.996 589.032 531.005C589.341 531.013 589.649 530.96 589.938 530.849C590.226 530.737 590.49 530.569 590.712 530.354C590.935 530.14 591.112 529.883 591.234 529.599L590.529 525.956Z" fill="#F7A9A0"/>
<path d="M586.328 524.464C586.328 524.464 586.289 524.518 586.328 524.526C587.877 525.191 588.721 526.676 589.286 528.207C589.197 528.046 589.074 527.906 588.925 527.798C588.776 527.689 588.605 527.615 588.424 527.58C588.243 527.544 588.057 527.549 587.878 527.593C587.699 527.637 587.532 527.72 587.389 527.835C587.35 527.835 587.389 527.928 587.435 527.921C587.715 527.835 588.014 527.838 588.291 527.929C588.569 528.021 588.811 528.196 588.984 528.431C589.273 528.827 589.519 529.252 589.72 529.699C589.79 529.846 590.045 529.769 589.991 529.606V529.568C590.038 527.549 588.504 524.696 586.328 524.464Z" fill="#263238"/>
<path d="M687.067 755.829H612.373V763.717H687.067V755.829Z" fill="#263238"/>
<path d="M535.972 659.097H605.918V632.17H535.972V659.097Z" fill="#A6A6A6"/>
<path d="M547.395 723.837H605.917V720.466H547.395C544.849 720.464 542.407 719.453 540.606 717.655C538.806 715.857 537.793 713.419 537.791 710.877V572.339C537.789 568.904 536.422 565.61 533.99 563.18C531.557 560.75 528.259 559.383 524.818 559.379H516.926V562.758H524.818C527.362 562.762 529.8 563.773 531.599 565.569C533.398 567.365 534.41 569.8 534.414 572.339V710.9C534.425 714.332 535.796 717.62 538.229 720.045C540.662 722.47 543.958 723.833 547.395 723.837Z" fill="#C7C7C7"/>
<path d="M604.269 758.744H607.645V615.776C607.641 612.682 606.409 609.716 604.218 607.529C602.027 605.341 599.056 604.111 595.958 604.106H536.111V607.486H595.927C597.02 607.483 598.103 607.695 599.114 608.11C600.125 608.525 601.044 609.135 601.818 609.905C602.593 610.675 603.208 611.589 603.629 612.597C604.049 613.604 604.266 614.684 604.269 615.776V758.744Z" fill="#C7C7C7"/>
<path d="M506.467 564.305H527.402V557.6H506.467V564.305Z" fill="#263238"/>
<path d="M494.127 710.359C494.127 677.88 515.333 651.456 541.372 651.456C567.411 651.456 588.618 677.88 588.618 710.359C588.618 742.837 567.411 769.261 541.372 769.261C515.333 769.261 494.127 742.837 494.127 710.359ZM498.859 710.359C498.859 740.231 517.935 764.536 541.396 764.536C564.856 764.536 583.932 740.231 583.932 710.359C583.932 680.486 564.848 656.181 541.396 656.181C517.943 656.181 498.859 680.486 498.859 710.359Z" fill="#263238"/>
<path d="M495.838 710.359C495.838 681.569 514.597 658.146 537.662 658.146C560.727 658.146 579.485 681.569 579.485 710.359C579.485 739.149 560.727 762.572 537.662 762.572C514.597 762.572 495.838 739.149 495.838 710.359ZM499.215 710.359C499.215 737.293 516.463 759.201 537.654 759.201C558.845 759.201 576.093 737.293 576.093 710.359C576.093 683.425 558.86 661.517 537.662 661.517C516.463 661.517 499.223 683.425 499.223 710.359H499.215Z" fill="#C7C7C7"/>
<path d="M532.479 710.359C532.479 715.076 535.515 718.865 539.263 718.865C543.012 718.865 546.04 715.045 546.04 710.359C546.04 705.673 543.004 701.853 539.263 701.853C535.522 701.853 532.479 705.642 532.479 710.359Z" fill="#C7C7C7"/>
<path d="M537.089 718.896C540.832 718.896 543.866 715.074 543.866 710.359C543.866 705.644 540.832 701.821 537.089 701.821C533.347 701.821 530.312 705.644 530.312 710.359C530.312 715.074 533.347 718.896 537.089 718.896Z" fill="#DBDBDB"/>
<path d="M606.656 770.877C611.528 770.877 615.477 765.906 615.477 759.773C615.477 753.64 611.528 748.668 606.656 748.668C601.784 748.668 597.834 753.64 597.834 759.773C597.834 765.906 601.784 770.877 606.656 770.877Z" fill="#C7C7C7"/>
<path d="M603.826 770.877C608.698 770.877 612.647 765.906 612.647 759.773C612.647 753.64 608.698 748.668 603.826 748.668C598.954 748.668 595.004 753.64 595.004 759.773C595.004 765.906 598.954 770.877 603.826 770.877Z" fill="#DBDBDB"/>
</svg>
